<svg width="45" height="45" viewBox="0 0 45 45" fill="none" xmlns="http://www.w3.org/2000/svg">
<rect width="45" height="45" fill="#6D6D6D"/>
<g clip-path="url(#clip0_948_32)">
<rect width="1728" height="2210" transform="translate(-1299 -2029)" fill="white"/>
<rect x="-1304" y="-450" width="1733" height="631" fill="#383433"/>
<g clip-path="url(#clip1_948_32)">
<circle cx="23" cy="23" r="22" fill="white"/>
<mask id="mask0_948_32" style="mask-type:luminance" maskUnits="userSpaceOnUse" x="0" y="0" width="45" height="45">
<path d="M0 0H45V45H0V0Z" fill="white"/>
</mask>
<g mask="url(#mask0_948_32)">
<path fill-rule="evenodd" clip-rule="evenodd" d="M0 22.6256C0 33.8138 8.12438 43.1138 18.75 45V28.7494H13.125V22.5H18.75V17.4994C18.75 11.8744 22.3744 8.75062 27.5006 8.75062C29.1244 8.75062 30.8756 9 32.4994 9.24938V15H29.625C26.8744 15 26.25 16.3744 26.25 18.1256V22.5H32.25L31.2506 28.7494H26.25V45C36.8756 43.1138 45 33.8138 45 22.6256C45 10.1813 34.875 0 22.5 0C10.125 0 0 10.1813 0 22.6256Z" fill="#FF9A62"/>
</g>
</g>
</g>
<defs>
<clipPath id="clip0_948_32">
<rect width="1728" height="2210" fill="white" transform="translate(-1299 -2029)"/>
</clipPath>
<clipPath id="clip1_948_32">
<rect width="45" height="45" fill="white"/>
</clipPath>
</defs>
</svg>
