<svg width="386" height="264" viewBox="0 0 386 264" fill="none" xmlns="http://www.w3.org/2000/svg">
<rect width="386" height="264" fill="#6D6D6D"/>
<g clip-path="url(#clip0_948_32)">
<rect width="1728" height="2210" transform="translate(-466 -606)" fill="white"/>
<g filter="url(#filter0_d_948_32)">
<rect width="386" height="263.601" rx="20" fill="#B3FFAC" fill-opacity="0.8"/>
<rect x="0.5" y="0.5" width="385" height="262.601" rx="19.5" stroke="black" stroke-opacity="0.2"/>
<path d="M0 226.99H386V389C386 400.046 377.046 409 366 409H20C8.95431 409 0 400.046 0 389V226.99Z" fill="white"/>
</g>
<path opacity="0.8" d="M48.2776 254.248C50.0376 254.248 51.5816 254.592 52.9096 255.28C54.2536 255.968 55.2856 256.952 56.0056 258.232C56.7416 259.496 57.1096 260.968 57.1096 262.648C57.1096 264.328 56.7416 265.8 56.0056 267.064C55.2856 268.312 54.2536 269.28 52.9096 269.968C51.5816 270.656 50.0376 271 48.2776 271H42.4216V254.248H48.2776ZM48.1576 268.144C49.9176 268.144 51.2776 267.664 52.2376 266.704C53.1976 265.744 53.6776 264.392 53.6776 262.648C53.6776 260.904 53.1976 259.544 52.2376 258.568C51.2776 257.576 49.9176 257.08 48.1576 257.08H45.7816V268.144H48.1576ZM65.5288 271.216C64.2488 271.216 63.0968 270.936 62.0728 270.376C61.0488 269.8 60.2408 268.992 59.6488 267.952C59.0728 266.912 58.7848 265.712 58.7848 264.352C58.7848 262.992 59.0808 261.792 59.6728 260.752C60.2808 259.712 61.1048 258.912 62.1448 258.352C63.1848 257.776 64.3448 257.488 65.6248 257.488C66.9048 257.488 68.0648 257.776 69.1048 258.352C70.1448 258.912 70.9608 259.712 71.5528 260.752C72.1608 261.792 72.4648 262.992 72.4648 264.352C72.4648 265.712 72.1528 266.912 71.5287 267.952C70.9208 268.992 70.0888 269.8 69.0328 270.376C67.9928 270.936 66.8248 271.216 65.5288 271.216ZM65.5288 268.288C66.1368 268.288 66.7048 268.144 67.2328 267.856C67.7768 267.552 68.2088 267.104 68.5288 266.512C68.8488 265.92 69.0088 265.2 69.0088 264.352C69.0088 263.088 68.6728 262.12 68.0008 261.448C67.3448 260.76 66.5368 260.416 65.5768 260.416C64.6168 260.416 63.8088 260.76 63.1528 261.448C62.5128 262.12 62.1928 263.088 62.1928 264.352C62.1928 265.616 62.5048 266.592 63.1288 267.28C63.7688 267.952 64.5688 268.288 65.5288 268.288ZM91.4414 257.512C93.0734 257.512 94.3854 258.016 95.3774 259.024C96.3854 260.016 96.8894 261.408 96.8894 263.2V271H93.5294V263.656C93.5294 262.616 93.2654 261.824 92.7374 261.28C92.2094 260.72 91.4894 260.44 90.5774 260.44C89.6654 260.44 88.9374 260.72 88.3934 261.28C87.8654 261.824 87.6014 262.616 87.6014 263.656V271H84.2414V263.656C84.2414 262.616 83.9774 261.824 83.4494 261.28C82.9214 260.72 82.2014 260.44 81.2894 260.44C80.3614 260.44 79.6254 260.72 79.0814 261.28C78.5534 261.824 78.2894 262.616 78.2894 263.656V271H74.9294V257.704H78.2894V259.312C78.7214 258.752 79.2734 258.312 79.9454 257.992C80.6334 257.672 81.3854 257.512 82.2014 257.512C83.2414 257.512 84.1694 257.736 84.9854 258.184C85.8014 258.616 86.4334 259.24 86.8814 260.056C87.3134 259.288 87.9374 258.672 88.7534 258.208C89.5854 257.744 90.4814 257.512 91.4414 257.512ZM99.2139 264.304C99.2139 262.96 99.4779 261.768 100.006 260.728C100.55 259.688 101.278 258.888 102.19 258.328C103.118 257.768 104.15 257.488 105.286 257.488C106.278 257.488 107.142 257.688 107.878 258.088C108.63 258.488 109.23 258.992 109.678 259.6V257.704H113.062V271H109.678V269.056C109.246 269.68 108.646 270.2 107.878 270.616C107.126 271.016 106.254 271.216 105.262 271.216C104.142 271.216 103.118 270.928 102.19 270.352C101.278 269.776 100.55 268.968 100.006 267.928C99.4779 266.872 99.2139 265.664 99.2139 264.304ZM109.678 264.352C109.678 263.536 109.518 262.84 109.198 262.264C108.878 261.672 108.446 261.224 107.902 260.92C107.358 260.6 106.774 260.44 106.15 260.44C105.526 260.44 104.95 260.592 104.422 260.896C103.894 261.2 103.462 261.648 103.126 262.24C102.806 262.816 102.646 263.504 102.646 264.304C102.646 265.104 102.806 265.808 103.126 266.416C103.462 267.008 103.894 267.464 104.422 267.784C104.966 268.104 105.542 268.264 106.15 268.264C106.774 268.264 107.358 268.112 107.902 267.808C108.446 267.488 108.878 267.04 109.198 266.464C109.518 265.872 109.678 265.168 109.678 264.352ZM118.048 256.12C117.456 256.12 116.96 255.936 116.56 255.568C116.176 255.184 115.984 254.712 115.984 254.152C115.984 253.592 116.176 253.128 116.56 252.76C116.96 252.376 117.456 252.184 118.048 252.184C118.64 252.184 119.128 252.376 119.512 252.76C119.912 253.128 120.112 253.592 120.112 254.152C120.112 254.712 119.912 255.184 119.512 255.568C119.128 255.936 118.64 256.12 118.048 256.12ZM119.704 257.704V271H116.344V257.704H119.704ZM130.391 257.512C131.975 257.512 133.255 258.016 134.231 259.024C135.207 260.016 135.695 261.408 135.695 263.2V271H132.335V263.656C132.335 262.6 132.071 261.792 131.543 261.232C131.015 260.656 130.295 260.368 129.383 260.368C128.455 260.368 127.719 260.656 127.175 261.232C126.647 261.792 126.383 262.6 126.383 263.656V271H123.023V257.704H126.383V259.36C126.831 258.784 127.399 258.336 128.087 258.016C128.791 257.68 129.559 257.512 130.391 257.512Z" fill="black"/>
<path d="M216.143 74.4943C215.574 75.5532 214.933 76.5725 214.222 77.5451C210.537 82.5834 205.122 86.1399 198.977 87.5577C192.833 88.9754 186.374 88.1585 180.795 85.2579C180.217 84.956 179.657 84.6379 179.115 84.3035C178.573 83.969 178.049 83.6223 177.543 83.2634C176.929 82.8229 176.34 82.3606 175.776 81.8766C175.741 81.8475 175.707 81.8162 175.676 81.7828C172.001 78.5842 169.314 74.4334 167.923 69.8046C166.533 65.1758 166.495 60.2557 167.813 55.6065C169.131 50.9573 171.752 46.7664 175.378 43.5127C179.003 40.259 183.486 38.0737 188.315 37.2064C193.143 36.3391 198.122 36.8248 202.683 38.6081C207.244 40.3914 211.203 43.4003 214.108 47.291C217.012 51.1817 218.745 55.7974 219.109 60.6107C219.472 65.4239 218.452 70.2407 216.163 74.5106L216.143 74.4943Z" stroke="#263238" stroke-linecap="round" stroke-linejoin="round"/>
<path d="M216.226 50.6747C215.948 50.9195 215.492 50.9929 214.77 50.7726C212.178 49.9855 210.83 52.8487 211.286 52.8813C211.742 52.9139 212.057 54.2028 211.124 54.8228C210.191 55.4427 208.017 55.2306 208.158 55.871C208.299 56.5113 209.37 58.102 209.37 58.102C209.37 58.102 210.324 57.6615 210.614 58.2121C210.904 58.7628 211.191 60.2515 210.49 60.5207C210.293 60.6028 210.131 60.7491 210.032 60.9348C209.932 61.1205 209.9 61.3344 209.942 61.5403L207.847 61.418L207.516 62.9434L206.226 64.0079L205.537 63.649C205.537 63.649 204.927 62.095 204.347 63.029L203.766 63.9671L203.393 64.8073C203.393 64.8073 204.898 65.1377 205.276 65.7822L205.649 66.4266L208.918 67.332L209.175 68.2457L209.776 68.5597L209.93 70.1667L211.153 70.7948L212.373 70.8927L213.862 68.8534C214.162 69.4258 214.424 70.0172 214.646 70.6235C214.795 71.1497 214.372 72.4589 214.372 72.4589C214.127 72.9471 213.762 73.3676 213.31 73.6825C212.717 73.9844 211.991 73.1809 212.045 74.1638L212.095 75.1427L211.941 76.2317L212.862 76.7089L213.729 77.1576L214.235 77.5654" stroke="#263238" stroke-linecap="round" stroke-linejoin="round"/>
<path d="M167.119 66.2921L167.484 66.3615L169.143 64.5587L170.637 63.9632L171.707 64.5179C172.15 64.7463 172.594 63.6532 172.594 63.6532L172.308 63.3963C172.022 63.1393 172.441 61.6261 172.441 61.6261C173.264 61.7478 174.097 61.8051 174.93 61.7974C175.589 61.7199 175.9 61.7444 176.174 61.1979C176.448 60.6513 176.244 60.5412 176.244 60.5412C176.484 59.8526 176.646 59.1399 176.726 58.4162C176.726 57.7106 177.796 58.9668 177.796 58.9668L178.318 57.992L179.492 57.0784L181.019 56.0343C181.019 56.0343 183.238 55.4062 183.412 55.8793C183.586 56.3524 184.478 56.7358 184.478 56.7358L184.096 57.4496C184.096 57.4496 183.607 58.9342 183.134 59.2483C182.661 59.5623 183.325 61.8341 183.325 61.8341C182.889 62.2423 182.502 62.698 182.172 63.1923C181.881 63.7389 181.599 63.7348 181.599 63.7348L180.152 63.539C180.152 63.539 178.493 62.4011 177.945 62.1156C177.945 62.1156 176.974 63.1393 177.07 63.747C177.165 64.3548 176.73 64.3833 176.73 64.3833L178.256 65.7497L178.505 66.6062L179.418 67.8298L179.123 68.3804L178.567 69.4164L178.812 70.5462L179.803 71.8554L180.359 73.0464L180.965 74.9675L181.155 76.032L182.939 76.8192L183.727 76.4113L185.262 75.5956L185.988 77.015L186.274 77.7287L184.98 78.8504L185.432 79.7762L185.581 80.8285L185.453 82.2316L185.191 83.1289L186.257 83.6795L188.149 83.4103L188.082 81.9869C188.706 81.6231 189.365 81.3199 190.048 81.0814C190.878 80.8571 190.774 80.8693 191.766 80.5716C192.757 80.2738 192.454 80.3513 192.931 80.1923C193.408 80.0332 193.873 79.8496 193.873 79.8496L193.91 78.3691L194.694 75.6853L195.179 75.9994C195.66 76.3175 196.382 75.1836 196.382 75.1836L196.722 73.1443L195.764 72.6508C195.195 72.5385 194.618 72.4717 194.039 72.4509L192.67 71.7412L191.529 69.759C191.156 69.3582 190.835 68.9129 190.575 68.4334L191.102 67.4546L191.749 66.231L192.425 66.5817L193.047 66.9039L193.707 67.2465L194.785 66.5572L195.387 64.9013L196.216 64.1753C196.76 63.694 197.133 64.5832 197.133 64.5832L198.021 63.486C198.912 62.3929 198.178 62.8987 197.722 62.3358C197.617 62.1807 197.475 62.0539 197.307 61.967C197.14 61.8801 196.953 61.8358 196.764 61.8382L195.142 59.9335L193.869 60.3903L193.69 60.9858C193.508 61.5894 193.69 60.9858 191.82 60.2639L191.202 58.5059L191.571 58.0981L191.662 56.4666C191.662 56.4666 190.584 55.9527 189.771 55.5204C188.958 55.088 188.763 53.9786 188.763 53.9786C188.749 53.3728 188.875 52.7718 189.132 52.2207L188.717 51.0624L187.186 48.1216L187.448 46.7961L188.335 46.2455L188.688 44.4835L187.054 42.958L187.697 41.7589L188.153 40.9065L188.688 39.9113L189.103 37.8923C189.103 37.8923 189.003 37.5212 188.904 37.1011" stroke="#263238" stroke-linecap="round" stroke-linejoin="round"/>
<path d="M175.775 81.8768C175.744 81.8383 175.708 81.8041 175.668 81.7749L176.116 80.8898L175.933 79.2787L175.323 78.9606C175.323 78.9606 176.066 78.2346 176.02 77.6595C176.016 77.4901 176.057 77.3228 176.14 77.1739C176.222 77.0251 176.342 76.9 176.489 76.8111L176.29 75.7343L175.958 75.563C175.626 75.3877 175.825 74.4863 175.825 74.4863L174.407 74.7595L174.021 76.2279L172.577 76.5909C172.383 76.452 172.22 76.274 172.101 76.0686C171.981 75.8633 171.908 75.6353 171.885 75.3999C171.914 74.7147 172.179 74.8533 172.179 74.8533H173.502L174.332 73.3034L174.166 72.5611L173.565 72.2471" stroke="#263238" stroke-linecap="round" stroke-linejoin="round"/>
<path d="M173.569 72.2308C173.635 72.2675 173.208 70.375 173.208 70.375C173.208 70.375 172.677 68.9923 172.097 68.7435C171.516 68.4947 170.205 69.3757 170.205 69.3757L168.741 69.5796L168.409 71.3049" stroke="#263238" stroke-linecap="round" stroke-linejoin="round"/>
<path d="M179.463 83.2513L179.115 84.3036C178.562 83.9719 178.038 83.6252 177.543 83.2635L179.181 81.6688L179.04 79.9272C179.04 79.9272 178.742 79.2828 179.318 79.4092C179.56 79.4713 179.815 79.4606 180.05 79.3784C180.285 79.2962 180.49 79.1464 180.637 78.9483C180.982 78.5731 180.936 78.4058 181.815 78.8626C182.695 79.3195 182.753 79.6294 182.881 79.9761C183.01 80.3228 181.367 82.8026 181.367 82.8026L181.948 83.1045C181.948 83.1045 181.608 83.8794 182.184 84.0466L179.463 83.2513Z" stroke="#263238" stroke-linecap="round" stroke-linejoin="round"/>
<path d="M198.954 87.5501C195.945 88.2444 192.834 88.4088 189.767 88.0355L190.086 86.9016C190.086 86.9016 189.783 86.4081 190.999 86.5182C192.214 86.6283 193.139 86.7425 193.139 86.7425L194.105 84.9438H195.802L196.358 85.2334L196.835 85.9187L197.867 86.8975C198.241 87.0955 198.604 87.3134 198.954 87.5501Z" stroke="#263238" stroke-linecap="round" stroke-linejoin="round"/>
<path d="M198.108 70.3548L199.129 70.0366L200.02 70.9217C200.02 70.9217 201.783 71.146 201.099 71.9006C200.414 72.6551 199.095 72.647 199.095 72.647L198.618 73.5484L197.789 72.5572L197.374 71.7619L197.689 71.1787L198.108 70.3548Z" stroke="#263238" stroke-linecap="round" stroke-linejoin="round"/>
<path d="M199.576 66.5656C199.367 66.8116 199.213 67.0978 199.124 67.4058L199.061 67.7892L197.402 66.9286L198.302 65.2441L199.576 66.5656Z" stroke="#263238" stroke-linecap="round" stroke-linejoin="round"/>
<path d="M254.983 31.1301C254.984 31.6893 254.816 32.2361 254.501 32.7015C254.186 33.1669 253.737 33.5298 253.212 33.7443C252.687 33.9589 252.108 34.0154 251.551 33.9068C250.993 33.7982 250.48 33.5294 250.078 33.1342C249.675 32.7391 249.401 32.2355 249.29 31.6871C249.179 31.1387 249.235 30.5701 249.453 30.0534C249.67 29.5367 250.039 29.095 250.511 28.7843C250.984 28.4735 251.54 28.3076 252.109 28.3076C252.486 28.3071 252.86 28.3797 253.209 28.5213C253.557 28.6629 253.874 28.8707 254.141 29.1328C254.408 29.395 254.62 29.7063 254.764 30.049C254.909 30.3917 254.983 30.7591 254.983 31.1301Z" stroke="#263238" stroke-linecap="round" stroke-linejoin="round"/>
<path d="M238.744 75.5877C238.744 75.9401 238.637 76.2843 238.437 76.5769C238.237 76.8694 237.954 77.0972 237.623 77.2315C237.291 77.3658 236.927 77.4005 236.576 77.3313C236.224 77.2621 235.902 77.092 235.649 76.8425C235.395 76.5931 235.223 76.2755 235.154 75.9299C235.084 75.5842 235.12 75.2261 235.258 74.9006C235.395 74.5752 235.627 74.297 235.925 74.1014C236.223 73.9057 236.573 73.8013 236.932 73.8013C237.17 73.8013 237.406 73.8475 237.626 73.9373C237.847 74.0272 238.047 74.1588 238.215 74.3248C238.383 74.4907 238.517 74.6877 238.608 74.9044C238.698 75.1211 238.745 75.3533 238.744 75.5877Z" stroke="#263238" stroke-linecap="round" stroke-linejoin="round"/>
<path d="M186.673 19.1061C186.673 19.4598 186.567 19.8057 186.368 20.1001C186.169 20.3946 185.885 20.6242 185.553 20.7599C185.221 20.8956 184.855 20.9313 184.502 20.8625C184.15 20.7937 183.826 20.6235 183.571 20.3734C183.317 20.1233 183.144 19.8046 183.074 19.4577C183.004 19.1108 183.04 18.7513 183.178 18.4247C183.316 18.0981 183.55 17.8191 183.849 17.6231C184.148 17.4271 184.5 17.3229 184.86 17.3237C185.341 17.3237 185.802 17.5115 186.142 17.8458C186.482 18.18 186.673 18.6334 186.673 19.1061Z" stroke="#263238" stroke-linecap="round" stroke-linejoin="round"/>
<path d="M281.127 77.3862C283.614 77.3862 285.631 75.4031 285.631 72.9568C285.631 70.5105 283.614 68.5273 281.127 68.5273C278.639 68.5273 276.622 70.5105 276.622 72.9568C276.622 75.4031 278.639 77.3862 281.127 77.3862Z" stroke="#263238" stroke-linecap="round" stroke-linejoin="round"/>
<path d="M126.23 31.697C127.763 31.697 129.005 30.4754 129.005 28.9684C129.005 27.4614 127.763 26.2397 126.23 26.2397C124.697 26.2397 123.455 27.4614 123.455 28.9684C123.455 30.4754 124.697 31.697 126.23 31.697Z" stroke="#263238" stroke-linecap="round" stroke-linejoin="round"/>
<path d="M111.82 88.8759C114.496 88.8759 116.665 86.7431 116.665 84.112C116.665 81.481 114.496 79.3481 111.82 79.3481C109.145 79.3481 106.976 81.481 106.976 84.112C106.976 86.7431 109.145 88.8759 111.82 88.8759Z" stroke="#263238" stroke-linecap="round" stroke-linejoin="round"/>
<path d="M154.833 53.0078C155.605 53.0078 156.231 52.3924 156.231 51.6333C156.231 50.8742 155.605 50.2588 154.833 50.2588C154.061 50.2588 153.436 50.8742 153.436 51.6333C153.436 52.3924 154.061 53.0078 154.833 53.0078Z" stroke="#263238" stroke-linecap="round" stroke-linejoin="round"/>
<path d="M186.332 31.1748C186.444 32.1047 186.556 33.0388 186.672 33.9687" stroke="#263238" stroke-linecap="round" stroke-linejoin="round"/>
<path d="M185.274 22.5078L186.125 29.4987" stroke="#263238" stroke-linecap="round" stroke-linejoin="round"/>
<path d="M221.535 46.103C220.768 46.4416 220 46.776 219.225 47.1023" stroke="#263238" stroke-linecap="round" stroke-linejoin="round"/>
<path d="M237.587 38.2432C232.941 40.6047 228.312 43.003 223.571 45.1769" stroke="#263238" stroke-linecap="round" stroke-linejoin="round"/>
<path d="M244.489 34.8008C242.752 35.6165 241.026 36.4975 239.305 37.3663" stroke="#263238" stroke-linecap="round" stroke-linejoin="round"/>
<path d="M247.617 33.3286C247.131 33.5489 246.65 33.7732 246.169 34.0016" stroke="#263238" stroke-linecap="round" stroke-linejoin="round"/>
<path d="M226.96 67.1243C225.254 66.9231 223.548 66.7205 221.842 66.5166" stroke="#263238" stroke-linecap="round" stroke-linejoin="round"/>
<path d="M251.739 69.8446C244.143 69.0289 236.548 68.1982 228.955 67.3525" stroke="#263238" stroke-linecap="round" stroke-linejoin="round"/>
<path d="M274.711 72.2596C267.706 71.5472 260.706 70.813 253.71 70.0571" stroke="#263238" stroke-linecap="round" stroke-linejoin="round"/>
<path d="M229.743 73.1405C226.678 72.2024 223.522 71.509 220.535 70.314" stroke="#263238" stroke-linecap="round" stroke-linejoin="round"/>
<path d="M233.808 74.5926C233.111 74.2962 232.404 74.0243 231.685 73.7769" stroke="#263238" stroke-linecap="round" stroke-linejoin="round"/>
<path d="M157.741 52.4043L165.776 54.5211" stroke="#263238" stroke-linecap="round" stroke-linejoin="round"/>
<path d="M154.041 43.4639C158.346 45.8213 162.681 48.1421 167.119 50.2589" stroke="#263238" stroke-linecap="round" stroke-linejoin="round"/>
<path d="M134.339 33.0635C140.486 35.9838 146.43 39.2875 152.39 42.5505" stroke="#263238" stroke-linecap="round" stroke-linejoin="round"/>
<path d="M130.83 31.3667C131.336 31.6033 131.838 31.8439 132.336 32.0845" stroke="#263238" stroke-linecap="round" stroke-linejoin="round"/>
<path d="M162.855 73.332L164.826 72.8833" stroke="#263238" stroke-linecap="round" stroke-linejoin="round"/>
<path d="M131.609 79.8783C141.353 77.7574 151.104 75.6242 160.897 73.7603" stroke="#263238" stroke-linecap="round" stroke-linejoin="round"/>
<path d="M118.64 82.6639C122.4 81.8727 126.158 81.0651 129.913 80.2412" stroke="#263238" stroke-linecap="round" stroke-linejoin="round"/>
<path d="M97 140.275H288" stroke="#263238" stroke-linecap="round" stroke-linejoin="round"/>
<path d="M110.211 124.099C110.211 124.099 104.466 123.283 104.171 126.615C103.877 129.948 107.904 137.575 113.74 136.498V134.561C113.74 134.561 108.066 135.613 106.54 128.443C105.71 124.478 111.102 126.607 111.102 126.607L110.211 124.099Z" fill="white"/>
<mask id="mask0_948_32" style="mask-type:luminance" maskUnits="userSpaceOnUse" x="104" y="124" width="10" height="13">
<path d="M110.211 124.099C110.211 124.099 104.466 123.283 104.171 126.615C103.877 129.948 107.904 137.575 113.74 136.498V134.561C113.74 134.561 108.066 135.613 106.54 128.443C105.71 124.478 111.102 126.607 111.102 126.607L110.211 124.099Z" fill="white"/>
</mask>
<g mask="url(#mask0_948_32)">
<path opacity="0.4" d="M110.211 124.099C110.211 124.099 104.466 123.283 104.171 126.615C103.877 129.948 107.904 137.575 113.74 136.498V134.561C113.74 134.561 108.066 135.613 106.54 128.443C105.71 124.478 111.102 126.607 111.102 126.607L110.211 124.099Z" fill="#92E3A9"/>
</g>
<path d="M110.211 124.099C110.211 124.099 104.466 123.283 104.171 126.615C103.877 129.948 107.904 137.575 113.74 136.498V134.561C113.74 134.561 108.066 135.613 106.54 128.443C105.71 124.478 111.102 126.607 111.102 126.607L110.211 124.099Z" stroke="#263238" stroke-linecap="round" stroke-linejoin="round"/>
<path d="M127.321 136.498C125.687 137.811 123.488 138.668 120.527 138.668C107.668 138.668 109.137 122.488 109.137 122.488H131.921C131.921 122.488 132.784 132.085 127.321 136.498Z" fill="white"/>
<mask id="mask1_948_32" style="mask-type:luminance" maskUnits="userSpaceOnUse" x="109" y="122" width="23" height="17">
<path d="M127.321 136.498C125.687 137.811 123.488 138.668 120.527 138.668C107.668 138.668 109.137 122.488 109.137 122.488H131.921C131.921 122.488 132.784 132.085 127.321 136.498Z" fill="white"/>
</mask>
<g mask="url(#mask1_948_32)">
<path opacity="0.4" d="M127.321 136.498C125.687 137.811 123.488 138.668 120.527 138.668C107.668 138.668 109.137 122.488 109.137 122.488H113.322C113.322 122.488 113.807 129.601 116.437 133.052C119.067 136.502 127.254 136.498 127.321 136.498Z" fill="#92E3A9"/>
</g>
<path d="M127.321 136.498C125.687 137.811 123.488 138.668 120.527 138.668C107.668 138.668 109.137 122.488 109.137 122.488H131.921C131.921 122.488 132.784 132.085 127.321 136.498Z" stroke="#263238" stroke-linecap="round" stroke-linejoin="round"/>
<path d="M130.083 140.047H109.696L104.669 138.183H135.114L130.083 140.047Z" fill="white"/>
<mask id="mask2_948_32" style="mask-type:luminance" maskUnits="userSpaceOnUse" x="104" y="138" width="32" height="3">
<path d="M130.083 140.047H109.696L104.669 138.183H135.114L130.083 140.047Z" fill="white"/>
</mask>
<g mask="url(#mask2_948_32)">
<path opacity="0.4" d="M130.083 140.047H109.696L104.669 138.183H135.114L130.083 140.047Z" fill="#92E3A9"/>
</g>
<path d="M130.083 140.047H109.696L104.669 138.183H135.114L130.083 140.047Z" stroke="#263238" stroke-linecap="round" stroke-linejoin="round"/>
<path d="M136.516 137.024H103.267C103.031 137.024 102.84 137.213 102.84 137.445V138.105C102.84 138.337 103.031 138.525 103.267 138.525H136.516C136.752 138.525 136.943 138.337 136.943 138.105V137.445C136.943 137.213 136.752 137.024 136.516 137.024Z" fill="white" stroke="#263238" stroke-linecap="round" stroke-linejoin="round"/>
<path d="M119.647 104.211C114.351 108.616 123.484 115.701 119.647 118.666C119.647 118.666 123.405 117.231 121.07 112.348C118.735 107.466 119.647 104.211 119.647 104.211Z" stroke="#263238" stroke-linecap="round" stroke-linejoin="round"/>
<path d="M278.999 117.288V116.211H220.395C219.332 116.211 218.313 116.626 217.561 117.365C216.81 118.104 216.388 119.106 216.388 120.151C216.388 121.196 216.81 122.198 217.561 122.937C218.313 123.676 219.332 124.091 220.395 124.091H278.999V123.018H277.614V117.288H278.999Z" fill="white"/>
<path opacity="0.6" d="M252.797 117.288H278.999V116.211H220.395C219.332 116.211 218.313 116.626 217.561 117.365C216.81 118.104 216.388 119.106 216.388 120.151C216.388 121.196 216.81 122.198 217.561 122.937C218.313 123.676 219.332 124.091 220.395 124.091H278.999V123.018H252.797C252.027 123.018 251.289 122.717 250.744 122.182C250.2 121.647 249.894 120.92 249.894 120.163C249.894 119.406 250.2 118.68 250.744 118.144C251.289 117.609 252.027 117.308 252.797 117.308V117.288Z" fill="#92E3A9"/>
<path opacity="0.6" d="M250.736 118.128C250.462 118.394 250.245 118.712 250.098 119.063C249.951 119.413 249.878 119.789 249.881 120.168C249.881 120.925 250.187 121.651 250.732 122.186C251.276 122.722 252.015 123.023 252.785 123.023H278.987V124.095H252.839C251.776 124.095 250.757 123.68 250.006 122.941C249.254 122.202 248.832 121.2 248.832 120.155C248.832 119.11 249.254 118.108 250.006 117.369C250.757 116.63 251.776 116.215 252.839 116.215H278.999V117.292H252.797C252.414 117.29 252.035 117.362 251.681 117.506C251.327 117.649 251.006 117.861 250.736 118.128Z" fill="#92E3A9"/>
<path d="M250.736 118.128C250.462 118.394 250.245 118.712 250.098 119.063C249.951 119.413 249.878 119.789 249.881 120.168C249.881 120.925 250.187 121.651 250.732 122.186C251.276 122.722 252.015 123.023 252.785 123.023H278.987V124.095H252.839C251.776 124.095 250.757 123.68 250.006 122.941C249.254 122.202 248.832 121.2 248.832 120.155C248.832 119.11 249.254 118.108 250.006 117.369C250.757 116.63 251.776 116.215 252.839 116.215H278.999V117.292H252.797C252.414 117.29 252.035 117.362 251.681 117.506C251.327 117.649 251.006 117.861 250.736 118.128Z" stroke="#263238" stroke-linecap="round" stroke-linejoin="round"/>
<path d="M277.594 117.288V123.018" stroke="#263238" stroke-linecap="round" stroke-linejoin="round"/>
<path d="M277.593 118.328H263.868" stroke="#263238" stroke-linecap="round" stroke-linejoin="round"/>
<path d="M262.728 118.328H261.301" stroke="#263238" stroke-linecap="round" stroke-linejoin="round"/>
<path d="M254.73 120.151H267.29" stroke="#263238" stroke-linecap="round" stroke-linejoin="round"/>
<path d="M268.858 120.151H272.235" stroke="#263238" stroke-linecap="round" stroke-linejoin="round"/>
<path d="M273.222 120.151H277.594" stroke="#263238" stroke-linecap="round" stroke-linejoin="round"/>
<path d="M276.08 121.758H271.426" stroke="#263238" stroke-linecap="round" stroke-linejoin="round"/>
<path d="M258.306 121.758H257.377" stroke="#263238" stroke-linecap="round" stroke-linejoin="round"/>
<path d="M251.312 117.688C251.312 117.688 252.524 118.825 252.524 120.135C252.524 121.444 251.312 122.602 251.312 122.602" stroke="#263238" stroke-linecap="round" stroke-linejoin="round"/>
<path d="M260.073 124.091H220.395C219.332 124.091 218.313 123.676 217.561 122.937C216.81 122.198 216.388 121.196 216.388 120.151C216.388 119.106 216.81 118.104 217.561 117.365C218.313 116.626 219.332 116.211 220.395 116.211H260.073" stroke="#263238" stroke-linecap="round" stroke-linejoin="round"/>
<path d="M221.792 130.996V132.069H280.401C281.464 132.069 282.483 131.654 283.234 130.915C283.986 130.176 284.408 129.174 284.408 128.129C284.408 127.084 283.986 126.082 283.234 125.343C282.483 124.604 281.464 124.189 280.401 124.189H221.792V125.262H223.202V130.996H221.792Z" fill="white"/>
<path opacity="0.6" d="M269.629 130.996H221.792V132.069H280.401C281.464 132.069 282.483 131.654 283.234 130.915C283.986 130.176 284.408 129.174 284.408 128.129C284.408 127.084 283.986 126.082 283.234 125.343C282.483 124.604 281.464 124.189 280.401 124.189H221.792V125.262H269.629C270.402 125.262 271.144 125.564 271.691 126.101C272.238 126.639 272.545 127.369 272.545 128.129C272.545 128.889 272.238 129.619 271.691 130.156C271.144 130.694 270.402 130.996 269.629 130.996Z" fill="#92E3A9"/>
<path d="M280.401 124.189H269.588C270.651 124.189 271.67 124.604 272.421 125.343C273.173 126.082 273.595 127.084 273.595 128.129C273.595 129.174 273.173 130.176 272.421 130.915C271.67 131.654 270.651 132.069 269.588 132.069H280.401C281.464 132.069 282.483 131.654 283.235 130.915C283.986 130.176 284.408 129.174 284.408 128.129C284.408 127.084 283.986 126.082 283.235 125.343C282.483 124.604 281.464 124.189 280.401 124.189Z" fill="#92E3A9"/>
<path d="M271.691 130.156C272.105 129.757 272.389 129.244 272.504 128.685C272.62 128.126 272.562 127.545 272.339 127.018C272.116 126.491 271.737 126.043 271.252 125.729C270.767 125.416 270.197 125.253 269.617 125.262H221.792V124.189H269.588C270.65 124.189 271.669 124.604 272.421 125.343C273.172 126.082 273.594 127.084 273.594 128.129C273.594 129.174 273.172 130.176 272.421 130.915C271.669 131.654 270.65 132.069 269.588 132.069H221.792V130.996H269.629C270.012 130.997 270.391 130.923 270.745 130.779C271.099 130.634 271.42 130.423 271.691 130.156Z" stroke="#263238" stroke-linecap="round" stroke-linejoin="round"/>
<path d="M223.203 130.996V125.262" stroke="#263238" stroke-linecap="round" stroke-linejoin="round"/>
<path d="M223.203 129.952H258.559" stroke="#263238" stroke-linecap="round" stroke-linejoin="round"/>
<path d="M259.699 129.952H261.122" stroke="#263238" stroke-linecap="round" stroke-linejoin="round"/>
<path d="M267.697 128.129H249.729" stroke="#263238" stroke-linecap="round" stroke-linejoin="round"/>
<path d="M248.156 128.129H244.784" stroke="#263238" stroke-linecap="round" stroke-linejoin="round"/>
<path d="M243.797 128.129H223.203" stroke="#263238" stroke-linecap="round" stroke-linejoin="round"/>
<path d="M224.717 126.522H245.593" stroke="#263238" stroke-linecap="round" stroke-linejoin="round"/>
<path d="M264.121 126.522H265.046" stroke="#263238" stroke-linecap="round" stroke-linejoin="round"/>
<path d="M271.115 130.596C271.115 130.596 269.899 129.454 269.899 128.129C269.899 126.803 271.115 125.682 271.115 125.682" stroke="#263238" stroke-linecap="round" stroke-linejoin="round"/>
<path d="M262.35 124.189H280.401C281.464 124.189 282.483 124.604 283.234 125.343C283.986 126.082 284.408 127.084 284.408 128.129C284.408 129.174 283.986 130.176 283.234 130.915C282.483 131.654 281.464 132.069 280.401 132.069H262.35" stroke="#263238" stroke-linecap="round" stroke-linejoin="round"/>
<path d="M283.869 133.239V132.163H214.446C213.406 132.196 212.418 132.625 211.694 133.361C210.97 134.097 210.564 135.081 210.564 136.105C210.564 137.129 210.97 138.113 211.694 138.848C212.418 139.584 213.406 140.014 214.446 140.047H283.869V138.97H282.459V133.26L283.869 133.239Z" fill="white"/>
<path opacity="0.6" d="M246.845 133.239H283.869V132.163H214.446C213.406 132.196 212.418 132.625 211.694 133.361C210.97 134.097 210.564 135.081 210.564 136.105C210.564 137.129 210.97 138.113 211.694 138.848C212.418 139.584 213.406 140.014 214.446 140.047H283.869V138.97H246.845C246.075 138.97 245.337 138.669 244.792 138.134C244.248 137.598 243.942 136.872 243.942 136.115C243.942 135.358 244.248 134.631 244.792 134.096C245.337 133.561 246.075 133.26 246.845 133.26V133.239Z" fill="#92E3A9"/>
<path opacity="0.6" d="M244.788 134.08C244.514 134.346 244.297 134.664 244.15 135.014C244.003 135.364 243.93 135.74 243.933 136.119C243.933 136.876 244.239 137.603 244.784 138.138C245.328 138.673 246.067 138.974 246.837 138.974H283.861V140.031H246.891C245.85 139.998 244.863 139.568 244.138 138.832C243.414 138.097 243.009 137.113 243.009 136.089C243.009 135.064 243.414 134.081 244.138 133.345C244.863 132.609 245.85 132.179 246.891 132.146H283.869V133.223H246.845C246.461 133.224 246.082 133.3 245.728 133.447C245.375 133.594 245.055 133.809 244.788 134.08Z" fill="#92E3A9"/>
<path d="M244.788 134.08C244.514 134.346 244.297 134.664 244.15 135.014C244.003 135.364 243.93 135.74 243.933 136.119C243.933 136.876 244.239 137.603 244.784 138.138C245.328 138.673 246.067 138.974 246.837 138.974H283.861V140.031H246.891C245.85 139.998 244.863 139.568 244.138 138.832C243.414 138.097 243.009 137.113 243.009 136.089C243.009 135.064 243.414 134.081 244.138 133.345C244.863 132.609 245.85 132.179 246.891 132.146H283.869V133.223H246.845C246.461 133.224 246.082 133.3 245.728 133.447C245.375 133.594 245.055 133.809 244.788 134.08Z" stroke="#263238" stroke-linecap="round" stroke-linejoin="round"/>
<path d="M282.459 133.239V138.97" stroke="#263238" stroke-linecap="round" stroke-linejoin="round"/>
<path d="M282.459 134.279H257.92" stroke="#263238" stroke-linecap="round" stroke-linejoin="round"/>
<path d="M256.779 134.279H255.353" stroke="#263238" stroke-linecap="round" stroke-linejoin="round"/>
<path d="M248.778 136.103H261.342" stroke="#263238" stroke-linecap="round" stroke-linejoin="round"/>
<path d="M262.91 136.103H271.691" stroke="#263238" stroke-linecap="round" stroke-linejoin="round"/>
<path d="M272.683 136.103H282.459" stroke="#263238" stroke-linecap="round" stroke-linejoin="round"/>
<path d="M280.945 137.709H270.887" stroke="#263238" stroke-linecap="round" stroke-linejoin="round"/>
<path d="M252.358 137.709H251.429" stroke="#263238" stroke-linecap="round" stroke-linejoin="round"/>
<path d="M245.364 133.639C245.364 133.639 246.575 134.777 246.575 136.086C246.575 137.396 245.364 138.554 245.364 138.554" stroke="#263238" stroke-linecap="round" stroke-linejoin="round"/>
<path d="M254.125 140.03H214.447C213.909 140.047 213.374 139.958 212.872 139.767C212.371 139.577 211.914 139.289 211.527 138.921C211.141 138.554 210.834 138.113 210.624 137.627C210.415 137.14 210.307 136.617 210.307 136.088C210.307 135.559 210.415 135.036 210.624 134.55C210.834 134.063 211.141 133.622 211.527 133.255C211.914 132.887 212.371 132.599 212.872 132.409C213.374 132.218 213.909 132.129 214.447 132.146H254.125" stroke="#263238" stroke-linecap="round" stroke-linejoin="round"/>
<path d="M253.406 154.811H132.588C128.506 154.811 116.361 153.119 116.361 153.119H269.633C269.633 153.119 257.488 154.811 253.406 154.811Z" fill="#999999" stroke="#263238" stroke-linecap="round" stroke-linejoin="round"/>
<path d="M134.098 76.3662H251.897C252.295 76.3662 252.677 76.5218 252.958 76.7987C253.24 77.0756 253.398 77.4511 253.398 77.8427V148.759H132.588V77.8386C132.588 77.6444 132.628 77.4522 132.704 77.273C132.78 77.0938 132.892 76.9311 133.032 76.7944C133.172 76.6576 133.339 76.5494 133.522 76.4759C133.704 76.4024 133.9 76.3652 134.098 76.3662Z" fill="#263238"/>
<path d="M269.633 153.119H116.362C116.242 153.122 116.125 153.08 116.035 153.002C115.945 152.925 115.888 152.816 115.876 152.699C115.863 152.582 115.896 152.464 115.968 152.37C116.039 152.275 116.144 152.211 116.262 152.189L132.588 148.759H253.407L269.733 152.189C269.85 152.211 269.956 152.275 270.027 152.37C270.099 152.464 270.132 152.582 270.119 152.699C270.107 152.816 270.05 152.925 269.959 153.002C269.869 153.08 269.753 153.122 269.633 153.119Z" fill="#BFBFBF" stroke="#263238" stroke-miterlimit="10"/>
<path d="M252.071 79.5396H133.924V143.921H252.071V79.5396Z" fill="white" stroke="#263238" stroke-linecap="round" stroke-linejoin="round"/>
<path d="M195.607 146.719H190.389C190.229 146.719 190.076 146.657 189.963 146.546C189.85 146.435 189.787 146.285 189.787 146.128C189.787 146.05 189.802 145.972 189.832 145.9C189.862 145.828 189.906 145.762 189.962 145.707C190.018 145.652 190.084 145.608 190.157 145.578C190.231 145.548 190.309 145.532 190.389 145.532H195.607C195.686 145.532 195.764 145.548 195.838 145.578C195.911 145.608 195.977 145.652 196.033 145.707C196.089 145.762 196.133 145.828 196.163 145.9C196.193 145.972 196.209 146.05 196.208 146.128C196.208 146.285 196.145 146.435 196.032 146.546C195.919 146.657 195.766 146.719 195.607 146.719Z" fill="white"/>
<path d="M193.86 77.8755C193.861 78.0435 193.811 78.2079 193.717 78.348C193.623 78.488 193.488 78.5974 193.331 78.6622C193.173 78.7271 192.999 78.7444 192.832 78.7122C192.664 78.6799 192.51 78.5994 192.389 78.4809C192.268 78.3625 192.185 78.2113 192.152 78.0466C192.118 77.882 192.135 77.7112 192.2 77.5559C192.265 77.4007 192.376 77.2679 192.518 77.1745C192.66 77.0811 192.827 77.0313 192.998 77.0313C193.226 77.0312 193.444 77.1201 193.606 77.2783C193.768 77.4365 193.859 77.6512 193.86 77.8755Z" fill="white"/>
<path d="M260.126 150.937H125.868L132.92 149.305H253.074L260.126 150.937Z" stroke="#263238" stroke-linecap="round" stroke-linejoin="round"/>
<path opacity="0.15" d="M208.253 80.021C208.253 80.021 181.076 116.244 134.836 111.321V80.021H208.253Z" fill="#92E3A9"/>
<path opacity="0.3" d="M134.853 136.767C134.853 136.767 142.032 118.882 179.832 113.233C217.631 107.584 247.205 92.7013 251.142 83.9893V142.477H134.853V136.767Z" fill="#92E3A9"/>
<path opacity="0.5" d="M251.137 80.021H134.853V82.2398H251.137V80.021Z" fill="#92E3A9"/>
<path d="M134.853 82.2397H251.142" stroke="#263238" stroke-linecap="round" stroke-linejoin="round"/>
<path d="M136.45 81.0771H139.822" stroke="#263238" stroke-linecap="round" stroke-linejoin="round"/>
<path d="M143.51 81.0771H146.546" stroke="#263238" stroke-linecap="round" stroke-linejoin="round"/>
<path d="M150.478 81.0771H153.435" stroke="#263238" stroke-linecap="round" stroke-linejoin="round"/>
<g opacity="0.7">
<path d="M154.165 136.094H150.428C149.919 136.094 149.507 136.5 149.507 137V140.675C149.507 141.175 149.919 141.58 150.428 141.58H154.165C154.673 141.58 155.086 141.175 155.086 140.675V137C155.086 136.5 154.673 136.094 154.165 136.094Z" fill="#92E3A9"/>
<path d="M162.307 136.094H158.57C158.062 136.094 157.649 136.5 157.649 137V140.675C157.649 141.175 158.062 141.58 158.57 141.58H162.307C162.816 141.58 163.228 141.175 163.228 140.675V137C163.228 136.5 162.816 136.094 162.307 136.094Z" fill="#92E3A9"/>
<path d="M170.445 136.094H166.708C166.199 136.094 165.787 136.5 165.787 137V140.675C165.787 141.175 166.199 141.58 166.708 141.58H170.445C170.954 141.58 171.366 141.175 171.366 140.675V137C171.366 136.5 170.954 136.094 170.445 136.094Z" fill="#92E3A9"/>
<path d="M178.588 136.094H174.851C174.342 136.094 173.93 136.5 173.93 137V140.675C173.93 141.175 174.342 141.58 174.851 141.58H178.588C179.096 141.58 179.509 141.175 179.509 140.675V137C179.509 136.5 179.096 136.094 178.588 136.094Z" fill="#92E3A9"/>
<path d="M186.725 136.094H182.988C182.48 136.094 182.067 136.5 182.067 137V140.675C182.067 141.175 182.48 141.58 182.988 141.58H186.725C187.234 141.58 187.646 141.175 187.646 140.675V137C187.646 136.5 187.234 136.094 186.725 136.094Z" fill="#92E3A9"/>
<path d="M194.863 136.094H191.126C190.617 136.094 190.205 136.5 190.205 137V140.675C190.205 141.175 190.617 141.58 191.126 141.58H194.863C195.372 141.58 195.784 141.175 195.784 140.675V137C195.784 136.5 195.372 136.094 194.863 136.094Z" fill="#92E3A9"/>
<path d="M203.006 136.094H199.268C198.76 136.094 198.348 136.5 198.348 137V140.675C198.348 141.175 198.76 141.58 199.268 141.58H203.006C203.514 141.58 203.927 141.175 203.927 140.675V137C203.927 136.5 203.514 136.094 203.006 136.094Z" fill="#92E3A9"/>
<path d="M211.143 136.094H207.406C206.898 136.094 206.485 136.5 206.485 137V140.675C206.485 141.175 206.898 141.58 207.406 141.58H211.143C211.652 141.58 212.064 141.175 212.064 140.675V137C212.064 136.5 211.652 136.094 211.143 136.094Z" fill="#92E3A9"/>
<path d="M219.286 136.094H215.549C215.04 136.094 214.628 136.5 214.628 137V140.675C214.628 141.175 215.04 141.58 215.549 141.58H219.286C219.795 141.58 220.207 141.175 220.207 140.675V137C220.207 136.5 219.795 136.094 219.286 136.094Z" fill="#92E3A9"/>
<path d="M227.424 136.094H223.686C223.178 136.094 222.766 136.5 222.766 137V140.675C222.766 141.175 223.178 141.58 223.686 141.58H227.424C227.932 141.58 228.344 141.175 228.344 140.675V137C228.344 136.5 227.932 136.094 227.424 136.094Z" fill="#92E3A9"/>
<path d="M235.562 136.094H231.825C231.317 136.094 230.904 136.5 230.904 137V140.675C230.904 141.175 231.317 141.58 231.825 141.58H235.562C236.071 141.58 236.483 141.175 236.483 140.675V137C236.483 136.5 236.071 136.094 235.562 136.094Z" fill="#92E3A9"/>
</g>
<path opacity="0.5" d="M241.814 142.478V140.173C241.814 139.929 241.715 139.694 241.539 139.521C241.363 139.349 241.125 139.251 240.876 139.251H236.488V140.675C236.487 140.915 236.389 141.144 236.217 141.314C236.044 141.484 235.811 141.579 235.567 141.58H231.834C231.59 141.579 231.356 141.484 231.184 141.314C231.012 141.144 230.914 140.915 230.913 140.675V139.251H228.354V140.675C228.353 140.794 228.329 140.913 228.282 141.023C228.235 141.133 228.166 141.233 228.08 141.317C227.994 141.401 227.891 141.468 227.779 141.513C227.667 141.558 227.546 141.581 227.425 141.58H223.692C223.448 141.579 223.214 141.484 223.042 141.314C222.869 141.144 222.772 140.915 222.771 140.675V139.251H220.208V140.675C220.206 140.915 220.109 141.144 219.937 141.314C219.764 141.484 219.531 141.579 219.287 141.58H215.554C215.31 141.579 215.077 141.483 214.905 141.314C214.733 141.144 214.637 140.914 214.637 140.675V139.251H212.078V140.675C212.078 140.914 211.981 141.144 211.809 141.314C211.638 141.483 211.405 141.579 211.161 141.58H207.428C207.184 141.579 206.951 141.484 206.778 141.314C206.606 141.144 206.508 140.915 206.507 140.675V139.251H203.948V140.675C203.947 140.915 203.849 141.144 203.677 141.314C203.505 141.484 203.271 141.579 203.027 141.58H199.294C199.05 141.579 198.817 141.484 198.644 141.314C198.472 141.144 198.374 140.915 198.373 140.675V139.251H195.814V140.675C195.813 140.915 195.716 141.144 195.543 141.314C195.371 141.484 195.137 141.579 194.893 141.58H191.16C190.916 141.579 190.683 141.484 190.51 141.314C190.338 141.144 190.24 140.915 190.239 140.675V139.251H187.647V140.675C187.646 140.915 187.548 141.144 187.376 141.314C187.204 141.484 186.97 141.579 186.726 141.58H182.993C182.749 141.579 182.516 141.484 182.343 141.314C182.171 141.144 182.073 140.915 182.072 140.675V139.251H179.513V140.675C179.512 140.915 179.415 141.144 179.242 141.314C179.07 141.484 178.836 141.579 178.592 141.58H174.859C174.616 141.579 174.382 141.483 174.211 141.314C174.039 141.144 173.942 140.914 173.942 140.675V139.251H171.379V140.675C171.379 140.914 171.283 141.144 171.111 141.314C170.939 141.483 170.706 141.579 170.462 141.58H166.729C166.485 141.579 166.252 141.484 166.079 141.314C165.907 141.144 165.81 140.915 165.809 140.675V139.251H163.249V140.675C163.249 140.796 163.224 140.915 163.176 141.027C163.128 141.138 163.058 141.238 162.97 141.323C162.882 141.407 162.777 141.473 162.663 141.517C162.549 141.562 162.426 141.583 162.304 141.58H158.571C158.327 141.579 158.093 141.484 157.921 141.314C157.748 141.144 157.651 140.915 157.65 140.675V139.251H155.09V140.675C155.089 140.915 154.992 141.144 154.82 141.314C154.647 141.484 154.414 141.579 154.17 141.58H150.437C150.193 141.579 149.959 141.484 149.787 141.314C149.614 141.144 149.517 140.915 149.516 140.675V139.251H145.119C144.87 139.251 144.632 139.349 144.456 139.521C144.28 139.694 144.182 139.929 144.182 140.173V142.478" fill="#92E3A9"/>
<path d="M241.814 142.478V140.173C241.814 139.929 241.715 139.694 241.539 139.521C241.363 139.349 241.125 139.251 240.876 139.251H236.488V140.675C236.487 140.915 236.389 141.144 236.217 141.314C236.044 141.484 235.811 141.579 235.567 141.58H231.834C231.59 141.579 231.356 141.484 231.184 141.314C231.012 141.144 230.914 140.915 230.913 140.675V139.251H228.354V140.675C228.353 140.794 228.329 140.913 228.282 141.023C228.235 141.133 228.166 141.233 228.08 141.317C227.994 141.401 227.891 141.468 227.779 141.513C227.667 141.558 227.546 141.581 227.425 141.58H223.692C223.448 141.579 223.214 141.484 223.042 141.314C222.869 141.144 222.772 140.915 222.771 140.675V139.251H220.208V140.675C220.206 140.915 220.109 141.144 219.937 141.314C219.764 141.484 219.531 141.579 219.287 141.58H215.554C215.31 141.579 215.077 141.483 214.905 141.314C214.733 141.144 214.637 140.914 214.637 140.675V139.251H212.078V140.675C212.078 140.914 211.981 141.144 211.809 141.314C211.638 141.483 211.405 141.579 211.161 141.58H207.428C207.184 141.579 206.951 141.484 206.778 141.314C206.606 141.144 206.508 140.915 206.507 140.675V139.251H203.948V140.675C203.947 140.915 203.849 141.144 203.677 141.314C203.505 141.484 203.271 141.579 203.027 141.58H199.294C199.05 141.579 198.817 141.484 198.644 141.314C198.472 141.144 198.374 140.915 198.373 140.675V139.251H195.814V140.675C195.813 140.915 195.716 141.144 195.543 141.314C195.371 141.484 195.137 141.579 194.893 141.58H191.16C190.916 141.579 190.683 141.484 190.51 141.314C190.338 141.144 190.24 140.915 190.239 140.675V139.251H187.647V140.675C187.646 140.915 187.548 141.144 187.376 141.314C187.204 141.484 186.97 141.579 186.726 141.58H182.993C182.749 141.579 182.516 141.484 182.343 141.314C182.171 141.144 182.073 140.915 182.072 140.675V139.251H179.513V140.675C179.512 140.915 179.415 141.144 179.242 141.314C179.07 141.484 178.836 141.579 178.592 141.58H174.859C174.616 141.579 174.382 141.483 174.211 141.314C174.039 141.144 173.942 140.914 173.942 140.675V139.251H171.379V140.675C171.379 140.914 171.283 141.144 171.111 141.314C170.939 141.483 170.706 141.579 170.462 141.58H166.729C166.485 141.579 166.252 141.484 166.079 141.314C165.907 141.144 165.81 140.915 165.809 140.675V139.251H163.249V140.675C163.249 140.796 163.224 140.915 163.176 141.027C163.128 141.138 163.058 141.238 162.97 141.323C162.882 141.407 162.777 141.473 162.663 141.517C162.549 141.562 162.426 141.583 162.304 141.58H158.571C158.327 141.579 158.093 141.484 157.921 141.314C157.748 141.144 157.651 140.915 157.65 140.675V139.251H155.09V140.675C155.089 140.915 154.992 141.144 154.82 141.314C154.647 141.484 154.414 141.579 154.17 141.58H150.437C150.193 141.579 149.959 141.484 149.787 141.314C149.614 141.144 149.517 140.915 149.516 140.675V139.251H145.119C144.87 139.251 144.632 139.349 144.456 139.521C144.28 139.694 144.182 139.929 144.182 140.173V142.478" stroke="#263238" stroke-linecap="round" stroke-linejoin="round"/>
<path d="M154.165 136.094H150.428C149.919 136.094 149.507 136.5 149.507 137V140.675C149.507 141.175 149.919 141.58 150.428 141.58H154.165C154.673 141.58 155.086 141.175 155.086 140.675V137C155.086 136.5 154.673 136.094 154.165 136.094Z" stroke="#263238" stroke-miterlimit="10"/>
<path d="M162.307 136.094H158.57C158.062 136.094 157.649 136.5 157.649 137V140.675C157.649 141.175 158.062 141.58 158.57 141.58H162.307C162.816 141.58 163.228 141.175 163.228 140.675V137C163.228 136.5 162.816 136.094 162.307 136.094Z" stroke="#263238" stroke-miterlimit="10"/>
<path d="M170.445 136.094H166.708C166.199 136.094 165.787 136.5 165.787 137V140.675C165.787 141.175 166.199 141.58 166.708 141.58H170.445C170.954 141.58 171.366 141.175 171.366 140.675V137C171.366 136.5 170.954 136.094 170.445 136.094Z" stroke="#263238" stroke-miterlimit="10"/>
<path d="M178.588 136.094H174.851C174.342 136.094 173.93 136.5 173.93 137V140.675C173.93 141.175 174.342 141.58 174.851 141.58H178.588C179.096 141.58 179.509 141.175 179.509 140.675V137C179.509 136.5 179.096 136.094 178.588 136.094Z" stroke="#263238" stroke-miterlimit="10"/>
<path d="M186.725 136.094H182.988C182.48 136.094 182.067 136.5 182.067 137V140.675C182.067 141.175 182.48 141.58 182.988 141.58H186.725C187.234 141.58 187.646 141.175 187.646 140.675V137C187.646 136.5 187.234 136.094 186.725 136.094Z" stroke="#263238" stroke-miterlimit="10"/>
<path d="M194.864 136.094H191.127C190.618 136.094 190.206 136.5 190.206 137V140.675C190.206 141.175 190.618 141.58 191.127 141.58H194.864C195.373 141.58 195.785 141.175 195.785 140.675V137C195.785 136.5 195.373 136.094 194.864 136.094Z" stroke="#263238" stroke-miterlimit="10"/>
<path d="M203.006 136.094H199.268C198.76 136.094 198.348 136.5 198.348 137V140.675C198.348 141.175 198.76 141.58 199.268 141.58H203.006C203.514 141.58 203.927 141.175 203.927 140.675V137C203.927 136.5 203.514 136.094 203.006 136.094Z" stroke="#263238" stroke-miterlimit="10"/>
<path d="M211.144 136.094H207.407C206.899 136.094 206.486 136.5 206.486 137V140.675C206.486 141.175 206.899 141.58 207.407 141.58H211.144C211.653 141.58 212.065 141.175 212.065 140.675V137C212.065 136.5 211.653 136.094 211.144 136.094Z" stroke="#263238" stroke-miterlimit="10"/>
<path d="M219.286 136.094H215.549C215.04 136.094 214.628 136.5 214.628 137V140.675C214.628 141.175 215.04 141.58 215.549 141.58H219.286C219.795 141.58 220.207 141.175 220.207 140.675V137C220.207 136.5 219.795 136.094 219.286 136.094Z" stroke="#263238" stroke-miterlimit="10"/>
<path d="M227.425 136.094H223.687C223.179 136.094 222.767 136.5 222.767 137V140.675C222.767 141.175 223.179 141.58 223.687 141.58H227.425C227.933 141.58 228.345 141.175 228.345 140.675V137C228.345 136.5 227.933 136.094 227.425 136.094Z" stroke="#263238" stroke-miterlimit="10"/>
<path d="M235.562 136.094H231.825C231.317 136.094 230.904 136.5 230.904 137V140.675C230.904 141.175 231.317 141.58 231.825 141.58H235.562C236.071 141.58 236.483 141.175 236.483 140.675V137C236.483 136.5 236.071 136.094 235.562 136.094Z" stroke="#263238" stroke-miterlimit="10"/>
<path d="M222.862 111.479H163.133C162.02 111.479 160.952 111.044 160.165 110.27C159.378 109.496 158.936 108.446 158.936 107.352C158.937 106.257 159.379 105.208 160.166 104.434C160.953 103.66 162.02 103.225 163.133 103.224H222.862C223.975 103.225 225.042 103.66 225.829 104.434C226.616 105.208 227.059 106.257 227.06 107.352C227.06 108.446 226.618 109.496 225.83 110.27C225.043 111.044 223.975 111.479 222.862 111.479Z" fill="white"/>
<path d="M222.862 111.479H163.133C162.02 111.479 160.952 111.044 160.165 110.27C159.378 109.496 158.936 108.446 158.936 107.352C158.937 106.257 159.379 105.208 160.166 104.434C160.953 103.66 162.02 103.225 163.133 103.224H222.862C223.975 103.225 225.042 103.66 225.829 104.434C226.616 105.208 227.059 106.257 227.06 107.352C227.06 108.446 226.618 109.496 225.83 110.27C225.043 111.044 223.975 111.479 222.862 111.479Z" stroke="#263238" stroke-linecap="round" stroke-linejoin="round"/>
<path d="M164.514 107.164L164.24 109.738H163.182L162.635 104.909H163.386L163.8 108.718L164.165 104.909H164.912L165.289 108.747L165.704 104.909H166.38L165.833 109.738H164.792L164.514 107.164Z" fill="#263238"/>
<path d="M168.463 107.164L168.189 109.738H167.131L166.584 104.909H167.335L167.75 108.718L168.115 104.909H168.861L169.239 108.747L169.653 104.909H170.329L169.77 109.738H168.745L168.463 107.164Z" fill="#263238"/>
<path d="M172.415 107.164L172.142 109.738H171.08L170.532 104.909H171.287L171.702 108.718L172.067 104.909H172.809L173.191 108.747L173.606 104.909H174.278L173.73 109.738H172.673L172.415 107.164Z" fill="#263238"/>
<path d="M175.112 109.008V109.738H174.369V109.008H175.112Z" fill="#263238"/>
<path d="M175.676 104.909H176.895C177.667 104.909 178.048 105.317 178.048 106.104V108.551C178.048 109.322 177.667 109.742 176.895 109.742H175.676V104.909ZM176.447 105.598V109.032H176.883C177.128 109.032 177.277 108.91 177.277 108.563V106.051C177.277 105.704 177.128 105.582 176.883 105.582L176.447 105.598Z" fill="#263238"/>
<path d="M178.479 106.067C178.479 105.296 178.894 104.844 179.653 104.844C180.412 104.844 180.823 105.288 180.823 106.067V108.58C180.823 109.355 180.408 109.803 179.653 109.803C178.898 109.803 178.479 109.363 178.479 108.58V106.067ZM179.251 108.629C179.251 108.975 179.404 109.106 179.666 109.106C179.927 109.106 180.081 108.975 180.081 108.629V106.018C180.081 105.676 179.927 105.545 179.666 105.545C179.404 105.545 179.251 105.676 179.251 106.018V108.629Z" fill="#263238"/>
<path d="M182.947 108.339L183.47 104.909H184.544V109.738H183.814V106.275L183.296 109.738H182.566L182.006 106.324V109.738H181.334V104.909H182.408L182.947 108.339Z" fill="#263238"/>
<path d="M187.606 109.738H186.83L186.697 108.861H185.747L185.615 109.738H184.905L185.693 104.909H186.822L187.606 109.738ZM185.855 108.216H186.598L186.233 105.769L185.855 108.216Z" fill="#263238"/>
<path d="M187.975 104.909H188.746V109.738H187.975V104.909Z" fill="#263238"/>
<path d="M190.011 106.238V109.738H189.318V104.909H190.285L191.048 107.809V104.917H191.753V109.746H190.961L190.011 106.238Z" fill="#263238"/>
<path d="M192.998 106.238V109.738H192.301V104.909H193.271L194.051 107.8V104.909H194.74V109.738H193.947L192.998 106.238Z" fill="#263238"/>
<path d="M197.801 109.738H197.021L196.888 108.861H195.943L195.81 109.738H195.101L195.901 104.909H197.033L197.801 109.738ZM196.038 108.216H196.785L196.42 105.769L196.038 108.216Z" fill="#263238"/>
<path d="M199.788 108.339L200.306 104.909H201.38V109.738H200.65V106.275L200.132 109.738H199.402L198.842 106.324V109.738H198.17V104.909H199.219L199.788 108.339Z" fill="#263238"/>
<path d="M202.729 106.944H203.782V107.633H202.72V109.032H204.056V109.722H201.957V104.909H204.064V105.598H202.729V106.944Z" fill="#263238"/>
<path d="M205.582 104.852C206.333 104.852 206.719 105.296 206.719 106.075V106.226H205.989V106.026C205.989 105.684 205.848 105.553 205.603 105.553C205.358 105.553 205.217 105.684 205.217 106.026C205.217 106.369 205.371 106.642 205.877 107.074C206.52 107.637 206.706 108.037 206.706 108.588C206.706 109.363 206.316 109.811 205.557 109.811C204.798 109.811 204.404 109.371 204.404 108.588V108.29H205.134V108.624C205.134 108.971 205.292 109.093 205.549 109.093C205.806 109.093 205.964 108.971 205.964 108.624C205.964 108.278 205.81 108.008 205.304 107.576C204.657 107.017 204.454 106.614 204.454 106.063C204.442 105.296 204.832 104.852 205.582 104.852Z" fill="#263238"/>
<path d="M207.875 109.008V109.738H207.133V109.008H207.875Z" fill="#263238"/>
<path d="M210.605 107.939V108.58C210.605 109.355 210.215 109.803 209.456 109.803C208.697 109.803 208.303 109.363 208.303 108.58V106.067C208.303 105.296 208.718 104.844 209.456 104.844C210.194 104.844 210.605 105.288 210.605 106.067V106.536H209.875V106.018C209.875 105.676 209.721 105.545 209.46 105.545C209.199 105.545 209.045 105.676 209.045 106.018V108.625C209.045 108.971 209.203 109.094 209.46 109.094C209.717 109.094 209.875 108.971 209.875 108.625V107.935L210.605 107.939Z" fill="#263238"/>
<path d="M211.016 106.067C211.016 105.296 211.43 104.844 212.185 104.844C212.94 104.844 213.359 105.288 213.359 106.067V108.58C213.359 109.355 212.944 109.803 212.185 109.803C211.426 109.803 211.016 109.363 211.016 108.58V106.067ZM211.787 108.625C211.787 108.971 211.941 109.102 212.202 109.102C212.463 109.102 212.617 108.971 212.617 108.625V106.014C212.617 105.672 212.459 105.541 212.202 105.541C211.945 105.541 211.787 105.672 211.787 106.014V108.625Z" fill="#263238"/>
<path d="M215.487 108.339L216.006 104.909H217.08V109.738H216.35V106.275L215.811 109.738H215.085L214.521 106.324V109.738H213.845V104.909H214.919L215.487 108.339Z" fill="#263238"/>
<path d="M224.642 108.943L223.277 107.58C223.476 107.256 223.558 106.875 223.511 106.499C223.465 106.123 223.292 105.773 223.02 105.504C222.792 105.279 222.503 105.121 222.188 105.049C221.873 104.977 221.544 104.994 221.238 105.097C220.932 105.201 220.661 105.386 220.457 105.633C220.254 105.881 220.125 106.179 220.085 106.495C220.046 106.811 220.097 107.131 220.234 107.419C220.371 107.708 220.587 107.952 220.859 108.125C221.13 108.299 221.445 108.393 221.769 108.399C222.092 108.404 222.411 108.32 222.688 108.156L224.074 109.518C224.112 109.556 224.158 109.586 224.208 109.607C224.259 109.628 224.313 109.638 224.368 109.638C224.423 109.638 224.477 109.628 224.528 109.607C224.578 109.586 224.624 109.556 224.662 109.518C224.737 109.439 224.777 109.334 224.773 109.226C224.769 109.118 224.722 109.016 224.642 108.943ZM222.448 107.809C222.197 107.951 221.906 108.009 221.619 107.974C221.331 107.94 221.063 107.814 220.855 107.617C220.725 107.499 220.62 107.357 220.548 107.198C220.475 107.04 220.436 106.869 220.433 106.695C220.429 106.521 220.461 106.349 220.528 106.187C220.594 106.026 220.692 105.88 220.817 105.757C220.942 105.634 221.091 105.538 221.256 105.473C221.42 105.408 221.595 105.377 221.772 105.381C221.949 105.385 222.123 105.424 222.284 105.495C222.445 105.567 222.589 105.67 222.709 105.798C222.914 106 223.044 106.263 223.08 106.546C223.116 106.828 223.056 107.115 222.908 107.36C222.855 107.455 222.788 107.542 222.709 107.617C222.632 107.694 222.544 107.758 222.448 107.809Z" fill="#263238"/>
<path d="M187.273 162.642C186.954 161.068 186.714 160.603 184.075 159.967C182.378 159.63 180.622 159.713 178.965 160.207L178.725 160.281C178.725 160.281 178.078 158.082 177.601 157.491C177.124 156.9 174.884 151.006 174.647 150.455C174.375 150.051 174.017 149.71 173.598 149.456C172.814 148.905 171.727 148.371 170.802 148.367H170.74C169.156 148.396 163.369 148.008 163.369 148.008C163.369 148.008 162.49 146.409 161.773 145.818C161.055 145.226 158.334 144.562 157.538 144.721C157.442 144.744 157.349 144.777 157.26 144.819C156.19 145.304 153.709 147.229 153.709 147.229C153.709 147.229 153.622 147.127 153.481 146.993C153.205 146.688 152.835 146.482 152.427 146.405C151.921 146.405 149.777 145.793 148.902 146.234C148.814 146.276 148.735 146.334 148.669 146.405C148.296 146.838 146.596 148.6 145.061 150.117C144.252 150.959 143.374 151.734 142.435 152.433C141.315 153.082 139.391 153.388 138.287 153.71C137.184 154.032 133.725 157.381 133.725 157.381C130.767 157.956 120.41 158.572 113.529 158.927C109.833 159.122 102.989 160.057 102.989 160.057L113.732 191.646L116.009 190.867C122.231 188.725 139.329 182.917 141.867 182.567C144.986 182.134 146.666 180.642 148.985 180.376C151.303 180.111 153.377 179.781 156.803 180.376C160.23 180.972 165.369 178.745 169.247 177.888C173.125 177.032 174.751 174.128 175.518 172.733C176.286 171.338 177.435 170.424 179.513 169.47C181.591 168.516 182.313 167.504 183.752 166.639C185.083 165.824 187.228 164.445 187.294 162.997C187.303 162.879 187.296 162.759 187.273 162.642ZM173.586 162.642C173.586 162.642 173.171 162.846 172.905 162.618C172.439 162.334 171.948 162.093 171.437 161.896C171.673 161.264 171.255 160.464 170.923 159.808C170.641 159.176 170.394 158.529 170.184 157.87C170.184 157.87 171.673 159.95 172.113 160.265C172.304 160.424 172.525 160.545 172.764 160.619C172.911 161.327 173.184 162.003 173.569 162.618L173.586 162.642Z" fill="white"/>
<path opacity="0.4" d="M113.521 158.919C120.402 158.564 130.759 157.948 133.716 157.373C133.716 157.373 137.159 154.041 138.279 153.702C139.399 153.364 141.315 153.074 142.427 152.426C143.366 151.726 144.244 150.951 145.052 150.109C143.779 151.993 142.149 154.261 141.162 155.138C139.337 156.769 138.719 155.138 138.719 155.138C136.632 158.739 118.689 158.939 113.521 158.919Z" fill="#92E3A9"/>
<path opacity="0.4" d="M148.894 146.238C149.769 145.798 151.913 146.409 152.419 146.409C152.826 146.486 153.197 146.692 153.473 146.997C152.888 147.482 152.498 147.853 152.498 147.853C152.498 147.853 151.461 147.233 150.192 146.413C149.999 146.299 149.784 146.225 149.561 146.194C149.338 146.164 149.111 146.179 148.894 146.238Z" fill="#92E3A9"/>
<path opacity="0.4" d="M157.26 144.819C157.349 144.777 157.442 144.744 157.538 144.721C158.334 144.562 161.055 145.231 161.773 145.818C162.49 146.406 163.37 148.008 163.37 148.008C163.37 148.008 169.177 148.396 170.74 148.367H170.802C171.396 150.549 168.397 151.479 168.397 151.479C168.397 151.479 167.667 148.265 164.755 148.098C161.843 147.931 160.873 148.637 160.873 148.637C160.819 145.998 159.848 145.602 158.093 144.888C157.827 144.792 157.539 144.768 157.26 144.819Z" fill="#92E3A9"/>
<path opacity="0.4" d="M170.184 157.887C170.394 158.545 170.641 159.192 170.923 159.824C171.254 160.481 171.673 161.28 171.437 161.912C171.947 162.109 172.439 162.351 172.905 162.634C171.984 162.161 170.184 161.333 170.184 161.333C170.757 160.044 169.284 155.244 169.284 155.244C170.848 154.936 172.32 154.281 173.585 153.327C174.689 152.429 174.174 150.7 173.585 149.456C174.005 149.71 174.363 150.051 174.635 150.455C174.871 151.006 177.124 156.904 177.588 157.491C178.053 158.078 178.712 160.281 178.712 160.281L178.953 160.207C177.294 161.093 174.826 162.373 173.561 162.634C173.175 162.02 172.903 161.343 172.756 160.636C172.517 160.561 172.296 160.441 172.105 160.281C171.686 159.967 170.184 157.887 170.184 157.887Z" fill="#92E3A9"/>
<path opacity="0.4" d="M185.652 162.055C186.275 162.247 186.843 162.58 187.311 163.026C187.245 164.474 185.1 165.881 183.769 166.668C182.33 167.533 181.608 168.553 179.53 169.499C177.452 170.445 176.299 171.355 175.536 172.762C174.772 174.169 173.146 177.053 169.264 177.917C165.382 178.782 160.242 181.001 156.82 180.405C153.398 179.81 151.325 180.144 149.002 180.405C146.679 180.666 145.003 182.163 141.884 182.596C139.346 182.946 122.265 188.754 116.026 190.896C122.248 184.309 142.228 178.068 145.136 178.407C148.309 178.782 153.668 177.497 155.966 177.053C158.264 176.608 158.645 175.67 158.645 175.67C158.645 176.421 157.816 177.395 157.816 177.395C158.238 177.758 158.695 178.081 159.181 178.358C159.948 178.79 169.737 176.368 171.454 174.916C173.171 173.464 175.535 170.56 176.411 169.899C177.286 169.238 182.168 167.835 182.865 166.522C183.562 165.208 181.99 162.492 181.662 162.064C181.334 161.635 182.587 161.011 185.652 162.055Z" fill="#92E3A9"/>
<path opacity="0.4" d="M188.435 166.028V165.62C188.445 165.756 188.445 165.892 188.435 166.028Z" fill="#92E3A9"/>
<path d="M102.989 160.049C102.989 160.049 129.179 158.258 133.725 157.373C133.725 157.373 137.172 154.041 138.287 153.702C139.403 153.364 141.324 153.074 142.435 152.426C143.547 151.777 148.031 147.123 148.657 146.397C149.283 145.671 151.855 146.397 152.415 146.397C152.975 146.397 153.693 147.213 153.693 147.213C153.693 147.213 156.733 144.856 157.529 144.701C158.326 144.546 161.047 145.21 161.768 145.798C162.49 146.385 163.365 147.988 163.365 147.988C163.365 147.988 169.147 148.375 170.732 148.347C172.316 148.318 174.411 149.889 174.643 150.435C174.876 150.982 177.132 156.884 177.597 157.471C178.061 158.058 178.721 160.261 178.721 160.261C178.721 160.261 181.433 159.318 184.071 159.947C186.709 160.575 186.946 161.048 187.265 162.622C187.585 164.197 185.191 165.763 183.748 166.627C182.304 167.492 181.591 168.512 179.513 169.458C177.435 170.404 176.282 171.314 175.514 172.721C174.747 174.128 173.129 177.012 169.247 177.876C165.365 178.741 160.225 180.96 156.803 180.364C153.381 179.769 151.308 180.103 148.985 180.364C146.662 180.625 144.986 182.122 141.867 182.555C138.748 182.987 113.728 191.634 113.728 191.634" stroke="#263238" stroke-linecap="round" stroke-linejoin="round"/>
<path d="M163.369 148.008C162.289 148.039 161.238 148.362 160.333 148.942" stroke="#263238" stroke-linecap="round" stroke-linejoin="round"/>
<path d="M166.829 148.942C167.891 149.428 168.7 152.438 168.7 152.438" stroke="#263238" stroke-linecap="round" stroke-linejoin="round"/>
<path d="M169.77 156.117C169.77 156.117 170.35 158.972 170.939 159.824C171.299 160.387 171.477 161.044 171.449 161.709" stroke="#263238" stroke-linecap="round" stroke-linejoin="round"/>
<path d="M169.77 161.146C170.808 161.575 171.815 162.077 172.781 162.647C173.527 163.193 175.937 161.305 178.729 160.281" stroke="#263238" stroke-linecap="round" stroke-linejoin="round"/>
<path d="M170.002 157.161C170.53 156.805 171.132 156.57 171.765 156.472C172.964 156.235 173.967 154.465 174.253 153.327" stroke="#263238" stroke-linecap="round" stroke-linejoin="round"/>
<path d="M173.598 162.659C173.199 162.034 172.918 161.343 172.768 160.62C172.529 160.546 172.307 160.425 172.117 160.265C171.678 159.951 170.188 157.871 170.188 157.871" stroke="#263238" stroke-linecap="round" stroke-linejoin="round"/>
<path d="M172.776 160.636C172.776 160.636 174.85 160.832 176.095 159.849" stroke="#263238" stroke-linecap="round" stroke-linejoin="round"/>
<path d="M153.696 147.233C152.951 147.737 152.146 148.148 151.299 148.457" stroke="#263238" stroke-linecap="round" stroke-linejoin="round"/>
<path d="M148.923 146.222C150.263 146.1 151.3 147.079 151.461 147.233" stroke="#263238" stroke-linecap="round" stroke-linejoin="round"/>
<path d="M157.533 144.721C157.533 144.721 159.852 145.349 160.333 145.977C160.615 146.34 160.781 146.777 160.81 147.233" stroke="#263238" stroke-linecap="round" stroke-linejoin="round"/>
<path d="M133.712 157.373C133.712 157.373 135.827 157.373 137.088 156.59" stroke="#263238" stroke-linecap="round" stroke-linejoin="round"/>
<path d="M148.984 180.377C148.984 180.377 153.547 178.99 155.376 178.676C156.465 178.492 157.439 177.9 158.093 177.024" stroke="#263238" stroke-linecap="round" stroke-linejoin="round"/>
<path d="M181.438 163.426C181.438 163.426 182.611 164.939 182.234 166.493" stroke="#263238" stroke-linecap="round" stroke-linejoin="round"/>
<path d="M173.598 164.959C174.876 165.823 175.767 167.138 176.086 168.63" stroke="#263238" stroke-linecap="round" stroke-linejoin="round"/>
<path d="M153.696 149.412C153.696 149.412 149.387 153.976 146.956 155.244" stroke="#263238" stroke-linecap="round" stroke-linejoin="round"/>
<path d="M160.81 150.692C160.81 150.692 156.335 155.329 154.497 156.117" stroke="#263238" stroke-linecap="round" stroke-linejoin="round"/>
<path d="M198.697 146.691C198.763 148.139 200.908 149.546 202.239 150.333C203.678 151.198 204.4 152.217 206.478 153.164C208.556 154.11 209.709 155.019 210.473 156.426C211.236 157.834 212.862 160.717 216.744 161.582C220.627 162.447 225.766 164.665 229.188 164.07C232.61 163.474 234.684 163.809 237.006 164.07C239.329 164.331 241.005 165.828 244.124 166.26C246.663 166.611 263.743 172.419 269.982 174.56L272.259 175.339L283.006 143.734C283.006 143.734 280.31 143.615 276.614 143.42C269.733 143.065 255.228 141.633 252.27 141.058C252.27 141.058 248.828 137.726 247.708 137.387C246.588 137.049 244.672 136.759 243.56 136.111C242.621 135.411 241.743 134.636 240.934 133.794C239.379 132.277 237.699 130.531 237.326 130.082C237.26 130.011 237.181 129.953 237.093 129.911C236.218 129.471 234.074 130.082 233.568 130.082C233.161 130.159 232.79 130.365 232.514 130.67C232.373 130.804 232.286 130.906 232.286 130.906C232.286 130.906 229.797 128.981 228.736 128.496C228.647 128.454 228.553 128.421 228.458 128.398C227.661 128.239 224.94 128.908 224.223 129.495C223.505 130.082 222.626 131.685 222.626 131.685C222.626 131.685 216.84 132.073 215.255 132.044H215.193C214.268 132.044 213.181 132.583 212.397 133.133C211.978 133.387 211.62 133.728 211.348 134.132C211.111 134.683 208.859 140.581 208.395 141.168C207.93 141.755 207.27 143.958 207.27 143.958L207.03 143.885C205.373 143.39 203.617 143.307 201.92 143.644C199.282 144.276 199.041 144.745 198.722 146.32C198.696 146.442 198.688 146.566 198.697 146.691ZM212.414 146.32C212.799 145.705 213.071 145.028 213.218 144.321C213.457 144.246 213.679 144.126 213.87 143.966C214.309 143.652 215.798 141.572 215.798 141.572C215.588 142.23 215.342 142.877 215.06 143.509C214.728 144.166 214.309 144.965 214.546 145.598C214.035 145.794 213.544 146.036 213.077 146.32C212.833 146.548 212.397 146.344 212.397 146.344L212.414 146.32Z" fill="white"/>
<path opacity="0.4" d="M276.622 143.42C269.741 143.065 255.236 141.633 252.278 141.058C252.278 141.058 248.836 137.726 247.716 137.387C246.596 137.049 244.68 136.759 243.568 136.111C242.629 135.411 241.751 134.636 240.942 133.794C242.216 135.678 243.846 137.946 244.833 138.823C246.658 140.454 247.276 138.823 247.276 138.823C249.363 142.424 271.454 143.44 276.622 143.42Z" fill="#92E3A9"/>
<path opacity="0.4" d="M237.102 129.923C236.226 129.483 234.082 130.094 233.576 130.094C233.169 130.171 232.798 130.377 232.522 130.682C233.107 131.167 233.497 131.538 233.497 131.538C233.497 131.538 234.534 130.918 235.803 130.099C235.996 129.984 236.211 129.91 236.434 129.879C236.657 129.849 236.885 129.864 237.102 129.923Z" fill="#92E3A9"/>
<path opacity="0.4" d="M228.736 128.504C228.647 128.462 228.554 128.429 228.458 128.406C227.661 128.247 224.94 128.916 224.223 129.503C223.505 130.091 222.626 131.694 222.626 131.694C222.626 131.694 216.84 132.081 215.255 132.052H215.193C214.6 134.235 217.599 135.164 217.599 135.164C217.599 135.164 218.329 131.95 221.24 131.783C224.152 131.616 225.123 132.322 225.123 132.322C225.177 129.683 226.147 129.287 227.902 128.573C228.168 128.477 228.456 128.453 228.736 128.504Z" fill="#92E3A9"/>
<path opacity="0.4" d="M215.811 141.572C215.6 142.23 215.354 142.877 215.072 143.509C214.74 144.166 214.321 144.965 214.558 145.597C214.047 145.794 213.556 146.036 213.09 146.319C214.01 145.846 215.811 145.018 215.811 145.018C215.238 143.729 216.711 138.929 216.711 138.929C215.147 138.621 213.675 137.966 212.409 137.012C211.306 136.114 211.82 134.385 212.409 133.141C211.99 133.395 211.632 133.736 211.36 134.14C211.123 134.691 208.871 140.589 208.407 141.176C207.942 141.763 207.283 143.966 207.283 143.966L207.042 143.893C208.701 144.778 211.169 146.058 212.434 146.319C212.819 145.705 213.092 145.028 213.239 144.321C213.478 144.246 213.699 144.126 213.89 143.966C214.309 143.652 215.811 141.572 215.811 141.572Z" fill="#92E3A9"/>
<path opacity="0.4" d="M200.344 145.74C199.721 145.932 199.153 146.265 198.685 146.711C198.751 148.159 200.895 149.566 202.227 150.353C203.666 151.218 204.388 152.237 206.466 153.184C208.544 154.13 209.697 155.04 210.46 156.447C211.224 157.854 212.849 160.737 216.732 161.602C220.614 162.467 225.753 164.686 229.175 164.09C232.597 163.495 234.671 163.829 236.994 164.09C239.317 164.351 240.993 165.848 244.112 166.28C246.65 166.631 263.731 172.439 269.969 174.58C263.748 167.993 243.768 161.753 240.86 162.092C237.687 162.467 232.328 161.182 230.03 160.737C227.732 160.293 227.35 159.355 227.35 159.355C227.35 160.105 228.18 161.08 228.18 161.08C227.757 161.443 227.3 161.765 226.815 162.043C226.052 162.463 216.263 160.016 214.567 158.572C212.87 157.128 210.485 154.216 209.61 153.555C208.735 152.894 203.853 151.491 203.156 150.178C202.459 148.864 204.031 146.148 204.359 145.72C204.687 145.292 203.409 144.696 200.344 145.74Z" fill="#92E3A9"/>
<path opacity="0.4" d="M197.56 149.713V149.305C197.55 149.441 197.55 149.577 197.56 149.713Z" fill="#92E3A9"/>
<path d="M283.006 143.734C283.006 143.734 256.817 141.943 252.271 141.058C252.271 141.058 248.824 137.726 247.708 137.387C246.592 137.049 244.672 136.759 243.56 136.111C242.448 135.462 237.965 130.808 237.338 130.082C236.712 129.356 234.14 130.082 233.58 130.082C233.02 130.082 232.303 130.898 232.303 130.898C232.303 130.898 229.262 128.541 228.466 128.386C227.67 128.231 224.949 128.895 224.227 129.483C223.505 130.07 222.63 131.673 222.63 131.673C222.63 131.673 216.848 132.06 215.263 132.032C213.679 132.003 211.584 133.574 211.352 134.12C211.12 134.667 208.863 140.569 208.399 141.156C207.934 141.743 207.275 143.946 207.275 143.946C207.275 143.946 204.562 143.004 201.924 143.632C199.286 144.26 199.05 144.733 198.73 146.307C198.411 147.882 200.804 149.448 202.248 150.313C203.691 151.177 204.404 152.197 206.482 153.143C208.561 154.089 209.714 154.999 210.481 156.406C211.248 157.813 212.866 160.697 216.748 161.562C220.631 162.426 225.77 164.645 229.192 164.05C232.614 163.454 234.688 163.788 237.011 164.05C239.333 164.311 241.009 165.807 244.128 166.24C247.248 166.672 272.267 175.319 272.267 175.319" stroke="#263238" stroke-linecap="round" stroke-linejoin="round"/>
<path d="M222.626 131.693C223.706 131.724 224.757 132.047 225.662 132.627" stroke="#263238" stroke-linecap="round" stroke-linejoin="round"/>
<path d="M219.167 132.627C218.105 133.113 217.296 136.123 217.296 136.123" stroke="#263238" stroke-linecap="round" stroke-linejoin="round"/>
<path d="M216.226 139.802C216.226 139.802 215.645 142.657 215.056 143.509C214.696 144.072 214.518 144.729 214.546 145.394" stroke="#263238" stroke-linecap="round" stroke-linejoin="round"/>
<path d="M216.226 144.831C215.187 145.26 214.181 145.762 213.215 146.332C212.468 146.878 210.058 144.99 207.267 143.966" stroke="#263238" stroke-linecap="round" stroke-linejoin="round"/>
<path d="M215.994 140.846C215.466 140.49 214.863 140.255 214.231 140.157C213.032 139.92 212.028 138.15 211.742 137.012" stroke="#263238" stroke-linecap="round" stroke-linejoin="round"/>
<path d="M212.397 146.344C212.797 145.719 213.078 145.028 213.227 144.305C213.466 144.231 213.688 144.11 213.878 143.95C214.318 143.636 215.807 141.556 215.807 141.556" stroke="#263238" stroke-linecap="round" stroke-linejoin="round"/>
<path d="M213.219 144.321C213.219 144.321 211.145 144.517 209.9 143.534" stroke="#263238" stroke-linecap="round" stroke-linejoin="round"/>
<path d="M232.299 130.918C233.044 131.422 233.849 131.833 234.696 132.142" stroke="#263238" stroke-linecap="round" stroke-linejoin="round"/>
<path d="M237.073 129.907C235.733 129.785 234.696 130.764 234.534 130.919" stroke="#263238" stroke-linecap="round" stroke-linejoin="round"/>
<path d="M228.461 128.406C228.461 128.406 226.143 129.034 225.662 129.662C225.379 130.025 225.213 130.462 225.185 130.918" stroke="#263238" stroke-linecap="round" stroke-linejoin="round"/>
<path d="M252.283 141.058C252.283 141.058 250.167 141.058 248.906 140.275" stroke="#263238" stroke-linecap="round" stroke-linejoin="round"/>
<path d="M237.011 164.062C237.011 164.062 232.448 162.675 230.619 162.361C229.53 162.177 228.556 161.585 227.902 160.709" stroke="#263238" stroke-linecap="round" stroke-linejoin="round"/>
<path d="M204.558 147.111C204.558 147.111 203.384 148.624 203.761 150.178" stroke="#263238" stroke-linecap="round" stroke-linejoin="round"/>
<path d="M212.397 148.645C211.119 149.508 210.228 150.823 209.908 152.315" stroke="#263238" stroke-linecap="round" stroke-linejoin="round"/>
<path d="M232.299 133.097C232.299 133.097 236.608 137.661 239.039 138.929" stroke="#263238" stroke-linecap="round" stroke-linejoin="round"/>
<path d="M225.185 134.377C225.185 134.377 229.66 139.014 231.498 139.802" stroke="#263238" stroke-linecap="round" stroke-linejoin="round"/>
</g>
<defs>
<filter id="filter0_d_948_32" x="-4" y="0" width="394" height="417" filterUnits="userSpaceOnUse" color-interpolation-filters="sRGB">
<feFlood flood-opacity="0" result="BackgroundImageFix"/>
<feColorMatrix in="SourceAlpha" type="matrix" values="0 0 0 0 0 0 0 0 0 0 0 0 0 0 0 0 0 0 127 0" result="hardAlpha"/>
<feOffset dy="4"/>
<feGaussianBlur stdDeviation="2"/>
<feComposite in2="hardAlpha" operator="out"/>
<feColorMatrix type="matrix" values="0 0 0 0 0 0 0 0 0 0 0 0 0 0 0 0 0 0 0.25 0"/>
<feBlend mode="normal" in2="BackgroundImageFix" result="effect1_dropShadow_948_32"/>
<feBlend mode="normal" in="SourceGraphic" in2="effect1_dropShadow_948_32" result="shape"/>
</filter>
<clipPath id="clip0_948_32">
<rect width="1728" height="2210" fill="white" transform="translate(-466 -606)"/>
</clipPath>
</defs>
</svg>
