<svg width="386" height="264" viewBox="0 0 386 264" fill="none" xmlns="http://www.w3.org/2000/svg">
<rect width="386" height="264" fill="#6D6D6D"/>
<g clip-path="url(#clip0_948_32)">
<rect width="1728" height="2210" transform="translate(-56 -606)" fill="white"/>
<g filter="url(#filter0_d_948_32)">
<rect width="386" height="263.601" rx="20" fill="#EFA6F5" fill-opacity="0.8"/>
<rect x="0.5" y="0.5" width="385" height="262.601" rx="19.5" stroke="black" stroke-opacity="0.2"/>
<path d="M0 226.99H386V389C386 400.046 377.046 409 366 409H20C8.95431 409 0 400.046 0 389V226.99Z" fill="white"/>
</g>
<path opacity="0.8" d="M40.6955 269.6C40.6955 267.952 41.0635 266.48 41.7995 265.184C42.5515 263.872 43.5675 262.856 44.8475 262.136C46.1435 261.4 47.5915 261.032 49.1915 261.032C51.0635 261.032 52.7035 261.512 54.1115 262.472C55.5195 263.432 56.5035 264.76 57.0635 266.456H53.1995C52.8155 265.656 52.2715 265.056 51.5675 264.656C50.8795 264.256 50.0795 264.056 49.1675 264.056C48.1915 264.056 47.3195 264.288 46.5515 264.752C45.7995 265.2 45.2075 265.84 44.7755 266.672C44.3595 267.504 44.1515 268.48 44.1515 269.6C44.1515 270.704 44.3595 271.68 44.7755 272.528C45.2075 273.36 45.7995 274.008 46.5515 274.472C47.3195 274.92 48.1915 275.144 49.1675 275.144C50.0795 275.144 50.8795 274.944 51.5675 274.544C52.2715 274.128 52.8155 273.52 53.1995 272.72H57.0635C56.5035 274.432 55.5195 275.768 54.1115 276.728C52.7195 277.672 51.0795 278.144 49.1915 278.144C47.5915 278.144 46.1435 277.784 44.8475 277.064C43.5675 276.328 42.5515 275.312 41.7995 274.016C41.0635 272.72 40.6955 271.248 40.6955 269.6ZM59.0693 271.304C59.0693 269.96 59.3333 268.768 59.8613 267.728C60.4053 266.688 61.1333 265.888 62.0453 265.328C62.9733 264.768 64.0053 264.488 65.1413 264.488C66.1333 264.488 66.9973 264.688 67.7333 265.088C68.4853 265.488 69.0853 265.992 69.5333 266.6V264.704H72.9173V278H69.5333V276.056C69.1013 276.68 68.5013 277.2 67.7333 277.616C66.9813 278.016 66.1093 278.216 65.1173 278.216C63.9973 278.216 62.9733 277.928 62.0453 277.352C61.1333 276.776 60.4053 275.968 59.8613 274.928C59.3333 273.872 59.0693 272.664 59.0693 271.304ZM69.5333 271.352C69.5333 270.536 69.3733 269.84 69.0533 269.264C68.7333 268.672 68.3013 268.224 67.7573 267.92C67.2133 267.6 66.6293 267.44 66.0053 267.44C65.3813 267.44 64.8053 267.592 64.2773 267.896C63.7493 268.2 63.3173 268.648 62.9813 269.24C62.6613 269.816 62.5013 270.504 62.5013 271.304C62.5013 272.104 62.6613 272.808 62.9813 273.416C63.3173 274.008 63.7493 274.464 64.2773 274.784C64.8213 275.104 65.3973 275.264 66.0053 275.264C66.6293 275.264 67.2133 275.112 67.7573 274.808C68.3013 274.488 68.7333 274.04 69.0533 273.464C69.3733 272.872 69.5333 272.168 69.5333 271.352ZM79.559 266.768C79.991 266.064 80.551 265.512 81.239 265.112C81.943 264.712 82.743 264.512 83.639 264.512V268.04H82.751C81.695 268.04 80.895 268.288 80.351 268.784C79.823 269.28 79.559 270.144 79.559 271.376V278H76.199V264.704H79.559V266.768ZM89.2621 266.768C89.6941 266.064 90.2541 265.512 90.9421 265.112C91.6461 264.712 92.4461 264.512 93.3421 264.512V268.04H92.4541C91.3981 268.04 90.5981 268.288 90.0541 268.784C89.5261 269.28 89.2621 270.144 89.2621 271.376V278H85.9021V264.704H89.2621V266.768ZM97.3092 263.12C96.7172 263.12 96.2212 262.936 95.8212 262.568C95.4372 262.184 95.2452 261.712 95.2452 261.152C95.2452 260.592 95.4372 260.128 95.8212 259.76C96.2212 259.376 96.7172 259.184 97.3092 259.184C97.9012 259.184 98.3892 259.376 98.7732 259.76C99.1732 260.128 99.3732 260.592 99.3732 261.152C99.3732 261.712 99.1732 262.184 98.7732 262.568C98.3892 262.936 97.9012 263.12 97.3092 263.12ZM98.9652 264.704V278H95.6052V264.704H98.9652ZM114.645 271.064C114.645 271.544 114.613 271.976 114.549 272.36H104.829C104.909 273.32 105.245 274.072 105.837 274.616C106.429 275.16 107.157 275.432 108.021 275.432C109.269 275.432 110.157 274.896 110.685 273.824H114.309C113.925 275.104 113.189 276.16 112.101 276.992C111.013 277.808 109.677 278.216 108.093 278.216C106.813 278.216 105.661 277.936 104.637 277.376C103.629 276.8 102.837 275.992 102.261 274.952C101.701 273.912 101.421 272.712 101.421 271.352C101.421 269.976 101.701 268.768 102.261 267.728C102.821 266.688 103.605 265.888 104.613 265.328C105.621 264.768 106.781 264.488 108.093 264.488C109.357 264.488 110.485 264.76 111.477 265.304C112.485 265.848 113.261 266.624 113.805 267.632C114.365 268.624 114.645 269.768 114.645 271.064ZM111.165 270.104C111.149 269.24 110.837 268.552 110.229 268.04C109.621 267.512 108.877 267.248 107.997 267.248C107.165 267.248 106.461 267.504 105.885 268.016C105.325 268.512 104.981 269.208 104.853 270.104H111.165ZM120.457 266.768C120.889 266.064 121.449 265.512 122.137 265.112C122.841 264.712 123.641 264.512 124.537 264.512V268.04H123.649C122.593 268.04 121.793 268.288 121.249 268.784C120.721 269.28 120.457 270.144 120.457 271.376V278H117.097V264.704H120.457V266.768Z" fill="black"/>
<path d="M269.481 92.9923C227.657 73.8379 160.053 73.8379 118.496 92.9923C76.9391 112.147 77.1571 143.2 118.986 162.358C160.814 181.516 228.413 181.513 269.974 162.358C311.536 143.204 311.309 112.147 269.481 92.9923Z" fill="#F5F5F5"/>
<path d="M211.142 121.685C197.665 115.513 175.881 115.513 162.488 121.685C149.096 127.857 149.167 137.865 162.648 144.037C176.13 150.209 197.909 150.209 211.302 144.037C224.695 137.865 224.601 127.861 211.142 121.685Z" fill="#E0E0E0"/>
<path d="M128.062 100.975L130.593 99.3267C130.749 96.1508 130.905 92.8196 130.242 89.693C129.579 86.5665 128.017 83.4717 125.21 81.2239C124.026 80.2817 122.54 79.4806 120.898 79.3289C119.256 79.1772 117.374 79.8441 116.805 81.0933C116.204 82.4025 117.107 83.8176 118.073 84.975C120.124 87.4452 122.576 89.7107 124.591 92.2056C126.607 94.7004 128.013 98.014 128.062 100.975Z" fill="#F0F0F0"/>
<path d="M128.062 101.408L125.526 103.074C123.653 99.937 121.077 97.0328 117.517 95.0213C116.298 94.3156 114.99 93.7192 113.958 92.8511C112.925 91.983 112.218 90.7797 112.516 89.6187C112.899 88.1225 114.896 87.1485 116.818 87.1274C118.741 87.1062 120.543 87.8931 122.033 88.8565C126.603 91.7995 129.21 96.8175 128.062 101.408Z" fill="#F0F0F0"/>
<path opacity="0.1" d="M128.062 101.408L125.526 103.074C123.653 99.937 121.077 97.0328 117.517 95.0213C116.298 94.3156 114.99 93.7192 113.958 92.8511C112.925 91.983 112.218 90.7797 112.516 89.6187C112.899 88.1225 114.896 87.1485 116.818 87.1274C118.741 87.1062 120.543 87.8931 122.033 88.8565C126.603 91.7995 129.21 96.8175 128.062 101.408Z" fill="black"/>
<path d="M129.491 100.219C129.52 100.219 129.548 100.214 129.574 100.205C129.601 100.196 129.624 100.183 129.644 100.166C129.664 100.15 129.68 100.13 129.69 100.109C129.7 100.088 129.705 100.066 129.705 100.043C129.603 95.3424 128.272 86.6651 120.526 81.3401C120.482 81.3097 120.425 81.2943 120.367 81.2972C120.309 81.3002 120.255 81.3213 120.217 81.356C120.178 81.3906 120.159 81.4359 120.163 81.4819C120.166 81.5279 120.193 81.5708 120.237 81.6012C123.507 83.8561 129.029 89.2482 129.264 100.06C129.27 100.105 129.296 100.146 129.339 100.175C129.381 100.205 129.435 100.22 129.491 100.219Z" fill="white"/>
<path d="M126.834 102.368C126.863 102.366 126.891 102.36 126.916 102.349C126.942 102.338 126.964 102.323 126.982 102.306C127 102.288 127.014 102.267 127.022 102.246C127.03 102.224 127.033 102.201 127.03 102.178C126.509 97.9433 124.187 92.1349 116.058 88.4155C116.007 88.3935 115.948 88.3878 115.893 88.3996C115.837 88.4114 115.789 88.4399 115.76 88.479C115.745 88.4989 115.735 88.5209 115.731 88.5438C115.727 88.5667 115.728 88.5901 115.736 88.6124C115.743 88.6348 115.756 88.6558 115.774 88.6741C115.792 88.6924 115.814 88.7077 115.84 88.719C123.804 92.3713 126.073 98.0739 126.594 102.217C126.601 102.262 126.63 102.303 126.675 102.332C126.72 102.36 126.777 102.373 126.834 102.368Z" fill="white"/>
<path d="M278.077 112.839C279.26 111.826 280.604 110.933 281.699 109.86C282.446 109.126 283.096 108.216 282.887 107.291C282.765 106.864 282.494 106.472 282.106 106.16C281.717 105.848 281.226 105.629 280.689 105.527C279.6 105.338 278.463 105.475 277.494 105.912C276.538 106.349 275.683 106.912 274.967 107.577C270.875 111.156 268.682 115.85 268.844 120.68C268.809 121.23 268.979 121.776 269.334 122.25C269.555 122.486 269.857 122.668 270.204 122.773C270.55 122.878 270.928 122.902 271.292 122.843C273.151 122.511 273.071 120.546 273.472 119.413C274.332 116.963 275.91 114.709 278.077 112.835V112.839Z" fill="#E6E6E6"/>
<path d="M270.714 121.354C270.75 121.35 270.783 121.337 270.808 121.317C270.833 121.296 270.849 121.269 270.852 121.241C271.181 118.929 272.814 111.06 280.079 106.938C280.114 106.919 280.138 106.889 280.145 106.856C280.152 106.822 280.142 106.788 280.117 106.76C280.093 106.733 280.055 106.714 280.013 106.708C279.971 106.703 279.927 106.711 279.893 106.73C272.52 110.915 270.865 118.873 270.549 121.198C270.546 121.215 270.548 121.232 270.554 121.248C270.56 121.264 270.57 121.279 270.583 121.293C270.596 121.306 270.613 121.317 270.631 121.325C270.65 121.333 270.67 121.338 270.691 121.34L270.714 121.354Z" fill="#F0F0F0"/>
<path d="M271.101 122.059C271.203 122.575 271.434 123.07 271.782 123.513C272.13 123.956 272.587 124.339 273.126 124.639C274.144 125.092 275.301 125.311 276.467 125.271C277.649 125.227 278.82 125.073 279.955 124.812C280.521 124.692 281.152 124.526 281.255 123.99C281.278 123.848 281.261 123.703 281.205 123.567C281.149 123.431 281.055 123.306 280.93 123.203C280.825 123.111 280.714 123.023 280.596 122.942C280.542 122.904 280.504 122.854 280.486 122.799C280.469 122.743 280.473 122.685 280.498 122.632C280.523 122.578 280.568 122.532 280.627 122.499C280.686 122.466 280.756 122.448 280.828 122.448C281.158 122.449 281.487 122.435 281.815 122.405C282.579 122.35 283.311 122.133 283.933 121.777C284.387 121.499 284.745 121.135 284.974 120.718C285.096 120.55 285.156 120.358 285.149 120.164C285.142 119.969 285.068 119.78 284.934 119.617C284.73 119.462 284.474 119.356 284.196 119.314C283.955 119.258 283.715 119.208 283.47 119.166C283.401 119.153 283.338 119.123 283.292 119.08C283.246 119.036 283.219 118.982 283.215 118.926C283.211 118.869 283.23 118.813 283.27 118.766C283.31 118.719 283.367 118.683 283.435 118.665L284.503 118.379C284.809 118.315 285.091 118.194 285.326 118.026C285.475 117.867 285.579 117.685 285.631 117.491C285.682 117.297 285.68 117.097 285.624 116.904C285.539 116.382 285.357 115.873 285.25 115.351C285.112 114.835 285.134 114.3 285.313 113.791C283.382 113.516 281.405 113.516 279.475 113.791C278.895 113.853 278.338 114.012 277.842 114.257C277.527 114.449 277.28 114.703 277.124 114.992C276.969 115.282 276.909 115.599 276.952 115.912C276.951 115.939 276.939 115.965 276.917 115.986C276.895 116.007 276.864 116.021 276.831 116.027C276.797 116.032 276.762 116.028 276.732 116.016C276.701 116.003 276.677 115.983 276.663 115.958L276.085 114.952C275.999 114.807 275.847 114.694 275.659 114.635C275.471 114.576 275.262 114.576 275.075 114.635C274.474 114.834 273.931 115.129 273.477 115.499C273.228 115.697 273.031 115.931 272.896 116.189C272.762 116.447 272.693 116.723 272.694 117.003C272.71 117.776 272.809 118.547 272.988 119.307C273.005 119.352 273.003 119.401 272.981 119.445C272.959 119.489 272.918 119.525 272.867 119.549C272.815 119.572 272.755 119.581 272.696 119.573C272.637 119.566 272.583 119.543 272.543 119.508L272.516 119.487C272.347 119.369 272.128 119.305 271.902 119.31C271.31 119.335 271.119 119.797 271.048 120.196C270.972 120.817 270.99 121.442 271.101 122.059Z" fill="#E6E6E6"/>
<path opacity="0.1" d="M271.101 122.059C271.203 122.575 271.434 123.07 271.782 123.513C272.13 123.956 272.587 124.339 273.126 124.639C274.144 125.092 275.301 125.311 276.467 125.271C277.649 125.227 278.82 125.073 279.955 124.812C280.521 124.692 281.152 124.526 281.255 123.99C281.278 123.848 281.261 123.703 281.205 123.567C281.149 123.431 281.055 123.306 280.93 123.203C280.825 123.111 280.714 123.023 280.596 122.942C280.542 122.904 280.504 122.854 280.486 122.799C280.469 122.743 280.473 122.685 280.498 122.632C280.523 122.578 280.568 122.532 280.627 122.499C280.686 122.466 280.756 122.448 280.828 122.448C281.158 122.449 281.487 122.435 281.815 122.405C282.579 122.35 283.311 122.133 283.933 121.777C284.387 121.499 284.745 121.135 284.974 120.718C285.096 120.55 285.156 120.358 285.149 120.164C285.142 119.969 285.068 119.78 284.934 119.617C284.73 119.462 284.474 119.356 284.196 119.314C283.955 119.258 283.715 119.208 283.47 119.166C283.401 119.153 283.338 119.123 283.292 119.08C283.246 119.036 283.219 118.982 283.215 118.926C283.211 118.869 283.23 118.813 283.27 118.766C283.31 118.719 283.367 118.683 283.435 118.665L284.503 118.379C284.809 118.315 285.091 118.194 285.326 118.026C285.475 117.867 285.579 117.685 285.631 117.491C285.682 117.297 285.68 117.097 285.624 116.904C285.539 116.382 285.357 115.873 285.25 115.351C285.112 114.835 285.134 114.3 285.313 113.791C283.382 113.516 281.405 113.516 279.475 113.791C278.895 113.853 278.338 114.012 277.842 114.257C277.527 114.449 277.28 114.703 277.124 114.992C276.969 115.282 276.909 115.599 276.952 115.912C276.951 115.939 276.939 115.965 276.917 115.986C276.895 116.007 276.864 116.021 276.831 116.027C276.797 116.032 276.762 116.028 276.732 116.016C276.701 116.003 276.677 115.983 276.663 115.958L276.085 114.952C275.999 114.807 275.847 114.694 275.659 114.635C275.471 114.576 275.262 114.576 275.075 114.635C274.474 114.834 273.931 115.129 273.477 115.499C273.228 115.697 273.031 115.931 272.896 116.189C272.762 116.447 272.693 116.723 272.694 117.003C272.71 117.776 272.809 118.547 272.988 119.307C273.005 119.352 273.003 119.401 272.981 119.445C272.959 119.489 272.918 119.525 272.867 119.549C272.815 119.572 272.755 119.581 272.696 119.573C272.637 119.566 272.583 119.543 272.543 119.508L272.516 119.487C272.347 119.369 272.128 119.305 271.902 119.31C271.31 119.335 271.119 119.797 271.048 120.196C270.972 120.817 270.99 121.442 271.101 122.059Z" fill="black"/>
<path d="M273.984 124.558C274.459 123.341 275.087 122.164 275.858 121.047C275.863 121.011 275.885 120.978 275.92 120.955C275.964 120.895 276.005 120.835 276.045 120.775C275.98 119.329 275.575 117.904 274.852 116.576C274.839 116.561 274.83 116.543 274.826 116.525C274.822 116.507 274.823 116.489 274.829 116.471C274.834 116.453 274.845 116.437 274.86 116.422C274.875 116.408 274.893 116.397 274.914 116.389C274.935 116.381 274.957 116.376 274.981 116.376C275.004 116.376 275.027 116.379 275.048 116.387C275.069 116.394 275.088 116.405 275.103 116.419C275.119 116.432 275.13 116.449 275.137 116.466C275.819 117.704 276.225 119.025 276.338 120.373C278.084 117.926 280.573 115.864 283.577 114.374C283.615 114.357 283.659 114.352 283.7 114.361C283.742 114.369 283.778 114.39 283.8 114.419C283.821 114.449 283.827 114.483 283.816 114.515C283.805 114.548 283.778 114.575 283.742 114.592C280.223 116.265 277.878 118.725 276.405 120.789C278.193 120.26 280.137 120.157 281.998 120.493C282.035 120.498 282.069 120.513 282.093 120.536C282.118 120.559 282.131 120.588 282.131 120.618C282.131 120.648 282.118 120.677 282.093 120.7C282.069 120.723 282.035 120.738 281.998 120.743H281.935C281.904 120.743 278.901 120.133 276.151 121.156C275.385 122.263 274.762 123.429 274.291 124.635C274.284 124.66 274.267 124.681 274.243 124.698C274.219 124.714 274.189 124.724 274.158 124.727C274.137 124.731 274.116 124.731 274.096 124.727C274.074 124.723 274.053 124.715 274.035 124.704C274.017 124.693 274.002 124.678 273.992 124.662C273.981 124.646 273.975 124.629 273.974 124.611C273.973 124.593 273.976 124.575 273.984 124.558Z" fill="#F0F0F0"/>
<path d="M279.142 123.46L272.397 118.544L269.527 118.297L265.363 120.083L264.717 121.72L262.813 123.125L262.008 125.087L265.914 126.361L266.315 126.827L268.953 127.751L270.123 129.025L273.483 128.983L274.831 127.871L278.653 127.381L281.443 126.452L281.238 125.083L280.473 123.739L279.142 123.46Z" fill="#E0E0E0"/>
<path opacity="0.1" d="M279.142 123.46L280.473 123.739L281.238 125.083L278.284 126.181L272.82 126.784L271.699 126.562L270.56 124.049L272.157 126.184L277.919 125.588L280.032 124.812L280.13 123.89L279.142 123.46Z" fill="black"/>
<path opacity="0.1" d="M276.348 121.424L277.416 123.354L274.528 123.287L270.96 124.131L274.448 122.532L276.068 122.853L276.05 122.024L274.8 120.298L276.348 121.424Z" fill="black"/>
<path opacity="0.3" d="M275.859 124.695L274.213 124.37L274.529 123.287L277.416 123.354L275.859 124.695Z" fill="black"/>
<path opacity="0.4" d="M271.761 125.655L274.212 124.37L274.528 123.287L270.96 124.131L271.761 125.655Z" fill="black"/>
<path opacity="0.2" d="M272.397 118.544L272.036 120.704L270.595 121.773L269.331 120.362L269.527 118.297L272.397 118.544Z" fill="black"/>
<path opacity="0.1" d="M270.025 122.338L268.659 120.464L269.527 118.297L269.331 120.362L270.595 121.773L270.025 122.338Z" fill="black"/>
<path opacity="0.3" d="M270.559 124.049L270.025 122.338L268.659 120.464L269.527 118.297L265.362 120.083L266.737 121.417L269.251 122.32L270.559 124.049Z" fill="black"/>
<path opacity="0.4" d="M270.124 129.025L271.699 126.562L270.56 124.049L269.252 122.32L266.738 121.417L265.363 120.083L264.718 121.72L266.64 121.544L268.664 122.701L269.661 124.007L270.124 129.025Z" fill="black"/>
<path opacity="0.3" d="M268.953 127.751L269.843 125.973L270.123 129.025L268.953 127.751Z" fill="black"/>
<path opacity="0.4" d="M266.314 126.826L266.221 125.178L265.42 122.532L262.755 125.33L265.914 126.36L266.314 126.826Z" fill="black"/>
<path opacity="0.3" d="M266.64 121.544L265.42 122.532L262.755 125.33L262.008 125.087L262.813 123.125L264.717 121.72L266.64 121.544Z" fill="black"/>
<path opacity="0.2" d="M268.953 127.751L266.314 126.827L266.221 125.179L265.42 122.532L266.639 121.544L268.664 122.701L269.66 124.007L269.843 125.973L268.953 127.751Z" fill="black"/>
<path opacity="0.3" d="M272.819 126.784L273.482 128.983L270.123 129.025L271.698 126.562L272.819 126.784Z" fill="black"/>
<path opacity="0.4" d="M274.831 127.871L274.013 126.653L272.82 126.784L273.483 128.982L274.831 127.871Z" fill="black"/>
<path opacity="0.3" d="M277.215 127.564L276.535 126.375L274.012 126.654L274.83 127.871L277.215 127.564Z" fill="black"/>
<path opacity="0.4" d="M278.653 127.38L278.284 126.181L276.535 126.375L277.216 127.564L278.653 127.38Z" fill="black"/>
<path opacity="0.3" d="M281.238 125.083L278.283 126.181L278.653 127.381L281.442 126.453L281.238 125.083Z" fill="black"/>
<path opacity="0.05" d="M276.051 122.024L276.069 122.853L274.449 122.532L270.961 124.131L271.762 125.655L270.56 124.049L270.026 122.338L270.596 121.773L272.037 120.704L272.398 118.544L274.801 120.298L276.051 122.024Z" fill="black"/>
<path opacity="0.3" d="M281.238 125.083L280.473 123.739L279.142 123.46L276.348 121.424L274.8 120.298L272.397 118.544L269.527 118.297L265.363 120.083L264.717 121.72L262.813 123.125L262.008 125.087L262.755 125.33L265.914 126.361L266.315 126.827L268.953 127.751L270.123 129.025L273.483 128.983L274.831 127.871L278.653 127.381L281.443 126.452L281.238 125.083Z" fill="white"/>
<path d="M283.717 142.244L279.232 138.976L277.323 138.814L274.555 140L274.128 141.087L272.865 142.022L272.326 143.324L274.925 144.174L275.192 144.485L276.945 145.095L277.719 145.942L279.957 145.914L280.851 145.176L283.392 144.852L285.247 144.234L285.109 143.324L284.602 142.431L283.717 142.244Z" fill="#E0E0E0"/>
<path opacity="0.1" d="M283.716 142.244L284.601 142.431L285.108 143.324L283.146 144.054L279.511 144.453L278.768 144.309L278.012 142.636L279.075 144.054L282.906 143.659L284.308 143.144L284.374 142.53L283.716 142.244Z" fill="black"/>
<path opacity="0.1" d="M281.86 140.892L282.567 142.173L280.65 142.131L278.278 142.688L280.596 141.626L281.673 141.842L281.66 141.291L280.828 140.141L281.86 140.892Z" fill="black"/>
<path opacity="0.3" d="M281.536 143.062L280.441 142.847L280.651 142.131L282.568 142.173L281.536 143.062Z" fill="black"/>
<path opacity="0.4" d="M278.812 143.701L280.441 142.847L280.65 142.131L278.278 142.688L278.812 143.701Z" fill="black"/>
<path opacity="0.2" d="M279.231 138.976L278.991 140.413L278.039 141.122L277.193 140.183L277.322 138.814L279.231 138.976Z" fill="black"/>
<path opacity="0.1" d="M277.656 141.496L276.748 140.254L277.322 138.814L277.193 140.183L278.038 141.122L277.656 141.496Z" fill="black"/>
<path opacity="0.3" d="M278.012 142.636L277.656 141.496L276.748 140.254L277.322 138.814L274.555 140L275.471 140.885L277.144 141.485L278.012 142.636Z" fill="black"/>
<path opacity="0.4" d="M277.719 145.942L278.769 144.308L278.012 142.636L277.145 141.485L275.472 140.885L274.555 140L274.128 141.086L275.405 140.97L276.749 141.739L277.416 142.607L277.719 145.942Z" fill="black"/>
<path opacity="0.3" d="M276.944 145.095L277.536 143.917L277.719 145.942L276.944 145.095Z" fill="black"/>
<path opacity="0.4" d="M275.19 144.485L275.128 143.387L274.594 141.626L272.823 143.486L274.923 144.174L275.19 144.485Z" fill="black"/>
<path opacity="0.3" d="M275.405 140.97L274.595 141.627L272.824 143.486L272.326 143.324L272.865 142.022L274.128 141.087L275.405 140.97Z" fill="black"/>
<path opacity="0.2" d="M276.944 145.095L275.191 144.485L275.129 143.387L274.595 141.627L275.405 140.97L276.748 141.739L277.416 142.608L277.536 143.917L276.944 145.095Z" fill="black"/>
<path opacity="0.3" d="M279.512 144.453L279.957 145.914L277.719 145.942L278.769 144.308L279.512 144.453Z" fill="black"/>
<path opacity="0.4" d="M280.85 145.176L280.307 144.365L279.511 144.453L279.956 145.914L280.85 145.176Z" fill="black"/>
<path opacity="0.3" d="M282.435 144.972L281.986 144.181L280.309 144.365L280.851 145.176L282.435 144.972Z" fill="black"/>
<path opacity="0.4" d="M283.391 144.852L283.147 144.054L281.985 144.181L282.435 144.972L283.391 144.852Z" fill="black"/>
<path opacity="0.3" d="M285.109 143.324L283.146 144.054L283.391 144.852L285.247 144.234L285.109 143.324Z" fill="black"/>
<path opacity="0.05" d="M281.661 141.291L281.674 141.841L280.597 141.626L278.279 142.688L278.813 143.701L278.012 142.635L277.656 141.496L278.039 141.122L278.991 140.412L279.231 138.976L280.829 140.141L281.661 141.291Z" fill="black"/>
<path d="M275.139 143.433L271.918 141.087L270.547 140.97L268.558 141.821L268.256 142.604L267.344 143.275L266.961 144.21L268.821 144.82L269.017 145.042L270.276 145.484L270.832 146.091L272.438 146.073L273.083 145.54L274.907 145.307L276.242 144.863L276.144 144.21L275.775 143.567L275.139 143.433Z" fill="#E0E0E0"/>
<path opacity="0.1" d="M275.138 143.433L275.774 143.567L276.143 144.209L274.733 144.735L272.121 145.021L271.587 144.915L271.04 143.715L271.805 144.735L274.555 144.449L275.565 144.079L275.61 143.638L275.138 143.433Z" fill="black"/>
<path opacity="0.1" d="M273.809 142.463L274.316 143.384L272.941 143.352L271.232 143.754L272.901 142.992L273.675 143.144L273.666 142.749L273.07 141.923L273.809 142.463Z" fill="black"/>
<path opacity="0.3" d="M273.573 144.023L272.785 143.867L272.941 143.352L274.316 143.384L273.573 144.023Z" fill="black"/>
<path opacity="0.4" d="M271.62 144.481L272.785 143.867L272.941 143.352L271.232 143.754L271.62 144.481Z" fill="black"/>
<path opacity="0.2" d="M271.917 141.087L271.748 142.117L271.058 142.629L270.453 141.955L270.547 140.97L271.917 141.087Z" fill="black"/>
<path opacity="0.1" d="M270.786 142.897L270.137 142.004L270.546 140.97L270.453 141.955L271.058 142.629L270.786 142.897Z" fill="black"/>
<path opacity="0.3" d="M271.039 143.716L270.786 142.897L270.136 142.004L270.546 140.97L268.557 141.821L269.215 142.459L270.416 142.89L271.039 143.716Z" fill="black"/>
<path opacity="0.4" d="M270.831 146.09L271.587 144.915L271.04 143.715L270.417 142.89L269.216 142.459L268.557 141.82L268.255 142.604L269.171 142.519L270.137 143.073L270.613 143.698L270.831 146.09Z" fill="black"/>
<path opacity="0.3" d="M270.274 145.483L270.697 144.633L270.831 146.09L270.274 145.483Z" fill="black"/>
<path opacity="0.4" d="M269.015 145.042L268.971 144.256L268.588 142.992L267.315 144.326L268.819 144.82L269.015 145.042Z" fill="black"/>
<path opacity="0.3" d="M269.172 142.519L268.589 142.992L267.317 144.326L266.961 144.209L267.344 143.274L268.256 142.604L269.172 142.519Z" fill="black"/>
<path opacity="0.2" d="M270.274 145.483L269.015 145.042L268.971 144.255L268.588 142.992L269.171 142.519L270.136 143.073L270.612 143.698L270.697 144.633L270.274 145.483Z" fill="black"/>
<path opacity="0.3" d="M272.12 145.021L272.436 146.072L270.83 146.09L271.586 144.915L272.12 145.021Z" fill="black"/>
<path opacity="0.4" d="M273.082 145.54L272.691 144.958L272.121 145.021L272.437 146.073L273.082 145.54Z" fill="black"/>
<path opacity="0.3" d="M274.222 145.395L273.897 144.827L272.691 144.958L273.083 145.54L274.222 145.395Z" fill="black"/>
<path opacity="0.4" d="M274.906 145.307L274.733 144.735L273.896 144.827L274.221 145.395L274.906 145.307Z" fill="black"/>
<path opacity="0.3" d="M276.143 144.209L274.732 144.735L274.906 145.307L276.241 144.862L276.143 144.209Z" fill="black"/>
<path opacity="0.05" d="M273.666 142.748L273.675 143.144L272.901 142.992L271.232 143.754L271.619 144.481L271.041 143.715L270.787 142.897L271.059 142.629L271.748 142.117L271.917 141.086L273.07 141.923L273.666 142.748Z" fill="black"/>
<path opacity="0.3" d="M267.344 143.274L268.256 142.604L268.558 141.821L270.547 140.97L271.918 141.087L273.034 141.898L274.129 141.087L274.556 140L277.323 138.814L279.232 138.976L280.83 140.141L281.862 140.892L283.717 142.244L284.603 142.431L285.11 143.324L285.248 144.234L283.392 144.852L280.852 145.176L279.958 145.914L277.719 145.942L276.945 145.095L276.238 144.848L276.242 144.862L274.907 145.307L273.083 145.54L272.438 146.073L270.832 146.09L270.276 145.483L269.017 145.042L268.821 144.82L266.961 144.21L267.344 143.274Z" fill="white"/>
<path d="M134.382 17.8286L126.72 21.3574L126.413 106.663L253.665 164.924L261.326 161.395L261.629 76.0894L134.382 17.8286ZM170.911 59.4934L170.297 59.017L170.173 58.7241L170.911 59.4934ZM219.409 127.952L216.597 129.248L215.494 127.776L205.131 127.091L200.375 119.497L195.592 119.339L192.419 114.434L186.506 109.38L178.844 112.909L178.475 113.534L176.482 112.62L174.902 108.512L167.748 103.134V99.489L165.968 97.4035L168.015 97.8763L175.676 94.3475L173.389 83.4576L170.208 82.6706L169.763 80.638L176.629 77.4621L176.651 70.5809L170.284 67.6661L169.937 67.0521L176.673 63.9467L172.508 60.7284L179.392 58.3077L183.365 61.7765L189.594 58.904L193.541 60.8625L196.886 71.8019L202.461 71.142L209.078 79.4312L206.586 83.941L217.371 88.345L215.645 89.1037L207.983 92.6325L213.54 99.3866L217.518 101.208L218.154 104.549L214.844 106.074L218.737 111.438L216.682 113.008L220.726 118.746L215.854 120.99L219.409 127.952Z" fill="#BA68C8"/>
<path opacity="0.1" d="M134.382 17.8286L126.72 21.3574L126.413 106.663L253.665 164.924L261.326 161.395L261.629 76.0894L134.382 17.8286ZM170.911 59.4934L170.297 59.017L170.173 58.7241L170.911 59.4934ZM219.409 127.952L216.597 129.248L215.494 127.776L205.131 127.091L200.375 119.497L195.592 119.339L192.419 114.434L186.506 109.38L178.844 112.909L178.475 113.534L176.482 112.62L174.902 108.512L167.748 103.134V99.489L165.968 97.4035L168.015 97.8763L175.676 94.3475L173.389 83.4576L170.208 82.6706L169.763 80.638L176.629 77.4621L176.651 70.5809L170.284 67.6661L169.937 67.0521L176.673 63.9467L172.508 60.7284L179.392 58.3077L183.365 61.7765L189.594 58.904L193.541 60.8625L196.886 71.8019L202.461 71.142L209.078 79.4312L206.586 83.941L217.371 88.345L215.645 89.1037L207.983 92.6325L213.54 99.3866L217.518 101.208L218.154 104.549L214.844 106.074L218.737 111.438L216.682 113.008L220.726 118.746L215.854 120.99L219.409 127.952Z" fill="black"/>
<path opacity="0.2" d="M167.761 99.4888L160.099 103.018L160.086 106.666L167.748 103.134L167.761 99.4888Z" fill="black"/>
<path opacity="0.3" d="M165.977 97.4033L164.571 97.0786L157.719 100.237L160.099 103.018L167.761 99.4888L165.977 97.4033Z" fill="black"/>
<path opacity="0.2" d="M174.902 108.512L167.245 112.045L168.82 116.152L176.482 112.62L174.902 108.512Z" fill="black"/>
<path opacity="0.3" d="M167.748 103.134L160.086 106.667L167.245 112.045L174.902 108.512L167.748 103.134Z" fill="black"/>
<path opacity="0.4" d="M157.737 95.5049L157.719 100.237L164.571 97.0787L157.737 95.5049Z" fill="black"/>
<path opacity="0.1" d="M168.82 116.152L175.192 119.067L178.475 113.534L176.482 112.62L168.82 116.152Z" fill="black"/>
<path opacity="0.1" d="M186.506 109.38L178.844 112.909L184.761 117.962L192.419 114.434L186.506 109.38Z" fill="black"/>
<path opacity="0.2" d="M192.419 114.434L184.762 117.962L187.93 122.871L195.591 119.339L192.419 114.434Z" fill="black"/>
<path opacity="0.3" d="M170.213 82.6704L162.551 86.2028L165.737 86.9826L173.398 83.4538L170.213 82.6704Z" fill="black"/>
<path opacity="0.2" d="M173.397 83.4541L165.735 86.9829L168.022 97.8764L175.684 94.344L173.397 83.4541Z" fill="black"/>
<path opacity="0.2" d="M200.374 119.498L192.712 123.03L197.468 130.624L205.13 127.092L200.374 119.498Z" fill="black"/>
<path opacity="0.1" d="M195.591 119.338L187.93 122.871L192.713 123.03L200.375 119.497L195.591 119.338Z" fill="black"/>
<path opacity="0.4" d="M169.744 80.6418L168.948 81.0088L160.983 79.3926L162.55 86.2032L170.211 82.6708L169.744 80.6418Z" fill="black"/>
<path opacity="0.4" d="M169.918 67.0662L168.997 67.4896L160.228 66.9956L162.603 71.2125L170.265 67.6802L169.918 67.0662Z" fill="black"/>
<path opacity="0.1" d="M205.132 127.091L197.47 130.624L207.832 131.305L215.494 127.776L205.132 127.091Z" fill="black"/>
<path opacity="0.2" d="M216.61 129.24L215.493 127.776L207.831 131.305L210.211 134.428L216.992 131.301L216.61 129.24Z" fill="black"/>
<path opacity="0.2" d="M176.61 77.4764L176.632 70.5952L168.97 74.1276L168.948 81.0088L169.745 80.6418L176.61 77.4764Z" fill="black"/>
<path opacity="0.3" d="M170.266 67.6802L162.604 71.2125L168.972 74.1273L176.633 70.595L170.266 67.6802Z" fill="black"/>
<path opacity="0.2" d="M170.171 58.7243L168.178 56.6528L160.263 57.0622L162.634 62.5495L170.296 59.0171L170.171 58.7243Z" fill="black"/>
<path opacity="0.1" d="M176.656 63.961L172.509 60.7356L172.211 60.8415L170.912 59.4935L170.298 59.0171L162.636 62.5494L168.998 67.4898L169.919 67.0663L176.656 63.961Z" fill="black"/>
<path opacity="0.3" d="M210.212 134.428L217.277 132.854L216.993 131.301L210.212 134.428Z" fill="black"/>
<path opacity="0.3" d="M219.801 128.662L219.422 127.935L216.61 129.233L219.801 128.662Z" fill="black"/>
<path opacity="0.3" d="M222.524 121.318L220.713 118.749L215.841 120.993L222.524 121.318Z" fill="black"/>
<path opacity="0.3" d="M218.737 107.676L218.14 104.553L214.83 106.077L218.737 107.676Z" fill="black"/>
<path opacity="0.4" d="M184.98 56.6138L183.365 61.7835L189.599 58.911L184.98 56.6138Z" fill="black"/>
<path opacity="0.3" d="M207.97 92.6358L217.549 88.4224L217.358 88.3447L215.632 89.1034L207.97 92.6358Z" fill="black"/>
<path opacity="0.3" d="M253.955 79.6217L253.652 164.927L261.314 161.395L261.617 76.0894L253.955 79.6217Z" fill="white"/>
<path opacity="0.4" d="M261.615 76.0894L134.382 17.8286L126.72 21.361L253.954 79.6217L261.615 76.0894Z" fill="white"/>
<g opacity="0.2">
<path d="M153.238 69.8151L158.118 71.7912L152.895 70.3338L149.665 67.352L144.103 65.1676L140.859 65.7569L135.587 61.8364L140.579 64.9524L143.876 64.543L149.949 67.0167L153.238 69.8151Z" fill="black"/>
<path d="M156.717 80.9556L162.278 83.2952L156.637 81.2626L154.109 79.2759L151.12 78.3584L149.647 77.0633L139.169 72.2641L134.764 69.1588L139.244 71.8865L146.279 75.1048L146.296 70.4503L147.355 67.5708L146.71 70.5703L146.888 75.313L149.384 76.3893L151.16 77.8926L154.225 78.7113L156.717 80.9556Z" fill="black"/>
<path d="M215.653 72.3135L219.342 73.3898L215.44 72.7123L213.059 70.0939L208.952 67.9449L206.559 67.959L202.71 65.5029L206.31 67.345L208.743 67.5073L213.228 69.7869L215.653 72.3135Z" fill="black"/>
<path d="M226.193 86.369L229.503 87.3888L226.246 86.6971L218.509 83.1577L217.419 83.1154L215.212 81.7744L213.339 81.5274L209.179 79.2161L213.281 81.2487L215.132 81.2804L217.392 82.7484L218.709 82.8402L220.551 83.7365L220.703 80.3629L220.244 77.7163L221.01 80.5535L220.996 83.9905L226.193 86.369Z" fill="black"/>
<path d="M196.509 135.42L201.309 136.898L196.593 135.899L185.372 130.762L183.788 130.705L180.589 128.761L177.87 128.401L171.837 125.048L177.79 127.995L180.473 128.041L183.752 130.169L185.657 130.303L188.331 131.601L188.549 126.71L187.881 122.871L188.994 126.986L188.976 131.968L196.509 135.42Z" fill="black"/>
<path d="M154.946 49.034L158.772 51.3489L163.186 53.5967L159.106 51.8076L155.141 49.3516L152.654 48.7764L152.899 50.6219L152.507 51.8711L152.721 53.5473L158.225 55.5094L160.427 57.0762L158.118 55.7317L152.73 53.8967L152.294 53.5262L150.866 53.3885L149.108 52.4887L148.356 51.5289L143.702 48.7799L148.534 51.3242L149.397 52.3052L150.794 53.0462L152.218 53.2156L152.223 51.6629L152.516 50.3679L152.236 48.4341L154.946 49.034Z" fill="black"/>
<path d="M236.25 128.986L241.843 132.37L248.299 135.659L242.332 133.041L236.535 129.452L232.895 128.609L233.251 131.308L232.686 133.136L232.993 135.589L241.042 138.458L244.268 140.751L240.891 138.786L233.011 136.1L232.366 135.553L230.279 135.352L227.707 134.036L226.608 132.635L219.801 128.616L226.866 132.335L228.13 133.771L230.172 134.855L232.255 135.102L232.263 132.829L232.691 130.938L232.281 128.101L236.25 128.986Z" fill="black"/>
<path d="M144.024 91.7435L145.305 92.0575L143.129 88.7828L139.241 84.0189L132.918 79.936L139.503 83.8495L143.427 88.7016L145.701 92.0505L148.041 92.1987L153.176 93.3597L157.719 95.4417L153.216 93.769L148.148 92.4775L146.035 92.4316L147.636 94.9229L147.739 96.3768L150.649 101.031L147.467 96.4015L147.263 94.8312L145.532 92.4069L144.371 92.2481L144.024 91.7435Z" fill="black"/>
<path d="M242.843 105.629L236.53 104.024L233.896 103.964L235.889 107.066L236.018 108.879L239.644 114.681L235.684 108.908L235.426 106.956L233.273 103.935L231.458 103.688L227.662 101.829L232.463 106.829L233.193 106.681L234.496 107.185L233.469 107.016L232.637 107.238L234.955 108.752L232.41 107.44L226.888 101.465L224.574 99.1363L219.248 95.9744L224.779 98.9281L227.191 101.179L231.391 103.106L232.984 103.498L230.278 99.4186L225.429 93.4796L217.549 88.3945L225.758 93.2714L230.648 99.3162L233.482 103.487L236.401 103.674L242.794 105.121L248.459 107.715L242.843 105.629Z" fill="black"/>
</g>
<g opacity="0.1">
<path d="M240.671 144.453C240.431 144.344 240.227 144.432 240.227 144.651V146.768C240.236 146.889 240.281 147.006 240.359 147.11C240.436 147.214 240.543 147.303 240.671 147.368L247.746 150.604C247.982 150.713 248.191 150.629 248.191 150.406V148.289C248.181 148.169 248.136 148.052 248.059 147.948C247.981 147.845 247.874 147.757 247.746 147.693L240.671 144.453Z" fill="black"/>
<path d="M240.671 151.772C240.431 151.663 240.227 151.747 240.227 151.97V154.087C240.236 154.207 240.281 154.324 240.359 154.428C240.436 154.531 240.543 154.619 240.671 154.683L247.746 157.923C247.982 158.032 248.191 157.944 248.191 157.725V155.608C248.181 155.487 248.136 155.37 248.059 155.266C247.982 155.162 247.874 155.073 247.746 155.008L240.671 151.772Z" fill="black"/>
<path d="M235.973 145.914C235.733 145.805 235.528 145.893 235.528 146.112V148.229C235.538 148.349 235.583 148.466 235.66 148.57C235.738 148.673 235.845 148.761 235.973 148.825L243.043 152.065C243.284 152.174 243.488 152.086 243.488 151.867V149.75C243.479 149.63 243.433 149.513 243.356 149.409C243.279 149.306 243.172 149.218 243.043 149.154L235.973 145.914Z" fill="black"/>
<g opacity="0.07">
<path d="M240.672 144.453C240.432 144.344 240.228 144.432 240.228 144.651V146.768C240.237 146.889 240.282 147.006 240.36 147.11C240.437 147.214 240.544 147.303 240.672 147.368L247.747 150.604C247.983 150.713 248.192 150.629 248.192 150.406V148.289C248.182 148.169 248.137 148.052 248.06 147.948C247.982 147.845 247.875 147.757 247.747 147.693L240.672 144.453Z" fill="black"/>
<path d="M240.672 151.772C240.432 151.663 240.228 151.747 240.228 151.97V154.087C240.237 154.207 240.282 154.324 240.36 154.428C240.437 154.531 240.544 154.619 240.672 154.683L247.747 157.923C247.983 158.032 248.192 157.944 248.192 157.725V155.608C248.182 155.487 248.137 155.37 248.06 155.266C247.983 155.162 247.875 155.073 247.747 155.008L240.672 151.772Z" fill="black"/>
<path d="M235.974 145.914C235.734 145.805 235.529 145.893 235.529 146.112V148.229C235.539 148.349 235.584 148.466 235.661 148.57C235.739 148.673 235.846 148.761 235.974 148.825L243.044 152.065C243.285 152.174 243.489 152.086 243.489 151.867V149.75C243.48 149.63 243.434 149.513 243.357 149.409C243.28 149.306 243.173 149.218 243.044 149.154L235.974 145.914Z" fill="black"/>
</g>
</g>
<g opacity="0.1">
<path d="M138.748 91.2317C138.507 91.1223 138.303 91.207 138.303 91.4293V93.5466C138.312 93.6668 138.357 93.7835 138.435 93.8872C138.512 93.9908 138.619 94.0785 138.748 94.1429L145.818 97.3824C146.058 97.4918 146.263 97.4036 146.263 97.1848V95.0675C146.254 94.9471 146.209 94.83 146.132 94.7262C146.055 94.6224 145.947 94.5349 145.818 94.4711L138.748 91.2317Z" fill="black"/>
<path d="M138.748 98.5399C138.507 98.4269 138.303 98.5152 138.303 98.7375V100.855C138.312 100.975 138.357 101.092 138.435 101.195C138.512 101.299 138.619 101.387 138.748 101.451L145.818 104.691C146.058 104.8 146.263 104.712 146.263 104.493V102.376C146.255 102.255 146.21 102.137 146.133 102.033C146.055 101.928 145.947 101.84 145.818 101.776L138.748 98.5399Z" fill="black"/>
<path d="M134.049 92.6926C133.809 92.5832 133.604 92.6679 133.604 92.8902V95.0075C133.614 95.1277 133.659 95.2445 133.737 95.3481C133.814 95.4518 133.921 95.5394 134.049 95.6039L141.111 98.8398C141.351 98.9492 141.555 98.861 141.555 98.6422V96.5249C141.546 96.4042 141.501 96.287 141.423 96.1828C141.346 96.0785 141.239 95.9902 141.111 95.925L134.049 92.6926Z" fill="black"/>
<g opacity="0.07">
<path d="M138.748 91.2317C138.507 91.1223 138.303 91.207 138.303 91.4293V93.5466C138.312 93.6668 138.357 93.7835 138.435 93.8872C138.512 93.9908 138.619 94.0785 138.748 94.1429L145.818 97.3824C146.058 97.4918 146.263 97.4036 146.263 97.1848V95.0675C146.254 94.9471 146.209 94.83 146.132 94.7262C146.055 94.6224 145.947 94.5349 145.818 94.4711L138.748 91.2317Z" fill="black"/>
<path d="M138.748 98.5399C138.507 98.4269 138.303 98.5152 138.303 98.7375V100.855C138.312 100.975 138.357 101.092 138.435 101.195C138.512 101.299 138.619 101.387 138.748 101.451L145.818 104.691C146.058 104.8 146.263 104.712 146.263 104.493V102.376C146.255 102.255 146.21 102.137 146.133 102.033C146.055 101.928 145.947 101.84 145.818 101.776L138.748 98.5399Z" fill="black"/>
<path d="M134.049 92.6926C133.809 92.5832 133.604 92.6679 133.604 92.8902V95.0075C133.614 95.1277 133.659 95.2445 133.737 95.3481C133.814 95.4518 133.921 95.5394 134.049 95.6039L141.111 98.8398C141.351 98.9492 141.555 98.861 141.555 98.6422V96.5249C141.546 96.4042 141.501 96.287 141.423 96.1828C141.346 96.0785 141.239 95.9902 141.111 95.925L134.049 92.6926Z" fill="black"/>
</g>
</g>
<g opacity="0.1">
<path d="M129.532 94.8839C129.292 94.7745 129.087 94.8627 129.087 95.0815V97.1988C129.096 97.3196 129.141 97.437 129.218 97.5413C129.295 97.6457 129.403 97.7339 129.532 97.7987L136.602 101.035C136.842 101.148 137.047 101.059 137.047 100.837V98.7197C137.037 98.5995 136.992 98.4828 136.915 98.3791C136.837 98.2754 136.73 98.1878 136.602 98.1233L129.532 94.8839Z" fill="black"/>
<path d="M129.532 102.192C129.292 102.083 129.087 102.171 129.087 102.39V104.507C129.096 104.628 129.142 104.745 129.219 104.849C129.296 104.953 129.403 105.042 129.532 105.107L136.593 108.367C136.833 108.477 137.038 108.392 137.038 108.17V106.052C137.028 105.932 136.983 105.816 136.906 105.712C136.828 105.608 136.721 105.521 136.593 105.456L129.532 102.192Z" fill="black"/>
<g opacity="0.07">
<path d="M129.531 94.8839C129.291 94.7745 129.086 94.8627 129.086 95.0815V97.1988C129.095 97.3196 129.14 97.437 129.217 97.5413C129.294 97.6457 129.402 97.7339 129.531 97.7987L136.601 101.035C136.841 101.148 137.046 101.059 137.046 100.837V98.7197C137.036 98.5995 136.991 98.4828 136.914 98.3791C136.836 98.2754 136.729 98.1878 136.601 98.1233L129.531 94.8839Z" fill="black"/>
<path d="M129.531 102.192C129.291 102.083 129.086 102.171 129.086 102.39V104.507C129.095 104.628 129.141 104.745 129.218 104.849C129.295 104.953 129.402 105.042 129.531 105.107L136.592 108.367C136.832 108.477 137.037 108.392 137.037 108.17V106.052C137.027 105.932 136.982 105.816 136.905 105.712C136.828 105.608 136.72 105.521 136.592 105.456L129.531 102.192Z" fill="black"/>
</g>
</g>
<g opacity="0.1">
<path d="M137.283 72.8678C137.043 72.7584 136.838 72.8466 136.838 73.0654V75.1827C136.846 75.3036 136.891 75.4211 136.969 75.5255C137.046 75.6298 137.154 75.718 137.283 75.7826L144.357 79.022C144.598 79.1314 144.802 79.0432 144.802 78.8209V76.7036C144.793 76.5828 144.749 76.4653 144.671 76.361C144.594 76.2567 144.486 76.1685 144.357 76.1037L137.283 72.8678Z" fill="black"/>
<path d="M132.592 74.3287C132.352 74.2193 132.147 74.3075 132.147 74.5263V76.6436C132.156 76.7644 132.201 76.8819 132.279 76.9862C132.356 77.0905 132.464 77.1787 132.592 77.2435L139.654 80.49C139.894 80.6029 140.098 80.5147 140.098 80.2924V78.1751C140.089 78.0549 140.044 77.9382 139.966 77.8345C139.889 77.7308 139.782 77.6432 139.654 77.5787L132.592 74.3287Z" fill="black"/>
<g opacity="0.07">
<path d="M137.282 72.8678C137.042 72.7584 136.837 72.8466 136.837 73.0654V75.1827C136.845 75.3036 136.89 75.4211 136.968 75.5255C137.045 75.6298 137.153 75.718 137.282 75.7826L144.356 79.022C144.597 79.1314 144.801 79.0432 144.801 78.8209V76.7036C144.792 76.5828 144.748 76.4653 144.67 76.361C144.593 76.2567 144.485 76.1685 144.356 76.1037L137.282 72.8678Z" fill="black"/>
<path d="M132.592 74.3287C132.352 74.2193 132.147 74.3075 132.147 74.5263V76.6436C132.156 76.7644 132.201 76.8819 132.279 76.9862C132.356 77.0905 132.464 77.1787 132.592 77.2435L139.654 80.49C139.894 80.6029 140.098 80.5147 140.098 80.2924V78.1751C140.089 78.0549 140.044 77.9382 139.966 77.8345C139.889 77.7308 139.782 77.6432 139.654 77.5787L132.592 74.3287Z" fill="black"/>
</g>
</g>
<g opacity="0.1">
<path d="M134.315 32.5439C134.075 32.4345 133.87 32.5228 133.87 32.7451V34.8624C133.879 34.9832 133.924 35.1006 134.001 35.2049C134.079 35.3093 134.186 35.3975 134.315 35.4623L141.39 38.7017C141.63 38.8111 141.834 38.7229 141.834 38.5006V36.3833C141.826 36.2625 141.781 36.145 141.703 36.0407C141.626 35.9364 141.518 35.8482 141.39 35.7834L134.315 32.5439Z" fill="black"/>
<path d="M134.315 39.8521C134.075 39.7427 133.87 39.831 133.87 40.0497V42.167C133.879 42.2879 133.924 42.4053 134.001 42.5096C134.079 42.6139 134.186 42.7021 134.315 42.7669L141.39 46.0029C141.63 46.1122 141.834 46.0276 141.834 45.8052V43.688C141.825 43.5677 141.78 43.451 141.702 43.3473C141.625 43.2437 141.518 43.156 141.39 43.0916L134.315 39.8521Z" fill="black"/>
<path d="M138.51 38.1444C138.27 38.0314 138.065 38.1197 138.065 38.342V40.4593C138.075 40.5795 138.12 40.6962 138.198 40.7999C138.275 40.9035 138.382 40.9912 138.51 41.0556L145.58 44.2951C145.821 44.4045 146.025 44.3163 146.025 44.0975V41.9802C146.017 41.8594 145.972 41.7419 145.894 41.6376C145.817 41.5333 145.709 41.4451 145.58 41.3803L138.51 38.1444Z" fill="black"/>
<path d="M129.611 34.005C129.371 33.8956 129.166 33.9838 129.166 34.2026V36.3199C129.175 36.4407 129.22 36.5581 129.297 36.6624C129.374 36.7668 129.482 36.855 129.611 36.9198L136.681 40.1557C136.921 40.2686 137.126 40.1804 137.126 39.9581V37.8408C137.116 37.7206 137.071 37.6038 136.994 37.5002C136.916 37.3965 136.809 37.3089 136.681 37.2444L129.611 34.005Z" fill="black"/>
<g opacity="0.07">
<path d="M134.314 32.5439C134.074 32.4345 133.869 32.5228 133.869 32.7451V34.8624C133.878 34.9832 133.923 35.1006 134 35.2049C134.078 35.3093 134.185 35.3975 134.314 35.4623L141.389 38.7017C141.629 38.8111 141.833 38.7229 141.833 38.5006V36.3833C141.825 36.2625 141.78 36.145 141.702 36.0407C141.625 35.9364 141.517 35.8482 141.389 35.7834L134.314 32.5439Z" fill="black"/>
<path d="M134.314 39.8521C134.074 39.7427 133.869 39.831 133.869 40.0497V42.167C133.878 42.2879 133.923 42.4053 134 42.5096C134.078 42.6139 134.185 42.7021 134.314 42.7669L141.389 46.0029C141.629 46.1122 141.833 46.0276 141.833 45.8052V43.688C141.824 43.5677 141.779 43.451 141.701 43.3473C141.624 43.2437 141.517 43.156 141.389 43.0916L134.314 39.8521Z" fill="black"/>
<path d="M138.509 38.1444C138.269 38.0314 138.064 38.1197 138.064 38.342V40.4593C138.074 40.5795 138.119 40.6962 138.197 40.7999C138.274 40.9035 138.381 40.9912 138.509 41.0556L145.579 44.2951C145.82 44.4045 146.024 44.3163 146.024 44.0975V41.9802C146.016 41.8594 145.971 41.7419 145.893 41.6376C145.816 41.5333 145.708 41.4451 145.579 41.3803L138.509 38.1444Z" fill="black"/>
<path d="M129.611 34.005C129.371 33.8956 129.166 33.9838 129.166 34.2026V36.3199C129.175 36.4407 129.22 36.5581 129.297 36.6624C129.374 36.7668 129.482 36.855 129.611 36.9198L136.681 40.1557C136.921 40.2686 137.126 40.1804 137.126 39.9581V37.8408C137.116 37.7206 137.071 37.6038 136.994 37.5002C136.916 37.3965 136.809 37.3089 136.681 37.2444L129.611 34.005Z" fill="black"/>
</g>
</g>
<g opacity="0.1">
<path d="M147.854 35.1304C147.614 35.0211 147.409 35.1093 147.409 35.3281V37.4453C147.419 37.566 147.464 37.6833 147.541 37.7875C147.619 37.8917 147.726 37.98 147.854 38.0453L154.924 41.2812C155.164 41.3906 155.369 41.3059 155.369 41.0836V38.9663C155.36 38.8461 155.314 38.7293 155.237 38.6257C155.16 38.522 155.052 38.4344 154.924 38.3699L147.854 35.1304Z" fill="black"/>
<path d="M147.854 42.4387C147.614 42.3293 147.409 42.414 147.409 42.6363V44.7536C147.419 44.8738 147.464 44.9906 147.541 45.0942C147.619 45.1979 147.726 45.2855 147.854 45.35L154.924 48.5894C155.164 48.6988 155.369 48.6106 155.369 48.3918V46.2745C155.36 46.1538 155.314 46.0366 155.237 45.9324C155.16 45.8282 155.053 45.7399 154.924 45.6746L147.854 42.4387Z" fill="black"/>
<path d="M152.055 40.713C151.815 40.6036 151.61 40.6918 151.61 40.9106V43.0279C151.618 43.1488 151.663 43.2665 151.74 43.3709C151.818 43.4753 151.926 43.5634 152.055 43.6278L159.125 46.8672C159.366 46.9766 159.57 46.8884 159.57 46.6661V44.5488C159.561 44.428 159.517 44.3105 159.439 44.2062C159.362 44.1019 159.254 44.0137 159.125 43.9489L152.055 40.713Z" fill="black"/>
<path d="M143.155 36.5914C142.915 36.482 142.71 36.5702 142.71 36.789V38.9063C142.719 39.0266 142.764 39.1434 142.842 39.2471C142.919 39.3508 143.026 39.4384 143.155 39.5027L150.229 42.7421C150.47 42.8515 150.674 42.7668 150.674 42.5445V40.4272C150.665 40.307 150.62 40.1903 150.542 40.0866C150.465 39.9829 150.358 39.8953 150.229 39.8308L143.155 36.5914Z" fill="black"/>
<g opacity="0.07">
<path d="M147.853 35.1304C147.613 35.0211 147.408 35.1093 147.408 35.3281V37.4453C147.418 37.566 147.463 37.6833 147.54 37.7875C147.618 37.8917 147.725 37.98 147.853 38.0453L154.923 41.2812C155.163 41.3906 155.368 41.3059 155.368 41.0836V38.9663C155.359 38.8461 155.313 38.7293 155.236 38.6257C155.159 38.522 155.051 38.4344 154.923 38.3699L147.853 35.1304Z" fill="black"/>
<path d="M147.853 42.4387C147.613 42.3293 147.408 42.414 147.408 42.6363V44.7536C147.418 44.8738 147.463 44.9906 147.54 45.0942C147.618 45.1979 147.725 45.2855 147.853 45.35L154.923 48.5894C155.163 48.6988 155.368 48.6106 155.368 48.3918V46.2745C155.359 46.1538 155.313 46.0366 155.236 45.9324C155.159 45.8282 155.052 45.7399 154.923 45.6746L147.853 42.4387Z" fill="black"/>
<path d="M152.053 40.713C151.813 40.6036 151.608 40.6918 151.608 40.9106V43.0279C151.616 43.1488 151.661 43.2665 151.739 43.3709C151.816 43.4753 151.924 43.5634 152.053 43.6278L159.123 46.8672C159.364 46.9766 159.568 46.8884 159.568 46.6661V44.5488C159.56 44.428 159.515 44.3105 159.437 44.2062C159.36 44.1019 159.252 44.0137 159.123 43.9489L152.053 40.713Z" fill="black"/>
<path d="M143.155 36.5914C142.915 36.482 142.71 36.5702 142.71 36.789V38.9063C142.719 39.0266 142.764 39.1434 142.842 39.2471C142.919 39.3508 143.026 39.4384 143.155 39.5027L150.229 42.7421C150.47 42.8515 150.674 42.7668 150.674 42.5445V40.4272C150.665 40.307 150.62 40.1903 150.542 40.0866C150.465 39.9829 150.358 39.8953 150.229 39.8308L143.155 36.5914Z" fill="black"/>
</g>
</g>
<g opacity="0.1">
<path d="M229.534 112.45C229.294 112.341 229.089 112.429 229.089 112.648V114.765C229.098 114.886 229.143 115.003 229.22 115.108C229.297 115.212 229.405 115.3 229.534 115.365L236.595 118.601C236.835 118.714 237.04 118.626 237.04 118.403V116.286C237.03 116.166 236.985 116.049 236.908 115.945C236.83 115.842 236.723 115.754 236.595 115.69L229.534 112.45Z" fill="black"/>
<path d="M229.534 119.758C229.294 119.649 229.089 119.737 229.089 119.956V122.073C229.098 122.194 229.144 122.311 229.221 122.415C229.298 122.52 229.405 122.608 229.534 122.673L236.604 125.909C236.844 126.018 237.049 125.934 237.049 125.711V123.594C237.039 123.474 236.994 123.357 236.917 123.254C236.839 123.15 236.732 123.062 236.604 122.998L229.534 119.758Z" fill="black"/>
<path d="M233.735 118.033C233.495 117.923 233.29 118.012 233.29 118.234V120.351C233.298 120.472 233.343 120.59 233.42 120.694C233.498 120.799 233.606 120.887 233.735 120.951L240.805 124.19C241.045 124.3 241.25 124.212 241.25 123.993V121.876C241.241 121.755 241.196 121.637 241.119 121.533C241.041 121.429 240.934 121.34 240.805 121.276L233.735 118.033Z" fill="black"/>
<path d="M224.836 113.911C224.595 113.802 224.391 113.89 224.391 114.109V116.226C224.4 116.347 224.445 116.464 224.522 116.568C224.6 116.673 224.707 116.761 224.836 116.826L231.91 120.062C232.15 120.171 232.355 120.087 232.355 119.864V117.747C232.345 117.627 232.3 117.51 232.223 117.406C232.146 117.303 232.038 117.215 231.91 117.151L224.836 113.911Z" fill="black"/>
<g opacity="0.07">
<path d="M229.534 112.45C229.294 112.341 229.089 112.429 229.089 112.648V114.765C229.098 114.886 229.143 115.003 229.22 115.108C229.297 115.212 229.405 115.3 229.534 115.365L236.595 118.601C236.835 118.714 237.04 118.626 237.04 118.403V116.286C237.03 116.166 236.985 116.049 236.908 115.945C236.83 115.842 236.723 115.754 236.595 115.69L229.534 112.45Z" fill="black"/>
<path d="M229.534 119.758C229.294 119.649 229.089 119.737 229.089 119.956V122.073C229.098 122.194 229.144 122.311 229.221 122.415C229.298 122.52 229.405 122.608 229.534 122.673L236.604 125.909C236.844 126.018 237.049 125.934 237.049 125.711V123.594C237.039 123.474 236.994 123.357 236.917 123.254C236.839 123.15 236.732 123.062 236.604 122.998L229.534 119.758Z" fill="black"/>
<path d="M233.734 118.033C233.494 117.923 233.289 118.012 233.289 118.234V120.351C233.297 120.472 233.342 120.59 233.419 120.694C233.497 120.799 233.605 120.887 233.734 120.951L240.804 124.19C241.044 124.3 241.249 124.212 241.249 123.993V121.876C241.24 121.755 241.195 121.637 241.118 121.533C241.04 121.429 240.933 121.34 240.804 121.276L233.734 118.033Z" fill="black"/>
<path d="M224.836 113.911C224.595 113.802 224.391 113.89 224.391 114.109V116.226C224.4 116.347 224.445 116.464 224.522 116.568C224.6 116.673 224.707 116.761 224.836 116.826L231.91 120.062C232.15 120.171 232.355 120.087 232.355 119.864V117.747C232.345 117.627 232.3 117.51 232.223 117.406C232.146 117.303 232.038 117.215 231.91 117.151L224.836 113.911Z" fill="black"/>
</g>
</g>
<g opacity="0.1">
<path d="M234.623 75.9695C234.382 75.8601 234.178 75.9448 234.178 76.1671V78.2844C234.187 78.4046 234.232 78.5213 234.31 78.625C234.387 78.7286 234.494 78.8163 234.623 78.8807L241.693 82.1202C241.933 82.2296 242.138 82.1414 242.138 81.9226V79.8053C242.13 79.6843 242.085 79.5667 242.008 79.4623C241.93 79.3579 241.822 79.2698 241.693 79.2054L234.623 75.9695Z" fill="black"/>
<path d="M229.924 77.4305C229.684 77.3176 229.479 77.4058 229.479 77.6281V79.7454C229.489 79.8656 229.534 79.9823 229.612 80.086C229.689 80.1897 229.796 80.2773 229.924 80.3418L236.999 83.5812C237.239 83.6906 237.444 83.6024 237.444 83.3836V81.2663C237.435 81.1455 237.39 81.0281 237.313 80.9237C237.235 80.8194 237.128 80.7312 236.999 80.6664L229.924 77.4305Z" fill="black"/>
<g opacity="0.07">
<path d="M234.624 75.9695C234.383 75.8601 234.179 75.9448 234.179 76.1671V78.2844C234.188 78.4046 234.233 78.5213 234.311 78.625C234.388 78.7286 234.495 78.8163 234.624 78.8807L241.694 82.1202C241.934 82.2296 242.139 82.1414 242.139 81.9226V79.8053C242.131 79.6843 242.086 79.5667 242.008 79.4623C241.931 79.3579 241.823 79.2698 241.694 79.2054L234.624 75.9695Z" fill="black"/>
<path d="M229.925 77.4305C229.685 77.3176 229.48 77.4058 229.48 77.6281V79.7454C229.49 79.8656 229.535 79.9823 229.613 80.086C229.69 80.1897 229.797 80.2773 229.925 80.3418L237 83.5812C237.24 83.6906 237.445 83.6024 237.445 83.3836V81.2663C237.436 81.1455 237.391 81.0281 237.314 80.9237C237.236 80.8194 237.129 80.7312 237 80.6664L229.925 77.4305Z" fill="black"/>
</g>
</g>
<g opacity="0.1">
<path d="M221.113 134.022C220.873 133.913 220.668 134.001 220.668 134.22V136.337C220.677 136.458 220.722 136.575 220.799 136.68C220.876 136.784 220.984 136.872 221.113 136.937L228.187 140.176C228.428 140.286 228.632 140.197 228.632 139.975V137.858C228.624 137.737 228.579 137.62 228.501 137.515C228.424 137.411 228.316 137.323 228.187 137.258L221.113 134.022Z" fill="black"/>
<path d="M221.113 141.33C220.873 141.221 220.668 141.309 220.668 141.528V143.645C220.677 143.766 220.723 143.883 220.8 143.987C220.877 144.091 220.985 144.18 221.113 144.245L228.187 147.481C228.428 147.59 228.632 147.506 228.632 147.283V145.166C228.623 145.046 228.578 144.929 228.5 144.825C228.423 144.722 228.316 144.634 228.187 144.57L221.113 141.33Z" fill="black"/>
<path d="M225.308 139.608C225.068 139.495 224.863 139.584 224.863 139.806V141.923C224.873 142.043 224.918 142.16 224.995 142.264C225.073 142.367 225.18 142.455 225.308 142.52L232.369 145.773C232.61 145.882 232.814 145.794 232.814 145.575V143.458C232.806 143.337 232.762 143.22 232.684 143.115C232.607 143.011 232.499 142.923 232.369 142.858L225.308 139.608Z" fill="black"/>
<path d="M216.409 135.483C216.169 135.374 215.964 135.462 215.964 135.681V137.798C215.973 137.919 216.018 138.036 216.095 138.14C216.172 138.245 216.28 138.333 216.409 138.398L223.479 141.634C223.719 141.747 223.924 141.658 223.924 141.436V139.319C223.914 139.199 223.869 139.082 223.792 138.978C223.714 138.875 223.607 138.787 223.479 138.722L216.409 135.483Z" fill="black"/>
<g opacity="0.07">
<path d="M221.111 134.022C220.871 133.913 220.666 134.001 220.666 134.22V136.337C220.675 136.458 220.72 136.575 220.797 136.68C220.874 136.784 220.982 136.872 221.111 136.937L228.185 140.176C228.426 140.286 228.63 140.197 228.63 139.975V137.858C228.622 137.737 228.577 137.62 228.499 137.515C228.422 137.411 228.314 137.323 228.185 137.258L221.111 134.022Z" fill="black"/>
<path d="M221.111 141.33C220.871 141.221 220.666 141.309 220.666 141.528V143.645C220.676 143.766 220.721 143.883 220.798 143.987C220.875 144.091 220.983 144.18 221.111 144.245L228.185 147.481C228.426 147.59 228.63 147.506 228.63 147.283V145.166C228.621 145.046 228.576 144.929 228.498 144.825C228.421 144.722 228.314 144.634 228.185 144.57L221.111 141.33Z" fill="black"/>
<path d="M225.306 139.608C225.066 139.495 224.861 139.584 224.861 139.806V141.923C224.871 142.043 224.916 142.16 224.993 142.264C225.071 142.367 225.178 142.455 225.306 142.52L232.367 145.773C232.608 145.882 232.812 145.794 232.812 145.575V143.458C232.804 143.337 232.76 143.22 232.682 143.115C232.605 143.011 232.497 142.923 232.367 142.858L225.306 139.608Z" fill="black"/>
<path d="M216.408 135.483C216.168 135.374 215.963 135.462 215.963 135.681V137.798C215.972 137.919 216.017 138.036 216.094 138.14C216.171 138.245 216.279 138.333 216.408 138.398L223.478 141.634C223.718 141.747 223.923 141.658 223.923 141.436V139.319C223.913 139.199 223.868 139.082 223.791 138.978C223.713 138.875 223.606 138.787 223.478 138.722L216.408 135.483Z" fill="black"/>
</g>
</g>
<g opacity="0.1">
<path d="M241.686 84.6397C241.446 84.5303 241.241 84.6186 241.241 84.8373V86.9546C241.251 87.0748 241.296 87.1916 241.373 87.2952C241.451 87.3989 241.558 87.4865 241.686 87.551L248.756 90.7905C248.996 90.8998 249.201 90.8116 249.201 90.5928V88.4756C249.192 88.3553 249.146 88.2386 249.069 88.1349C248.992 88.0313 248.884 87.9436 248.756 87.8792L241.686 84.6397Z" fill="black"/>
<path d="M241.686 91.948C241.446 91.8386 241.241 91.9233 241.241 92.1456V94.2629C241.251 94.3831 241.296 94.4998 241.373 94.6035C241.451 94.7072 241.558 94.7948 241.686 94.8593L248.756 98.0987C248.996 98.2081 249.201 98.1199 249.201 97.9011V95.7838C249.192 95.663 249.147 95.5455 249.07 95.4412C248.993 95.3369 248.885 95.2487 248.756 95.1839L241.686 91.948Z" fill="black"/>
<path d="M236.988 86.1008C236.748 85.9914 236.543 86.0761 236.543 86.2984V88.4157C236.551 88.5361 236.596 88.6532 236.674 88.757C236.751 88.8608 236.859 88.9483 236.988 89.0121L244.067 92.2621C244.307 92.3715 244.512 92.2833 244.512 92.0645V89.9472C244.502 89.8265 244.457 89.7093 244.38 89.6051C244.302 89.5009 244.195 89.4126 244.067 89.3473L236.988 86.1008Z" fill="black"/>
<g opacity="0.07">
<path d="M241.687 84.6397C241.447 84.5303 241.242 84.6186 241.242 84.8373V86.9546C241.252 87.0748 241.297 87.1916 241.374 87.2952C241.452 87.3989 241.559 87.4865 241.687 87.551L248.757 90.7905C248.997 90.8998 249.202 90.8116 249.202 90.5928V88.4756C249.193 88.3553 249.147 88.2386 249.07 88.1349C248.993 88.0313 248.885 87.9436 248.757 87.8792L241.687 84.6397Z" fill="black"/>
<path d="M241.687 91.948C241.447 91.8386 241.242 91.9233 241.242 92.1456V94.2629C241.252 94.3831 241.297 94.4998 241.374 94.6035C241.452 94.7072 241.559 94.7948 241.687 94.8593L248.757 98.0987C248.997 98.2081 249.202 98.1199 249.202 97.9011V95.7838C249.193 95.663 249.148 95.5455 249.071 95.4412C248.994 95.3369 248.886 95.2487 248.757 95.1839L241.687 91.948Z" fill="black"/>
<path d="M236.989 86.1008C236.749 85.9914 236.544 86.0761 236.544 86.2984V88.4157C236.552 88.5361 236.597 88.6532 236.675 88.757C236.752 88.8608 236.86 88.9483 236.989 89.0121L244.068 92.2621C244.308 92.3715 244.513 92.2833 244.513 92.0645V89.9472C244.503 89.8265 244.458 89.7093 244.381 89.6051C244.303 89.5009 244.196 89.4126 244.068 89.3473L236.989 86.1008Z" fill="black"/>
</g>
</g>
<path d="M123.512 106.843L128.509 104.539L128.518 102.527L126.916 101.472L121.919 103.773L120.5 104.666L121.91 106.744L123.512 106.843Z" fill="#BA68C8"/>
<path opacity="0.3" d="M128.517 102.527L126.916 101.472L121.919 103.773L123.521 104.828L128.517 102.527Z" fill="white"/>
<path opacity="0.2" d="M123.512 106.843L128.508 104.539L128.517 102.527L123.521 104.828L123.512 106.843Z" fill="white"/>
<path d="M164.607 63.3785L167.632 63.1738L172.625 60.8695L169.056 55.5587L165.092 54.6553L160.1 56.9596L164.607 63.3785Z" fill="#BA68C8"/>
<path opacity="0.3" d="M167.632 63.1738L172.625 60.8695L169.056 55.5586L164.06 57.8594L167.632 63.1738Z" fill="white"/>
<path opacity="0.4" d="M164.06 57.8594L169.056 55.5587L165.092 54.6553L160.1 56.9596L164.06 57.8594Z" fill="white"/>
<path d="M127.642 118.859L127.646 118.104L126.583 117.617L125.666 114.522L122.374 114.06L117.377 116.36L116.616 118.396L115.855 119.515L118.107 123.45L119.62 123.376L122.966 124.314L127.962 122.01L127.642 118.859Z" fill="#BA68C8"/>
<path opacity="0.4" d="M127.641 118.859L122.648 121.16L122.964 124.314L127.961 122.01L127.641 118.859Z" fill="white"/>
<path opacity="0.4" d="M122.648 120.408L127.645 118.104L126.582 117.617L121.585 119.917L122.648 120.408Z" fill="white"/>
<path opacity="0.3" d="M122.648 121.159L127.641 118.859L127.645 118.104L122.648 120.408V121.159Z" fill="white"/>
<path opacity="0.3" d="M121.585 119.918L126.582 117.617L125.665 114.522L120.673 116.823L121.585 119.918Z" fill="white"/>
<path opacity="0.4" d="M125.666 114.522L122.374 114.06L117.377 116.36L120.674 116.823L125.666 114.522Z" fill="white"/>
<path d="M220.273 165.104L218.44 161.483L216.011 160.368L215.009 158.868L210.013 161.169L208.5 162.316L208.825 165.022L210.502 165.351L212.255 168.008L215.281 167.404L220.273 165.104Z" fill="#BA68C8"/>
<path opacity="0.4" d="M216.01 160.368L215.009 158.868L210.013 161.169L211.014 162.669L216.01 160.368Z" fill="white"/>
<path opacity="0.3" d="M213.446 163.784L218.439 161.483L216.009 160.368L211.013 162.669L213.446 163.784Z" fill="white"/>
<path opacity="0.4" d="M215.28 167.405L220.273 165.104L218.439 161.483L213.447 163.784L215.28 167.405Z" fill="white"/>
<path d="M167.219 114.913L166.009 112.828L164.496 112.397L159.504 114.698L159.495 116.731L160.999 118.262L160.995 120.15L164.011 121.534L169.003 119.229L168.514 115.926L167.219 114.913Z" fill="#BA68C8"/>
<path opacity="0.3" d="M162.222 117.214L167.219 114.914L166.008 112.828L161.012 115.132L162.222 117.214Z" fill="white"/>
<path opacity="0.4" d="M166.007 112.828L164.494 112.397L159.502 114.698L161.01 115.132L166.007 112.828Z" fill="white"/>
<path opacity="0.4" d="M163.515 118.227L168.512 115.926L167.217 114.914L162.221 117.214L163.515 118.227Z" fill="white"/>
<path opacity="0.3" d="M163.516 118.227L164.01 121.534L169.002 119.229L168.512 115.926L163.516 118.227Z" fill="white"/>
<path d="M134.617 86.3408L132.936 88.1194L135.667 90.7377L140.66 88.4334L141.283 86.8278L139.614 84.04L134.617 86.3408Z" fill="#BA68C8"/>
<path opacity="0.3" d="M135.667 90.7376L140.659 88.4332L141.282 86.8276L136.29 89.1284L135.667 90.7376Z" fill="white"/>
<path opacity="0.4" d="M134.618 86.3403L136.291 89.1281L141.283 86.8273L139.615 84.0396L134.618 86.3403Z" fill="white"/>
<path d="M110.537 125.158L109.381 126.672L105.892 127.826L105.879 130.882L108.7 133.504L112.744 132.971L112.749 131.686L116.815 131.093L116.829 128.037L116.753 125.123L110.537 125.158Z" fill="#BA68C8"/>
<path opacity="0.2" d="M112.598 129.936L112.753 129.914L112.749 131.686L116.816 131.093L116.829 128.037L112.602 128.655L112.598 129.936Z" fill="white"/>
<path opacity="0.3" d="M112.598 129.936L108.709 130.447L108.7 133.503L112.745 132.971L112.749 131.686L112.754 129.915L112.598 129.936Z" fill="white"/>
<path opacity="0.2" d="M105.892 127.825L105.879 130.881L108.7 133.503L108.709 130.447L105.892 127.825Z" fill="white"/>
<path d="M179.582 155.76L179.591 152.707L174.643 151.352L174.43 155.608L174.421 158.66L179.164 159.246L179.582 155.76Z" fill="#BA68C8"/>
<path opacity="0.3" d="M179.582 155.759L179.591 152.707L179.177 156.19L179.164 159.246L179.582 155.759Z" fill="white"/>
<path opacity="0.2" d="M179.177 156.19L174.43 155.608L174.421 158.66L179.164 159.246L179.177 156.19Z" fill="white"/>
<path d="M143.765 135.536L148.944 135.917L150.128 133.68L150.137 130.624L147.836 129.569L147.841 128.528L144.33 128.761L141.874 130.197L141.865 133.249L143.774 133.733L143.765 135.536Z" fill="#BA68C8"/>
<path opacity="0.2" d="M143.774 132.48L144.028 132.498L144.037 130.74L141.874 130.197L141.865 133.249L143.774 133.733V132.48Z" fill="white"/>
<path opacity="0.2" d="M150.128 133.679L150.137 130.624L148.958 132.864L148.944 135.917L150.128 133.679Z" fill="white"/>
<path opacity="0.3" d="M143.774 133.733L143.765 135.536L148.944 135.917L148.957 132.865L144.027 132.498L143.774 132.48V133.733Z" fill="white"/>
<path d="M142.311 154.221L138.662 153.826L137.719 155.297L137.71 158.353L143.908 160.001L147.37 158.406L147.378 155.35L143.539 153.194L142.311 154.221Z" fill="#BA68C8"/>
<path opacity="0.3" d="M143.907 160.001L147.369 158.406L147.378 155.35L143.916 156.945L143.907 160.001Z" fill="white"/>
<path opacity="0.2" d="M137.719 155.297L137.71 158.353L143.908 160.001L143.917 156.945L137.719 155.297Z" fill="white"/>
<path d="M185.518 153.06L185.718 151.497L185.727 148.441L184.922 147.079L182.39 147.294L182.261 148.046L180.499 148.165L180.495 149.552L178.55 150.452L178.537 153.508L180.619 153.932L182.243 153.879L185.518 153.06Z" fill="#BA68C8"/>
<path opacity="0.3" d="M185.718 151.497L185.727 148.441L185.526 150.008L185.518 153.06L185.718 151.497Z" fill="white"/>
<path opacity="0.2" d="M185.519 153.06L185.528 150.008L182.253 150.823L182.244 153.879L185.519 153.06Z" fill="white"/>
<path opacity="0.3" d="M182.251 150.823L180.632 150.876L180.618 153.932L182.242 153.879L182.251 150.823Z" fill="white"/>
<path opacity="0.2" d="M180.619 150.876L180.49 150.847L178.55 150.452L178.537 153.508L180.619 153.932L180.633 150.876H180.619Z" fill="white"/>
<path d="M202.981 145.597L197.162 145.353L194.87 146.203L194.861 149.256L196.04 151.19L200.757 150.057L202.973 148.649L202.981 145.597Z" fill="#BA68C8"/>
<path opacity="0.3" d="M202.982 145.597L200.77 147.001L200.757 150.057L202.973 148.649L202.982 145.597Z" fill="white"/>
<path opacity="0.2" d="M196.053 148.134L196.04 151.19L200.756 150.057L200.77 147.001L196.053 148.134Z" fill="white"/>
<path opacity="0.3" d="M194.87 146.204L194.861 149.256L196.04 151.19L196.054 148.134L194.87 146.204Z" fill="white"/>
<path d="M211.36 104.606L211.369 101.55L210.119 100.653L207.027 100.78L206.884 102.146L206.871 105.198L209.167 105.615L211.36 104.606Z" fill="#BA68C8"/>
<path opacity="0.2" d="M211.361 104.606L211.369 101.55L209.176 102.563L209.167 105.615L211.361 104.606Z" fill="white"/>
<path opacity="0.3" d="M209.176 102.562L206.884 102.146L206.871 105.198L209.167 105.615L209.176 102.562Z" fill="white"/>
<path d="M213.669 122.384L208.735 120.651L206.506 120.955L205.153 125.563L207.431 127.346L208.579 130.631L213.638 130.154L215.867 129.851L215.899 126.541L213.736 125.881L213.669 122.384Z" fill="#BA68C8"/>
<path opacity="0.3" d="M208.579 130.631L213.638 130.155L215.867 129.851L210.808 130.327L208.579 130.631Z" fill="white"/>
<path opacity="0.3" d="M209.664 127.042L207.431 127.345L208.579 130.631L210.808 130.327L209.664 127.042Z" fill="white"/>
<path opacity="0.2" d="M207.382 125.264L205.153 125.564L207.431 127.346L209.665 127.042L207.382 125.264Z" fill="white"/>
<path opacity="0.3" d="M208.735 120.651L206.506 120.955L205.153 125.563L207.382 125.264L208.735 120.651Z" fill="white"/>
<path d="M157.901 81.1532L157.451 80.3134L156.085 80.4969L153.869 78.249L151.636 78.549L148.971 81.2203L149.638 84.2163L149.754 86.1853L153.749 88.3767L155.978 88.0768L157.033 86.5347L160.018 84.3362L157.901 81.1532Z" fill="#BA68C8"/>
<path opacity="0.2" d="M151.2 80.9204L148.971 81.2204L149.638 84.2163L151.867 83.9128L151.2 80.9204Z" fill="white"/>
<path opacity="0.3" d="M153.869 78.249L151.636 78.549L148.971 81.2203L151.2 80.9203L153.869 78.249Z" fill="white"/>
<path opacity="0.2" d="M149.754 86.1853L153.749 88.3767L155.979 88.0768L151.983 85.8818L149.754 86.1853Z" fill="white"/>
<path opacity="0.3" d="M151.869 83.9126L149.64 84.2161L149.755 86.1852L151.984 85.8817L151.869 83.9126Z" fill="white"/>
<path d="M148.963 100.336L146.734 100.639L143.588 102.079L143.744 105.146L147.575 105.933L149.804 105.633L150.831 103.822L148.762 102.654L148.963 100.336Z" fill="#BA68C8"/>
<path opacity="0.2" d="M148.963 100.336L146.734 100.639L143.588 102.079L145.821 101.776L148.963 100.336Z" fill="white"/>
<path opacity="0.2" d="M143.744 105.146L147.575 105.933L149.804 105.633L145.973 104.846L143.744 105.146Z" fill="white"/>
<path opacity="0.3" d="M145.821 101.776L143.588 102.079L143.744 105.146L145.973 104.846L145.821 101.776Z" fill="white"/>
<path d="M199.516 122.557L201.585 119.409L195.814 116.964L193.58 117.267L190.163 120.094L197.286 122.857L199.516 122.557Z" fill="#BA68C8"/>
<path opacity="0.3" d="M199.516 122.557L192.392 119.79L190.163 120.094L197.286 122.857L199.516 122.557Z" fill="white"/>
<path opacity="0.2" d="M195.814 116.964L193.58 117.267L190.163 120.094L192.392 119.79L195.814 116.964Z" fill="white"/>
<path d="M187.178 141.81L189.407 141.51L191.236 137.921L187.734 135.673L185.505 135.977L184.491 136.439L183.681 136.09L181.452 136.393L181.038 139.121L182.898 141.813L185.127 141.514L185.576 141.111L187.178 141.81Z" fill="#BA68C8"/>
<path opacity="0.3" d="M184.451 140.54L183.267 138.821L181.038 139.121L182.898 141.814L185.127 141.514L184.535 140.656L184.451 140.54Z" fill="white"/>
<path opacity="0.2" d="M183.539 137.025L183.561 136.866L183.681 136.09L181.452 136.393L181.038 139.121L183.267 138.821L183.539 137.025Z" fill="white"/>
<path d="M151.668 66.1133L149.439 66.4132L149.181 71.2089L151.41 70.9054L154.373 70.1044L154.791 67.7718L151.668 66.1133Z" fill="#BA68C8"/>
<path opacity="0.2" d="M149.181 71.2089L151.41 70.9054L151.668 66.1133L149.439 66.4132L149.181 71.2089Z" fill="white"/>
<path d="M200.438 132.236L198.213 132.536L197.955 137.332L200.184 137.032L203.143 136.227L203.561 133.895L200.438 132.236Z" fill="#BA68C8"/>
<path opacity="0.2" d="M197.955 137.332L200.184 137.032L200.438 132.236L198.213 132.536L197.955 137.332Z" fill="white"/>
<path d="M156.558 141.087L152.047 142.604L153.497 144.136L151.993 146.585L154.262 148.187L156.491 147.887L160.683 144.316L158.787 140.783L156.558 141.087Z" fill="#BA68C8"/>
<path opacity="0.3" d="M156.559 141.087L152.047 142.604L154.276 142.301L158.788 140.783L156.559 141.087Z" fill="white"/>
<path opacity="0.2" d="M153.497 144.136L155.731 143.836L154.276 142.301L152.047 142.604L153.497 144.136Z" fill="white"/>
<path opacity="0.2" d="M154.262 148.187L156.491 147.887L154.222 146.285L151.993 146.585L154.262 148.187Z" fill="white"/>
<path opacity="0.3" d="M151.993 146.584L154.222 146.284L155.731 143.835L153.497 144.135L151.993 146.584Z" fill="white"/>
<path d="M214.358 145.628L212.227 144.485L210.003 144.785L208.646 145.769L209.86 148.028L211.867 148.268L212.997 150.374L215.226 150.071L218.243 148.691L215.907 145.501L214.358 145.628Z" fill="#BA68C8"/>
<path opacity="0.2" d="M211.867 148.268L212.997 150.374L215.226 150.071L214.096 147.968L211.867 148.268Z" fill="white"/>
<path opacity="0.3" d="M212.089 147.728L209.86 148.028L211.867 148.268L214.096 147.968L212.089 147.728Z" fill="white"/>
<path opacity="0.2" d="M210.879 145.466L208.646 145.769L209.86 148.028L212.089 147.728L210.879 145.466Z" fill="white"/>
<path opacity="0.3" d="M212.227 144.485L210.003 144.785L208.646 145.769L210.879 145.466L212.227 144.485Z" fill="white"/>
<path d="M142.195 56.5149L140.068 55.3716L137.839 55.6715L136.486 56.6525L137.701 58.9145L139.708 59.1545L140.838 61.2576L143.067 60.9577L146.084 59.5779L143.743 56.3879L142.195 56.5149Z" fill="#BA68C8"/>
<path opacity="0.2" d="M139.708 59.1544L140.838 61.2576L143.067 60.9577L141.937 58.8545L139.708 59.1544Z" fill="white"/>
<path opacity="0.3" d="M139.93 58.6113L137.701 58.9148L139.708 59.1548L141.937 58.8548L139.93 58.6113Z" fill="white"/>
<path opacity="0.2" d="M138.715 56.3525L136.486 56.6525L137.701 58.9145L139.93 58.611L138.715 56.3525Z" fill="white"/>
<path opacity="0.3" d="M140.068 55.3716L137.839 55.6715L136.486 56.6525L138.715 56.3526L140.068 55.3716Z" fill="white"/>
<path d="M162.683 92.1523L160.45 92.4558L160.294 96.0517L163.845 96.3128L166.074 96.0129L165.562 93.6344L162.683 92.1523Z" fill="#BA68C8"/>
<path opacity="0.2" d="M160.294 96.0519L163.845 96.313L166.074 96.0131L162.528 95.752L160.294 96.0519Z" fill="white"/>
<path opacity="0.3" d="M162.683 92.1523L160.45 92.4558L160.294 96.0517L162.528 95.7517L162.683 92.1523Z" fill="white"/>
<path d="M150.044 121.872L151.178 123.993L153.407 123.693L154.6 122.412L154.885 121.184L154.257 118.269L151.663 117.158L149.185 116.921L146.956 117.225L146.742 119.226L147.979 119.78L147.774 121.149L150.044 121.872Z" fill="#BA68C8"/>
<path opacity="0.3" d="M151.179 123.993L153.408 123.693L152.273 121.572L150.044 121.872L151.179 123.993Z" fill="white"/>
<path opacity="0.2" d="M150.043 121.872L152.272 121.573L150.003 120.849L147.773 121.149L150.043 121.872Z" fill="white"/>
<path opacity="0.3" d="M150.003 120.849L150.207 119.479L147.978 119.779L147.773 121.149L150.003 120.849Z" fill="white"/>
<path opacity="0.2" d="M148.971 118.926L146.742 119.226L147.979 119.78L150.208 119.48L148.971 118.926Z" fill="white"/>
<path opacity="0.3" d="M149.185 116.921L146.956 117.225L146.742 119.226L148.971 118.926L149.185 116.921Z" fill="white"/>
<path d="M203.338 81.5027L205.567 81.1992L204.744 77.0282L202.88 74.5298L200.65 74.8333L198.906 78.9796L199.814 81.1887L203.338 81.5027Z" fill="#BA68C8"/>
<path opacity="0.2" d="M203.338 81.5028L205.567 81.1993L202.044 80.8853L199.814 81.1887L203.338 81.5028Z" fill="white"/>
<path opacity="0.3" d="M202.043 80.8848L201.135 78.6758L198.906 78.9793L199.814 81.1883L202.043 80.8848Z" fill="white"/>
<path opacity="0.2" d="M202.88 74.5298L200.65 74.8333L198.906 78.9796L201.135 78.6761L202.88 74.5298Z" fill="white"/>
<path d="M195.805 68.5022L197.029 67.0625L195.827 64.8252L193.598 65.1251L191.805 65.5063L191.307 67.8635L193.576 68.8057L195.805 68.5022Z" fill="#BA68C8"/>
<path opacity="0.3" d="M195.827 64.8252L193.598 65.1251L191.805 65.5063L194.034 65.2028L195.827 64.8252Z" fill="white"/>
<path opacity="0.2" d="M195.805 68.5023L193.536 67.5601L191.307 67.8635L193.576 68.8057L195.805 68.5023Z" fill="white"/>
<path opacity="0.3" d="M194.034 65.2031L191.805 65.5066L191.307 67.8639L193.536 67.5604L194.034 65.2031Z" fill="white"/>
<path d="M164.394 135.169L164.305 133.186L166.066 131.414L162.071 130.257L159.842 130.56L159.441 135.067L162.164 135.469L164.394 135.169Z" fill="#BA68C8"/>
<path opacity="0.3" d="M164.394 135.169L161.671 134.767L159.441 135.067L162.164 135.469L164.394 135.169Z" fill="white"/>
<path opacity="0.2" d="M162.071 130.257L159.842 130.56L159.441 135.067L161.671 134.767L162.071 130.257Z" fill="white"/>
<path d="M142.532 136.803L142.537 135.363L143.453 134.548L143.467 131.495L139.039 130.514L135.689 131.365L133.34 131.753L132.441 134.248L132.428 137.3L134.773 137.607L138.768 138.839L141.714 137.18L142.532 136.803Z" fill="#BA68C8"/>
<path opacity="0.2" d="M142.541 133.747L142.537 135.363L143.454 134.548L143.467 131.496L141.478 133.26L141.474 134.266L141.723 134.128L142.541 133.747Z" fill="white"/>
<path opacity="0.3" d="M141.724 134.128L141.715 137.18L142.534 136.803L142.538 135.363L142.542 133.747L141.724 134.128Z" fill="white"/>
<path opacity="0.3" d="M132.441 134.248L132.428 137.3L134.773 137.607L134.781 134.555L132.441 134.248Z" fill="white"/>
<path opacity="0.3" d="M141.723 134.128L141.474 134.266L138.777 135.786L138.769 138.839L141.714 137.18L141.723 134.128Z" fill="white"/>
<path opacity="0.2" d="M134.783 134.555L134.774 137.607L138.77 138.839L138.779 135.786L134.783 134.555Z" fill="white"/>
<path d="M200.979 91.9265L191.755 86.2134L190.856 87.5014L200.218 93.3204L200.979 91.9265Z" fill="#263238"/>
<path d="M184.001 97.0753L178.826 96.6978C179.48 99.3056 180.633 102.916 180.633 102.916L186.862 101.476L184.001 97.0753Z" fill="#455A64"/>
<path d="M168.909 136.051C170.074 136.216 171.274 136.073 172.327 135.645C173.067 135.292 173.782 134.908 174.471 134.495C174.992 134.199 175.595 134.005 176.229 133.93C176.936 133.87 177.627 133.726 178.28 133.503C179.036 133.265 179.648 132.805 179.988 132.219C180.052 132.104 180.085 131.98 180.085 131.855C180.085 131.73 180.052 131.606 179.988 131.492L180.153 131.636C180.297 131.768 180.391 131.93 180.424 132.102C180.457 132.274 180.428 132.451 180.34 132.61C179.989 133.207 179.366 133.675 178.596 133.92C177.931 134.148 177.226 134.295 176.505 134.354C175.862 134.433 175.252 134.631 174.725 134.932C173.986 135.317 173.314 135.783 172.531 136.107C171.457 136.544 170.231 136.689 169.043 136.52C168.794 136.501 168.553 136.442 168.334 136.348C168.115 136.253 167.922 136.125 167.766 135.97C167.632 135.795 167.57 135.592 167.588 135.388C167.615 135.43 167.641 135.472 167.673 135.515C167.824 135.664 168.011 135.789 168.224 135.881C168.436 135.973 168.669 136.031 168.909 136.051Z" fill="black"/>
<path d="M179.804 131.266C179.875 131.335 179.935 131.411 179.982 131.492C180.046 131.606 180.079 131.73 180.079 131.855C180.079 131.98 180.046 132.104 179.982 132.219C179.642 132.805 179.03 133.265 178.274 133.503C177.621 133.726 176.929 133.87 176.223 133.93C175.589 134.005 174.986 134.199 174.465 134.495C173.776 134.908 173.06 135.292 172.321 135.645C171.268 136.073 170.068 136.216 168.903 136.051C168.66 136.032 168.423 135.975 168.208 135.883C167.992 135.791 167.802 135.666 167.649 135.515C167.618 135.472 167.591 135.43 167.564 135.388C167.49 135.23 167.46 135.061 167.478 134.893C167.495 134.725 167.56 134.563 167.667 134.417C167.921 134.087 168.284 133.819 168.717 133.641C169.162 133.45 169.606 133.288 170.007 133.112C170.684 132.777 171.312 132.384 171.88 131.94C172.423 131.545 172.967 131.151 173.513 130.758L179.422 130.945C179.422 130.945 179.609 131.09 179.804 131.266Z" fill="#263238"/>
<path d="M212.427 113.876C212.427 112.938 212.04 112.025 211.323 111.279C210.755 110.763 210.153 110.271 209.521 109.804C209.061 109.45 208.714 109.013 208.511 108.53C208.311 107.99 208.011 107.476 207.621 107.005C207.192 106.457 206.513 106.059 205.726 105.894C205.574 105.866 205.417 105.863 205.264 105.885C205.11 105.908 204.965 105.955 204.836 106.024L204.987 105.873C205.125 105.737 205.309 105.635 205.517 105.579C205.724 105.523 205.948 105.515 206.162 105.555C206.965 105.723 207.656 106.128 208.093 106.688C208.483 107.17 208.783 107.694 208.983 108.244C209.191 108.735 209.543 109.181 210.011 109.543C210.657 110.019 211.272 110.522 211.853 111.05C212.582 111.812 212.978 112.743 212.978 113.7C213 113.896 212.971 114.094 212.895 114.282C212.819 114.47 212.696 114.644 212.533 114.794C212.341 114.931 212.097 115.017 211.839 115.037C211.888 115.01 211.934 114.981 211.977 114.949C212.139 114.803 212.262 114.633 212.339 114.449C212.417 114.264 212.446 114.07 212.427 113.876Z" fill="black"/>
<path d="M204.579 106.204C204.65 106.135 204.734 106.074 204.828 106.024C204.957 105.955 205.103 105.907 205.256 105.885C205.409 105.863 205.566 105.866 205.718 105.894C206.506 106.059 207.184 106.456 207.613 107.005C208.003 107.476 208.303 107.99 208.503 108.53C208.706 109.012 209.053 109.449 209.513 109.804C210.145 110.271 210.747 110.763 211.315 111.279C212.032 112.025 212.419 112.938 212.419 113.876C212.437 114.067 212.406 114.259 212.33 114.441C212.254 114.622 212.133 114.79 211.974 114.935C211.931 114.967 211.885 114.996 211.836 115.023C211.653 115.108 211.448 115.161 211.237 115.176C211.025 115.191 210.812 115.169 210.612 115.111C210.159 114.969 209.762 114.733 209.464 114.426C209.153 114.134 208.895 113.805 208.574 113.512C208.04 113.044 207.444 112.623 206.795 112.256L205.037 111.198L204.236 106.55C204.236 106.55 204.392 106.388 204.579 106.204Z" fill="#263238"/>
<path d="M192.049 105.421L192.321 111.166C195.604 108.526 204.156 106.063 204.156 106.063C207.395 107.955 206.674 110.132 205.46 111.166C198.755 114.059 191.106 117.948 189.349 117.627C187.591 117.306 185.277 115.196 183.564 111.219L185.086 104.553L192.049 105.421Z" fill="#37474F"/>
<path d="M195.515 96.2847C196.596 100.498 196.186 102.351 192.048 105.421C187.911 108.491 181.116 112.81 181.116 112.81C182.78 117.091 180.307 122.73 180.227 124.907C180.146 127.084 179.759 131.086 179.759 131.086C175.977 132.691 173.53 130.758 173.53 130.758L173.659 111.847C173.658 110.19 174.416 108.588 175.791 107.34L184 99.8523V97.0751L195.515 96.2847Z" fill="#455A64"/>
<path d="M166.395 85.1759C165.679 85.3674 164.913 85.4111 164.17 85.303C164.17 84.1632 164.17 82.8928 164.054 81.2378C163.783 77.6666 164.997 75.7046 166.003 74.9918C167.009 74.2789 168.73 74.2648 169.376 74.7165C170.021 75.1682 168.446 76.8126 168.223 78.2453C169.113 77.4125 169.558 77.1267 170.426 77.6384C169.932 78.0945 169.56 78.6251 169.331 79.1981C169.153 79.9039 168.192 80.412 167.921 81.0049C167.716 81.4601 167.921 82.9351 168.263 84.1984C167.757 84.6461 167.113 84.9827 166.395 85.1759Z" fill="#FFA8A7"/>
<path d="M166.394 85.1763C167.117 84.9822 167.764 84.643 168.272 84.1917C168.374 84.5693 168.481 84.9292 168.592 85.2327C168.592 85.2327 172.072 81.4498 172.85 80.737C173.629 80.0242 174.35 78.3092 177.744 77.9951L177.331 84.6646C177.331 84.6646 170.434 90.8965 168.063 91.9445C165.691 92.9926 164.913 91.634 164.432 89.1215C164.216 87.8598 164.126 86.5868 164.161 85.3139C164.908 85.4199 165.677 85.3725 166.394 85.1763Z" fill="#E0E0E0"/>
<path opacity="0.1" d="M169.122 89.2731C169.665 87.7204 168.855 85.7937 168.593 85.2326L169.185 84.5903C169.615 85.3251 169.833 86.127 169.822 86.9373C169.812 87.7476 169.572 88.5457 169.122 89.2731Z" fill="black"/>
<path d="M187.956 77.8537C189.936 77.6385 192.049 77.9066 194.211 78.2066C194.705 82.8435 194.487 87.6709 194.211 89.4106L195.92 96.6905C189.215 99.9053 180.663 98.4761 178.955 97.548C176.254 89.1989 175.582 81.3155 177.762 78.009L183.101 77.3032L187.956 77.8537Z" fill="#F0F0F0"/>
<path d="M188.797 77.409C190.776 77.1973 192.049 77.9066 194.211 78.1924C194.705 82.8293 194.487 87.6567 194.211 89.3964L195.92 96.6764C189.215 99.8911 180.663 98.462 178.955 97.5339C176.254 89.1847 175.582 81.3013 177.762 77.9948L183.101 77.2891L188.797 77.409Z" fill="#E6E6E6"/>
<path d="M183.68 81.1002L185.246 80.1157C184.755 79.9237 184.243 79.7678 183.716 79.6499L183.093 79.8934L183.68 81.1002Z" fill="#BA68C8"/>
<path d="M181.998 80.9979L181.651 80.8285L181.077 79.8299L181.745 79.6499L182.149 79.8934L181.998 80.9979Z" fill="#BA68C8"/>
<path d="M183.262 81.7847C184.441 85.5076 189.936 87.9389 194.488 87.6778C195.131 87.6284 195.776 87.7609 196.308 88.0518C196.985 88.4305 197.585 88.8886 198.088 89.4104C198.154 89.48 198.199 89.5607 198.22 89.6463C198.24 89.7318 198.236 89.82 198.208 89.9041C198.179 89.9882 198.126 90.066 198.054 90.1315C197.981 90.197 197.891 90.2485 197.789 90.2821C196.78 90.6035 195.738 90.8562 194.675 91.0372C193.571 91.2406 192.419 91.2176 191.329 90.9702C183.084 89.0752 181.941 84.8865 182.163 81.7953L183.262 81.7847Z" fill="#BA68C8"/>
<path opacity="0.3" d="M182.149 81.9505C182.149 81.8976 182.149 81.8411 182.149 81.7847H183.253C183.253 81.8023 183.253 81.82 183.253 81.8411C183.101 81.9381 182.92 82.0014 182.728 82.0246C182.53 82.044 182.329 82.0183 182.149 81.9505Z" fill="black"/>
<path d="M183.11 79.8932C182.797 79.8527 182.479 79.8527 182.166 79.8932C181.899 80.1643 181.727 80.4871 181.668 80.8284C181.751 81.1716 181.924 81.4973 182.175 81.7847C182.46 81.9576 183.279 81.7847 183.279 81.7847C183.486 81.5621 183.669 81.326 183.826 81.0789C183.872 81.0023 183.896 80.9185 183.896 80.8336C183.896 80.7488 183.872 80.665 183.826 80.5884C183.651 80.3193 183.407 80.0824 183.11 79.8932Z" fill="#BA68C8"/>
<path opacity="0.3" d="M180.111 98.8394C180.955 99.6475 182.133 100.192 183.435 100.374L180.65 102.905C180.945 102.104 181.416 101.351 182.042 100.681C181.16 100.253 180.482 99.6053 180.111 98.8394Z" fill="black"/>
<path d="M182.665 79.7838C181.397 79.5156 180.587 80.6307 180.587 80.6307C180.507 78.1606 182.126 77.2148 182.126 77.2148L182.665 79.7838Z" fill="#E0E0E0"/>
<path d="M188.075 67.5741L189.775 66.6848C189.63 66.5509 189.451 66.4433 189.249 66.3696C189.047 66.2959 188.827 66.2578 188.605 66.2579C188.35 66.275 188.114 66.3708 187.947 66.5246C187.781 66.6784 187.697 66.8779 187.715 67.0801C187.661 66.272 186.785 65.5486 185.868 65.1957C184.928 64.8757 183.9 64.7541 182.883 64.8428C181.868 64.8957 180.863 65.051 179.844 65.0792C178.669 65.113 177.495 64.9815 176.378 64.6911C176.252 64.6556 176.117 64.6487 175.987 64.6711C175.857 64.6935 175.738 64.7443 175.642 64.8177C175.547 64.8912 175.48 64.9844 175.447 65.0867C175.415 65.1891 175.42 65.2965 175.461 65.3968C175.657 65.9098 175.986 66.3847 176.427 66.7907C176.192 66.8456 175.946 66.8671 175.701 66.8542C175.571 66.8484 175.44 66.871 175.325 66.9195C175.209 66.968 175.112 67.0405 175.044 67.1294C174.977 67.2183 174.941 67.3201 174.94 67.424C174.94 67.5278 174.976 67.6297 175.043 67.7188C175.489 68.24 176.121 68.6442 176.858 68.8798C179.555 72.2604 186.834 75.274 186.834 75.274C187.08 75.2503 187.316 75.1782 187.519 75.0642C187.721 74.9502 187.885 74.798 187.995 74.6212C188.211 74.2679 188.35 73.8887 188.409 73.499C188.705 72.0169 188.963 70.5289 189.183 69.035C189.255 68.7218 189.236 68.3997 189.13 68.0928C189.073 67.9399 188.956 67.8054 188.796 67.7089C188.635 67.6124 188.441 67.559 188.24 67.5565" fill="#37474F"/>
<path d="M187.369 72.8041C187.565 74.1945 187.957 76.6047 187.957 76.6047C186.426 78.2456 183.454 78.602 182.666 79.7806C182.157 78.4738 181.826 77.1275 181.679 75.7648L186.742 72.5889L187.369 72.8041Z" fill="#FFA8A7"/>
<path d="M186.742 72.6064L186.871 72.6453C186.937 73.7705 186.464 74.8739 185.547 75.7344C184.63 76.5949 183.338 77.1489 181.928 77.2857C181.811 76.7826 181.728 76.2749 181.679 75.7647L186.742 72.6064Z" fill="#F28F8F"/>
<path d="M176.854 68.8729C176.472 71.1946 176.795 73.5551 177.797 75.7576C177.925 76.0313 178.157 76.2668 178.46 76.4317C178.764 76.5967 179.124 76.6829 179.492 76.6786C183.337 76.6786 186.367 75.6376 186.896 72.9275C187.089 73.1233 187.357 73.2637 187.66 73.3274C187.963 73.3911 188.284 73.3746 188.574 73.2804C188.978 73.1092 189.328 72.8669 189.596 72.5721C189.864 72.2774 190.044 71.9378 190.122 71.5795C190.155 71.4117 190.129 71.2399 190.048 71.083C189.966 70.926 189.831 70.79 189.658 70.6897C189.486 70.5895 189.281 70.5289 189.068 70.5147C188.855 70.5004 188.64 70.5331 188.449 70.609C187.963 70.7892 187.583 71.1099 187.386 71.5054C187.301 71.6536 187.194 71.8335 186.99 71.8371C186.785 71.8406 186.66 71.6536 186.598 71.4842C186.353 70.8479 186.246 70.1833 186.282 69.5186C185.983 69.5706 185.674 69.5745 185.374 69.5302C185.073 69.486 184.786 69.3943 184.531 69.2608C184.275 69.1273 184.056 68.9545 183.886 68.7527C183.716 68.551 183.599 68.3242 183.541 68.0859C183.381 68.3276 183.151 68.5359 182.871 68.694C182.59 68.8522 182.267 68.9558 181.926 68.9964C181.591 69.0342 181.249 69.0082 180.928 68.9204C180.608 68.8327 180.319 68.6857 180.084 68.4917C179.688 68.8105 179.173 69.0196 178.616 69.0881C178.015 69.1579 177.401 69.0829 176.854 68.8729Z" fill="#FFA8A7"/>
<path d="M180.351 71.5054L178.594 73.2627L180.258 73.7003L180.351 71.5054Z" fill="#F28F8F"/>
<path d="M181.776 74.5366L180.393 74.8895C180.485 75.018 180.627 75.1194 180.798 75.1786C180.968 75.2378 181.159 75.2515 181.34 75.2177C181.499 75.1599 181.629 75.0611 181.708 74.9375C181.787 74.8138 181.811 74.6725 181.776 74.5366Z" fill="#F28F8F"/>
<path opacity="0.3" d="M181.776 74.5366L180.393 74.8895C180.485 75.018 180.627 75.1194 180.798 75.1786C180.968 75.2378 181.159 75.2515 181.34 75.2177C181.499 75.1599 181.629 75.0611 181.708 74.9375C181.787 74.8138 181.811 74.6725 181.776 74.5366Z" fill="black"/>
<path d="M180.887 75.1967C181.032 75.2297 181.186 75.2297 181.332 75.1967C181.461 75.1574 181.572 75.0883 181.651 74.9984C181.731 74.9085 181.774 74.8018 181.777 74.6921C181.59 74.6701 181.4 74.7 181.238 74.7768C181.056 74.8747 180.93 75.0255 180.887 75.1967Z" fill="#F28F8F"/>
<path d="M182.812 71.848C182.809 71.9262 182.777 72.0021 182.72 72.0659C182.663 72.1298 182.583 72.1787 182.491 72.2066C182.399 72.2344 182.298 72.2398 182.202 72.2222C182.106 72.2046 182.018 72.1648 181.951 72.1077C181.883 72.0506 181.838 71.9789 181.822 71.9016C181.806 71.8244 181.819 71.7451 181.86 71.6738C181.901 71.6025 181.967 71.5424 182.051 71.5012C182.135 71.4599 182.233 71.4394 182.331 71.4421C182.397 71.4435 182.461 71.4551 182.52 71.4763C182.58 71.4975 182.634 71.5278 182.678 71.5656C182.723 71.6033 182.758 71.6477 182.781 71.6962C182.804 71.7446 182.814 71.7962 182.812 71.848Z" fill="#263238"/>
<path d="M178.662 71.6077C178.659 71.686 178.627 71.7619 178.57 71.8257C178.513 71.8896 178.433 71.9385 178.34 71.9663C178.248 71.9941 178.148 71.9996 178.051 71.982C177.955 71.9644 177.868 71.9245 177.8 71.8675C177.733 71.8104 177.688 71.7387 177.672 71.6614C177.656 71.5842 177.669 71.5048 177.71 71.4335C177.75 71.3622 177.817 71.3022 177.901 71.2609C177.985 71.2197 178.082 71.1991 178.181 71.2019C178.246 71.2033 178.31 71.2149 178.37 71.2361C178.43 71.2573 178.483 71.2876 178.528 71.3253C178.573 71.3631 178.607 71.4075 178.63 71.4559C178.653 71.5044 178.664 71.556 178.662 71.6077Z" fill="#263238"/>
<path d="M178.794 70.3054L177.544 69.9526C177.629 69.8604 177.747 69.7908 177.883 69.753C178.019 69.7152 178.166 69.711 178.305 69.7408C178.443 69.791 178.562 69.8701 178.648 69.9695C178.734 70.0689 178.785 70.185 178.794 70.3054Z" fill="#263238"/>
<path d="M181.661 70.5104L182.974 70.3163C182.91 70.2137 182.809 70.1288 182.684 70.0727C182.558 70.0166 182.414 69.992 182.271 70.0023C182.12 70.0341 181.983 70.0984 181.875 70.1881C181.768 70.2778 181.694 70.3893 181.661 70.5104Z" fill="#263238"/>
<path d="M187.956 76.608L187.854 75.987C187.922 75.9856 187.989 75.9928 188.054 76.0081C188.588 76.2375 189.607 77.4938 189.607 77.4938C189.247 78.1607 187.534 80.2427 186.185 80.9555C184.624 80.338 183.516 79.4664 182.666 79.784C182.991 78.3336 187.956 76.608 187.956 76.608Z" fill="#E0E0E0"/>
<path d="M190.981 99.4713C187.235 95.3002 178.968 85.6489 179.466 77.769L177.762 77.9949C177.055 85.7583 184.814 95.8931 190.22 101.147L190.981 99.4713Z" fill="#263238"/>
<path d="M192.161 102.778L203.614 95.1274L205.629 100.774C205.643 100.809 205.645 100.847 205.635 100.884C205.624 100.92 205.603 100.954 205.571 100.982L205.536 101.01L194.235 109.042C194.273 109.011 194.301 108.974 194.315 108.932C194.33 108.89 194.329 108.847 194.315 108.805L192.161 102.778Z" fill="#BA68C8"/>
<path opacity="0.15" d="M192.161 102.778L203.614 95.1274L205.629 100.774C205.643 100.809 205.645 100.847 205.635 100.884C205.624 100.92 205.603 100.954 205.571 100.982L205.536 101.01L194.235 109.042C194.273 109.011 194.301 108.974 194.315 108.932C194.33 108.89 194.329 108.847 194.315 108.805L192.161 102.778Z" fill="black"/>
<path d="M192.65 104.157L190.856 99.1289L192.65 104.157Z" fill="#BA68C8"/>
<path d="M189.514 98.875C189.505 98.8266 189.511 98.7772 189.53 98.7307C189.549 98.6842 189.582 98.6419 189.625 98.6068C189.672 98.5742 189.727 98.5497 189.787 98.5351C189.847 98.5205 189.91 98.5161 189.972 98.5221C190.176 98.5488 190.367 98.6216 190.521 98.7317C190.674 98.8418 190.785 98.9846 190.839 99.1432L192.619 104.172L194.279 108.819C194.293 108.861 194.294 108.905 194.28 108.946C194.266 108.988 194.238 109.026 194.199 109.056C194.161 109.085 194.114 109.106 194.062 109.116C194.01 109.126 193.956 109.125 193.905 109.112L191.68 108.576C191.512 108.538 191.361 108.461 191.247 108.356C191.133 108.251 191.061 108.121 191.04 107.983L189.514 98.875Z" fill="#BA68C8"/>
<path opacity="0.3" d="M189.514 98.875C189.505 98.8266 189.511 98.7772 189.53 98.7307C189.549 98.6842 189.582 98.6419 189.625 98.6068C189.672 98.5742 189.727 98.5497 189.787 98.5351C189.847 98.5205 189.91 98.5161 189.972 98.5221C190.176 98.5488 190.367 98.6216 190.521 98.7317C190.674 98.8418 190.785 98.9846 190.839 99.1432L192.619 104.172L194.279 108.819C194.293 108.861 194.294 108.905 194.28 108.946C194.266 108.988 194.238 109.026 194.199 109.056C194.161 109.085 194.114 109.106 194.062 109.116C194.01 109.126 193.956 109.125 193.905 109.112L191.68 108.576C191.512 108.538 191.361 108.461 191.247 108.356C191.133 108.251 191.061 108.121 191.04 107.983L189.514 98.875Z" fill="black"/>
<path d="M196.178 99.5137L198.203 105.276L197.883 105.516L195.925 99.803L196.178 99.5137Z" fill="#BA68C8"/>
<path d="M200.471 96.4683L202.496 102.231L202.175 102.471L200.218 96.7576L200.471 96.4683Z" fill="#BA68C8"/>
<path d="M200.952 90.5822C200.997 90.5504 201.05 90.5269 201.108 90.5135C201.166 90.5 201.227 90.497 201.286 90.5045C201.494 90.5285 201.689 90.6 201.847 90.7102C202.005 90.8205 202.12 90.9648 202.176 91.1256L203.72 95.4625C203.81 95.7183 203.807 95.9892 203.712 96.2439C203.617 96.4986 203.433 96.7268 203.182 96.9023L201.989 97.7245L193.838 103.349C193.711 103.437 193.558 103.498 193.393 103.526C193.229 103.555 193.058 103.549 192.896 103.511C192.735 103.473 192.588 103.404 192.469 103.309C192.351 103.214 192.265 103.097 192.218 102.968L190.852 99.1431C190.798 98.9845 190.687 98.8416 190.533 98.7315C190.38 98.6214 190.189 98.5487 189.985 98.522C189.923 98.516 189.86 98.5204 189.8 98.535C189.74 98.5496 189.685 98.574 189.638 98.6067L200.952 90.5822Z" fill="#BA68C8"/>
<path opacity="0.2" d="M200.952 90.5822C200.997 90.5504 201.05 90.5269 201.108 90.5135C201.166 90.5 201.227 90.497 201.286 90.5045C201.494 90.5285 201.689 90.6 201.847 90.7102C202.005 90.8205 202.12 90.9648 202.176 91.1256L203.72 95.4625C203.81 95.7183 203.807 95.9892 203.712 96.2439C203.617 96.4986 203.433 96.7268 203.182 96.9023L201.989 97.7245L193.838 103.349C193.711 103.437 193.558 103.498 193.393 103.526C193.229 103.555 193.058 103.549 192.896 103.511C192.735 103.473 192.588 103.404 192.469 103.309C192.351 103.214 192.265 103.097 192.218 102.968L190.852 99.1431C190.798 98.9845 190.687 98.8416 190.533 98.7315C190.38 98.6214 190.189 98.5487 189.985 98.522C189.923 98.516 189.86 98.5204 189.8 98.535C189.74 98.5496 189.685 98.574 189.638 98.6067L200.952 90.5822Z" fill="white"/>
<path d="M207.956 91.002L207.582 95.3919C206.799 99.7711 205.802 100.459 203.262 101.038C200.721 101.617 202.211 99.1148 202.541 98.649C202.783 98.2326 202.954 97.7922 203.048 97.3398C201.807 98.229 201.491 98.1338 200.997 97.862C200.801 97.7421 201.731 97.0998 201.731 97.0998C202.223 96.2587 202.864 95.4779 203.635 94.7814L203.342 90.9844L207.956 91.002Z" fill="#FFA8A7"/>
<path d="M191.564 77.8783C195.124 77.4054 197.455 78.8275 199.075 79.6427C200.245 80.239 204.543 82.8186 206.834 84.1913C207.29 84.462 207.657 84.8155 207.905 85.2219C208.152 85.6284 208.274 86.0761 208.258 86.5274L208.133 91.1678C207.377 91.4822 206.53 91.633 205.677 91.6052C204.824 91.5773 203.996 91.3717 203.275 91.009L202.852 87.6072C202.852 87.6072 197.86 85.6805 194.505 84.4666C191.15 83.2526 190.728 79.8615 191.564 77.8783Z" fill="#E0E0E0"/>
<path d="M252.862 31.4039C250.548 30.3452 248.595 30.864 247.967 32.5084C247.407 31.6049 246.541 30.8426 245.467 30.3064C243.656 29.4771 242.183 30.1406 242.179 31.792V32.5507L239.754 31.4392C238.486 30.8604 237.454 31.3262 237.449 32.4978C237.491 33.1278 237.719 33.7411 238.117 34.2876C238.514 34.8341 239.069 35.2982 239.736 35.642L260.332 45.071C261.605 45.6532 262.637 45.1874 262.641 44.0335C262.599 43.4028 262.37 42.7889 261.971 42.2419C261.573 41.6948 261.018 41.2302 260.35 40.8858L257.916 39.7707V38.3592C257.934 35.8043 255.665 32.6884 252.862 31.4039Z" fill="#E6E6E6"/>
<path d="M232.674 37.5826C231.015 36.8239 229.613 37.1944 229.168 38.3766C228.772 37.7276 228.156 37.179 227.388 36.7922C226.089 36.1993 225.03 36.6757 225.03 37.8508V38.3942L223.286 37.5967C222.374 37.1768 221.635 37.5156 221.631 38.3448C221.662 38.797 221.827 39.237 222.113 39.6289C222.399 40.0207 222.798 40.3534 223.277 40.5998L238.058 47.3716C238.97 47.788 239.709 47.4527 239.713 46.6234C239.683 46.1706 239.518 45.7298 239.232 45.3372C238.946 44.9447 238.547 44.6115 238.067 44.365L236.323 43.564V42.5759C236.314 40.7409 234.69 38.4966 232.674 37.5826Z" fill="#E6E6E6"/>
</g>
<defs>
<filter id="filter0_d_948_32" x="-4" y="0" width="394" height="417" filterUnits="userSpaceOnUse" color-interpolation-filters="sRGB">
<feFlood flood-opacity="0" result="BackgroundImageFix"/>
<feColorMatrix in="SourceAlpha" type="matrix" values="0 0 0 0 0 0 0 0 0 0 0 0 0 0 0 0 0 0 127 0" result="hardAlpha"/>
<feOffset dy="4"/>
<feGaussianBlur stdDeviation="2"/>
<feComposite in2="hardAlpha" operator="out"/>
<feColorMatrix type="matrix" values="0 0 0 0 0 0 0 0 0 0 0 0 0 0 0 0 0 0 0.25 0"/>
<feBlend mode="normal" in2="BackgroundImageFix" result="effect1_dropShadow_948_32"/>
<feBlend mode="normal" in="SourceGraphic" in2="effect1_dropShadow_948_32" result="shape"/>
</filter>
<clipPath id="clip0_948_32">
<rect width="1728" height="2210" fill="white" transform="translate(-56 -606)"/>
</clipPath>
</defs>
</svg>
