<svg width="386" height="264" viewBox="0 0 386 264" fill="none" xmlns="http://www.w3.org/2000/svg">
<rect width="386" height="264" fill="#6D6D6D"/>
<g clip-path="url(#clip0_948_32)">
<rect width="1728" height="1851" transform="translate(-82 -754)" fill="white"/>
<g filter="url(#filter0_d_948_32)">
<rect width="386" height="263.601" rx="20" fill="#C7F6EB" fill-opacity="0.8"/>
<rect x="0.5" y="0.5" width="385" height="262.601" rx="19.5" stroke="black" stroke-opacity="0.2"/>
<path d="M0 226.99H386V389C386 400.046 377.046 409 366 409H20C8.95431 409 0 400.046 0 389V226.99Z" fill="white"/>
</g>
<path opacity="0.8" d="M35.0353 274V253.756H38.6193L44.7233 270.472L50.9113 253.756H54.4813V274H51.8073V257.634L45.9413 274H43.5193L37.6953 257.788V274H35.0353ZM65.2307 274.28C63.8867 274.28 62.7014 273.986 61.6747 273.398C60.648 272.81 59.8454 271.965 59.2667 270.864C58.688 269.763 58.3987 268.442 58.3987 266.902C58.3987 265.381 58.66 264.046 59.1827 262.898C59.7054 261.75 60.4614 260.854 61.4507 260.21C62.4494 259.566 63.6487 259.244 65.0487 259.244C66.4114 259.244 67.564 259.538 68.5067 260.126C69.4494 260.714 70.1634 261.545 70.6487 262.618C71.1434 263.682 71.3907 264.947 71.3907 266.412V267.364H61.0167C61.0167 268.279 61.166 269.109 61.4647 269.856C61.7727 270.593 62.2347 271.181 62.8507 271.62C63.4667 272.059 64.246 272.278 65.1887 272.278C66.1127 272.278 66.906 272.063 67.5687 271.634C68.2407 271.205 68.67 270.584 68.8567 269.772H71.2927C71.1247 270.752 70.7327 271.578 70.1167 272.25C69.51 272.922 68.7774 273.431 67.9187 273.776C67.0694 274.112 66.1734 274.28 65.2307 274.28ZM61.0307 265.614H68.8987C68.8987 264.783 68.7587 264.037 68.4787 263.374C68.1987 262.702 67.7694 262.175 67.1907 261.792C66.6214 261.4 65.9027 261.204 65.0347 261.204C64.1294 261.204 63.378 261.423 62.7807 261.862C62.1834 262.291 61.74 262.847 61.4507 263.528C61.1614 264.2 61.0214 264.895 61.0307 265.614ZM80.2501 274.28C78.3647 274.28 76.8714 273.636 75.7701 272.348C74.6781 271.06 74.1321 269.179 74.1321 266.706C74.1321 265.203 74.3514 263.892 74.7901 262.772C75.2287 261.652 75.8867 260.784 76.7641 260.168C77.6414 259.552 78.7334 259.244 80.0401 259.244C80.7401 259.244 81.3561 259.333 81.8881 259.51C82.4201 259.687 82.8821 259.911 83.2741 260.182C83.6661 260.453 83.9834 260.733 84.2261 261.022C84.4781 261.311 84.6647 261.577 84.7861 261.82V253.196H87.4041V274H85.4161L85.1361 271.032C85.0427 271.312 84.8934 271.639 84.6881 272.012C84.4827 272.376 84.1934 272.735 83.8201 273.09C83.4561 273.435 82.9801 273.72 82.3921 273.944C81.8041 274.168 81.0901 274.28 80.2501 274.28ZM80.7121 272.292C82.1681 272.292 83.2087 271.849 83.8341 270.962C84.4687 270.066 84.7861 268.605 84.7861 266.58C84.7767 265.451 84.6367 264.489 84.3661 263.696C84.0954 262.903 83.6661 262.301 83.0781 261.89C82.4994 261.47 81.7247 261.26 80.7541 261.26C79.5687 261.26 78.6027 261.685 77.8561 262.534C77.1094 263.383 76.7361 264.732 76.7361 266.58C76.7361 268.391 77.0721 269.795 77.7441 270.794C78.4161 271.793 79.4054 272.292 80.7121 272.292ZM91.9132 274V259.524H94.4192V274H91.9132ZM91.8432 256.458V253.77H94.4892V256.458H91.8432ZM104.585 274.28C103.278 274.28 102.121 273.995 101.113 273.426C100.114 272.857 99.3305 272.017 98.7611 270.906C98.2011 269.795 97.9211 268.433 97.9211 266.818C97.9211 265.306 98.1778 263.985 98.6911 262.856C99.2138 261.717 99.9698 260.831 100.959 260.196C101.958 259.561 103.166 259.244 104.585 259.244C105.621 259.244 106.55 259.445 107.371 259.846C108.202 260.238 108.883 260.798 109.415 261.526C109.947 262.254 110.274 263.113 110.395 264.102H108.099C108.015 263.598 107.819 263.136 107.511 262.716C107.212 262.296 106.816 261.96 106.321 261.708C105.836 261.456 105.262 261.33 104.599 261.33C103.358 261.33 102.345 261.778 101.561 262.674C100.786 263.57 100.399 264.942 100.399 266.79C100.399 268.461 100.754 269.8 101.463 270.808C102.182 271.807 103.236 272.306 104.627 272.306C105.29 272.306 105.868 272.18 106.363 271.928C106.858 271.667 107.254 271.326 107.553 270.906C107.852 270.477 108.043 270.019 108.127 269.534H110.381C110.26 270.505 109.928 271.345 109.387 272.054C108.855 272.763 108.174 273.314 107.343 273.706C106.522 274.089 105.602 274.28 104.585 274.28ZM117.888 274.28C116.945 274.28 116.114 274.117 115.396 273.79C114.686 273.454 114.126 272.973 113.716 272.348C113.314 271.723 113.114 270.967 113.114 270.08C113.114 268.475 113.674 267.28 114.794 266.496C115.914 265.712 117.71 265.292 120.184 265.236L122.76 265.166V264.032C122.76 263.145 122.494 262.445 121.962 261.932C121.43 261.409 120.608 261.148 119.498 261.148C118.667 261.157 117.934 261.353 117.3 261.736C116.665 262.119 116.259 262.744 116.082 263.612H113.8C113.856 262.669 114.117 261.876 114.584 261.232C115.06 260.579 115.727 260.084 116.586 259.748C117.444 259.412 118.457 259.244 119.624 259.244C120.884 259.244 121.929 259.421 122.76 259.776C123.6 260.131 124.225 260.653 124.636 261.344C125.056 262.035 125.266 262.884 125.266 263.892V274H123.054L122.858 271.284C122.307 272.413 121.598 273.197 120.73 273.636C119.871 274.065 118.924 274.28 117.888 274.28ZM118.658 272.418C119.152 272.418 119.638 272.329 120.114 272.152C120.599 271.975 121.038 271.737 121.43 271.438C121.831 271.13 122.153 270.789 122.396 270.416C122.638 270.033 122.76 269.641 122.76 269.24V266.762L120.618 266.804C119.507 266.823 118.583 266.935 117.846 267.14C117.108 267.345 116.553 267.667 116.18 268.106C115.806 268.545 115.62 269.119 115.62 269.828C115.62 270.64 115.904 271.275 116.474 271.732C117.043 272.189 117.771 272.418 118.658 272.418ZM132.958 274.182C132.174 274.182 131.539 274.075 131.054 273.86C130.578 273.645 130.209 273.356 129.948 272.992C129.696 272.628 129.523 272.213 129.43 271.746C129.346 271.27 129.304 270.78 129.304 270.276V253.196H131.852V270.024C131.852 270.752 131.992 271.298 132.272 271.662C132.561 272.026 132.963 272.227 133.476 272.264L134.26 272.278V273.958C134.045 274.023 133.821 274.075 133.588 274.112C133.355 274.159 133.145 274.182 132.958 274.182Z" fill="black"/>
<path d="M105.278 30.5786C105.819 30.8072 106.28 31.1898 106.604 31.6788C106.929 32.1678 107.102 32.7415 107.102 33.3282V41.3491C107.101 42.1392 106.786 42.8965 106.227 43.4548C105.668 44.013 104.91 44.3266 104.12 44.3266C103.33 44.3266 102.573 44.0129 102.014 43.4545C101.456 42.8961 101.142 42.1388 101.142 41.3491V33.3282C101.143 32.7421 101.315 32.1691 101.639 31.6803C101.962 31.1915 102.422 30.8084 102.961 30.5786" stroke="#808080" stroke-linecap="round" stroke-linejoin="round"/>
<path d="M104.11 44.3263C103.32 44.3263 102.563 44.0126 102.004 43.4542C101.446 42.8958 101.132 42.1384 101.132 41.3487V37.3359H107.092V41.3487C107.091 42.1389 106.776 42.8962 106.217 43.4545C105.658 44.0127 104.9 44.3263 104.11 44.3263Z" stroke="#808080" stroke-linecap="round" stroke-linejoin="round"/>
<path d="M97.7039 29.4386L93.3207 32.9528C93.0146 33.197 92.6634 33.3785 92.2872 33.4869C91.9109 33.5952 91.517 33.6282 91.1279 33.5841C90.7389 33.54 90.3623 33.4196 90.0199 33.2298C89.6774 33.04 89.3757 32.7845 89.1322 32.4779C88.6398 31.8586 88.4134 31.0692 88.5024 30.2831C88.5914 29.4969 88.9887 28.7782 89.607 28.2847L95.8518 23.2841C96.4704 22.7921 97.259 22.5657 98.0443 22.6547C98.8297 22.7438 99.5476 23.141 100.04 23.759C100.53 24.3749 100.756 25.1591 100.669 25.941C100.583 26.7228 100.191 27.4388 99.5797 27.9333L99.0763 28.3369" stroke="#808080" stroke-linecap="round" stroke-linejoin="round"/>
<path d="M89.1322 32.497C88.6398 31.8777 88.4134 31.0884 88.5024 30.3022C88.5914 29.5161 88.9887 28.7973 89.607 28.3038L92.7365 25.7964L96.4644 30.4455L93.3349 32.9529C93.0296 33.2004 92.6784 33.3851 92.3015 33.4962C91.9245 33.6073 91.5293 33.6426 91.1386 33.6003C90.7479 33.5579 90.3695 33.4386 90.0251 33.2492C89.6807 33.0599 89.3772 32.8042 89.1322 32.497Z" stroke="#808080" stroke-linecap="round" stroke-linejoin="round"/>
<path d="M254.83 161.633C253.777 161.929 252.843 162.545 252.157 163.396C251.471 164.247 251.067 165.291 251.002 166.382H244.492C244.418 165.805 244.14 165.274 243.708 164.885C243.276 164.495 242.719 164.274 242.138 164.26C241.556 164.246 240.989 164.441 240.54 164.809C240.09 165.178 239.787 165.695 239.686 166.268C239.584 166.84 239.692 167.43 239.988 167.93C240.285 168.431 240.751 168.808 241.301 168.994C241.852 169.18 242.452 169.163 242.991 168.945C243.53 168.727 243.973 168.323 244.24 167.807H251.107C251.307 168.741 251.759 169.603 252.413 170.3C253.067 170.997 253.899 171.502 254.819 171.761C255.739 172.02 256.712 172.023 257.634 171.77C258.555 171.516 259.39 171.016 260.049 170.324L263.416 172.94" stroke="#808080" stroke-linecap="round" stroke-linejoin="round"/>
<path d="M265.244 174.36L269.352 177.556C269.243 177.831 269.187 178.124 269.186 178.42C269.183 178.968 269.364 179.501 269.701 179.933C270.037 180.365 270.509 180.672 271.041 180.803C271.573 180.934 272.133 180.883 272.633 180.657C273.132 180.432 273.54 180.044 273.793 179.558C274.045 179.072 274.127 178.515 274.024 177.977C273.922 177.439 273.641 176.951 273.228 176.591C272.815 176.232 272.292 176.022 271.745 175.995C271.198 175.969 270.658 176.127 270.211 176.445L260.875 169.184C261.328 168.337 261.538 167.382 261.484 166.424C261.43 165.465 261.112 164.541 260.566 163.751L266.265 156.442C266.748 156.628 267.277 156.654 267.776 156.517C268.274 156.38 268.716 156.087 269.036 155.681C269.356 155.275 269.538 154.777 269.555 154.26C269.571 153.743 269.422 153.234 269.129 152.808C268.836 152.382 268.414 152.061 267.925 151.893C267.436 151.724 266.906 151.716 266.413 151.87C265.919 152.024 265.488 152.332 265.182 152.749C264.876 153.166 264.711 153.669 264.712 154.187C264.711 154.686 264.867 155.173 265.159 155.578L259.598 162.701C258.653 161.905 257.457 161.469 256.221 161.471" stroke="#808080" stroke-linecap="round" stroke-linejoin="round"/>
<path d="M183.525 31.9937V54.3134C183.525 54.7792 183.434 55.2405 183.255 55.6709C183.077 56.1013 182.816 56.4924 182.486 56.8218C182.157 57.1512 181.766 57.4125 181.336 57.5908C180.905 57.769 180.444 57.8608 179.978 57.8608C179.512 57.8608 179.051 57.769 178.621 57.5908C178.19 57.4125 177.799 57.1512 177.47 56.8218C177.14 56.4924 176.879 56.1013 176.701 55.6709C176.522 55.2405 176.431 54.7792 176.431 54.3134V25.6587H183.525V30.6783" stroke="#808080" stroke-linecap="round" stroke-linejoin="round"/>
<path d="M179.978 57.8511C179.037 57.8511 178.135 57.4773 177.47 56.812C176.804 56.1468 176.431 55.2445 176.431 54.3036V36.1582H183.525V54.3036C183.526 54.7697 183.435 55.2312 183.257 55.6619C183.079 56.0926 182.817 56.4839 182.488 56.8134C182.158 57.143 181.767 57.4042 181.336 57.5823C180.906 57.7604 180.444 57.8517 179.978 57.8511Z" stroke="#808080" stroke-linecap="round" stroke-linejoin="round"/>
<path d="M183.525 25.6586H184.542V23.0752H175.419V25.6586H176.43" stroke="#808080" stroke-linecap="round" stroke-linejoin="round"/>
<path d="M165.679 46.0647V25.6445H172.774V54.2897C172.774 55.2306 172.4 56.1329 171.735 56.7981C171.07 57.4634 170.167 57.8371 169.227 57.8371C168.286 57.8371 167.383 57.4634 166.718 56.7981C166.053 56.1329 165.679 55.2306 165.679 54.2897V47.9452" stroke="#808080" stroke-linecap="round" stroke-linejoin="round"/>
<path d="M165.679 46.0644V36.1582H172.774V54.3036C172.774 55.2445 172.4 56.1468 171.735 56.812C171.07 57.4773 170.167 57.8511 169.227 57.8511C168.761 57.8517 168.299 57.7604 167.868 57.5823C167.438 57.4042 167.046 57.143 166.717 56.8134C166.387 56.4839 166.126 56.0926 165.948 55.6619C165.77 55.2312 165.679 54.7697 165.679 54.3036V48.5053" stroke="#808080" stroke-linecap="round" stroke-linejoin="round"/>
<path d="M172.774 25.6586H173.786V23.0752H164.663V25.6586H165.679" stroke="#808080" stroke-linecap="round" stroke-linejoin="round"/>
<path d="M106.912 161.6C105.545 162.084 104.32 162.903 103.35 163.981C102.379 165.059 101.694 166.363 101.356 167.773C100.855 165.718 99.6199 163.917 97.8837 162.709C96.1474 161.501 94.0295 160.969 91.9285 161.214C89.8275 161.458 87.8883 162.462 86.4759 164.037C85.0635 165.612 84.2754 167.648 84.2598 169.763C84.2598 171.895 85.1858 173.79 86.5107 175.524H95.8423L98.6299 168.856C98.6768 168.748 98.7555 168.656 98.8555 168.593C98.9555 168.531 99.0722 168.5 99.1902 168.505C99.3078 168.51 99.4209 168.551 99.5137 168.624C99.6064 168.696 99.6743 168.796 99.7078 168.908L103.084 180.045L105.658 171.824C105.694 171.709 105.765 171.609 105.861 171.537C105.958 171.465 106.075 171.426 106.195 171.425C106.315 171.427 106.431 171.464 106.529 171.533C106.628 171.602 106.703 171.698 106.746 171.81L108.17 175.922H115.878C117.355 174.184 118.461 172.237 118.461 169.749C118.461 167.448 117.547 165.241 115.92 163.614C114.293 161.987 112.086 161.073 109.785 161.073" stroke="#808080" stroke-linecap="round" stroke-linejoin="round"/>
<path d="M96.9392 185.905C98.4256 187.391 99.9167 188.877 101.441 190.316C104.922 186.878 108.427 183.459 111.889 179.992C112.838 179.043 113.883 178.093 114.847 177.086H107.771C107.652 177.087 107.536 177.05 107.439 176.981C107.342 176.912 107.269 176.814 107.23 176.701L106.233 173.852L103.621 182.172C103.585 182.289 103.513 182.391 103.414 182.464C103.316 182.537 103.197 182.576 103.075 182.576C102.952 182.575 102.833 182.535 102.735 182.461C102.636 182.388 102.564 182.285 102.529 182.167L99.0809 170.77L96.7587 176.336C96.7152 176.44 96.6421 176.529 96.5484 176.593C96.4547 176.656 96.3446 176.69 96.2316 176.692H87.4414C89.341 178.805 91.6869 180.671 93.4487 182.414C94.2228 183.179 94.9969 183.953 95.7662 184.727" stroke="#808080" stroke-linecap="round" stroke-linejoin="round"/>
<path d="M279.728 46.7057L279.149 45.6942L282.017 44.0605L282.592 45.0721" stroke="#808080" stroke-linecap="round" stroke-linejoin="round"/>
<path d="M282.653 51.825L280.887 48.7334V48.7239L283.746 47.0903H283.75L287.122 52.9979L284.254 54.6315L283.446 53.2211" stroke="#808080" stroke-linecap="round" stroke-linejoin="round"/>
<path d="M284.442 56.7758L288.863 54.252L287.9 52.5652L283.479 55.089L284.442 56.7758Z" stroke="#808080" stroke-linecap="round" stroke-linejoin="round"/>
<path d="M282.003 39.1453L276.907 30.2031" stroke="#808080" stroke-linecap="round" stroke-linejoin="round"/>
<path d="M284.7 43.8707L282.872 40.6699" stroke="#808080" stroke-linecap="round" stroke-linejoin="round"/>
<path d="M272.159 38.3478L269.817 34.2495" stroke="#808080" stroke-linecap="round" stroke-linejoin="round"/>
<path d="M277.615 47.912L272.989 39.8057" stroke="#808080" stroke-linecap="round" stroke-linejoin="round"/>
<path d="M278.773 49.9347L280.887 48.7332V48.7238L283.746 47.0901H283.75L285.854 45.8887" stroke="#808080" stroke-linecap="round" stroke-linejoin="round"/>
<path d="M270.748 33.7176L275.563 42.1516L276.746 41.4773L279.614 39.8389L280.787 39.1646L275.977 30.7354" stroke="#808080" stroke-linecap="round" stroke-linejoin="round"/>
<path d="M282.592 45.0721L282.017 44.0606L279.614 39.8389" stroke="#808080" stroke-linecap="round" stroke-linejoin="round"/>
<path d="M276.746 41.4771L279.149 45.6941L279.728 46.7056" stroke="#808080" stroke-linecap="round" stroke-linejoin="round"/>
<path d="M280.887 48.7239L278.774 49.9349L278.265 50.2198L277.116 48.1968L277.615 47.9119L279.728 46.7057L282.592 45.0721L284.7 43.8706L285.208 43.5762L286.362 45.5992L285.854 45.8889L283.75 47.0903H283.746" stroke="#808080" stroke-linecap="round" stroke-linejoin="round"/>
<path d="M271.893 27.7007L268.948 29.3818L270.102 31.4096" stroke="#808080" stroke-linecap="round" stroke-linejoin="round"/>
<path d="M274.319 29.0019L273.161 26.9741" stroke="#808080" stroke-linecap="round" stroke-linejoin="round"/>
<path d="M270.748 33.7176L275.976 30.7353L276.907 30.2035L277.415 29.9185L276.257 27.8955L274.319 29.002L270.102 31.4097L268.16 32.5162L269.314 34.5392L269.817 34.2542L270.748 33.7176Z" stroke="#808080" stroke-linecap="round" stroke-linejoin="round"/>
<path d="M270.777 27.8906L265.192 18.1079" stroke="#808080" stroke-linecap="round" stroke-linejoin="round"/>
<path d="M240.113 136.834C263.754 136.834 282.919 117.669 282.919 94.028C282.919 70.3867 263.754 51.2217 240.113 51.2217C216.472 51.2217 197.307 70.3867 197.307 94.028C197.307 117.669 216.472 136.834 240.113 136.834Z" fill="#92E3A9"/>
<path d="M216.73 140.007L216.877 105.777C216.877 105.777 210.832 106.613 209.82 106.76C208.809 106.907 208.343 105.734 205.446 102.842C202.55 99.9499 202.991 91.9956 206.752 89.3932C210.513 86.7908 218.753 77.2408 219.332 76.6615C219.911 76.0821 223.962 76.6615 225.553 76.9512C227.144 77.2408 230.036 78.8507 230.777 78.9789C231.518 79.1071 236.855 79.9904 236.855 79.9904L256.525 83.6043C258.116 83.894 265.201 88.0873 266.939 88.3532C268.678 88.6191 270.701 91.3925 270.99 92.6937C271.28 93.9949 274.025 117.136 275.184 118.727C276.342 120.318 280.246 140.415 280.246 140.415" fill="white"/>
<path d="M216.73 140.007L216.877 105.777C216.877 105.777 210.832 106.613 209.82 106.76C208.809 106.907 208.343 105.734 205.446 102.842C202.55 99.9499 202.991 91.9956 206.752 89.3932C210.513 86.7908 218.753 77.2408 219.332 76.6615C219.911 76.0821 223.962 76.6615 225.553 76.9512C227.144 77.2408 230.036 78.8507 230.777 78.9789C231.518 79.1071 236.855 79.9904 236.855 79.9904L256.525 83.6043C258.116 83.894 265.201 88.0873 266.939 88.3532C268.678 88.6191 270.701 91.3925 270.99 92.6937C271.28 93.9949 274.025 117.136 275.184 118.727C276.342 120.318 280.246 140.415 280.246 140.415" stroke="#263238" stroke-linecap="round" stroke-linejoin="round"/>
<path d="M249.834 91.3116H251.624L256.829 93.4248L250.974 88.2153L249.834 91.3116Z" fill="#263238" stroke="#263238" stroke-linecap="round" stroke-linejoin="round"/>
<path d="M238.603 91.8011L245.603 90.8228L243.162 87.2422L238.603 91.8011Z" fill="#263238" stroke="#263238" stroke-linecap="round" stroke-linejoin="round"/>
<path d="M220.994 83.4048C220.994 83.4048 221.778 93.99 220.6 98.5015C219.422 103.013 218.444 104.2 218.444 104.2" stroke="#263238" stroke-linecap="round" stroke-linejoin="round"/>
<path d="M220.201 108.042C220.025 108.65 219.84 109.258 219.641 109.87L220.201 108.042Z" fill="white"/>
<path d="M220.201 108.042C220.025 108.65 219.84 109.258 219.641 109.87" stroke="#263238" stroke-linecap="round" stroke-linejoin="round"/>
<path d="M222.761 90.6611C222.645 95.9207 221.946 101.151 220.676 106.256L222.761 90.6611Z" fill="white"/>
<path d="M222.761 90.6611C222.645 95.9207 221.946 101.151 220.676 106.256" stroke="#263238" stroke-linecap="round" stroke-linejoin="round"/>
<path d="M268.729 138.06C268.729 138.06 265.909 125.527 266.194 124.226C266.478 122.925 267.352 99.4941 267.352 99.4941" stroke="#263238" stroke-linecap="round" stroke-linejoin="round"/>
<path d="M232.548 86.4819C232.807 87.2006 233.086 87.9699 233.384 88.7899" stroke="#263238" stroke-linecap="round" stroke-linejoin="round"/>
<path d="M229.894 79.5298C229.894 79.5298 230.677 81.4293 232.05 85.1619" stroke="#263238" stroke-linecap="round" stroke-linejoin="round"/>
<path d="M235.782 100.249C235.934 101.052 236.043 101.862 236.11 102.676" stroke="#263238" stroke-linecap="round" stroke-linejoin="round"/>
<path d="M230.758 86.3442C232.722 90.2 234.277 94.2507 235.397 98.4301" stroke="#263238" stroke-linecap="round" stroke-linejoin="round"/>
<path d="M247.882 94.5503C247.882 94.5503 249.563 110.193 249.563 112.363C249.563 114.534 250.812 138.777 250.812 138.777" stroke="#263238" stroke-linecap="round" stroke-linejoin="round"/>
<path d="M265.33 116.628L255.495 115.683V100.325L265.33 101.265V116.628Z" fill="white" stroke="#263238" stroke-linecap="round" stroke-linejoin="round"/>
<path d="M261.421 101.736L258.966 101.589V96.8159L261.421 96.9631V101.736Z" fill="#92E3A9" stroke="#263238" stroke-linecap="round" stroke-linejoin="round"/>
<path d="M240.047 76.3102C240.047 76.3102 238.945 76.1868 238.703 76.5572C238.46 76.9276 235.64 80.1046 235.64 80.1046C235.916 81.7215 236.038 83.3608 236.005 85.0007C236.005 88.1824 237.477 93.0738 237.477 93.0738L243.471 89.1655L247.388 88.0637C248.157 87.9301 248.942 87.9301 249.711 88.0637C249.711 88.0637 258.282 95.2867 258.771 95.0398C259.261 94.7929 257.304 86.715 255.955 83.1676C254.607 79.6202 250.812 77.6589 250.812 77.6589C250.812 77.6589 242.127 76.0681 240.047 76.3102Z" fill="white" stroke="#263238" stroke-linecap="round" stroke-linejoin="round"/>
<path d="M238.456 61.3746C236.263 61.7426 234.175 62.5783 232.334 63.8251C229.642 65.7816 231.969 72.639 235.274 74.3533C238.579 76.0677 240.901 75.5738 242.25 72.5155C243.599 69.4572 242.986 63.2125 242.127 62.2342C241.267 61.2559 238.456 61.3746 238.456 61.3746Z" fill="#263238"/>
<path d="M241.395 64.1909L240.17 77.5352C241.106 80.6284 242.251 83.6542 243.599 86.5914C244.8 89.3584 246.23 92.0206 247.873 94.5505C247.873 94.5505 250.807 89.1652 251.543 87.3274C252.147 85.6083 252.64 83.8524 253.02 82.0704L254.868 74.1066C254.868 74.1066 251.543 73.2518 247.521 70.1887C245.21 68.4842 243.148 66.4654 241.395 64.1909Z" fill="white" stroke="#263238" stroke-linecap="round" stroke-linejoin="round"/>
<path d="M254.868 74.1066C254.868 74.1066 251.544 73.2518 247.521 70.1888C246.474 69.3954 245.472 68.5441 244.52 67.6387V73.1046C244.52 73.1046 247.602 78.5041 250.694 80.0475C251.521 80.4482 252.414 80.699 253.329 80.7883L254.868 74.1066Z" fill="#263238"/>
<path d="M263.306 62.1253C263.306 62.1253 264.285 61.1471 264.408 63.2271C264.532 65.3071 263.183 67.0262 262.323 67.7575C261.464 68.4888 261.103 68.7358 261.103 68.7358L263.306 62.1253Z" fill="white" stroke="#263238" stroke-linecap="round" stroke-linejoin="round"/>
<path d="M254.868 42.8827C251.661 42.4252 248.402 43.2399 245.788 45.1527C241.438 48.3677 241.039 56.1273 241.039 56.1273C241.039 56.1273 239.529 54.8024 238.579 56.5025C237.629 58.2026 237.629 62.5573 238.394 62.9372C239.159 63.3171 240.094 63.6923 240.094 63.6923C240.094 63.6923 241.229 69.3672 242.364 71.072C243.499 72.7769 247.664 77.1269 250.124 77.1269C252.584 77.1269 256.744 75.8019 258.634 73.3278C260.321 71.0122 261.66 68.4619 262.608 65.7581C263.364 63.678 264.688 53.6532 264.688 53.6532C264.688 53.6532 265.254 49.1133 261.663 45.8983C258.073 42.6833 254.868 42.8827 254.868 42.8827Z" fill="white" stroke="#263238" stroke-linecap="round" stroke-linejoin="round"/>
<path d="M242.373 71.0722C243.508 72.7723 247.673 77.127 250.133 77.127C252.593 77.127 256.753 75.8021 258.643 73.3279C260.331 71.0124 261.67 68.4621 262.618 65.7582C262.88 64.8953 263.086 64.0166 263.235 63.1274C262.76 62.6525 259.393 59.4517 255.105 58.5447C250.451 57.5664 242.003 56.8351 242.003 56.8351L241.053 56.1133L240.189 64.0534C240.46 65.3641 241.414 69.6333 242.373 71.0722Z" fill="#92E3A9" stroke="#263238" stroke-linecap="round" stroke-linejoin="round"/>
<path d="M256.815 59.1716C256.815 59.1716 257.551 55.5007 257.917 54.5224C258.282 53.5442 260.733 52.6846 262.571 55.3772" stroke="#263238" stroke-linecap="round" stroke-linejoin="round"/>
<path d="M252.655 52.0716C252.655 52.0716 250.209 49.0133 246.292 51.7059" stroke="#263238" stroke-linecap="round" stroke-linejoin="round"/>
<path d="M248.96 54.7456C248.827 55.2205 248.452 55.5577 248.129 55.4674C247.806 55.3772 247.654 54.9118 247.782 54.4227C247.91 53.9335 248.29 53.6059 248.613 53.6961C248.936 53.7863 249.093 54.2565 248.96 54.7456Z" fill="#263238"/>
<path d="M259.73 57.348C259.597 57.8228 259.222 58.16 258.899 58.0698C258.576 57.9796 258.425 57.5142 258.553 57.025C258.681 56.5359 259.061 56.213 259.384 56.3032C259.707 56.3934 259.868 56.8588 259.73 57.348Z" fill="#263238"/>
<path d="M241.048 56.1275C241.245 56.1897 241.456 56.1863 241.651 56.1178C241.845 56.0493 242.012 55.9193 242.126 55.7475C242.497 55.1349 241.761 52.9315 244.453 50.2389C247.146 47.5462 250.209 47.1758 251.676 45.9649C253.144 44.7539 253.391 44.1318 252.412 42.9066C251.434 41.6814 249.962 39.5824 244.577 42.6644C239.192 45.7464 237.23 47.6792 238.09 50.3718C238.553 51.8976 239.255 53.3402 240.17 54.6458L241.048 56.1275Z" fill="#263238"/>
<path d="M251.188 41.9139C251.188 41.9139 252.289 44.483 254.246 45.4613C256.202 46.4396 258.776 46.81 261.844 48.6478C264.912 50.4856 264.294 55.9896 264.294 55.9896C264.294 55.9896 268.454 58.0696 270.169 55.0113C271.883 51.953 273.493 46.81 266.74 43.0156C259.987 39.2213 254.982 34.6909 251.188 41.9139Z" fill="#263238"/>
<path d="M232.073 34.8379V52.271C232.072 52.75 231.881 53.209 231.542 53.5473C231.203 53.8856 230.743 54.0756 230.264 54.0756C229.786 54.0743 229.328 53.8838 228.989 53.5456C228.651 53.2075 228.461 52.7492 228.459 52.271V34.8379H232.073Z" fill="white" stroke="#263238" stroke-linecap="round" stroke-linejoin="round"/>
<path d="M232.073 44.0796V52.2572C232.072 52.7362 231.881 53.1952 231.542 53.5335C231.203 53.8718 230.743 54.0617 230.264 54.0617C229.786 54.0605 229.328 53.8699 228.989 53.5318C228.651 53.1936 228.461 52.7354 228.459 52.2572V44.0796H232.073Z" fill="#92E3A9" stroke="#263238" stroke-linecap="round" stroke-linejoin="round"/>
<path d="M232.638 33.9692H227.866V35.4176H232.638V33.9692Z" fill="white" stroke="#263238" stroke-linecap="round" stroke-linejoin="round"/>
<path d="M220.923 69.5525C220.923 69.5525 220.923 69.1203 218.9 67.6529C216.877 66.1855 209.207 66.062 207.616 67.9426C206.025 69.8232 211.667 75.0279 213.258 75.7545C214.849 76.4811 217.741 75.1751 218.61 74.1636C219.479 73.1521 220.923 69.5525 220.923 69.5525Z" fill="white" stroke="#263238" stroke-linecap="round" stroke-linejoin="round"/>
<path d="M210.509 58.5586L209.084 69.405C209.084 69.405 211.834 73.1661 214.308 73.3133C216.782 73.4606 218.938 71.1431 218.938 71.1431L219.517 60.2967C219.517 60.2967 213.838 60.1495 210.509 58.5586Z" fill="white" stroke="#263238" stroke-linecap="round" stroke-linejoin="round"/>
<path d="M212.099 51.3262C212.099 51.3262 212.389 44.2409 212.679 41.3536C212.968 38.4663 213.837 36.4337 214.269 36.4337C214.702 36.4337 220.058 32.6821 220.058 32.6821C220.058 32.6821 228.734 33.2615 229.603 33.2615C230.473 33.2615 232.206 33.8409 232.063 34.6862L231.916 35.5504C231.991 36.0224 231.991 36.5032 231.916 36.9751C231.798 37.2671 231.596 37.518 231.337 37.6969C231.412 37.9275 231.394 38.1784 231.285 38.3953C231.177 38.6123 230.987 38.7777 230.757 38.8557C229.893 39.2878 226.275 41.1684 226.275 41.1684C225.39 43.0002 224.617 44.8843 223.962 46.81C223.382 48.8378 221.07 51.0033 221.07 51.0033C221.07 51.0033 221.212 53.0311 221.212 54.3275C221.119 55.4625 220.876 56.5803 220.49 57.6517C220.563 58.4225 220.563 59.1984 220.49 59.9692C220.348 60.4013 219.911 60.9807 219.479 60.9807C219.047 60.9807 215.86 61.56 214.255 61.2703C212.65 60.9807 210.352 59.1001 210.352 59.1001L211.073 56.208V53.8906C211.088 53.0643 212.099 51.3262 212.099 51.3262Z" fill="#92E3A9" stroke="#263238" stroke-linecap="round" stroke-linejoin="round"/>
<path d="M217.019 51.0367C217.019 51.0367 220.058 49.8827 220.343 48.0022C220.628 46.1216 222.077 41.3538 222.077 41.3538L226.27 41.2065" stroke="#263238" stroke-linecap="round" stroke-linejoin="round"/>
<path d="M218.61 39.3306C218.61 39.3306 222.371 38.0294 223.382 38.0294C224.394 38.0294 231.337 37.7397 231.337 37.7397" stroke="#263238" stroke-linecap="round" stroke-linejoin="round"/>
<path d="M218.468 36.0065C220.218 35.5687 222.011 35.3267 223.815 35.2847C226.422 35.2847 231.917 35.5696 231.917 35.5696" stroke="#263238" stroke-linecap="round" stroke-linejoin="round"/>
<path d="M211.957 56.9678C211.957 56.9678 213.857 58.9908 217.888 58.5586" stroke="#263238" stroke-linecap="round" stroke-linejoin="round"/>
<path d="M220.201 56.3887C220.201 56.3887 219.479 56.8256 216.15 56.8256" stroke="#263238" stroke-linecap="round" stroke-linejoin="round"/>
<path d="M209.065 69.4051L207.616 67.9805C207.616 67.9805 199.662 98.0646 199.52 100.235C199.377 102.405 202.701 106.019 204.582 106.883C206.462 107.748 212.679 107.026 214.706 106.014C216.734 105.003 218.031 100.952 219.189 97.1908C220.348 93.4297 219.042 86.7765 219.332 84.7535C219.622 82.7305 220.923 69.5571 220.923 69.5571L218.9 71.148C218.9 71.148 213.258 70.996 209.065 69.4051Z" fill="white" stroke="#263238" stroke-linecap="round" stroke-linejoin="round"/>
<path d="M209.967 140.211H285.569" stroke="#263238" stroke-linecap="round" stroke-linejoin="round"/>
<path d="M128.946 136.027C152.588 136.027 171.753 116.862 171.753 93.2209C171.753 69.5796 152.588 50.4146 128.946 50.4146C105.305 50.4146 86.1401 69.5796 86.1401 93.2209C86.1401 116.862 105.305 136.027 128.946 136.027Z" fill="#92E3A9"/>
<path d="M99.3705 138.231L100.32 116.533C100.32 116.533 96.6731 127.778 94.7736 130.628C92.874 133.477 91.4493 134.588 88.7567 134.113C86.0641 133.638 80.9971 125.399 80.9971 121.291C80.9971 117.184 85.2711 106.722 86.2208 104.347C87.1706 101.973 92.2424 81.8567 92.8693 80.7455C93.4961 79.6342 114.092 73.4274 114.092 73.4274L115.517 70.4167C115.517 70.4167 136.583 68.0422 138.007 68.2037C139.432 68.3651 139.275 70.7348 139.275 70.7348C139.275 70.7348 141.844 72.9573 142.163 73.4322C142.481 73.9071 154.163 79.639 157.805 80.9069C161.448 82.1749 161.766 83.4381 161.923 84.0744C162.079 84.7108 171.587 106.09 175.072 109.718C178.558 113.346 169.687 120.327 166.676 121.591C163.665 122.854 159.553 122.222 158.128 120.009C156.704 117.796 153.242 114.947 153.242 114.947L153.826 138.582" fill="white"/>
<path d="M99.3705 138.231L100.32 116.533C100.32 116.533 96.6731 127.778 94.7736 130.628C92.874 133.477 91.4493 134.588 88.7567 134.113C86.0641 133.638 80.9971 125.399 80.9971 121.291C80.9971 117.184 85.2711 106.722 86.2208 104.347C87.1706 101.973 92.2424 81.8567 92.8693 80.7455C93.4961 79.6342 114.092 73.4274 114.092 73.4274L115.517 70.4167C115.517 70.4167 136.583 68.0422 138.007 68.2037C139.432 68.3651 139.275 70.7348 139.275 70.7348C139.275 70.7348 141.844 72.9573 142.163 73.4322C142.481 73.9071 154.163 79.639 157.805 80.9069C161.448 82.1749 161.766 83.4381 161.923 84.0744C162.079 84.7108 171.587 106.09 175.072 109.718C178.558 113.346 169.687 120.327 166.676 121.591C163.665 122.854 159.553 122.222 158.128 120.009C156.704 117.796 153.242 114.947 153.242 114.947L153.826 138.582" stroke="#263238" stroke-linecap="round" stroke-linejoin="round"/>
<path d="M100.325 116.533L100.083 100.7" stroke="#263238" stroke-linecap="round" stroke-linejoin="round"/>
<path d="M98.9712 108.674L99.3369 111.29" stroke="#263238" stroke-linecap="round" stroke-linejoin="round"/>
<path d="M97.48 98.0981L98.6245 106.204" stroke="#263238" stroke-linecap="round" stroke-linejoin="round"/>
<path d="M151.513 105.012C151.391 105.731 151.327 106.458 151.323 107.187" stroke="#263238" stroke-linecap="round" stroke-linejoin="round"/>
<path d="M155.759 93.5674C154.164 96.5523 152.891 99.6978 151.959 102.951" stroke="#263238" stroke-linecap="round" stroke-linejoin="round"/>
<path d="M151.005 98.6348C151.005 98.6348 149.737 102.909 149.898 106.394" stroke="#263238" stroke-linecap="round" stroke-linejoin="round"/>
<path d="M133.22 78.8032C132.831 79.1831 132.423 79.5583 132 79.9145" stroke="#263238" stroke-linecap="round" stroke-linejoin="round"/>
<path d="M138.967 71.5186C137.681 73.6386 136.194 75.6297 134.526 77.4641" stroke="#263238" stroke-linecap="round" stroke-linejoin="round"/>
<path d="M125.062 134.669L125.028 138.387" stroke="#263238" stroke-linecap="round" stroke-linejoin="round"/>
<path d="M125.432 91.6016L125.081 132.39" stroke="#263238" stroke-linecap="round" stroke-linejoin="round"/>
<path d="M124.872 78.0103L125.503 81.021L125.451 89.3221" stroke="#263238" stroke-linecap="round" stroke-linejoin="round"/>
<path d="M92.8787 120.175L89.5545 114.477L89.3931 120.973C89.3931 120.973 91.7723 121.6 92.8787 120.175Z" fill="white" stroke="#263238" stroke-linecap="round" stroke-linejoin="round"/>
<path d="M99.2138 93.3445L96.8299 95.6667L79.8906 77.621L82.2746 75.2988L99.2138 93.3445Z" fill="#263238" stroke="#263238" stroke-linecap="round" stroke-linejoin="round"/>
<path d="M82.0212 74.1228L78.729 77.3311L79.6736 78.3004L82.9658 75.0921L82.0212 74.1228Z" fill="white" stroke="#263238" stroke-linecap="round" stroke-linejoin="round"/>
<path d="M98.9164 93.6323L97.1377 95.3657L98.5761 96.8418L100.355 95.1084L98.9164 93.6323Z" fill="white" stroke="#263238" stroke-linecap="round" stroke-linejoin="round"/>
<path d="M98.1545 92.9121C98.0764 92.9907 97.9835 93.053 97.8812 93.0955C97.779 93.1381 97.6693 93.16 97.5585 93.16C97.4477 93.16 97.3381 93.1381 97.2358 93.0955C97.1335 93.053 97.0406 92.9907 96.9625 92.9121L84.0598 79.0169C83.9813 78.9388 83.919 78.846 83.8764 78.7437C83.8339 78.6414 83.812 78.5317 83.812 78.421C83.812 78.3102 83.8339 78.2005 83.8764 78.0982C83.919 77.9959 83.9813 77.9031 84.0598 77.825C84.1379 77.7464 84.2308 77.6841 84.3331 77.6416C84.4354 77.599 84.545 77.5771 84.6558 77.5771C84.7666 77.5771 84.8763 77.599 84.9785 77.6416C85.0808 77.6841 85.1737 77.7464 85.2518 77.825L98.1545 91.7154C98.2332 91.7939 98.2956 91.8872 98.3382 91.9899C98.3808 92.0926 98.4027 92.2026 98.4027 92.3138C98.4027 92.4249 98.3808 92.535 98.3382 92.6377C98.2956 92.7404 98.2332 92.8336 98.1545 92.9121Z" fill="white" stroke="#263238" stroke-linecap="round" stroke-linejoin="round"/>
<path d="M99.1348 96.2891L99.7846 95.6563L108.919 105.036C108.957 105.075 108.987 105.121 109.007 105.171C109.027 105.222 109.037 105.276 109.036 105.33C109.035 105.384 109.024 105.438 109.002 105.488C108.981 105.537 108.95 105.583 108.911 105.62L108.857 105.673C108.777 105.751 108.67 105.793 108.56 105.792C108.449 105.79 108.343 105.745 108.266 105.666L99.1348 96.2891Z" fill="white" stroke="#263238" stroke-linecap="round" stroke-linejoin="round"/>
<path d="M83.3759 99.5844L81.1582 92.7745L82.4261 85.3283C82.4261 85.3283 85.9118 81.3724 86.3867 81.211C86.8616 81.0495 91.1356 81.0543 91.1356 81.0543C91.1356 81.0543 91.9286 80.7361 91.9286 81.5292C91.9433 81.7381 91.9078 81.9475 91.8252 82.1399C91.7426 82.3324 91.6153 82.5023 91.4537 82.6356C91.4537 82.6356 93.1966 82.7971 93.6715 82.7971C94.1463 82.7971 94.6212 83.1153 94.6212 83.9036C94.6212 84.6919 93.3533 85.0148 92.8784 85.1715C92.4035 85.3283 90.6607 85.9646 90.6607 85.9646L87.9681 88.9754H90.9788C91.5689 89.0205 92.1529 89.1255 92.7217 89.2888C93.0351 89.7637 93.1966 91.5065 93.1966 91.5065C93.7253 92.3619 93.9988 93.3504 93.9849 94.3559C93.9849 96.0939 94.4598 97.0485 93.9849 97.2052C93.51 97.3619 92.4035 98.155 92.4035 97.3619C92.3965 96.8313 92.3441 96.3022 92.2468 95.7805L90.504 96.094L89.8676 97.3619C89.8676 97.3619 91.2923 100.529 91.2923 101.797C91.2923 103.065 90.6607 107.339 90.6607 107.339L90.0291 119.378C88.5966 119.287 87.1967 118.911 85.9118 118.271C83.5374 117.16 81.0015 113.047 81.0015 113.047L83.8508 103.227L83.3759 99.5844Z" fill="#92E3A9" stroke="#263238" stroke-linecap="round" stroke-linejoin="round"/>
<path d="M85.7503 110.986C84.4159 110.768 83.1859 109.742 82.2552 108.721L81.0015 113.047C81.0015 113.047 83.5326 117.165 85.9071 118.271C87.1937 118.911 88.5951 119.287 90.0291 119.378L90.504 110.26C89.2313 110.749 87.3887 111.262 85.7503 110.986Z" fill="#D1D1D1" stroke="#263238" stroke-linecap="round" stroke-linejoin="round"/>
<path d="M87.8115 94.3604C87.8115 94.3604 88.1249 93.5674 88.5998 93.4107C89.0747 93.254 93.3487 92.1475 93.3487 92.1475" stroke="#263238" stroke-linecap="round" stroke-linejoin="round"/>
<path d="M85.9121 91.5066L86.387 89.9252L87.9684 88.9707" stroke="#263238" stroke-linecap="round" stroke-linejoin="round"/>
<path d="M84.0078 88.657C84.0078 88.657 86.0688 85.0146 86.7004 84.383C87.332 83.7514 90.9744 82.9583 91.4493 82.6401" stroke="#263238" stroke-linecap="round" stroke-linejoin="round"/>
<path d="M90.0292 119.382L92.8786 120.176C92.8786 120.176 93.6716 131.421 93.6716 132.846C93.6716 134.27 90.3474 136.013 86.7003 136.331C83.0531 136.649 77.3545 133.795 77.3545 131.264C77.3545 128.733 81.1298 111.476 81.1298 111.476C81.1298 111.476 83.851 118.589 90.0292 119.382Z" fill="white" stroke="#263238" stroke-linecap="round" stroke-linejoin="round"/>
<path d="M133.268 112.254C131.912 112.223 130.572 111.956 129.307 111.466C127.831 110.866 126.29 110.44 124.715 110.198C123.765 110.037 122.023 110.83 120.755 110.037C119.487 109.244 118.38 108.612 120.436 107.819C122.493 107.026 125.822 107.98 127.085 108.137C128.348 108.294 130.727 107.819 130.727 107.819L133.268 112.254Z" fill="#92E3A9" stroke="#263238" stroke-linecap="round" stroke-linejoin="round"/>
<path d="M112.358 113.84C118.918 113.84 124.235 111.891 124.235 109.486C124.235 107.081 118.918 105.131 112.358 105.131C105.799 105.131 100.481 107.081 100.481 109.486C100.481 111.891 105.799 113.84 112.358 113.84Z" fill="#263238" stroke="#263238" stroke-linecap="round" stroke-linejoin="round"/>
<path d="M112.359 113.209C118.483 113.209 123.447 111.542 123.447 109.486C123.447 107.43 118.483 105.763 112.359 105.763C106.235 105.763 101.27 107.43 101.27 109.486C101.27 111.542 106.235 113.209 112.359 113.209Z" fill="white" stroke="#263238" stroke-linecap="round" stroke-linejoin="round"/>
<path d="M147.68 123.661C147.68 123.661 147.272 116.49 147.272 115.374C147.272 114.258 152.472 116.12 152.472 116.12C152.472 116.12 149.76 123.025 147.68 123.661Z" fill="white" stroke="#263238" stroke-linecap="round" stroke-linejoin="round"/>
<path d="M150.392 109.248C150.392 109.248 144.694 107.662 143.108 107.03C141.521 106.399 133.762 102.913 132.337 101.959C130.912 101.004 126.79 100.695 126.79 100.695C126.79 100.695 123.148 99.1094 122.673 99.1094C122.198 99.1094 115.388 101.802 113.964 102.434C112.539 103.065 112.696 104.495 113.327 104.969C113.959 105.444 120.142 102.595 120.142 102.595L118.399 107.344C118.399 107.344 116.181 109.087 116.975 110.193C117.768 111.3 120.147 109.4 120.935 108.925C121.723 108.45 126.32 106.233 126.32 106.233C126.32 106.233 122.203 110.825 121.41 112.093C120.617 113.361 122.521 113.361 123.153 113.043C123.784 112.724 128.22 109.4 128.22 109.4C128.22 109.4 134.716 113.836 136.459 113.836C138.202 113.836 141.051 112.724 141.051 112.724L150.867 118.276C150.867 118.276 152.449 115.583 152.61 113.679C152.772 111.775 152.767 109.405 152.767 109.405L150.392 109.248Z" fill="#92E3A9" stroke="#263238" stroke-linecap="round" stroke-linejoin="round"/>
<path d="M118.38 107.344L122.022 104.177L125.028 102.752" stroke="#263238" stroke-linecap="round" stroke-linejoin="round"/>
<path d="M120.123 102.595L120.911 100.852" stroke="#263238" stroke-linecap="round" stroke-linejoin="round"/>
<path d="M123.447 103.702L124.079 101.802" stroke="#263238" stroke-linecap="round" stroke-linejoin="round"/>
<path d="M128.196 109.405L132.475 108.294" stroke="#263238" stroke-linecap="round" stroke-linejoin="round"/>
<path d="M126.296 106.238L128.514 104.97" stroke="#263238" stroke-linecap="round" stroke-linejoin="round"/>
<path d="M148.697 108.773C149.265 110.403 149.359 112.16 148.968 113.84C148.733 114.802 148.365 115.725 147.875 116.585L150.867 118.276C150.867 118.276 152.449 115.583 152.61 113.679C152.772 111.775 152.767 109.405 152.767 109.405L150.392 109.248L148.697 108.773Z" fill="#D1D1D1" stroke="#263238" stroke-linecap="round" stroke-linejoin="round"/>
<path d="M168.438 103.545C168.438 103.545 164.164 104.651 162.416 105.606C160.669 106.56 153.707 107.505 153.075 107.819C152.444 108.132 148.706 108.769 148.706 108.769C148.706 108.769 150.539 112.568 149.589 115.579C148.64 118.589 147.69 123.652 147.69 123.652C147.69 123.652 155.763 125.869 162.734 124.127C169.706 122.384 174.298 117.317 175.556 116.68C176.815 116.044 177.456 113.356 177.456 112.088C177.456 110.82 173.339 106.228 172.389 105.915" fill="white"/>
<path d="M168.438 103.545C168.438 103.545 164.164 104.651 162.416 105.606C160.669 106.56 153.707 107.505 153.075 107.819C152.444 108.132 148.706 108.769 148.706 108.769C148.706 108.769 150.539 112.568 149.589 115.579C148.64 118.589 147.69 123.652 147.69 123.652C147.69 123.652 155.763 125.869 162.734 124.127C169.706 122.384 174.298 117.317 175.556 116.68C176.815 116.044 177.456 113.356 177.456 112.088C177.456 110.82 173.339 106.228 172.389 105.915" stroke="#263238" stroke-linecap="round" stroke-linejoin="round"/>
<path d="M122.972 36.8327C122.972 36.8327 118.38 38.2574 115.688 40.7933C112.995 43.3292 112.995 53.1404 112.995 54.4131C112.995 55.6858 112.52 63.284 112.834 65.5017C113.147 67.7194 119.482 77.0604 123.756 77.2219C128.03 77.3834 134.678 72.3116 135.79 70.7254C137.129 68.8279 138.295 66.8143 139.275 64.7086C139.907 63.1225 140.7 57.4239 140.861 55.6858C140.947 54.2085 140.947 52.7276 140.861 51.2503C140.861 51.2503 141.811 46.6582 140.068 43.6521C138.326 40.6461 133.42 37.0037 129.455 36.3673C125.489 35.731 122.972 36.8327 122.972 36.8327Z" fill="white" stroke="#263238" stroke-linecap="round" stroke-linejoin="round"/>
<path d="M112.995 52.0387C112.995 52.0387 116.319 49.1893 123.765 49.0279C128.231 48.9499 132.588 50.4029 136.112 53.1452C136.112 53.1452 137.224 52.3521 136.906 56.6308C136.587 60.9096 136.112 61.8546 132.632 63.1225C129.151 64.3905 121.386 65.3403 118.062 64.3905C114.738 63.4407 112.981 59.8031 112.838 58.6918C112.696 57.5806 112.995 52.0387 112.995 52.0387Z" fill="#D1D1D1" stroke="#263238" stroke-linecap="round" stroke-linejoin="round"/>
<path d="M112.995 50.6137C117.218 52.2936 121.752 53.0482 126.292 52.8267C134.051 52.5133 140.244 50.2481 141.037 50.0914C141.83 49.9347 141.198 51.3308 141.198 51.3308L136.744 53.6198C136.744 53.6198 136.744 57.8938 135.794 59.3184C134.844 60.7431 132.788 61.6929 130.57 61.6929C128.353 61.6929 126.296 60.4297 125.024 59.3184C124.497 58.8435 123.286 59.0003 122.806 59.6366C122.326 60.273 121.7 61.218 119.639 61.0613C117.578 60.9046 115.208 60.4249 114.253 59.1617C113.299 57.8985 112.99 54.4128 112.99 54.4128C112.99 54.4128 112.833 51.2453 112.995 50.6137Z" fill="white" stroke="#263238" stroke-linecap="round" stroke-linejoin="round"/>
<path d="M119.135 74.7477C119.617 76.0717 120.457 77.2358 121.562 78.1099C123.428 79.601 124.549 80.1614 126.6 79.601C128.652 79.0406 135.186 75.6832 132.945 76.0536C131.618 76.2783 130.309 76.5957 129.027 77.0034C129.027 77.0034 133.135 74.7619 135.747 72.3352C136.488 71.6728 137.01 70.8005 137.243 69.8343C137.476 68.8681 137.41 67.8538 137.053 66.9263C137.053 66.9263 118.95 72.5109 117.625 71.7606C116.3 71.0103 119.135 74.7477 119.135 74.7477Z" fill="#263238"/>
<path d="M140.894 55.6808C140.942 55.1394 140.961 54.5031 140.961 53.8857C140.543 54.3939 138.705 56.6211 137.727 57.7371C136.616 59.005 134.08 61.0613 124.102 60.5864C114.125 60.1115 112.857 58.6869 112.857 58.6869C112.757 61.2655 112.686 64.243 112.857 65.4967C113.175 67.7145 119.506 77.0555 123.78 77.217C128.054 77.3784 134.702 72.3066 135.813 70.7205C137.152 68.823 138.319 66.8093 139.299 64.7037L138.031 66.6032L138.506 58.8436L140.894 55.6808Z" fill="#92E3A9" stroke="#263238" stroke-linecap="round" stroke-linejoin="round"/>
<path d="M122.497 55.9944C122.497 55.9944 120.598 53.6199 116.637 54.2563" stroke="#263238" stroke-linecap="round" stroke-linejoin="round"/>
<path d="M127.408 55.9944C127.408 55.9944 129.939 54.5698 134.218 55.2061" stroke="#263238" stroke-linecap="round" stroke-linejoin="round"/>
<path d="M117.112 57.2622C117.112 57.2622 118.536 59.6366 121.386 58.212" stroke="#263238" stroke-linecap="round" stroke-linejoin="round"/>
<path d="M128.039 58.3735C128.039 58.3735 129.625 60.9047 133.424 58.3735" stroke="#263238" stroke-linecap="round" stroke-linejoin="round"/>
<path d="M82.0986 138.511H172.75" stroke="#263238" stroke-linecap="round" stroke-linejoin="round"/>
<path d="M189.295 217.637C212.936 217.637 232.101 198.472 232.101 174.83C232.101 151.189 212.936 132.024 189.295 132.024C165.654 132.024 146.489 151.189 146.489 174.83C146.489 198.472 165.654 217.637 189.295 217.637Z" fill="#92E3A9"/>
<path d="M166.472 132.917C166.472 132.917 160.774 129.118 154.348 129.279C147.923 129.441 145.511 136.037 145.169 137.941C144.827 139.846 145.344 140.886 141.536 140.886C137.727 140.886 129.754 140.192 126.639 144.352C123.523 148.512 123.172 153.185 125.945 156.13C128.719 159.074 129.744 160.285 129.744 160.285C129.744 160.285 126.8 163.058 128.187 166.867C129.573 170.675 134.598 172.409 137.889 172.409C141.18 172.409 146.199 167.731 147.586 164.962C148.973 162.194 152.957 163.063 156.072 158.727C159.187 154.391 157.635 149.025 157.112 146.081C156.59 143.137 157.288 137.058 161.443 135.519C165.598 133.981 166.292 133.957 166.292 133.957L166.472 132.917Z" fill="#263238" stroke="#263238" stroke-linecap="round" stroke-linejoin="round"/>
<path d="M118.147 217.271L130.618 194.928C131.029 191.1 131.841 187.326 133.04 183.668C135.12 177.086 137.547 166.52 140.491 162.882C143.435 159.245 153.313 155.954 153.313 155.954C153.313 155.954 162.839 160.114 165.437 162.018C168.034 163.922 172.365 167.213 173.747 170.157C175.129 173.102 176.35 180.201 178.601 182.799C180.852 185.397 185.876 190.597 185.7 195.445C185.524 200.294 184.66 202.198 184.66 203.414C184.66 204.63 182.238 203.157 177.736 203.675C173.234 204.193 170.029 205.674 169.663 206.192C169.298 206.71 160.583 220.738 160.583 220.738" fill="white"/>
<path d="M118.147 217.271L130.618 194.928C131.029 191.1 131.841 187.326 133.04 183.668C135.12 177.086 137.547 166.52 140.491 162.882C143.435 159.245 153.313 155.954 153.313 155.954C153.313 155.954 162.839 160.114 165.437 162.018C168.034 163.922 172.365 167.213 173.747 170.157C175.129 173.102 176.35 180.201 178.601 182.799C180.852 185.397 185.876 190.597 185.7 195.445C185.524 200.294 184.66 202.198 184.66 203.414C184.66 204.63 182.238 203.157 177.736 203.675C173.234 204.193 170.029 205.674 169.663 206.192C169.298 206.71 160.583 220.738 160.583 220.738" stroke="#263238" stroke-linecap="round" stroke-linejoin="round"/>
<path d="M174.089 177.951C174.089 177.951 175.823 187.653 176.169 190.075C176.516 192.496 171.667 202.374 170.471 203.414" stroke="#263238" stroke-linecap="round" stroke-linejoin="round"/>
<path d="M170.11 177.951C170.11 177.951 169.763 186.09 170.281 190.075C170.798 194.059 171.838 199.097 170.974 200.641" stroke="#263238" stroke-linecap="round" stroke-linejoin="round"/>
<path d="M175.651 192.672C175.651 192.672 178.596 190.25 182.404 191.29" stroke="#263238" stroke-linecap="round" stroke-linejoin="round"/>
<path d="M177.209 190.597C177.209 190.597 179.46 189.21 181.54 189.21" stroke="#263238" stroke-linecap="round" stroke-linejoin="round"/>
<path d="M170.452 164.44L172.014 167.56L173.914 176.393L171.14 171.544L169.758 177.433L168.025 166.695C168.025 166.695 168.723 163.058 170.452 164.44Z" fill="white" stroke="#263238" stroke-linecap="round" stroke-linejoin="round"/>
<path d="M163.528 148.507C163.528 148.507 161.448 150.407 159.89 151.105C158.332 151.803 156.423 152.492 156.423 152.492L165.95 171.544L169.749 177.433C169.749 177.433 169.573 172.408 169.573 170.675C169.551 169.455 169.435 168.239 169.226 167.038L173.728 161.496C173.728 161.496 175.115 148.674 173.904 146.603C172.693 144.533 165.779 146.256 163.528 148.507Z" fill="white" stroke="#263238" stroke-linecap="round" stroke-linejoin="round"/>
<path d="M174.17 156.671L170.846 153.698C170.846 153.698 170.095 154.41 169.563 159.026C169.387 161.112 169.835 163.203 170.85 165.033L173.7 161.495C173.7 161.495 173.975 159.349 174.17 156.671Z" fill="#263238" stroke="#263238" stroke-linecap="round" stroke-linejoin="round"/>
<path d="M195.217 142.994C195.217 142.994 193.987 148.959 192.937 150.887C191.888 152.815 190.406 153.874 190.283 154.728C189.927 157.687 189.936 158.936 189.058 160.166C188.179 161.396 183.269 164.378 180.286 165.076C177.304 165.774 175.537 166.306 174.668 165.428C173.799 164.549 170.637 159.99 170.637 158.062C170.637 156.134 170.109 155.607 170.637 154.377C171.164 153.147 171.164 149.989 171.164 149.989C171.164 149.989 171.164 148.412 173.267 145.782C175.371 143.151 179.408 142.457 182.39 142.457C185.372 142.457 185.714 140.349 188.882 139.475C192.049 138.601 194.338 141.237 195.217 142.994Z" fill="white" stroke="#263238" stroke-linecap="round" stroke-linejoin="round"/>
<path d="M188.317 153.522C187.951 154.135 187.415 154.496 187.125 154.325C186.835 154.154 186.897 153.508 187.268 152.9C187.638 152.292 188.17 151.927 188.46 152.098C188.749 152.269 188.687 152.905 188.317 153.522Z" fill="#263238"/>
<path d="M187.486 150.146C187.486 150.146 189.704 149.229 190.853 151.295" stroke="#263238" stroke-linecap="round" stroke-linejoin="round"/>
<path d="M189.076 160.185C189.518 159.42 189.813 158.579 189.946 157.706C188.583 156.96 185.581 155.203 183.986 153.342C181.882 150.886 177.674 144.922 177.674 144.922L176.986 145.8L180.495 151.589C180.495 151.589 176.459 154.914 173.652 154.914C171.468 154.914 170.983 154.068 170.879 153.688C170.828 153.926 170.759 154.16 170.67 154.386C170.143 155.616 170.67 156.139 170.67 158.072C170.67 160.004 173.828 164.563 174.702 165.437C175.575 166.311 177.337 165.788 180.32 165.086C183.302 164.383 188.198 161.415 189.076 160.185Z" fill="#92E3A9" stroke="#263238" stroke-linecap="round" stroke-linejoin="round"/>
<path d="M176.269 147.202C177.805 146.296 179.575 145.87 181.355 145.976C184.337 146.152 187.847 147.377 188.725 145.801C189.604 144.224 189.779 141.237 192.41 141.94C195.041 142.643 195.393 144.219 195.393 144.219C195.393 144.219 200.83 144.044 201.357 141.061C201.884 138.079 198.902 133.344 196.969 132.988C195.036 132.632 193.284 132.285 193.284 132.285C193.284 132.285 186.636 125.442 178.724 125.637C170.812 125.832 167.327 128.961 165.394 135.638C163.461 142.315 164.34 144.761 162.758 147.035C161.177 149.31 160.303 151.599 164.183 151.248C168.063 150.896 170.675 148.441 172.603 147.562C173.751 147.04 175.041 146.913 176.269 147.202Z" fill="#263238" stroke="#263238" stroke-linecap="round" stroke-linejoin="round"/>
<path d="M176.796 148.432C176.796 148.432 178.9 145.801 176.972 142.994C175.044 140.188 169.426 145.625 170.323 148.607C171.221 151.59 173.481 151.238 173.481 151.238" fill="white"/>
<path d="M176.796 148.432C176.796 148.432 178.9 145.801 176.972 142.994C175.044 140.188 169.426 145.625 170.323 148.607C171.221 151.59 173.481 151.238 173.481 151.238" stroke="#263238" stroke-linecap="round" stroke-linejoin="round"/>
<path d="M157.81 150.241L168.376 171.715L164.739 177.604L151.921 155.436L157.81 150.241Z" fill="white" stroke="#263238" stroke-linecap="round" stroke-linejoin="round"/>
<path d="M170.632 204.259C170.632 204.259 170.39 200.113 175.675 199.7C180.961 199.287 185.059 201.562 185.282 205.066C185.506 208.571 174.711 206.311 173.51 206.311C172.308 206.311 170.632 204.259 170.632 204.259Z" fill="white" stroke="#263238" stroke-linecap="round" stroke-linejoin="round"/>
<path d="M229.689 215.396H159.368V219.347H229.518" fill="white"/>
<path d="M229.689 215.396H159.368V219.347H229.518" stroke="#263238" stroke-linecap="round" stroke-linejoin="round"/>
<path d="M204.748 173.278L186.389 180.895V209.303H193.317V182.628L206.134 175.529L204.748 173.278Z" fill="white" stroke="#263238" stroke-linecap="round" stroke-linejoin="round"/>
<path d="M214.317 200.318C214.193 200.26 214.088 200.168 214.014 200.053C213.94 199.938 213.901 199.804 213.901 199.667C213.901 199.53 213.94 199.396 214.014 199.281C214.088 199.166 214.193 199.074 214.317 199.017C214.317 198.828 214.242 198.646 214.108 198.513C213.975 198.379 213.793 198.304 213.605 198.304H207.498C207.511 199.039 207.258 199.755 206.785 200.318C206.785 200.455 206.825 200.589 206.899 200.704C206.973 200.819 207.079 200.911 207.203 200.968C207.078 201.024 206.972 201.114 206.898 201.229C206.824 201.344 206.785 201.478 206.785 201.614C206.909 201.672 207.014 201.763 207.088 201.879C207.162 201.994 207.201 202.128 207.201 202.265C207.201 202.402 207.162 202.535 207.088 202.651C207.014 202.766 206.909 202.858 206.785 202.915C206.785 203.052 206.825 203.187 206.899 203.302C206.973 203.417 207.079 203.509 207.203 203.566C207.078 203.621 206.972 203.712 206.898 203.827C206.824 203.941 206.785 204.075 206.785 204.212C206.785 204.306 206.803 204.399 206.838 204.486C206.874 204.573 206.926 204.652 206.992 204.719C207.058 204.785 207.137 204.838 207.224 204.874C207.311 204.91 207.404 204.929 207.498 204.929H213.605C213.698 204.929 213.792 204.91 213.878 204.874C213.965 204.838 214.044 204.785 214.11 204.719C214.176 204.652 214.229 204.573 214.264 204.486C214.3 204.399 214.318 204.306 214.317 204.212C214.318 204.075 214.278 203.941 214.204 203.827C214.13 203.712 214.024 203.621 213.899 203.566C213.774 203.235 213.748 202.875 213.822 202.529C213.896 202.183 214.068 201.865 214.317 201.614C214.318 201.478 214.278 201.344 214.204 201.229C214.13 201.114 214.024 201.024 213.899 200.968C214.024 200.911 214.129 200.819 214.203 200.704C214.277 200.589 214.317 200.455 214.317 200.318Z" fill="#263238" stroke="#263238" stroke-linecap="round" stroke-linejoin="round"/>
<path d="M219.907 204.801H186.261V211.687H219.907V204.801Z" fill="white" stroke="#263238" stroke-linecap="round" stroke-linejoin="round"/>
<path d="M219.907 208.044H186.261V211.682H219.907V208.044Z" fill="#263238" stroke="#263238" stroke-linecap="round" stroke-linejoin="round"/>
<path d="M192.496 211.554H188.469V215.32H192.496V211.554Z" fill="#263238" stroke="#263238" stroke-linecap="round" stroke-linejoin="round"/>
<path d="M204.705 211.554H200.678V215.32H204.705V211.554Z" fill="#263238" stroke="#263238" stroke-linecap="round" stroke-linejoin="round"/>
<path d="M216.915 211.554H212.888V215.32H216.915V211.554Z" fill="#263238" stroke="#263238" stroke-linecap="round" stroke-linejoin="round"/>
<path d="M220.557 191.546H190.677V193.104H220.557V191.546Z" fill="white" stroke="#263238" stroke-linecap="round" stroke-linejoin="round"/>
<path d="M218.866 192.976H193.274V195.313H218.866V192.976Z" fill="#263238" stroke="#263238" stroke-linecap="round" stroke-linejoin="round"/>
<path d="M192.141 153.111L189.333 156.174L206.955 172.322L209.762 169.258L192.141 153.111Z" fill="#263238" stroke="#263238" stroke-linecap="round" stroke-linejoin="round"/>
<path d="M209.616 177.832H206.325V186.318H209.616V177.832Z" fill="#263238" stroke="#263238" stroke-linecap="round" stroke-linejoin="round"/>
<path d="M209.259 186.437H206.705V187.856H209.259V186.437Z" fill="#263238" stroke="#263238" stroke-linecap="round" stroke-linejoin="round"/>
<path d="M212.647 175.243L209.635 176.568L213.051 184.337L216.064 183.012L212.647 175.243Z" fill="#263238" stroke="#263238" stroke-linecap="round" stroke-linejoin="round"/>
<path d="M215.779 183.264L213.44 184.292L214.012 185.592L216.351 184.564L215.779 183.264Z" fill="#263238" stroke="#263238" stroke-linecap="round" stroke-linejoin="round"/>
<path d="M207.175 166.52L203.708 169.987V179.86L214.797 177.086V170.504L207.175 166.52Z" fill="white" stroke="#263238" stroke-linecap="round" stroke-linejoin="round"/>
<path d="M214.797 174.512L203.708 177.376V179.859L214.797 177.086V174.512Z" fill="#263238" stroke="#263238" stroke-linecap="round" stroke-linejoin="round"/>
<path d="M185.002 202.374C185.002 202.374 190.197 198.907 191.237 197.696C192.277 196.485 196.086 191.637 197.126 191.461C198.166 191.285 201.803 191.29 202.497 191.29C203.19 191.29 205.441 193.365 205.959 193.712C206.476 194.059 206.652 195.612 206.134 195.792C205.617 195.972 202.843 194.581 202.843 194.581L198.166 195.445C198.166 195.445 205.265 197.179 205.764 197.525C206.263 197.872 206.111 199.601 206.111 199.601L204.054 200.641C204.054 200.641 206.134 200.47 206.134 201.681C206.134 202.892 206.134 204.107 205.265 204.107H204.401C204.401 204.107 206.301 206.007 205.788 206.529C205.174 207.093 204.37 207.404 203.537 207.398C202.668 207.398 200.592 208.433 198.166 209.298C195.739 210.162 192.106 211.72 190.197 212.066C188.288 212.413 185.524 212.76 185.524 212.76C185.524 212.76 185.349 208.258 185.002 206.871C184.655 205.484 183.962 202.887 183.962 202.887L185.002 202.374Z" fill="white" stroke="#263238" stroke-linecap="round" stroke-linejoin="round"/>
<path d="M204.055 200.641L200.379 201.305" stroke="#263238" stroke-linecap="round" stroke-linejoin="round"/>
<path d="M204.401 204.107L200.773 204.848" stroke="#263238" stroke-linecap="round" stroke-linejoin="round"/>
<path d="M142.566 166.696C140.315 170.158 137.717 178.126 137.717 182.111C137.717 186.095 134.426 201.334 134.08 206.876C133.733 212.418 133.909 215.899 137.371 216.578C140.833 217.257 151.746 218.136 156.599 217.613C161.452 217.091 167.013 217.096 174.611 217.096C182.21 217.096 185.871 216.578 185.871 216.578C186.358 214.116 186.704 211.628 186.906 209.127C187.082 206.012 185.871 201.334 185.349 201.334C184.826 201.334 176.516 202.721 169.416 203.585C162.317 204.449 158.85 203.238 157.639 202.721C157.096 202.447 156.509 202.27 155.906 202.198V199.947L153.826 199.776L155.725 187.653C155.725 187.653 157.288 186.613 157.805 185.402C158.323 184.191 159.016 177.951 158.669 174.142C158.323 170.333 154.685 168.078 154.685 168.078" fill="white"/>
<path d="M142.566 166.696C140.315 170.158 137.717 178.126 137.717 182.111C137.717 186.095 134.426 201.334 134.08 206.876C133.733 212.418 133.909 215.899 137.371 216.578C140.833 217.257 151.746 218.136 156.599 217.613C161.452 217.091 167.013 217.096 174.611 217.096C182.21 217.096 185.871 216.578 185.871 216.578C186.358 214.116 186.704 211.628 186.906 209.127C187.082 206.012 185.871 201.334 185.349 201.334C184.826 201.334 176.516 202.721 169.416 203.585C162.317 204.449 158.85 203.238 157.639 202.721C157.096 202.447 156.509 202.27 155.906 202.198V199.947L153.826 199.776L155.725 187.653C155.725 187.653 157.288 186.613 157.805 185.402C158.323 184.191 159.016 177.951 158.669 174.142C158.323 170.333 154.685 168.078 154.685 168.078" stroke="#263238" stroke-linecap="round" stroke-linejoin="round"/>
<path d="M153.479 201.163C153.479 201.163 152.092 203.585 146.897 205.665" stroke="#263238" stroke-linecap="round" stroke-linejoin="round"/>
<path d="M154.001 203.067C154.001 203.067 146.204 208.956 144.475 211.207" stroke="#263238" stroke-linecap="round" stroke-linejoin="round"/>
<path d="M138.045 205.318C138.045 205.318 144.627 205.143 149.305 202.198" stroke="#263238" stroke-linecap="round" stroke-linejoin="round"/>
<path d="M154.866 186.959C154.866 186.959 153.308 184.532 149.324 182.281" stroke="#263238" stroke-linecap="round" stroke-linejoin="round"/>
</g>
<defs>
<filter id="filter0_d_948_32" x="-4" y="0" width="394" height="417" filterUnits="userSpaceOnUse" color-interpolation-filters="sRGB">
<feFlood flood-opacity="0" result="BackgroundImageFix"/>
<feColorMatrix in="SourceAlpha" type="matrix" values="0 0 0 0 0 0 0 0 0 0 0 0 0 0 0 0 0 0 127 0" result="hardAlpha"/>
<feOffset dy="4"/>
<feGaussianBlur stdDeviation="2"/>
<feComposite in2="hardAlpha" operator="out"/>
<feColorMatrix type="matrix" values="0 0 0 0 0 0 0 0 0 0 0 0 0 0 0 0 0 0 0.25 0"/>
<feBlend mode="normal" in2="BackgroundImageFix" result="effect1_dropShadow_948_32"/>
<feBlend mode="normal" in="SourceGraphic" in2="effect1_dropShadow_948_32" result="shape"/>
</filter>
<clipPath id="clip0_948_32">
<rect width="1728" height="1851" fill="white" transform="translate(-82 -754)"/>
</clipPath>
</defs>
</svg>
