<svg width="386" height="264" viewBox="0 0 386 264" fill="none" xmlns="http://www.w3.org/2000/svg">
<rect width="386" height="264" fill="#6D6D6D"/>
<g filter="url(#filter0_d_948_32)">
<rect width="385.283" height="263.601" rx="20" fill="#D1D0FF" fill-opacity="0.8"/>
<rect x="0.5" y="0.5" width="384.283" height="262.601" rx="19.5" stroke="black" stroke-opacity="0.2"/>
<path d="M0 226.99H385.283V389C385.283 400.046 376.329 409 365.283 409H20C8.95431 409 0 400.046 0 389V226.99Z" fill="white"/>
</g>
<path opacity="0.8" d="M53.9501 266.282C53.9501 267.178 53.7341 268.018 53.3021 268.802C52.8861 269.586 52.2221 270.218 51.3101 270.698C50.4141 271.178 49.2781 271.418 47.9021 271.418H45.0941V277.85H41.7341V261.098H47.9021C49.1981 261.098 50.3021 261.322 51.2141 261.77C52.1261 262.218 52.8061 262.834 53.2541 263.618C53.7181 264.402 53.9501 265.29 53.9501 266.282ZM47.7581 268.706C48.6861 268.706 49.3741 268.498 49.8221 268.082C50.2701 267.65 50.4941 267.05 50.4941 266.282C50.4941 264.65 49.5821 263.834 47.7581 263.834H45.0941V268.706H47.7581ZM59.6957 266.618C60.1277 265.914 60.6877 265.362 61.3757 264.962C62.0797 264.562 62.8797 264.362 63.7757 264.362V267.89H62.8877C61.8317 267.89 61.0317 268.138 60.4877 268.634C59.9597 269.13 59.6957 269.994 59.6957 271.226V277.85H56.3357V264.554H59.6957V266.618ZM71.9428 278.066C70.6628 278.066 69.5108 277.786 68.4868 277.226C67.4628 276.65 66.6548 275.842 66.0628 274.802C65.4868 273.762 65.1988 272.562 65.1988 271.202C65.1988 269.842 65.4948 268.642 66.0868 267.602C66.6948 266.562 67.5188 265.762 68.5588 265.202C69.5988 264.626 70.7588 264.338 72.0388 264.338C73.3188 264.338 74.4788 264.626 75.5188 265.202C76.5588 265.762 77.3748 266.562 77.9668 267.602C78.5748 268.642 78.8788 269.842 78.8788 271.202C78.8788 272.562 78.5668 273.762 77.9428 274.802C77.3348 275.842 76.5028 276.65 75.4468 277.226C74.4068 277.786 73.2388 278.066 71.9428 278.066ZM71.9428 275.138C72.5508 275.138 73.1188 274.994 73.6468 274.706C74.1908 274.402 74.6228 273.954 74.9428 273.362C75.2628 272.77 75.4228 272.05 75.4228 271.202C75.4228 269.938 75.0868 268.97 74.4148 268.298C73.7588 267.61 72.9508 267.266 71.9908 267.266C71.0308 267.266 70.2228 267.61 69.5668 268.298C68.9268 268.97 68.6068 269.938 68.6068 271.202C68.6068 272.466 68.9188 273.442 69.5428 274.13C70.1828 274.802 70.9828 275.138 71.9428 275.138ZM83.0475 262.97C82.4395 262.97 81.9355 262.786 81.5355 262.418C81.1515 262.034 80.9595 261.562 80.9595 261.002C80.9595 260.442 81.1515 259.978 81.5355 259.61C81.9355 259.226 82.4395 259.034 83.0475 259.034C83.6395 259.034 84.1275 259.226 84.5115 259.61C84.8955 259.978 85.0875 260.442 85.0875 261.002C85.0875 261.562 84.8955 262.034 84.5115 262.418C84.1275 262.786 83.6395 262.97 83.0475 262.97ZM84.7035 280.034C84.7035 281.506 84.3355 282.562 83.5995 283.202C82.8795 283.858 81.8395 284.186 80.4795 284.186H78.9915V281.33H79.9515C80.4635 281.33 80.8235 281.226 81.0315 281.018C81.2395 280.826 81.3435 280.506 81.3435 280.058V264.554H84.7035V280.034ZM100.383 270.914C100.383 271.394 100.351 271.826 100.287 272.21H90.5672C90.6472 273.17 90.9832 273.922 91.5752 274.466C92.1672 275.01 92.8952 275.282 93.7592 275.282C95.0072 275.282 95.8952 274.746 96.4232 273.674H100.047C99.6632 274.954 98.9272 276.01 97.8392 276.842C96.7512 277.658 95.4152 278.066 93.8312 278.066C92.5512 278.066 91.3992 277.786 90.3752 277.226C89.3672 276.65 88.5752 275.842 87.9992 274.802C87.4392 273.762 87.1592 272.562 87.1592 271.202C87.1592 269.826 87.4392 268.618 87.9992 267.578C88.5592 266.538 89.3432 265.738 90.3512 265.178C91.3592 264.618 92.5192 264.338 93.8312 264.338C95.0952 264.338 96.2232 264.61 97.2152 265.154C98.2232 265.698 98.9992 266.474 99.5432 267.482C100.103 268.474 100.383 269.618 100.383 270.914ZM96.9032 269.954C96.8872 269.09 96.5752 268.402 95.9672 267.89C95.3592 267.362 94.6152 267.098 93.7352 267.098C92.9032 267.098 92.1992 267.354 91.6232 267.866C91.0632 268.362 90.7192 269.058 90.5912 269.954H96.9032ZM101.972 271.202C101.972 269.826 102.252 268.626 102.812 267.602C103.372 266.562 104.148 265.762 105.14 265.202C106.132 264.626 107.268 264.338 108.548 264.338C110.196 264.338 111.556 264.754 112.628 265.586C113.716 266.402 114.444 267.554 114.812 269.042H111.188C110.996 268.466 110.668 268.018 110.204 267.698C109.756 267.362 109.196 267.194 108.524 267.194C107.564 267.194 106.804 267.546 106.244 268.25C105.684 268.938 105.404 269.922 105.404 271.202C105.404 272.466 105.684 273.45 106.244 274.154C106.804 274.842 107.564 275.186 108.524 275.186C109.884 275.186 110.772 274.578 111.188 273.362H114.812C114.444 274.802 113.716 275.946 112.628 276.794C111.54 277.642 110.18 278.066 108.548 278.066C107.268 278.066 106.132 277.786 105.14 277.226C104.148 276.65 103.372 275.85 102.812 274.826C102.252 273.786 101.972 272.578 101.972 271.202ZM121.185 267.314V273.746C121.185 274.194 121.289 274.522 121.497 274.73C121.721 274.922 122.089 275.018 122.601 275.018H124.161V277.85H122.049C119.217 277.85 117.801 276.474 117.801 273.722V267.314H116.217V264.554H117.801V261.266H121.185V264.554H124.161V267.314H121.185Z" fill="black"/>
<path d="M276.381 128.903H197.738C197.062 128.902 196.414 128.632 195.936 128.153C195.458 127.675 195.189 127.025 195.188 126.348V11.5584C195.19 10.8819 195.459 10.2338 195.937 9.75587C196.415 9.27791 197.062 9.00896 197.738 9.00781H276.381C277.056 9.00896 277.703 9.27791 278.181 9.75587C278.659 10.2338 278.929 10.8819 278.931 11.5584V126.348C278.93 127.025 278.661 127.675 278.183 128.153C277.705 128.632 277.057 128.902 276.381 128.903ZM197.738 9.11681C197.416 9.11451 197.097 9.17594 196.799 9.29756C196.501 9.41917 196.23 9.59859 196.002 9.82548C195.773 10.0524 195.592 10.3223 195.468 10.6197C195.344 10.9171 195.279 11.2361 195.279 11.5584V126.348C195.279 126.997 195.536 127.619 195.994 128.078C196.452 128.536 197.073 128.794 197.72 128.794H276.381C277.028 128.794 277.649 128.536 278.107 128.078C278.565 127.619 278.822 126.997 278.822 126.348V11.5584C278.822 10.9097 278.565 10.2876 278.107 9.82886C277.649 9.37015 277.028 9.11245 276.381 9.11245L197.738 9.11681Z" fill="#F0F0F0"/>
<path d="M185.672 128.903H107.011C106.335 128.901 105.687 128.632 105.209 128.153C104.731 127.674 104.462 127.025 104.461 126.348V11.5579C104.462 10.8806 104.731 10.2314 105.209 9.75253C105.687 9.27363 106.335 9.00408 107.011 9.00293H185.672C186.348 9.00408 186.996 9.27363 187.474 9.75253C187.952 10.2314 188.221 10.8806 188.222 11.5579V126.348C188.221 127.025 187.952 127.674 187.474 128.153C186.996 128.632 186.348 128.901 185.672 128.903ZM107.011 9.11629C106.364 9.11629 105.744 9.37339 105.286 9.83115C104.829 10.2889 104.571 10.9099 104.57 11.5579V126.348C104.57 126.996 104.827 127.618 105.285 128.077C105.743 128.536 106.364 128.794 107.011 128.794H185.672C186.319 128.794 186.94 128.536 187.398 128.077C187.856 127.618 188.113 126.996 188.113 126.348V11.5579C188.113 10.9092 187.856 10.287 187.398 9.82833C186.94 9.36963 186.319 9.11193 185.672 9.11193L107.011 9.11629Z" fill="#F0F0F0"/>
<path d="M300.438 155.529H82.8438V155.638H300.438V155.529Z" fill="#F0F0F0"/>
<path d="M120.708 144.407C120.708 144.407 116.595 145.318 117.226 142.445C117.857 139.572 117.792 138.521 116.121 137.213C114.45 135.905 112.765 135.264 114.045 133.193C115.324 131.122 112.896 129.513 111.643 128.397C110.389 127.281 111.804 126.444 112.134 124.338C112.465 122.232 110.207 122.55 110.028 119.895C109.85 117.24 112.539 114.144 110.228 110.495C110.228 110.495 113.336 112.108 114.354 114.942C115.372 117.776 114.55 119.965 116.386 121.046C118.223 122.128 119.367 123.989 118.745 125.899C118.123 127.809 119.006 128.824 120.512 130.22C122.018 131.615 121.613 132.169 121.426 133.873C121.239 135.578 121.617 135.181 123.336 137.505C125.055 139.829 125.06 143.64 120.708 144.407Z" fill="#F0F0F0"/>
<path d="M121.278 144.276C121.275 144.261 121.275 144.247 121.278 144.232L113.027 119.206C113.018 119.18 113.014 119.153 113.016 119.127C113.018 119.1 113.025 119.074 113.037 119.049C113.05 119.025 113.066 119.004 113.087 118.987C113.108 118.97 113.131 118.957 113.157 118.949C113.209 118.934 113.264 118.939 113.311 118.965C113.358 118.99 113.393 119.033 113.41 119.084L121.648 144.101C121.65 144.122 121.65 144.142 121.648 144.162L121.278 144.276Z" fill="#E0E0E0"/>
<path d="M128.107 144.355C128.107 144.355 132.197 145.262 131.588 142.402C130.979 139.542 131.027 138.478 132.689 137.17C134.352 135.862 136.027 135.23 134.752 133.172C133.477 131.114 135.896 129.514 137.141 128.406C138.386 127.299 136.984 126.462 136.654 124.365C136.323 122.267 138.569 122.586 138.747 119.948C138.925 117.31 136.249 114.228 138.547 110.596C138.547 110.596 135.457 112.2 134.443 115.021C133.429 117.842 134.247 120.018 132.424 121.09C130.6 122.163 129.456 124.016 130.078 125.917C130.7 127.818 129.817 128.829 128.337 130.216C126.858 131.602 127.241 132.151 127.428 133.848C127.615 135.544 127.236 135.155 125.526 137.462C123.816 139.768 123.755 143.592 128.107 144.355Z" fill="#F0F0F0"/>
<path d="M127.154 144.102C127.152 144.082 127.152 144.061 127.154 144.041L135.34 119.145C135.357 119.095 135.393 119.053 135.44 119.029C135.487 119.004 135.541 118.999 135.592 119.014C135.618 119.022 135.642 119.035 135.662 119.053C135.683 119.07 135.7 119.091 135.712 119.115C135.724 119.139 135.731 119.166 135.733 119.192C135.735 119.219 135.732 119.246 135.723 119.272L127.537 144.167V144.211L127.154 144.102Z" fill="#E0E0E0"/>
<path d="M123.573 143.831C123.573 143.831 118.864 143.443 120.47 140.566C122.076 137.688 122.385 136.542 121.027 134.584C119.669 132.626 118.081 131.375 120.157 129.587C122.232 127.8 120.157 125.267 119.169 123.653C118.181 122.04 119.987 121.617 121.044 119.472C122.102 117.327 119.569 116.913 120.261 114.014C120.953 111.114 124.857 108.69 123.59 104.012C123.59 104.012 126.38 106.772 126.532 110.146C126.684 113.521 125.079 115.592 126.689 117.358C128.299 119.123 128.908 121.5 127.607 123.34C126.306 125.179 126.915 126.562 128.042 128.572C129.169 130.581 128.577 131.026 127.812 132.792C127.046 134.558 127.585 134.248 128.656 137.318C129.726 140.387 128.512 144.472 123.573 143.831Z" fill="#F5F5F5"/>
<path d="M124.241 143.892C124.238 143.873 124.238 143.854 124.241 143.835L123.723 114.292C123.722 114.232 123.744 114.173 123.786 114.129C123.827 114.085 123.884 114.059 123.945 114.057C123.975 114.056 124.005 114.062 124.033 114.073C124.061 114.084 124.086 114.1 124.107 114.122C124.129 114.143 124.146 114.168 124.158 114.196C124.169 114.223 124.175 114.253 124.175 114.283L124.698 143.827C124.702 143.85 124.702 143.873 124.698 143.896L124.241 143.892Z" fill="#E0E0E0"/>
<path d="M136.374 141.551H113.362C113.21 141.553 113.061 141.592 112.927 141.664C112.793 141.736 112.679 141.839 112.593 141.965C112.508 142.091 112.454 142.236 112.436 142.387C112.418 142.538 112.437 142.691 112.491 142.833L112.831 143.74L113.044 144.316L113.662 145.959L113.879 146.53L114.515 148.222L114.728 148.793L117.265 155.529H132.519L135.051 148.793L135.265 148.222L135.9 146.53L136.118 145.959L136.736 144.316L136.949 143.74L137.288 142.833C137.344 142.687 137.362 142.53 137.342 142.376C137.322 142.221 137.264 142.074 137.174 141.947C137.084 141.82 136.963 141.718 136.824 141.649C136.684 141.58 136.53 141.546 136.374 141.551Z" fill="#E6E6E6"/>
<path d="M116.905 62.0293H130.644C131.005 62.0293 131.297 61.7365 131.297 61.3753V58.2666C131.297 57.9054 131.005 57.6126 130.644 57.6126H116.905C116.545 57.6126 116.252 57.9054 116.252 58.2666V61.3753C116.252 61.7365 116.545 62.0293 116.905 62.0293Z" fill="#F5F5F5"/>
<path d="M108.694 67.667H122.433C122.794 67.667 123.086 67.3742 123.086 67.013V63.9043C123.086 63.5431 122.794 63.2503 122.433 63.2503H108.694C108.334 63.2503 108.041 63.5431 108.041 63.9043V67.013C108.041 67.3742 108.334 67.667 108.694 67.667Z" fill="#F5F5F5"/>
<path d="M222.45 82.3076H208.711C208.351 82.3076 208.059 82.6004 208.059 82.9616V86.0703C208.059 86.4315 208.351 86.7243 208.711 86.7243H222.45C222.811 86.7243 223.103 86.4315 223.103 86.0703V82.9616C223.103 82.6004 222.811 82.3076 222.45 82.3076Z" fill="#F5F5F5"/>
<path d="M238.86 82.3076H225.122C224.761 82.3076 224.469 82.6004 224.469 82.9616V86.0703C224.469 86.4315 224.761 86.7243 225.122 86.7243H238.86C239.221 86.7243 239.513 86.4315 239.513 86.0703V82.9616C239.513 82.6004 239.221 82.3076 238.86 82.3076Z" fill="#F5F5F5"/>
<path d="M230.653 87.9404H216.915C216.554 87.9404 216.262 88.2332 216.262 88.5944V91.7031C216.262 92.0643 216.554 92.3571 216.915 92.3571H230.653C231.014 92.3571 231.306 92.0643 231.306 91.7031V88.5944C231.306 88.2332 231.014 87.9404 230.653 87.9404Z" fill="#F5F5F5"/>
<path d="M273.193 18.4688H238.805V52.9213H273.193V18.4688Z" fill="#E6E6E6"/>
<path d="M271.449 51.1814V20.2168L240.542 20.2168V51.1814H271.449Z" fill="#FAFAFA"/>
<path d="M253.926 44.1489C253.926 44.1489 259.583 32.4903 271.451 32.2549V51.1816H255.997L253.926 44.1489Z" fill="#F0F0F0"/>
<path d="M240.547 40.8743C240.547 40.8743 245.647 38.1929 250.835 40.1636C257.363 42.6314 261.127 51.1813 261.127 51.1813H240.547V40.8743Z" fill="#F5F5F5"/>
<path d="M184.84 18.6953H154.668V77.2107H184.84V18.6953Z" fill="#E6E6E6"/>
<path d="M183.102 75.4668V20.4395H156.411V75.4668H183.102Z" fill="#FAFAFA"/>
<path d="M165.648 42.9544C168.66 42.9544 171.101 40.5085 171.101 37.4914C171.101 34.4742 168.66 32.0283 165.648 32.0283C162.637 32.0283 160.195 34.4742 160.195 37.4914C160.195 40.5085 162.637 42.9544 165.648 42.9544Z" fill="white"/>
<path d="M161.398 75.4709C161.398 75.4709 168.144 42.9498 183.097 40.0068V75.4709H161.398Z" fill="#F0F0F0"/>
<path d="M156.391 56.1559C156.391 56.1559 159.829 52.838 165.277 54.8218C175.513 58.5539 181.227 75.4706 181.227 75.4706H156.391V56.1559Z" fill="#F5F5F5"/>
<path d="M193.214 176.767C241.012 176.767 279.76 175.703 279.76 174.391C279.76 173.079 241.012 172.015 193.214 172.015C145.416 172.015 106.668 173.079 106.668 174.391C106.668 175.703 145.416 176.767 193.214 176.767Z" fill="#F5F5F5"/>
<path d="M269.337 97.6334H229.422V172.66H269.337V97.6334Z" fill="#407BFF"/>
<path d="M229.422 120.528H227.172V122.782H229.422V120.528Z" fill="#263238"/>
<path d="M229.422 101.645H227.172V103.899H229.422V101.645Z" fill="#263238"/>
<path opacity="0.2" d="M264.233 122.782H229.422V123.17H264.233V122.782Z" fill="black"/>
<path d="M264.232 97.6334H263.845V172.66H264.232V97.6334Z" fill="#263238"/>
<path d="M269.338 80.6426V97.6465H264.233V85.7568C264.233 85.0852 264.365 84.4202 264.622 83.7997C264.879 83.1792 265.255 82.6154 265.729 82.1405C266.203 81.6656 266.765 81.2889 267.385 81.0319C268.004 80.7749 268.668 80.6426 269.338 80.6426Z" fill="#407BFF"/>
<path opacity="0.5" d="M269.338 80.6426V97.6465H264.233V85.7568C264.233 85.0852 264.365 84.4202 264.622 83.7997C264.879 83.1792 265.255 82.6154 265.729 82.1405C266.203 81.6656 266.765 81.2889 267.385 81.0319C268.004 80.7749 268.668 80.6426 269.338 80.6426Z" fill="white"/>
<path d="M244.998 96.3341H233.7V97.6334H244.998V96.3341Z" fill="#263238"/>
<path d="M261.099 96.3341H249.802V97.6334H261.099V96.3341Z" fill="#263238"/>
<path d="M239.37 172.66H234.57V174.391H239.37V172.66Z" fill="#263238"/>
<path d="M262.87 172.66H258.07V174.391H262.87V172.66Z" fill="#263238"/>
<path d="M132.679 97.3409H155.309C155.434 97.341 155.558 97.3113 155.67 97.2542C155.781 97.1971 155.878 97.1143 155.951 97.0126C156.025 96.9109 156.073 96.7931 156.092 96.6691C156.112 96.545 156.101 96.4181 156.062 96.2988L151.131 81.3179C151.079 81.1588 150.978 81.0201 150.843 80.9215C150.708 80.8229 150.545 80.7694 150.378 80.7686H127.77C127.645 80.7684 127.521 80.7981 127.41 80.8552C127.298 80.9123 127.201 80.9951 127.128 81.0968C127.054 81.1985 127.006 81.3163 126.987 81.4403C126.968 81.5644 126.978 81.6913 127.017 81.8106L131.926 96.7959C131.98 96.9538 132.081 97.0912 132.216 97.1889C132.351 97.2866 132.513 97.3397 132.679 97.3409Z" fill="#263238"/>
<path opacity="0.3" d="M142.067 89.833C142.224 90.8663 141.632 91.6991 140.787 91.6991C139.943 91.6991 139.095 90.8663 138.934 89.833C138.773 88.7997 139.369 87.9713 140.213 87.9713C141.057 87.9713 141.906 88.8041 142.067 89.833Z" fill="white"/>
<path d="M163.357 97.0138L163.835 98.4569C163.866 98.5578 163.872 98.6644 163.854 98.7683C163.837 98.8722 163.795 98.9704 163.732 99.0551C163.669 99.1399 163.588 99.2088 163.494 99.2563C163.4 99.3039 163.296 99.3287 163.191 99.3289H133.233C133.091 99.3296 132.953 99.2852 132.838 99.2021C132.723 99.1191 132.637 99.0017 132.593 98.8668L131.971 97.0138H163.357Z" fill="#263238"/>
<g opacity="0.3">
<path opacity="0.4" d="M163.356 97.0139L163.834 98.4571C163.865 98.5579 163.871 98.6646 163.853 98.7684C163.836 98.8723 163.794 98.9705 163.731 99.0553C163.668 99.14 163.587 99.2089 163.493 99.2564C163.399 99.304 163.295 99.3288 163.19 99.3291H133.232C133.09 99.3297 132.952 99.2853 132.837 99.2023C132.722 99.1192 132.636 99.0018 132.592 98.8669L131.97 97.0139H163.356Z" fill="white"/>
</g>
<path d="M174.427 99.3378H119.102V103.898H174.427V99.3378Z" fill="#407BFF"/>
<path d="M147.911 103.898H145.622V172.66H147.911V103.898Z" fill="#263238"/>
<path d="M162.773 174.369H130.77C131.323 173.47 132.096 172.727 133.016 172.212C133.936 171.697 134.973 171.426 136.027 171.426H157.508C158.563 171.426 159.601 171.697 160.523 172.213C161.445 172.729 162.219 173.472 162.773 174.373V174.369Z" fill="#407BFF"/>
<path d="M152.015 41.7559H111.926V45.9371H152.015V41.7559Z" fill="#407BFF"/>
<path d="M115.125 45.9365L116.961 50.0829H119.668V45.9365H115.125Z" fill="#407BFF"/>
<path d="M115.125 45.9365L116.961 50.0829H119.668V45.9365H115.125Z" fill="#407BFF"/>
<path opacity="0.3" d="M115.125 45.9365L116.961 50.0829H119.668V45.9365H115.125Z" fill="black"/>
<path d="M148.817 45.9365L146.98 50.0829H144.273V45.9365H148.817Z" fill="#407BFF"/>
<path opacity="0.3" d="M148.817 45.9365L146.98 50.0829H144.273V45.9365H148.817Z" fill="black"/>
<path d="M121.013 40.3079L121.204 41.0142L121.243 41.1624L121.404 41.751H126.927L127.088 41.1624L127.127 41.0142L127.318 40.3079L127.358 40.1553L129.251 33.1313L129.29 32.9831L129.481 32.2768L129.52 32.1242L129.729 31.3438H118.602L118.81 32.1242L118.85 32.2768L119.041 32.9831L119.08 33.1313L120.973 40.1553L121.013 40.3079Z" fill="#263238"/>
<path d="M131.928 38.7081H131.527V38.1064H146.694C147.161 38.1294 147.602 38.3316 147.925 38.6713C148.248 39.0109 148.428 39.462 148.428 39.9311C148.428 40.4002 148.248 40.8512 147.925 41.1909C147.602 41.5306 147.161 41.7328 146.694 41.7558H131.527V41.2369H131.928V38.7081Z" fill="#407BFF"/>
<path d="M131.82 38.708V41.2368H145.746C145.91 41.2345 146.071 41.2 146.221 41.1352C146.371 41.0705 146.507 40.9767 146.621 40.8593C146.735 40.7419 146.825 40.6031 146.886 40.4509C146.946 40.2988 146.976 40.1362 146.974 39.9724C146.976 39.6378 146.848 39.3155 146.617 39.0742C146.503 38.9585 146.368 38.8665 146.218 38.8036C146.069 38.7407 145.908 38.7082 145.746 38.708H131.82Z" fill="white"/>
<path d="M131.82 39.3447V39.7328H145.376C145.427 39.7328 145.476 39.7126 145.512 39.6766C145.548 39.6406 145.568 39.5918 145.568 39.5409C145.568 39.4896 145.548 39.4404 145.512 39.4037C145.476 39.367 145.428 39.3459 145.376 39.3447H131.82Z" fill="#E6E6E6"/>
<path d="M131.82 40.2988V40.6825H145.376C145.427 40.6825 145.476 40.6623 145.512 40.6263C145.548 40.5903 145.568 40.5415 145.568 40.4907C145.568 40.4398 145.548 40.391 145.512 40.355C145.476 40.319 145.427 40.2988 145.376 40.2988H131.82Z" fill="#E6E6E6"/>
<path d="M131.928 35.0587H131.527V34.457H146.694C147.161 34.4799 147.602 34.6822 147.925 35.0219C148.248 35.3615 148.428 35.8126 148.428 36.2817C148.428 36.7507 148.248 37.2018 147.925 37.5415C147.602 37.8812 147.161 38.0834 146.694 38.1063H131.527V37.5875H131.928V35.0587Z" fill="#407BFF"/>
<g opacity="0.3">
<path d="M131.928 35.0587H131.527V34.457H146.694C147.161 34.4799 147.602 34.6822 147.925 35.0219C148.248 35.3615 148.428 35.8126 148.428 36.2817C148.428 36.7507 148.248 37.2018 147.925 37.5415C147.602 37.8812 147.161 38.0834 146.694 38.1063H131.527V37.5875H131.928V35.0587Z" fill="black"/>
</g>
<path d="M223.786 33.3141C223.789 34.5187 223.481 35.7035 222.891 36.7532C222.301 37.803 221.451 38.6819 220.421 39.3044C219.392 39.9269 218.219 40.2718 217.018 40.3055C215.816 40.3391 214.626 40.0605 213.563 39.4966L210.952 41.2406L211.914 38.2714C211.101 37.4631 210.499 36.4664 210.163 35.3695C209.826 34.2726 209.765 33.1094 209.984 31.9831C210.204 30.8568 210.697 29.8022 211.421 28.9126C212.145 28.0231 213.076 27.3261 214.133 26.8835C215.19 26.4409 216.339 26.2663 217.479 26.3752C218.62 26.4842 219.715 26.8732 220.67 27.5079C221.624 28.1426 222.407 29.0034 222.95 30.0139C223.493 31.0244 223.778 32.1535 223.781 33.3011L223.786 33.3141Z" fill="#407BFF"/>
<g opacity="0.5">
<path d="M223.786 33.3141C223.789 34.5187 223.481 35.7035 222.891 36.7532C222.301 37.803 221.451 38.6819 220.421 39.3044C219.392 39.9269 218.219 40.2718 217.018 40.3055C215.816 40.3391 214.626 40.0605 213.563 39.4966L210.952 41.2406L211.914 38.2714C211.101 37.4631 210.499 36.4664 210.163 35.3695C209.826 34.2726 209.765 33.1094 209.984 31.9831C210.204 30.8568 210.697 29.8022 211.421 28.9126C212.145 28.0231 213.076 27.3261 214.133 26.8835C215.19 26.4409 216.339 26.2663 217.479 26.3752C218.62 26.4842 219.715 26.8732 220.67 27.5079C221.624 28.1426 222.407 29.0034 222.95 30.0139C223.493 31.0244 223.778 32.1535 223.781 33.3011L223.786 33.3141Z" fill="white"/>
</g>
<path d="M187.482 52.6295L187.416 52.7559L184.518 58.4544C182.816 57.6391 181.163 56.7628 179.535 55.8384C178.586 55.2978 177.646 54.7397 176.706 54.1598C175.427 53.3707 174.174 52.5466 172.885 51.6005L172.398 51.243L171.893 50.8332L171.636 50.6195L171.327 50.3492C171.123 50.1661 170.979 50.0135 170.805 49.8391C170.192 49.1938 169.7 48.5878 169.217 47.9774C167.319 45.5358 165.7 43.0811 164.095 40.5872C162.489 38.0933 160.996 35.5384 159.547 32.966L162.215 31.1348L167.802 37.8579C169.656 40.0771 171.528 42.3225 173.421 44.3412C173.886 44.8382 174.369 45.3265 174.8 45.7015C174.896 45.7756 175.013 45.8846 175.087 45.9326L175.201 46.011L175.383 46.1244L175.766 46.3598L176.202 46.6127C177.35 47.2798 178.617 47.9207 179.875 48.6009C181.824 49.6255 183.817 50.6413 185.776 51.6921C186.294 51.9711 186.811 52.2502 187.321 52.5336L187.482 52.6295Z" fill="#407BFF"/>
<path opacity="0.2" d="M187.312 52.5413L187.416 52.7636L184.518 58.4621C182.816 57.6468 181.163 56.7705 179.535 55.8462C180.271 52.4977 183.887 51.8306 185.767 51.7129L187.312 52.5413Z" fill="black"/>
<path d="M203.475 55.1188L203.01 54.9183C202.257 54.6087 201.504 54.273 200.755 53.946L200.103 53.6582L199.21 53.2702L196.652 58.7289L196.621 58.7943C198.632 59.7709 200.638 60.656 202.714 61.4582L203.471 61.746C203.702 61.8376 203.937 61.9204 204.172 62.0076L204.681 62.1907C205.83 62.6267 207 62.9886 208.215 63.3374H208.241L208.341 63.3636L203.475 55.1188ZM203.702 49.4814C203.749 49.5598 203.797 49.6383 203.85 49.7168C203.894 49.7207 203.94 49.7207 203.984 49.7168C204.629 50.1267 206.274 48.6181 206.369 47.624C206.169 47.4104 205.969 47.188 205.764 46.9875C205.695 46.9133 205.625 46.8349 205.551 46.7607L203.858 48.0687L203.175 48.605C203.183 48.6225 203.193 48.6387 203.206 48.653L203.702 49.4814Z" fill="#407BFF"/>
<path d="M216.815 61.3672C216.815 61.4675 216.815 61.5678 216.815 61.6724L216.793 61.8337C216.78 61.916 216.763 61.9975 216.741 62.0779C216.719 62.1564 216.693 62.2392 216.667 62.3133C216.641 62.3875 216.606 62.4747 216.55 62.6011C216.434 62.8306 216.287 63.0433 216.114 63.2333C215.917 63.4535 215.686 63.6418 215.431 63.7914C215.209 63.9162 214.972 64.0115 214.726 64.0748L214.5 64.1271L214.347 64.1533C213.772 64.248 213.187 64.2699 212.607 64.2186C212.128 64.1838 211.697 64.1227 211.301 64.053C210.474 63.9134 209.713 63.7347 208.973 63.5429C208.768 63.4862 208.568 63.4339 208.368 63.3728L203.516 55.1194C204.634 55.6033 205.748 56.0786 206.862 56.5364C207.471 56.7849 208.081 57.029 208.686 57.2601L207.746 55.8257C206.446 53.8085 205.153 51.7738 203.868 49.7217C203.913 49.7256 203.958 49.7256 204.003 49.7217C204.647 50.1315 206.292 48.623 206.388 47.6289C208.082 49.4252 209.729 51.2622 211.327 53.1399C212.263 54.2256 213.177 55.3199 214.082 56.4753C214.539 57.0465 214.983 57.6264 215.427 58.2498C215.653 58.5637 215.862 58.882 216.114 59.2613C216.259 59.4916 216.39 59.7304 216.506 59.9764C216.55 60.0636 216.589 60.1551 216.641 60.2903C216.72 60.5075 216.776 60.7326 216.806 60.9617C216.82 61.0965 216.823 61.232 216.815 61.3672Z" fill="#407BFF"/>
<path opacity="0.2" d="M208.549 63.7516L208.505 63.6992L208.2 63.3374L202.774 56.8497L201.333 55.1275L200.102 53.6582L200.754 53.946C201.503 54.273 202.256 54.6087 203.009 54.9182L203.474 55.1188L208.327 63.3722L208.549 63.7516Z" fill="black"/>
<path d="M206.37 47.6457C206.275 48.6398 204.63 50.1483 203.986 49.7385C203.941 49.7424 203.896 49.7424 203.851 49.7385C203.754 49.724 203.659 49.6977 203.568 49.66C203.369 49.5868 203.18 49.4917 203.002 49.3766C202.454 49.0557 202.002 48.5915 201.697 48.0337C201.671 47.9827 201.652 47.9285 201.64 47.8724C201.509 47.2359 201.444 46.5208 201.314 45.9628C201.297 45.914 201.297 45.8614 201.311 45.8123C201.326 45.7631 201.356 45.7197 201.396 45.6881C201.469 45.6495 201.551 45.6293 201.633 45.6293C201.716 45.6293 201.797 45.6495 201.871 45.6881C201.961 45.722 202.044 45.7706 202.119 45.832C202.132 45.8367 202.143 45.846 202.149 45.8581C202.178 45.8766 202.203 45.9003 202.223 45.9279C202.367 46.0677 202.471 46.244 202.523 46.438C202.715 47.4015 204.229 47.201 204.229 47.201L204.847 45.4265L205.061 44.8074L205.457 43.665C205.468 43.6741 205.478 43.6843 205.487 43.6956C205.487 43.7261 205.517 43.7566 205.531 43.7828C205.774 44.3539 206.188 46.7693 206.344 47.3449C206.375 47.4419 206.384 47.5447 206.37 47.6457Z" fill="#FFB573"/>
<path d="M205.701 47.1134L203.525 49.7076C203.502 49.743 203.469 49.7708 203.431 49.7876C203.392 49.8044 203.35 49.8093 203.308 49.8019C203.267 49.7944 203.228 49.7749 203.198 49.7457C203.168 49.7165 203.147 49.6789 203.138 49.6378L200.627 43.8216C200.587 43.7184 200.573 43.6068 200.588 43.497C200.602 43.3873 200.644 43.283 200.709 43.1937L202.885 40.5777C203.016 40.4251 203.19 40.46 203.273 40.6519L205.775 46.455C205.822 46.5615 205.84 46.6785 205.827 46.7942C205.814 46.9098 205.77 47.02 205.701 47.1134Z" fill="#263238"/>
<g opacity="0.3">
<path d="M205.155 46.5688L203.393 48.679C203.323 48.7575 203.236 48.7401 203.193 48.6398L200.995 43.5386C200.975 43.4855 200.968 43.4281 200.976 43.3717C200.983 43.3154 201.005 43.2618 201.039 43.216L202.823 41.1057C202.888 41.0273 202.979 41.0447 203.023 41.145L205.199 46.2418C205.22 46.2954 205.228 46.3537 205.22 46.411C205.212 46.4683 205.19 46.5227 205.155 46.5688Z" fill="white"/>
</g>
<path d="M205.499 43.7128C205.416 43.4801 205.27 43.2753 205.077 43.1212C204.884 42.9672 204.652 42.8701 204.407 42.8408C204.041 42.8408 203.898 44.4671 204.002 44.8508C204.215 45.6443 204.785 44.1663 204.785 44.1663L205.103 44.8944C205.434 44.5238 205.751 44.1881 205.499 43.7128Z" fill="#FFB573"/>
<path d="M204.905 42.2573C204.668 41.9356 204.318 41.7158 203.926 41.6426C203.561 41.6426 203.386 43.1729 203.491 43.5523C203.704 44.3458 204.309 42.968 204.309 42.968L205.075 43.8008C205.406 43.4258 205.258 42.9026 204.905 42.2573Z" fill="#FFB573"/>
<path d="M204.311 41.4857C204.263 41.3549 203.967 40.714 203.602 40.7227C203.236 40.7315 202.936 41.9305 203.041 42.3141C203.254 43.1077 203.859 41.7299 203.859 41.7299L204.625 42.5627C204.755 42.3534 204.664 42.131 204.311 41.4857Z" fill="#FFB573"/>
<path d="M229.416 75.2526L228.484 78.1781C225.458 77.4224 222.441 76.6448 219.432 75.8455C217.927 75.44 216.421 75.0302 214.906 74.5986C213.392 74.1669 211.895 73.7266 210.311 73.1816C210.102 73.1031 209.911 73.0377 209.693 72.9505L209.367 72.8197L208.997 72.6497C208.636 72.4787 208.296 72.2681 207.983 72.0218L207.634 71.7384C207.543 71.6556 207.447 71.5771 207.356 71.4899C206.677 70.8446 206.159 70.2517 205.615 69.65L205.002 68.9611L204.523 68.4074C203.94 67.7359 203.37 67.0645 202.782 66.3931L202.521 66.0574C200.506 63.655 198.543 61.2614 196.594 58.7893L201.772 54.8086C203.605 57.2676 205.463 59.7485 207.33 62.177C208.266 63.389 209.206 64.5968 210.154 65.7478C210.62 66.319 211.116 66.8945 211.525 67.3566C211.573 67.4046 211.612 67.4613 211.66 67.518L211.843 67.7229L212.043 67.8362C212.174 67.9147 212.339 67.9976 212.478 68.076C213.753 68.7213 215.172 69.3491 216.569 69.9595C217.966 70.5699 219.393 71.1716 220.821 71.7689C223.667 72.9505 226.543 74.1146 229.416 75.2526Z" fill="#407BFF"/>
<path opacity="0.2" d="M204.999 68.9619L204.52 68.4082C203.937 67.7368 203.367 67.0654 202.78 66.3939L202.605 57.5039C202.701 57.7655 203.337 60.6039 204.346 62.3827C205.739 64.82 205.965 67.6234 204.999 68.9619Z" fill="black"/>
<path d="M228.485 78.1787C230.19 78.4398 231.907 78.6144 233.629 78.7019C235.079 78.7019 238.099 77.1236 237.742 76.5786C237.385 76.0336 233.612 75.4145 233.612 75.4145L228.777 74.9785C228.198 75.7023 227.785 77.0887 228.485 78.1787Z" fill="#FFB573"/>
<path d="M240.588 76.3563L230.773 76.1211L230.75 77.0975L240.565 77.3326L240.588 76.3563Z" fill="#263238"/>
<path d="M239.984 75.7461L254.128 76.0295L254.118 76.5396C254.102 77.3491 253.765 78.1189 253.183 78.6798C252.6 79.2407 251.819 79.5468 251.011 79.5306L242.96 79.3692C242.152 79.3531 241.383 79.016 240.823 78.4322C240.263 77.8484 239.958 77.0657 239.974 76.2562L239.984 75.7461Z" fill="#263238"/>
<path d="M245.923 75.5629C245.923 75.5629 242.803 73.0559 245.27 70.7669C247.738 68.4779 247.807 66.6991 245.923 64.9551C245.923 64.9551 248.752 66.2631 249.766 68.9445C250.78 71.6259 245.849 73.7274 245.923 75.5629Z" fill="#407BFF"/>
<path opacity="0.8" d="M245.923 75.5629C245.923 75.5629 242.803 73.0559 245.27 70.7669C247.738 68.4779 247.807 66.6991 245.923 64.9551C245.923 64.9551 248.752 66.2631 249.766 68.9445C250.78 71.6259 245.849 73.7274 245.923 75.5629Z" fill="white"/>
<path d="M228.777 74.9917C228.777 74.9917 231.993 74.1197 232.637 74.3159C233.282 74.5121 235.84 76.6049 235.331 76.8011C234.822 76.9973 232.337 76.1471 232.337 76.1471L230.779 76.3084L228.777 74.9917Z" fill="#FFB573"/>
<path d="M200.023 165.818L201.072 170.837H203.709L203.997 165.818H200.023Z" fill="#FFB573"/>
<path d="M211.246 174.39C211.159 172.751 210.458 172.263 209.575 172.21C208.691 172.158 205.406 171.046 205.406 171.046C205.406 171.046 204.757 170.009 204.157 169.799C203.556 169.59 202.955 170.205 202.955 170.205L201.306 170.004C201.306 170.004 200.836 169.254 200.471 169.908C199.909 170.924 199.879 173.732 199.905 174.39H211.246Z" fill="#407BFF"/>
<path d="M211.048 173.963H208.994L199.999 173.919C199.886 173.919 199.912 173.74 200.025 173.745H200.634V173.718C200.766 173.531 200.858 173.318 200.903 173.092C200.948 172.867 200.945 172.635 200.894 172.411C200.844 172.187 200.747 171.976 200.61 171.792C200.473 171.608 200.299 171.455 200.099 171.342C200.007 171.29 200.125 171.137 200.212 171.194C200.425 171.316 200.611 171.48 200.758 171.678C200.905 171.875 201.009 172.1 201.065 172.34C201.12 172.579 201.126 172.828 201.081 173.069C201.036 173.311 200.942 173.541 200.804 173.745H202.088L211.079 173.793C211.192 173.788 211.161 173.963 211.048 173.963Z" fill="black"/>
<path d="M204.891 171.757C205.379 171.203 206.066 171.046 206.549 171.465C206.628 171.53 206.741 171.378 206.662 171.312C206.105 170.837 205.305 171.042 204.756 171.665C204.674 171.757 204.809 171.844 204.891 171.757Z" fill="white"/>
<path d="M205.807 172.049C206.294 171.495 206.982 171.342 207.465 171.756C207.543 171.822 207.657 171.674 207.583 171.604C207.026 171.129 206.225 171.338 205.672 171.961C205.594 172.053 205.729 172.14 205.807 172.049Z" fill="white"/>
<path d="M206.762 172.341C207.25 171.792 207.937 171.635 208.42 172.049C208.499 172.115 208.612 171.967 208.534 171.901C207.981 171.422 207.176 171.631 206.627 172.254C206.545 172.346 206.68 172.433 206.762 172.341Z" fill="white"/>
<path d="M172.412 161.263L170.832 166.32L173.395 167.602L175.88 163.203L172.412 161.263Z" fill="#FFB573"/>
<path d="M178.256 174.39C178.974 172.917 178.6 172.149 177.855 171.67C177.111 171.19 174.783 168.618 174.783 168.618C174.783 168.618 174.718 167.397 174.3 166.917C173.882 166.438 173.047 166.686 173.047 166.686L171.362 165.605C171.362 165.605 171.362 164.515 170.831 165.117C170.074 165.989 168.921 168.374 168.625 168.962L178.256 174.39Z" fill="#407BFF"/>
<path d="M178.397 173.788L176.626 172.816L168.893 168.578C168.793 168.526 168.893 168.377 168.997 168.43L169.52 168.718H169.541C169.744 168.601 169.922 168.445 170.064 168.259C170.206 168.072 170.31 167.86 170.37 167.633C170.429 167.406 170.443 167.17 170.411 166.938C170.378 166.705 170.3 166.482 170.181 166.28C170.124 166.189 170.294 166.102 170.346 166.193C170.599 166.63 170.671 167.149 170.545 167.638C170.42 168.128 170.108 168.548 169.676 168.809L170.756 169.389L178.489 173.627C178.589 173.692 178.493 173.841 178.397 173.788Z" fill="black"/>
<path d="M173.984 168.984C174.676 168.739 175.355 168.94 175.577 169.537C175.611 169.633 175.781 169.559 175.746 169.463C175.494 168.774 174.693 168.565 173.91 168.84C173.792 168.879 173.871 169.023 173.984 168.984Z" fill="white"/>
<path d="M174.644 169.691C175.336 169.446 176.015 169.647 176.232 170.244C176.272 170.34 176.441 170.266 176.407 170.17C176.154 169.481 175.353 169.272 174.57 169.547C174.453 169.586 174.531 169.73 174.644 169.691Z" fill="white"/>
<path d="M175.332 170.409C176.023 170.165 176.702 170.366 176.924 170.963C176.959 171.059 177.129 170.985 177.094 170.889C176.842 170.2 176.041 169.991 175.258 170.265C175.14 170.305 175.218 170.449 175.332 170.409Z" fill="white"/>
<path d="M191.331 100.066C191.88 106.789 192.825 113.475 194.16 120.087C194.63 122.531 195.172 125.147 195.787 127.935C193.302 144.002 200.139 167.214 200.139 167.214L204.212 167.123C204.212 167.123 205.596 141.181 205.575 127.599C205.54 105.363 203.547 84.152 203.547 84.152L192.467 84.1084C192.467 84.1084 190.421 87.422 191.331 100.066Z" fill="#263238"/>
<path opacity="0.2" d="M191.328 100.066C191.878 106.79 192.822 113.475 194.157 120.087C196.768 111.189 193.208 92.1836 193.208 92.1836L191.328 100.066Z" fill="black"/>
<path d="M204.622 168.064L204.81 166.32H199.383L199.631 168.064H204.622Z" fill="#263238"/>
<path d="M180.731 83.6719L180.496 128.218C177.563 131.401 171.414 162.086 171.414 162.086L176.149 164.676C176.149 164.676 189.087 135.059 190.867 130.485C192.647 125.911 195.123 92.2174 195.123 92.2174L192.116 84.9101L180.731 83.6719Z" fill="#263238"/>
<path d="M176.466 165.731L177.311 164.197L171.04 160.983L170.387 162.614L176.466 165.731Z" fill="#263238"/>
<path d="M203.938 85.6771C203.938 87.7045 189.085 88.6637 180.246 85.7425C180.394 85.1931 180.607 84.2339 180.734 83.6802C180.799 83.423 180.855 83.157 180.912 82.8823C181.095 82.0103 181.248 81.0439 181.373 79.983C181.373 79.9394 181.373 79.887 181.373 79.8391C181.599 77.8004 181.72 75.7514 181.734 73.7002C181.734 73.1203 181.734 72.523 181.734 71.9126C181.734 71.1583 181.7 70.3866 181.66 69.5888C181.483 65.7223 181.054 61.8716 180.377 58.061C180.26 57.4035 180.283 56.7289 180.444 56.081C180.605 55.4331 180.901 54.8264 181.311 54.3004C181.722 53.7744 182.238 53.3408 182.827 53.028C183.416 52.7151 184.064 52.53 184.729 52.4845C185.486 52.4278 186.282 52.393 187.096 52.3799C187.91 52.3668 188.693 52.3537 189.45 52.3537C191.513 52.3156 193.576 52.4132 195.626 52.6458L196.096 52.7069C196.866 52.8072 197.645 52.9336 198.402 53.06C201.67 53.6268 203.08 55.894 203.189 59.818C203.315 64.178 206.619 66.8943 202.441 69.846C201.919 73.5345 203.938 79.9568 203.938 85.6771Z" fill="#407BFF"/>
<path opacity="0.2" d="M181.754 73.6922C181.754 73.1123 181.754 72.515 181.754 71.9046C181.754 71.1503 181.719 70.3786 181.68 69.5807L185.113 62.6396L181.754 73.6922Z" fill="black"/>
<path opacity="0.2" d="M185.844 59.3125L181.436 65.9658C181.366 65.168 181.288 64.3526 181.188 63.5286L185.844 59.3125Z" fill="black"/>
<path d="M189.465 52.3459C191.558 56.0301 196.48 58.2363 196.48 58.2363C197.146 56.5882 196.915 53.9417 196.11 52.6991L195.64 52.638C193.59 52.4054 191.527 52.3078 189.465 52.3459Z" fill="#FFB573"/>
<path d="M202.164 45.8317C202.164 45.8317 204.64 42.4266 202.486 39.2089C200.331 35.9913 196.828 37.3298 196.828 37.3298L202.164 45.8317Z" fill="#263238"/>
<path d="M196.158 53.7929C196.175 53.8534 196.201 53.9108 196.236 53.9629C196.945 55.0878 196.175 56.1168 194.931 56.0252C194.812 56.0178 194.694 56.0018 194.578 55.9773C194.137 55.8893 193.734 55.6634 193.429 55.332C192.486 54.3213 191.468 53.3841 190.383 52.5285C192.224 51.5388 192.894 48.029 193.064 45.8359L195.923 49.4809L196.458 50.2744C196.198 50.7182 195.991 51.1908 195.84 51.6827C195.716 52.0335 195.68 52.4096 195.735 52.7777C195.79 53.1458 195.936 53.4945 196.158 53.7929Z" fill="#FFB573"/>
<g opacity="0.2">
<path d="M195.855 51.6702C196.006 51.1784 196.213 50.7058 196.473 50.262L195.938 49.4902L194.141 49.5295C194.46 50.4135 195.063 51.1665 195.855 51.6702Z" fill="black"/>
</g>
<path d="M192.559 41.9214C192.272 45.5271 192.076 47.0443 193.586 49.1284C195.858 52.2633 200.253 51.8098 201.589 48.3611C202.79 45.2524 203.056 39.8809 199.848 37.9799C196.641 36.079 192.864 38.32 192.576 41.9039L192.559 41.9214Z" fill="#FFB573"/>
<path d="M193.351 44.2793C191.545 43.7997 192.254 41.9336 192.254 41.9336L194.913 42.3696C194.913 42.3696 195.153 44.7589 193.351 44.2793Z" fill="#263238"/>
<path d="M200.629 38.3111C200.629 38.3111 200.581 40.308 198.144 40.4126C195.707 40.5173 195.885 44.2581 193.183 43.5605C189.845 42.6885 191.111 39.8458 191.917 38.6076C192.426 37.8184 197.887 33.0966 200.629 38.3111Z" fill="#263238"/>
<path d="M196.946 36.8461C196.946 36.8461 196.998 32.3771 193.095 31.8059C189.504 31.2784 188.125 34.6225 188.251 38.7383C188.408 43.7087 184.77 42.4138 184.77 42.4138C185.113 43.1805 185.66 43.8382 186.35 44.3156C187.041 44.7929 187.849 45.0716 188.686 45.1213C195.327 45.7448 196.946 36.8461 196.946 36.8461Z" fill="#263238"/>
<path d="M192.325 38.1186C192.305 38.125 192.284 38.125 192.264 38.1186C192.252 38.1111 192.242 38.1013 192.234 38.0897C192.225 38.078 192.22 38.0649 192.217 38.051C192.214 38.0372 192.214 38.0229 192.217 38.009C192.22 37.9952 192.225 37.982 192.233 37.9704C192.761 37.2489 193.458 36.6691 194.262 36.2827C195.067 35.8963 195.955 35.7152 196.846 35.7555C196.861 35.7561 196.875 35.7595 196.888 35.7655C196.901 35.7715 196.912 35.78 196.922 35.7905C196.932 35.801 196.939 35.8134 196.944 35.8268C196.949 35.8403 196.951 35.8546 196.951 35.8689C196.952 35.8836 196.949 35.8983 196.944 35.9119C196.938 35.9256 196.93 35.9378 196.919 35.9478C196.908 35.9578 196.895 35.9653 196.881 35.9697C196.867 35.9742 196.852 35.9755 196.838 35.9735C195.984 35.9338 195.133 36.106 194.362 36.4749C193.591 36.8438 192.922 37.398 192.416 38.0881C192.404 38.0996 192.39 38.1083 192.374 38.1136C192.358 38.1189 192.341 38.1206 192.325 38.1186Z" fill="#407BFF"/>
<path d="M200.084 47.4755C200.084 47.4755 198.343 46.6819 197.947 45.9189C197.947 45.9189 197.69 47.288 198.609 47.7894C198.848 47.9339 199.134 47.9819 199.408 47.9236C199.682 47.8654 199.923 47.7052 200.084 47.4755Z" fill="white"/>
<path d="M198.476 43.5296C198.437 43.8217 198.559 44.079 198.746 44.1051C198.932 44.1313 199.124 43.9177 199.18 43.6255C199.237 43.3334 199.102 43.0762 198.911 43.05C198.719 43.0239 198.537 43.2375 198.476 43.5296Z" fill="#263238"/>
<path d="M201.425 44.0096C201.386 44.3018 201.508 44.559 201.695 44.5852C201.882 44.6113 202.073 44.3977 202.129 44.1099C202.186 43.8222 202.051 43.5606 201.86 43.5344C201.669 43.5082 201.486 43.7219 201.425 44.0096Z" fill="#263238"/>
<path d="M201.762 43.5382L202.483 43.4336C202.483 43.4336 202.049 43.9306 201.762 43.5382Z" fill="#263238"/>
<path d="M200.347 43.9531C200.347 43.9531 200.743 44.7946 201.191 45.5402C201.227 45.5965 201.249 45.6603 201.257 45.7266C201.264 45.793 201.256 45.8601 201.233 45.9229C201.21 45.9857 201.174 46.0424 201.126 46.0887C201.078 46.1349 201.02 46.1695 200.956 46.1898C200.649 46.2834 200.332 46.3433 200.012 46.3686L200.347 43.9531Z" fill="#ED893E"/>
<path d="M190.941 44.219C191.031 44.5355 191.187 44.8293 191.398 45.0811C191.61 45.3328 191.872 45.5368 192.168 45.6796C192.93 46.0109 193.447 45.1956 193.347 44.28C193.26 43.456 192.755 42.2919 191.937 42.3529C191.119 42.4139 190.684 43.3862 190.941 44.219Z" fill="#FFB573"/>
<path d="M192.842 45.1602C192.842 45.2568 192.813 45.3512 192.76 45.4315C192.706 45.5118 192.63 45.5744 192.541 45.6113C192.452 45.6483 192.354 45.658 192.26 45.6391C192.165 45.6203 192.078 45.5738 192.01 45.5055C191.942 45.4372 191.895 45.3502 191.877 45.2555C191.858 45.1607 191.867 45.0625 191.904 44.9733C191.941 44.8841 192.004 44.8078 192.084 44.7542C192.164 44.7005 192.258 44.6719 192.355 44.6719C192.484 44.6719 192.608 44.7233 192.699 44.8149C192.791 44.9065 192.842 45.0307 192.842 45.1602Z" fill="white"/>
<path d="M197.684 42.3664C197.707 42.3666 197.729 42.362 197.75 42.353C197.771 42.344 197.79 42.3307 197.806 42.3141C197.951 42.1541 198.132 42.0312 198.334 41.9553C198.536 41.8795 198.753 41.853 198.968 41.8781C199.012 41.8846 199.058 41.8738 199.095 41.8479C199.132 41.822 199.158 41.7829 199.168 41.7386C199.175 41.6935 199.165 41.6473 199.139 41.6098C199.113 41.5723 199.073 41.5465 199.029 41.538C198.757 41.5047 198.481 41.5376 198.225 41.634C197.969 41.7305 197.74 41.8875 197.558 42.0917C197.526 42.1243 197.508 42.1681 197.508 42.2138C197.508 42.2594 197.526 42.3033 197.558 42.3359C197.591 42.366 197.634 42.3831 197.679 42.3838L197.684 42.3664Z" fill="#263238"/>
<path d="M202.784 42.8894C202.817 42.8911 202.85 42.8833 202.879 42.8669C202.907 42.8506 202.931 42.8263 202.946 42.797C202.962 42.7677 202.969 42.7346 202.966 42.7015C202.964 42.6685 202.952 42.6368 202.932 42.6103C202.766 42.3919 202.55 42.2169 202.302 42.1C202.055 41.9831 201.782 41.9278 201.509 41.9389C201.463 41.9433 201.421 41.9655 201.392 42.0005C201.363 42.0356 201.348 42.0808 201.352 42.1264C201.358 42.1723 201.381 42.2142 201.416 42.2435C201.452 42.2728 201.498 42.287 201.544 42.2833C201.76 42.2778 201.974 42.324 202.168 42.418C202.363 42.5121 202.532 42.6512 202.662 42.824C202.677 42.8428 202.695 42.8584 202.716 42.8697C202.737 42.8809 202.76 42.8876 202.784 42.8894Z" fill="#263238"/>
<path d="M198.812 43.0544L199.534 42.9541C199.534 42.9541 199.099 43.4468 198.812 43.0544Z" fill="#263238"/>
<path d="M187.291 57.5817C186.046 60.6686 184.679 63.6508 183.213 66.6287C182.482 68.1198 181.716 69.5935 180.906 71.0671C180.097 72.5408 179.248 73.9927 178.239 75.5012L177.838 76.0724C177.703 76.2599 177.555 76.4604 177.403 76.661C177.251 76.8616 177.064 77.097 176.877 77.2845C176.798 77.3848 176.65 77.5243 176.537 77.642L176.354 77.8207L176.237 77.9254C175.649 78.4268 175.044 78.9631 174.444 79.5037L170.793 82.7388C168.347 84.9188 165.871 87.0421 163.316 89.1044L161.184 87.0465C163.155 84.4043 165.213 81.8581 167.324 79.3424C168.382 78.0867 169.448 76.8398 170.545 75.6015C171.097 74.9824 171.646 74.3676 172.233 73.7398C172.268 73.7006 172.316 73.6526 172.333 73.6264L172.359 73.5872C172.384 73.555 172.407 73.5216 172.429 73.4869C172.503 73.3823 172.568 73.2907 172.66 73.1468C172.751 73.003 172.829 72.8896 172.916 72.737C173.003 72.5844 173.095 72.4405 173.186 72.301C173.913 71.041 174.596 69.5978 175.288 68.1808C175.98 66.7638 176.637 65.2902 177.307 63.8208C178.613 60.8953 179.953 57.9218 181.298 55.0137L187.291 57.5817Z" fill="#407BFF"/>
<path d="M161.615 86.4492C161.615 86.4492 164.226 87.7049 163.291 89.1132C162.355 90.5214 160.31 91.1624 159.574 92.3221C158.839 93.4819 157.368 96.5208 157.041 96.499C156.715 96.4772 157.711 91.9733 158.051 91.1885C158.39 90.4037 159.957 88.5725 159.957 88.5725L161.615 86.4492Z" fill="#FFB573"/>
<path d="M157.83 91.8086C157.83 91.8086 156.829 93.2736 156.772 93.9232C156.697 94.7936 156.534 95.6541 156.285 96.4912C156.093 96.8749 156.981 96.6089 157.29 95.3576C157.532 94.185 157.713 93.0004 157.83 91.8086Z" fill="#FFB573"/>
<path d="M163.113 88.4941C163.033 89.1171 162.813 89.7136 162.469 90.2381C161.924 91.0374 161.471 91.896 161.119 92.7974C160.841 93.5561 160.097 93.8308 159.892 93.495C159.688 93.1593 160.393 91.7903 160.654 90.6654C160.915 89.5405 163.113 88.4941 163.113 88.4941Z" fill="#FFB573"/>
<defs>
<filter id="filter0_d_948_32" x="-4" y="0" width="393.283" height="417" filterUnits="userSpaceOnUse" color-interpolation-filters="sRGB">
<feFlood flood-opacity="0" result="BackgroundImageFix"/>
<feColorMatrix in="SourceAlpha" type="matrix" values="0 0 0 0 0 0 0 0 0 0 0 0 0 0 0 0 0 0 127 0" result="hardAlpha"/>
<feOffset dy="4"/>
<feGaussianBlur stdDeviation="2"/>
<feComposite in2="hardAlpha" operator="out"/>
<feColorMatrix type="matrix" values="0 0 0 0 0 0 0 0 0 0 0 0 0 0 0 0 0 0 0.25 0"/>
<feBlend mode="normal" in2="BackgroundImageFix" result="effect1_dropShadow_948_32"/>
<feBlend mode="normal" in="SourceGraphic" in2="effect1_dropShadow_948_32" result="shape"/>
</filter>
</defs>
</svg>
