<svg width="386" height="264" viewBox="0 0 386 264" fill="none" xmlns="http://www.w3.org/2000/svg">
<rect width="386" height="264" fill="#6D6D6D"/>
<g clip-path="url(#clip0_948_32)">
<rect width="1728" height="1851" transform="translate(-581 -754)" fill="white"/>
<g filter="url(#filter0_f_948_32)">
<path d="M623.073 -27.2664C614.67 -62.8666 602.753 -90.8197 588.57 -108.196C574.387 -125.573 558.461 -131.733 542.46 -126.031C526.459 -120.328 510.973 -102.974 497.625 -75.7867C484.276 -48.5991 473.557 -12.5793 466.591 28.4978C459.625 69.5749 456.668 114.197 458.03 157.687C459.392 201.177 465.022 241.934 474.332 275.686C483.642 309.439 496.288 334.944 510.944 349.528C525.6 364.113 541.728 367.24 557.636 358.582L547.024 117.637L623.073 -27.2664Z" fill="#B9E5F8"/>
</g>
<g filter="url(#filter1_f_948_32)">
<path d="M634.652 223.889C592.621 234.275 559.93 247.741 540.007 262.877C520.083 278.014 513.66 294.262 521.41 309.919C529.16 325.576 550.799 340.066 584.058 351.87C617.317 363.674 660.971 372.358 710.447 377.01C759.922 381.663 813.397 382.114 865.266 378.316C917.135 374.517 965.488 366.61 1005.26 355.421C1045.03 344.233 1074.75 330.176 1091.31 314.724C1107.88 299.272 1110.66 282.993 1099.39 267.594L812.203 291.7L634.652 223.889Z" fill="#EFC1FF"/>
</g>
<g filter="url(#filter2_d_948_32)">
<rect width="386" height="263.601" rx="20" fill="#F9E4D5" fill-opacity="0.8"/>
<rect x="0.5" y="0.5" width="385" height="262.601" rx="19.5" stroke="black" stroke-opacity="0.2"/>
<path d="M0 226.99H386V389C386 400.046 377.046 409 366 409H20C8.95431 409 0 400.046 0 389V226.99Z" fill="white"/>
</g>
<path opacity="0.8" d="M44.9318 279V258.756H47.5218V279H44.9318ZM57.3695 279V261.136H50.8315V258.756H66.1475V261.136H59.9735V279H57.3695ZM69.4865 279V258.756H72.0765V279H69.4865Z" fill="black"/>
<path d="M266.262 104.282C266.589 101.904 263.218 99.9446 260.707 99.743C259.505 99.6441 258.254 99.8305 257.112 99.431C254.643 98.5713 253.658 95.3794 251.246 94.3636C249.446 93.6028 247.369 94.2799 245.623 95.1588C243.877 96.0376 242.15 97.1446 240.198 97.2702C238.501 97.3767 236.656 96.749 235.173 97.5783C234.065 98.1946 233.483 99.4805 232.464 100.241C231.444 101.002 230.181 101.135 228.926 101.204C227.67 101.272 226.407 101.284 225.277 101.797C224.148 102.311 223.219 103.505 223.451 104.727L266.262 104.282Z" fill="#EBEBEB"/>
<path d="M185.959 54.1366C186.199 52.3866 183.726 50.9448 181.87 50.7964C180.983 50.7241 180.063 50.8611 179.226 50.5682C177.407 49.9328 176.681 47.5856 174.908 46.8361C173.58 46.2769 172.055 46.7752 170.769 47.422C169.483 48.0687 168.193 48.879 166.759 48.9779C165.507 49.0578 164.153 48.5975 163.057 49.2024C162.243 49.6589 161.817 50.5948 161.068 51.1502C160.318 51.7057 159.375 51.8084 158.462 51.8578C157.549 51.9073 156.609 51.9149 155.776 52.2953C154.943 52.6758 154.254 53.5508 154.433 54.4486L185.959 54.1366Z" fill="#F5F5F5"/>
<path d="M146.683 93.6484C146.984 91.4914 143.933 89.7148 141.643 89.5283C140.551 89.4408 139.417 89.6082 138.382 89.2468C136.138 88.4669 135.244 85.568 133.056 84.6436C131.42 83.955 129.537 84.5713 127.951 85.3664C126.364 86.1615 124.797 87.1696 123.005 87.2686C121.483 87.3675 119.79 86.7968 118.44 87.5501C117.436 88.1093 116.918 89.2658 115.982 89.9506C115.046 90.6354 113.894 90.7609 112.771 90.8218C111.649 90.8827 110.489 90.8941 109.458 91.362C108.427 91.83 107.59 92.9142 107.803 94.0251L146.683 93.6484Z" fill="#EBEBEB"/>
<path d="M138.888 58.9794C138.888 58.9794 138.774 58.949 138.569 58.9071C138.279 58.849 137.982 58.8413 137.69 58.8843C137.254 58.941 136.843 59.1189 136.503 59.3979C136.091 59.7347 135.801 60.197 135.677 60.7142L135.628 60.9082L135.552 60.7218C135.351 60.2314 135.006 59.8136 134.563 59.5234C134.2 59.2854 133.782 59.144 133.349 59.1126C132.948 59.0896 132.545 59.1399 132.162 59.2609C132.255 59.2029 132.357 59.1592 132.463 59.1316C132.823 59.0195 133.203 58.9874 133.577 59.0373C133.951 59.0872 134.309 59.2181 134.627 59.4207C135.103 59.7164 135.473 60.1543 135.685 60.6723H135.559C135.691 60.1274 136 59.6416 136.438 59.2914C136.736 59.0566 137.084 58.8942 137.455 58.817C137.826 58.7397 138.21 58.7498 138.576 58.8463C138.687 58.872 138.793 58.9171 138.888 58.9794Z" fill="#E0E0E0"/>
<path d="M161.098 79.645C161.009 79.7637 160.912 79.8768 160.809 79.9836C160.543 80.2854 160.303 80.6086 160.09 80.9499C159.392 82.079 159.026 83.3814 159.032 84.7086V84.7581H158.899C158.697 83.4552 158.092 82.2485 157.168 81.3075C156.78 80.9271 156.357 80.5833 155.905 80.2803L156.008 80.3298C156.106 80.3785 156.202 80.4331 156.293 80.4934C156.633 80.712 156.948 80.9672 157.233 81.2543C158.198 82.1914 158.829 83.4198 159.029 84.7505H158.899V84.7048C158.891 83.355 159.279 82.0325 160.014 80.9005C160.236 80.5585 160.491 80.2387 160.775 79.9456C160.87 79.8428 160.957 79.7706 161.011 79.7173C161.038 79.6906 161.067 79.6664 161.098 79.645Z" fill="#E0E0E0"/>
<path d="M170.362 209.24C170.338 208.505 170.127 207.788 169.75 207.157C169.373 206.526 168.842 206.002 168.206 205.632C167.57 205.263 166.851 205.062 166.116 205.048C165.381 205.033 164.654 205.206 164.004 205.55C163.837 204.721 163.358 203.988 162.666 203.502C161.974 203.016 161.122 202.814 160.286 202.937C159.449 203.061 158.692 203.5 158.17 204.165C157.648 204.83 157.401 205.67 157.48 206.512C156.672 206.262 155.804 206.292 155.015 206.597C154.226 206.902 153.564 207.465 153.135 208.194C153.137 207.452 152.96 206.721 152.619 206.063C152.279 205.404 151.785 204.836 151.18 204.408C149.951 203.562 148.487 203.124 146.995 203.157C146.029 203.157 145.006 203.313 144.252 203.918C143.499 204.523 143.111 205.679 143.64 206.501C142.803 206.513 141.992 206.79 141.322 207.29C140.652 207.791 140.157 208.491 139.908 209.289L170.362 209.24Z" fill="#EBEBEB"/>
<path d="M206.503 209.24C206.48 208.505 206.27 207.789 205.893 207.157C205.517 206.526 204.986 206.001 204.35 205.632C203.714 205.263 202.995 205.062 202.26 205.047C201.526 205.033 200.799 205.206 200.149 205.55C199.991 204.712 199.514 203.969 198.82 203.474C198.125 202.98 197.267 202.773 196.423 202.898C195.58 203.022 194.817 203.468 194.295 204.141C193.773 204.815 193.531 205.665 193.621 206.512C192.814 206.262 191.946 206.292 191.158 206.597C190.37 206.902 189.708 207.465 189.28 208.194C189.28 207.453 189.103 206.722 188.762 206.064C188.422 205.405 187.929 204.838 187.325 204.408C186.096 203.563 184.632 203.125 183.14 203.157C182.165 203.089 181.195 203.358 180.393 203.918C179.633 204.523 179.252 205.679 179.785 206.501C178.948 206.513 178.137 206.789 177.466 207.29C176.796 207.791 176.301 208.49 176.053 209.289L206.503 209.24Z" fill="#EBEBEB"/>
<path d="M245.425 209.24C245.401 208.506 245.191 207.79 244.814 207.159C244.437 206.528 243.906 206.004 243.271 205.635C242.635 205.266 241.917 205.065 241.182 205.05C240.448 205.035 239.722 205.207 239.072 205.55C238.913 204.712 238.437 203.969 237.742 203.474C237.048 202.98 236.189 202.773 235.346 202.898C234.503 203.022 233.74 203.468 233.218 204.141C232.695 204.815 232.454 205.665 232.544 206.512C231.734 206.258 230.863 206.286 230.072 206.592C229.281 206.897 228.616 207.462 228.188 208.194C228.187 207.453 228.01 206.722 227.67 206.064C227.329 205.405 226.837 204.838 226.232 204.408C225.003 203.563 223.539 203.125 222.047 203.157C221.072 203.089 220.103 203.358 219.301 203.918C218.54 204.523 218.159 205.679 218.688 206.501C217.852 206.513 217.041 206.789 216.372 207.29C215.702 207.791 215.208 208.491 214.96 209.289L245.425 209.24Z" fill="#EBEBEB"/>
<path d="M149.624 200.844C149.604 200.549 149.51 200.263 149.35 200.014C149.288 199.911 149.204 199.822 149.103 199.756C149.052 199.724 148.994 199.704 148.933 199.699C148.873 199.693 148.813 199.703 148.757 199.725C148.696 199.761 148.646 199.813 148.613 199.876C148.58 199.938 148.565 200.009 148.57 200.079C148.585 200.223 148.648 200.357 148.749 200.46C148.859 200.582 148.994 200.68 149.145 200.746C149.296 200.811 149.459 200.844 149.624 200.84" fill="#EBEBEB"/>
<path d="M153.904 198.005C155.917 198.005 157.548 196.374 157.548 194.361C157.548 192.348 155.917 190.716 153.904 190.716C151.891 190.716 150.259 192.348 150.259 194.361C150.259 196.374 151.891 198.005 153.904 198.005Z" fill="#263238"/>
<path d="M158.416 194.38C158.381 194.011 158.321 193.645 158.237 193.284C158.079 192.684 157.798 192.124 157.411 191.639C157.025 191.155 156.541 190.756 155.991 190.47C155.441 190.183 154.837 190.015 154.218 189.975C153.599 189.936 152.979 190.026 152.397 190.241C151.995 190.383 151.618 190.587 151.279 190.846C150.92 191.106 150.606 191.422 150.347 191.782C149.788 192.538 149.487 193.453 149.487 194.393C149.487 195.333 149.788 196.249 150.347 197.005C150.862 197.711 151.576 198.248 152.397 198.546C153.091 198.8 153.838 198.877 154.569 198.769C155.3 198.66 155.992 198.37 156.582 197.926C157.387 197.32 157.966 196.461 158.225 195.487C158.309 195.127 158.369 194.763 158.404 194.395C158.415 194.491 158.415 194.588 158.404 194.684C158.405 194.801 158.396 194.918 158.378 195.034C158.361 195.193 158.333 195.351 158.294 195.506C158.088 196.354 157.642 197.125 157.011 197.728C156.38 198.331 155.59 198.74 154.733 198.907C153.924 199.063 153.089 198.999 152.313 198.721C151.456 198.413 150.71 197.855 150.172 197.119C149.585 196.331 149.269 195.375 149.269 194.393C149.269 193.411 149.585 192.455 150.172 191.667C150.442 191.292 150.772 190.963 151.149 190.693C151.503 190.427 151.896 190.217 152.313 190.07C153.089 189.792 153.924 189.726 154.733 189.879C155.59 190.047 156.38 190.456 157.011 191.059C157.642 191.661 158.088 192.432 158.294 193.28C158.334 193.437 158.362 193.596 158.378 193.756C158.396 193.872 158.405 193.989 158.404 194.106C158.418 194.197 158.422 194.288 158.416 194.38Z" fill="#263238"/>
<path d="M150.309 194.681C151.33 194.389 152.385 194.233 153.447 194.217C154.521 194.205 155.56 194.594 156.361 195.308C157.229 196.149 157.552 197.389 157.777 198.573C158.442 202.114 158.537 205.74 158.537 209.346H151.187L151.241 196.826C150.947 196.551 150.713 196.219 150.552 195.85C150.392 195.481 150.309 195.083 150.309 194.681Z" fill="#455A64"/>
<path d="M190.281 198.005C192.294 198.005 193.926 196.374 193.926 194.361C193.926 192.348 192.294 190.716 190.281 190.716C188.268 190.716 186.637 192.348 186.637 194.361C186.637 196.374 188.268 198.005 190.281 198.005Z" fill="#263238"/>
<path d="M194.793 194.38C194.758 194.011 194.699 193.645 194.614 193.284C194.457 192.684 194.176 192.124 193.789 191.639C193.402 191.155 192.918 190.756 192.368 190.47C191.818 190.183 191.215 190.015 190.596 189.975C189.977 189.936 189.357 190.026 188.775 190.241C188.373 190.383 187.995 190.587 187.656 190.846C187.298 191.106 186.983 191.422 186.724 191.782C186.166 192.538 185.865 193.453 185.865 194.393C185.865 195.333 186.166 196.249 186.724 197.005C186.982 197.366 187.297 197.684 187.656 197.945C187.996 198.201 188.374 198.403 188.775 198.546C189.468 198.801 190.215 198.878 190.946 198.77C191.677 198.661 192.37 198.371 192.96 197.926C193.767 197.321 194.347 196.462 194.607 195.487C194.691 195.127 194.75 194.763 194.786 194.395C194.795 194.491 194.795 194.588 194.786 194.684C194.79 194.801 194.782 194.919 194.763 195.034C194.746 195.193 194.718 195.351 194.679 195.506C194.473 196.354 194.028 197.125 193.397 197.728C192.765 198.331 191.975 198.74 191.118 198.907C190.31 199.063 189.474 198.999 188.699 198.721C188.28 198.573 187.886 198.363 187.531 198.097C187.156 197.823 186.827 197.493 186.553 197.119C185.967 196.331 185.65 195.375 185.65 194.393C185.65 193.411 185.967 192.455 186.553 191.667C186.823 191.293 187.152 190.964 187.527 190.693C187.882 190.428 188.276 190.217 188.695 190.07C189.47 189.792 190.305 189.726 191.114 189.879C191.815 190.015 192.475 190.314 193.039 190.751C193.859 191.381 194.437 192.274 194.675 193.28C194.715 193.437 194.743 193.596 194.759 193.756C194.779 193.872 194.786 193.989 194.782 194.106C194.794 194.197 194.798 194.288 194.793 194.38Z" fill="#263238"/>
<path d="M186.686 194.681C187.707 194.389 188.763 194.233 189.825 194.217C190.898 194.205 191.937 194.594 192.739 195.308C193.606 196.149 193.93 197.389 194.154 198.573C194.82 202.114 194.915 205.74 194.915 209.346H187.565L187.618 196.826C187.324 196.552 187.089 196.22 186.929 195.85C186.769 195.481 186.686 195.083 186.686 194.681Z" fill="#455A64"/>
<path d="M227.176 198.005C229.189 198.005 230.82 196.374 230.82 194.361C230.82 192.348 229.189 190.716 227.176 190.716C225.163 190.716 223.531 192.348 223.531 194.361C223.531 196.374 225.163 198.005 227.176 198.005Z" fill="#263238"/>
<path d="M231.688 194.38C231.653 194.011 231.593 193.645 231.509 193.284C231.351 192.685 231.07 192.124 230.683 191.64C230.297 191.155 229.813 190.756 229.263 190.47C228.713 190.183 228.109 190.015 227.49 189.975C226.871 189.936 226.251 190.026 225.669 190.241C224.852 190.537 224.139 191.066 223.619 191.763C223.063 192.52 222.763 193.435 222.763 194.374C222.763 195.314 223.063 196.229 223.619 196.986C223.877 197.347 224.192 197.664 224.551 197.926C224.891 198.181 225.268 198.383 225.669 198.527C226.363 198.781 227.109 198.858 227.841 198.75C228.572 198.641 229.264 198.352 229.854 197.907C230.659 197.301 231.238 196.442 231.497 195.468C231.581 195.108 231.641 194.744 231.676 194.376C231.687 194.472 231.687 194.569 231.676 194.665C231.677 194.783 231.668 194.9 231.65 195.015C231.633 195.174 231.605 195.332 231.566 195.487C231.36 196.335 230.914 197.106 230.283 197.709C229.652 198.312 228.862 198.721 228.005 198.888C227.198 199.045 226.363 198.98 225.589 198.702C225.17 198.556 224.776 198.345 224.421 198.078C224.045 197.806 223.715 197.476 223.444 197.1C222.857 196.312 222.541 195.356 222.541 194.374C222.541 193.392 222.857 192.436 223.444 191.648C223.986 190.917 224.733 190.361 225.589 190.051C226.363 189.773 227.197 189.707 228.005 189.86C228.862 190.028 229.652 190.437 230.283 191.04C230.914 191.643 231.36 192.414 231.566 193.262C231.606 193.418 231.634 193.577 231.65 193.737C231.668 193.853 231.677 193.97 231.676 194.087C231.691 194.184 231.695 194.282 231.688 194.38Z" fill="#263238"/>
<path d="M223.581 194.681C224.603 194.388 225.66 194.232 226.723 194.217C227.796 194.206 228.835 194.595 229.637 195.308C230.501 196.149 230.824 197.389 231.048 198.573C231.714 202.114 231.809 205.74 231.809 209.346H224.459L224.516 196.826C224.222 196.552 223.987 196.219 223.826 195.85C223.665 195.481 223.582 195.083 223.581 194.681Z" fill="#455A64"/>
<path d="M259.73 209.346C259.73 209.4 228.233 209.445 189.387 209.445C150.541 209.445 119.037 209.4 119.037 209.346C119.037 209.293 150.526 209.248 189.387 209.248C228.249 209.248 259.73 209.289 259.73 209.346Z" fill="#455A64"/>
<path d="M153.482 205.713C153.35 203.782 153.35 201.843 153.482 199.912C153.614 201.843 153.614 203.782 153.482 205.713Z" fill="#263238"/>
<path d="M155.117 207.349C154.986 205.542 154.986 203.728 155.117 201.92C155.254 203.727 155.254 205.542 155.117 207.349Z" fill="#263238"/>
<path d="M190.365 206.082C190.233 204.673 190.233 203.254 190.365 201.844C190.497 203.254 190.497 204.673 190.365 206.082Z" fill="#263238"/>
<path d="M191.331 209.354C191.278 209.354 191.232 207.341 191.232 204.857C191.232 202.373 191.278 200.356 191.331 200.356C191.385 200.356 191.434 202.373 191.434 204.857C191.434 207.341 191.388 209.354 191.331 209.354Z" fill="#263238"/>
<path d="M226.879 205.862C226.747 204.502 226.747 203.132 226.879 201.772C227.011 203.132 227.011 204.502 226.879 205.862Z" fill="#263238"/>
<path d="M228.142 206.531C228.01 204.475 228.01 202.412 228.142 200.356C228.274 202.412 228.274 204.475 228.142 206.531Z" fill="#263238"/>
<path d="M127.509 124.179C126.695 122.988 127.924 121.375 129.282 120.877C130.64 120.378 132.2 120.412 133.391 119.598C135.928 117.867 135.221 113.58 137.549 111.575C139.71 109.707 143.305 110.814 145.644 109.163C148.817 106.945 147.703 101.322 150.864 99.0966C152.945 97.6319 155.81 98.4042 158.309 97.9743C163.985 97.0042 167.546 89.9509 173.306 90.0499C176.912 90.1107 179.903 93.0743 183.486 93.5042C186.397 93.8542 189.258 92.4808 192.191 92.4922C196.486 92.4922 200.4 95.6689 201.991 99.6596C203.581 103.65 203.083 108.261 201.367 112.214C199.993 115.36 197.829 118.21 194.964 120.1C192.099 121.991 188.497 122.87 185.145 122.193C182.893 121.74 180.831 120.633 178.651 119.91C176.471 119.187 173.975 118.856 171.944 119.91C169.912 120.964 168.646 123.243 166.45 123.753C164.602 124.179 162.756 123.209 161.033 122.417C159.31 121.626 157.191 121.01 155.604 122.037C154.725 122.611 154.204 123.581 153.523 124.384C152.842 125.187 151.8 125.875 150.796 125.56" fill="#F5F5F5"/>
<path d="M125.942 125.191C125.942 125.191 128.544 159.765 117.625 181.876H161.299C161.299 181.876 149.886 153.895 152.481 124.811L125.942 125.191Z" fill="#263238"/>
<path d="M152.755 127.184H125.421C124.983 127.184 124.564 127.011 124.254 126.702C123.945 126.393 123.771 125.974 123.77 125.537C123.77 125.099 123.943 124.679 124.253 124.369C124.563 124.06 124.983 123.886 125.421 123.886H152.755C153.193 123.886 153.613 124.06 153.922 124.369C154.232 124.679 154.406 125.099 154.406 125.537C154.406 125.753 154.363 125.968 154.28 126.168C154.197 126.368 154.075 126.55 153.922 126.703C153.769 126.856 153.587 126.977 153.386 127.06C153.186 127.142 152.972 127.185 152.755 127.184Z" fill="#263238"/>
<path d="M154.414 149.367H124.508C124.1 149.367 123.77 149.698 123.77 150.105V150.257C123.77 150.665 124.1 150.995 124.508 150.995H154.414C154.821 150.995 155.152 150.665 155.152 150.257V150.105C155.152 149.698 154.821 149.367 154.414 149.367Z" fill="#263238"/>
<path d="M152.158 127.382C152.158 127.439 146.326 127.481 139.132 127.481C131.938 127.481 126.105 127.439 126.105 127.382C126.105 127.325 131.938 127.283 139.132 127.283C146.326 127.283 152.158 127.329 152.158 127.382Z" fill="#455A64"/>
<path d="M153.333 149.428C153.333 149.486 147.189 149.527 139.611 149.527C132.033 149.527 125.889 149.486 125.889 149.428C125.889 149.371 132.033 149.33 139.611 149.33C147.189 149.33 153.333 149.375 153.333 149.428Z" fill="#455A64"/>
<path d="M154.098 150.855C154.098 150.908 147.661 150.954 139.721 150.954C131.782 150.954 125.341 150.908 125.341 150.855C125.341 150.802 131.778 150.756 139.721 150.756C147.665 150.756 154.098 150.798 154.098 150.855Z" fill="#455A64"/>
<path d="M140.767 181.864C140.805 179.452 138.713 175.576 136.332 174.255C134.483 173.24 130.796 172.566 129.103 173.803C128.692 170.497 125.352 167.845 122.039 168.195C118.725 168.545 115.997 171.836 116.283 175.153C113.802 173.479 109.937 174.548 108.674 177.261C108.674 177.261 101.244 175.796 100 181.864H140.767Z" fill="#455A64"/>
<path d="M137.203 134.477C137.203 134.477 134.779 135.006 134.829 138.479H138.089C138.063 138.228 138.101 137.974 138.2 137.741C138.298 137.508 138.454 137.304 138.652 137.148L137.203 134.477Z" fill="#FF725E"/>
<path d="M144.222 138.521C144.244 137.705 144.059 136.897 143.685 136.172C143.31 135.447 142.758 134.829 142.08 134.375L140.265 137.083C140.516 137.214 140.721 137.42 140.85 137.672C140.98 137.924 141.028 138.21 140.988 138.491L144.222 138.521Z" fill="#FF725E"/>
<path d="M137.233 142.66C137.946 143.058 138.747 143.268 139.563 143.272C140.378 143.276 141.181 143.074 141.898 142.683L140.342 139.803C140.122 139.995 139.84 140.101 139.548 140.101C139.257 140.101 138.975 139.995 138.755 139.803L137.233 142.66Z" fill="#FF725E"/>
<path d="M140.421 138.449C140.421 138.615 140.372 138.778 140.28 138.916C140.187 139.055 140.056 139.162 139.902 139.226C139.749 139.29 139.58 139.306 139.416 139.274C139.253 139.241 139.104 139.161 138.986 139.044C138.868 138.926 138.788 138.776 138.756 138.613C138.723 138.45 138.74 138.281 138.804 138.127C138.867 137.974 138.975 137.842 139.113 137.75C139.252 137.658 139.414 137.608 139.581 137.608C139.803 137.608 140.017 137.697 140.175 137.855C140.333 138.012 140.421 138.226 140.421 138.449Z" fill="#FF725E"/>
<path d="M246.528 70.4045C246.289 66.9159 243.694 63.6099 240.266 62.8985C234.997 61.8029 229.633 66.5583 224.49 64.9605C222.466 64.3328 220.727 62.754 218.608 62.6779C216.489 62.6018 214.709 63.9561 213.282 65.4512C211.855 66.9463 210.619 68.6773 208.831 69.7159C205.981 71.3746 202.013 71.1235 199.894 73.6534C197.612 76.3735 198.852 80.7409 196.969 83.7464C195.702 85.7703 192.373 86.7632 190.973 88.692C189.76 90.3697 189.71 92.8426 189.452 94.8969C188.946 99.0474 189.402 104.218 188.9 108.364L190.075 108.269C189.984 106.747 189.893 105.226 190.231 103.769C190.57 102.312 191.411 100.874 192.75 100.181C194.766 99.1426 197.532 99.8996 199.217 98.3703C201.165 96.586 200.127 93.1051 201.736 91.0089C203.258 89.023 206.301 89.2512 208.702 89.9322C211.102 90.6132 213.784 91.53 215.991 90.3507C219.361 88.5474 219.179 83.1947 222.363 81.0795C225.094 79.261 228.686 80.7371 231.919 81.3078C235.366 81.9127 239.083 81.3344 241.963 79.3523C244.843 77.3703 246.768 73.8969 246.528 70.4045Z" fill="#EBEBEB"/>
<path d="M206.244 58.9268C205.829 56.6937 204.475 54.4263 200.956 54.2893C199.807 54.2653 198.679 54.5961 197.725 55.2368C196.772 55.8774 196.039 56.7966 195.626 57.869C195.214 58.9414 195.143 60.1149 195.422 61.2295C195.701 62.344 196.317 63.3453 197.186 64.0969C198.049 64.8495 199.124 65.3152 200.264 65.4294C201.403 65.5437 202.549 65.3008 203.544 64.7345C204.54 64.1682 205.334 63.3064 205.818 62.2686C206.301 61.2308 206.45 60.0683 206.244 58.942V58.9268Z" fill="#E0E0E0"/>
<path d="M251.721 132.039H214.941V181.685H251.721V132.039Z" fill="#F5F5F5"/>
<path d="M251.721 181.685C251.721 181.685 251.721 181.601 251.721 181.445C251.721 181.29 251.721 181.065 251.721 180.745C251.721 180.129 251.721 179.224 251.721 178.041C251.721 175.678 251.721 172.228 251.695 167.856C251.695 159.125 251.668 146.723 251.653 132.038L251.74 132.126H214.964L215.063 132.027C215.063 150.543 215.063 167.7 215.044 181.674L214.964 181.59L241.686 181.632L249.112 181.651H251.067H251.74H251.082H249.146L241.735 181.674L214.96 181.716H214.873V181.636C214.873 167.662 214.873 150.505 214.854 131.989V131.886H214.956H251.733H251.824V131.978C251.805 146.689 251.79 159.106 251.779 167.856C251.779 172.216 251.76 175.659 251.756 178.018C251.756 179.192 251.756 180.089 251.756 180.707C251.756 181.008 251.756 181.236 251.756 181.392C251.756 181.548 251.721 181.685 251.721 181.685Z" fill="#263238"/>
<path d="M224.467 181.213C224.414 181.213 224.368 170.622 224.368 157.562C224.368 144.501 224.414 133.91 224.467 133.91C224.52 133.91 224.566 144.498 224.566 157.562C224.566 170.626 224.52 181.213 224.467 181.213Z" fill="#263238"/>
<path d="M271.203 46.6766C270.34 43.6673 267.114 41.4038 264.04 42.0048C262.427 42.3206 260.943 43.3326 259.299 43.2755C257.964 43.2298 256.77 42.4804 255.495 42.0733C253.937 41.6156 252.275 41.6592 250.743 42.1978C249.211 42.7364 247.887 43.7429 246.958 45.075C245.939 46.5967 245.364 48.6168 243.705 49.4119C242.378 50.0472 240.662 49.6972 239.486 50.576C238.045 51.6527 238.227 53.8668 237.337 55.4304C236.72 56.3939 235.967 57.2627 235.1 58.0097C234.058 59.0103 234.259 61.6315 234.339 62.6625H236.622C236.667 61.4146 237.763 59.8282 238.984 59.5429C240.205 59.2576 241.472 59.5201 242.69 59.7978C243.907 60.0755 245.166 60.3646 246.395 60.1478C248.678 59.7445 250.317 57.713 252.524 57.0434C254.73 56.3739 257.177 57.1994 259.52 57.4733C262.632 57.8538 265.946 57.0929 268.342 55.0994C270.739 53.1059 272.067 49.6896 271.203 46.6766Z" fill="#E0E0E0"/>
<path d="M208.968 181.864L208.926 159.536L217.448 156.204L225.741 159.536L225.825 181.864H208.968Z" fill="#455A64"/>
<path d="M225.741 159.536C225.741 159.593 221.979 159.635 217.334 159.635C212.689 159.635 208.926 159.593 208.926 159.536C208.926 159.479 212.689 159.438 217.334 159.438C221.979 159.438 225.741 159.483 225.741 159.536Z" fill="#263238"/>
<path d="M217.045 181.651C216.991 181.651 216.946 176.74 216.946 170.679C216.946 164.619 216.991 159.711 217.045 159.711C217.098 159.711 217.144 164.619 217.144 170.679C217.144 176.74 217.098 181.651 217.045 181.651Z" fill="#263238"/>
<path d="M251.721 138.43H228.458V141.762H251.721V138.43Z" fill="#455A64"/>
<path d="M232.684 141.762C232.554 140.625 232.554 139.476 232.684 138.338C232.815 139.476 232.815 140.625 232.684 141.762Z" fill="#263238"/>
<path d="M236.74 141.762C236.609 140.625 236.609 139.476 236.74 138.338C236.87 139.476 236.87 140.625 236.74 141.762Z" fill="#263238"/>
<path d="M240.795 141.762C240.665 140.625 240.665 139.476 240.795 138.338C240.925 139.476 240.925 140.625 240.795 141.762Z" fill="#263238"/>
<path d="M244.851 141.762C244.72 140.625 244.72 139.476 244.851 138.338C244.981 139.476 244.981 140.625 244.851 141.762Z" fill="#263238"/>
<path d="M248.906 141.762C248.776 140.625 248.776 139.476 248.906 138.338C249.036 139.476 249.036 140.625 248.906 141.762Z" fill="#263238"/>
<path d="M251.721 145.83H228.458V149.162H251.721V145.83Z" fill="#455A64"/>
<path d="M232.684 149.162C232.552 148.018 232.552 146.863 232.684 145.719C232.816 146.863 232.816 148.018 232.684 149.162Z" fill="#263238"/>
<path d="M236.74 149.162C236.608 148.018 236.608 146.863 236.74 145.719C236.871 146.863 236.871 148.018 236.74 149.162Z" fill="#263238"/>
<path d="M240.795 149.162C240.663 148.018 240.663 146.863 240.795 145.719C240.927 146.863 240.927 148.018 240.795 149.162Z" fill="#263238"/>
<path d="M244.85 149.162C244.718 148.018 244.718 146.863 244.85 145.719C244.982 146.863 244.982 148.018 244.85 149.162Z" fill="#263238"/>
<path d="M248.906 149.162C248.774 148.018 248.774 146.863 248.906 145.719C249.038 146.863 249.038 148.018 248.906 149.162Z" fill="#263238"/>
<path d="M251.721 153.05H228.458V156.382H251.721V153.05Z" fill="#455A64"/>
<path d="M232.684 156.382C232.552 155.239 232.552 154.083 232.684 152.939C232.816 154.083 232.816 155.239 232.684 156.382Z" fill="#263238"/>
<path d="M236.74 156.382C236.608 155.239 236.608 154.083 236.74 152.939C236.871 154.083 236.871 155.239 236.74 156.382Z" fill="#263238"/>
<path d="M240.795 156.382C240.663 155.239 240.663 154.083 240.795 152.939C240.927 154.083 240.927 155.239 240.795 156.382Z" fill="#263238"/>
<path d="M244.85 156.382C244.718 155.239 244.718 154.083 244.85 152.939C244.982 154.083 244.982 155.239 244.85 156.382Z" fill="#263238"/>
<path d="M248.906 156.382C248.774 155.239 248.774 154.083 248.906 152.939C249.038 154.083 249.038 155.239 248.906 156.382Z" fill="#263238"/>
<path d="M251.721 160.267H228.458V163.6H251.721V160.267Z" fill="#455A64"/>
<path d="M232.684 163.6C232.554 162.462 232.554 161.313 232.684 160.176C232.815 161.313 232.815 162.462 232.684 163.6Z" fill="#263238"/>
<path d="M236.74 163.6C236.609 162.462 236.609 161.313 236.74 160.176C236.87 161.313 236.87 162.462 236.74 163.6Z" fill="#263238"/>
<path d="M240.795 163.6C240.665 162.462 240.665 161.313 240.795 160.176C240.926 161.313 240.926 162.462 240.795 163.6Z" fill="#263238"/>
<path d="M244.85 163.6C244.72 162.462 244.72 161.313 244.85 160.176C244.981 161.313 244.981 162.462 244.85 163.6Z" fill="#263238"/>
<path d="M248.906 163.6C248.775 162.462 248.775 161.313 248.906 160.176C249.037 161.313 249.037 162.462 248.906 163.6Z" fill="#263238"/>
<path d="M251.721 167.792H228.458V171.125H251.721V167.792Z" fill="#455A64"/>
<path d="M232.684 171.125C232.552 169.981 232.552 168.825 232.684 167.682C232.816 168.825 232.816 169.981 232.684 171.125Z" fill="#263238"/>
<path d="M236.74 171.125C236.608 169.981 236.608 168.825 236.74 167.682C236.871 168.825 236.871 169.981 236.74 171.125Z" fill="#263238"/>
<path d="M240.795 171.125C240.663 169.981 240.663 168.825 240.795 167.682C240.927 168.825 240.927 169.981 240.795 171.125Z" fill="#263238"/>
<path d="M244.85 171.125C244.718 169.981 244.718 168.825 244.85 167.682C244.982 168.825 244.982 169.981 244.85 171.125Z" fill="#263238"/>
<path d="M248.906 171.125C248.774 169.981 248.774 168.825 248.906 167.682C249.038 168.825 249.038 169.981 248.906 171.125Z" fill="#263238"/>
<path d="M253.144 130.589H213.518V133.484H253.144V130.589Z" fill="#F5F5F5"/>
<path d="M253.144 133.484C253.144 133.484 253.144 133.42 253.144 133.294C253.144 133.169 253.144 132.982 253.144 132.742C253.144 132.252 253.144 131.533 253.125 130.589L253.159 130.623C247.164 130.661 231.672 130.688 213.537 130.688L213.636 130.589V133.484L213.537 133.385L241.628 133.427L250.066 133.458H252.349H252.946H253.156H252.962H252.376H250.093L241.678 133.488L213.526 133.53H213.427V130.437H213.529C231.665 130.437 247.156 130.464 253.152 130.502H253.19V130.536C253.19 131.491 253.19 132.214 253.171 132.712C253.171 132.944 253.171 133.127 253.171 133.252C253.171 133.378 253.144 133.484 253.144 133.484Z" fill="#263238"/>
<path d="M239.81 65.7974L238.95 61.3691H238.688H232.544H232.087L231.421 65.7974H232.544V130.589H238.688V65.7974H239.81Z" fill="#FAFAFA"/>
<path d="M238.726 65.8467H232.582V78.3668H238.726V65.8467Z" fill="#FF725E"/>
<path d="M238.726 91.1797H232.582V103.7H238.726V91.1797Z" fill="#FF725E"/>
<path d="M238.726 118.065H232.582V130.586H238.726V118.065Z" fill="#FF725E"/>
<path d="M239.81 65.7971H239.551H238.688C238.73 70.9443 238.764 97.259 238.771 130.589V130.673H232.445V125.727C232.445 101.288 232.471 79.5155 232.483 65.7856L232.544 65.8465H231.349V65.778C231.6 64.1422 231.821 62.6851 232.026 61.3498V61.3193H232.072H238.92H238.946V61.346L239.578 64.69C239.643 65.0704 239.696 65.3253 239.73 65.5117L239.776 65.778C239.776 65.778 239.753 65.6829 239.715 65.5003C239.677 65.3177 239.624 65.04 239.547 64.6748L238.882 61.3574L238.916 61.384H232.068L232.118 61.3384C231.92 62.6775 231.703 64.1308 231.459 65.7704L231.402 65.7019H232.586V65.7628C232.586 79.4927 232.608 101.265 232.624 125.704V130.555L232.525 130.456H238.688L238.589 130.555C238.589 97.2248 238.631 70.9101 238.672 65.7628H239.525L239.81 65.7971Z" fill="#263238"/>
<path d="M239.635 65.8466C239.635 65.8999 237.851 65.9455 235.656 65.9455C233.461 65.9455 231.676 65.8999 231.676 65.8466C233 65.7438 234.328 65.7095 235.656 65.7439C236.983 65.7096 238.311 65.7439 239.635 65.8466Z" fill="#263238"/>
<path d="M191.666 68.8256C189.764 66.8816 186.507 66.2501 184.16 67.6425C182.486 68.6354 181.375 70.4881 179.557 71.1729C177.655 71.8881 175.452 71.1729 173.565 71.8843C170.487 73.0789 170.057 77.1191 169 80.2539C168.193 82.6544 166.455 84.0354 166.055 86.5349C164.914 93.6985 164.876 105.127 165.538 113.211H167.254C166.845 110.183 166.821 107.115 167.181 104.081C167.562 101.201 169.243 98.3055 171.971 97.3012C173.854 96.605 175.935 96.8865 177.944 96.9208C179.952 96.955 182.182 96.5822 183.449 95.0186C185.351 92.6903 184.122 89.0191 185.61 86.4131C186.412 85.0017 187.892 84.1305 189.155 83.1186C191.289 81.418 193.005 79.0936 193.61 76.4305C194.215 73.7675 193.568 70.7659 191.666 68.8256Z" fill="#E0E0E0"/>
<path d="M169.715 112.952L169.171 110.152H169.007H165.119H164.83L164.408 112.952H165.119V153.925H169.007V112.952H169.715Z" fill="#FAFAFA"/>
<path d="M169.03 112.979H165.146V120.896H169.03V112.979Z" fill="#FF725E"/>
<path d="M169.03 129.003H165.146V136.92H169.03V129.003Z" fill="#FF725E"/>
<path d="M169.03 146.004H165.146V153.921H169.03V146.004Z" fill="#FF725E"/>
<path d="M169.715 112.952H169.551H169.003C169.045 116.205 169.079 132.845 169.083 153.921V154.02H165.035V150.855C165.035 135.405 165.066 121.637 165.074 112.952L165.134 113.013H164.354V112.944C164.514 111.91 164.655 110.993 164.784 110.148V110.103H164.826L169.167 110.122H169.194V110.129L169.574 112.248L169.669 112.769C169.688 112.88 169.696 112.937 169.696 112.937C169.696 112.937 169.696 112.876 169.654 112.758C169.612 112.64 169.593 112.461 169.547 112.233C169.452 111.765 169.308 111.092 169.121 110.141L169.152 110.167L164.811 110.186L164.864 110.144C164.739 110.989 164.602 111.91 164.45 112.944L164.389 112.876H165.15V112.941C165.15 121.626 165.172 135.386 165.188 150.843V153.91L165.089 153.811H168.973L168.878 153.906C168.878 132.83 168.916 116.19 168.958 112.937H169.498L169.715 112.952Z" fill="#263238"/>
<path d="M169.601 112.979C168.765 113.079 167.923 113.112 167.082 113.078C166.243 113.112 165.402 113.079 164.567 112.979C165.402 112.881 166.243 112.848 167.082 112.88C167.923 112.848 168.765 112.881 169.601 112.979Z" fill="#263238"/>
<path d="M173.907 132.035L172.287 133.948V154.119H173.907V132.035Z" fill="#263238"/>
<path d="M177.73 132.035L176.106 133.948V154.119H177.73V132.035Z" fill="#263238"/>
<path d="M181.55 132.035L179.926 133.948V154.119H181.55V132.035Z" fill="#263238"/>
<path d="M202.896 153.088H149.338V181.925H202.896V153.088Z" fill="#FAFAFA"/>
<path d="M164.529 153.042H149.338V181.879H164.529V153.042Z" fill="#E0E0E0"/>
<path d="M190.935 153.088H187.831L187.881 107.706H190.985L190.935 153.088Z" fill="#E0E0E0"/>
<path d="M190.981 108.988H187.956C187.784 108.987 187.62 108.918 187.499 108.796C187.378 108.674 187.31 108.51 187.31 108.338C187.31 108.166 187.378 108.002 187.499 107.88C187.62 107.759 187.785 107.691 187.956 107.691H190.981C191.152 107.691 191.317 107.759 191.438 107.88C191.559 108.002 191.628 108.166 191.628 108.338C191.628 108.51 191.559 108.674 191.438 108.796C191.317 108.918 191.153 108.987 190.981 108.988Z" fill="#E0E0E0"/>
<path d="M190.981 117.909H187.956C187.785 117.909 187.62 117.841 187.499 117.72C187.378 117.598 187.31 117.434 187.31 117.262C187.31 117.091 187.378 116.926 187.499 116.805C187.62 116.684 187.785 116.616 187.956 116.616H190.981C191.152 116.616 191.317 116.684 191.438 116.805C191.559 116.926 191.628 117.091 191.628 117.262C191.628 117.434 191.559 117.598 191.438 117.72C191.317 117.841 191.152 117.909 190.981 117.909Z" fill="#E0E0E0"/>
<path d="M190.981 126.819H187.956C187.785 126.819 187.62 126.751 187.499 126.629C187.378 126.508 187.31 126.344 187.31 126.172C187.309 126.087 187.325 126.002 187.358 125.923C187.39 125.844 187.438 125.773 187.498 125.712C187.558 125.652 187.629 125.604 187.708 125.571C187.787 125.538 187.871 125.521 187.956 125.521H190.981C191.066 125.521 191.15 125.538 191.229 125.571C191.308 125.604 191.379 125.652 191.439 125.712C191.5 125.773 191.547 125.844 191.579 125.923C191.612 126.002 191.628 126.087 191.628 126.172C191.628 126.344 191.559 126.508 191.438 126.629C191.317 126.751 191.152 126.819 190.981 126.819Z" fill="#E0E0E0"/>
<path d="M190.981 135.729H187.956C187.784 135.728 187.62 135.659 187.499 135.537C187.378 135.415 187.31 135.25 187.31 135.078C187.31 134.907 187.378 134.742 187.499 134.621C187.62 134.5 187.785 134.432 187.956 134.432H190.981C191.152 134.432 191.317 134.5 191.438 134.621C191.559 134.742 191.628 134.907 191.628 135.078C191.628 135.25 191.559 135.415 191.438 135.537C191.317 135.659 191.153 135.728 190.981 135.729Z" fill="#E0E0E0"/>
<path d="M190.981 144.635H187.956C187.785 144.635 187.62 144.567 187.499 144.445C187.378 144.324 187.31 144.159 187.31 143.988C187.31 143.816 187.378 143.651 187.499 143.529C187.62 143.407 187.784 143.338 187.956 143.337H190.981C191.153 143.338 191.317 143.407 191.438 143.529C191.559 143.651 191.628 143.816 191.628 143.988C191.628 144.159 191.559 144.324 191.438 144.445C191.317 144.567 191.152 144.635 190.981 144.635Z" fill="#E0E0E0"/>
<path d="M191.164 109.053C190.092 109.184 189.009 109.184 187.938 109.053C189.009 108.921 190.092 108.921 191.164 109.053Z" fill="#263238"/>
<path d="M191.164 116.65C190.093 116.787 189.009 116.787 187.938 116.65C189.009 116.518 190.092 116.518 191.164 116.65Z" fill="#263238"/>
<path d="M191.164 118.016C190.092 118.148 189.009 118.148 187.938 118.016C189.009 117.884 190.092 117.884 191.164 118.016Z" fill="#263238"/>
<path d="M191.164 125.537C190.092 125.669 189.009 125.669 187.938 125.537C189.009 125.4 190.093 125.4 191.164 125.537Z" fill="#263238"/>
<path d="M191.164 126.903C190.092 127.034 189.009 127.034 187.938 126.903C189.009 126.766 190.093 126.766 191.164 126.903Z" fill="#263238"/>
<path d="M191.164 134.477C190.092 134.609 189.009 134.609 187.938 134.477C189.009 134.345 190.092 134.345 191.164 134.477Z" fill="#263238"/>
<path d="M191.164 135.854C190.092 135.986 189.009 135.986 187.938 135.854C189.009 135.722 190.092 135.722 191.164 135.854Z" fill="#263238"/>
<path d="M191.164 143.444C190.092 143.576 189.009 143.576 187.938 143.444C189.009 143.312 190.092 143.312 191.164 143.444Z" fill="#263238"/>
<path d="M191.164 144.81C190.092 144.942 189.009 144.942 187.938 144.81C189.009 144.678 190.092 144.678 191.164 144.81Z" fill="#263238"/>
<path d="M149.339 181.864H149.601H150.362H153.318L164.396 181.837L202.893 181.792L202.801 181.887C202.801 172.988 202.801 163.246 202.801 153.05L202.9 153.149L149.339 153.118L149.415 153.042C149.415 161.906 149.384 169.108 149.377 174.096C149.377 176.591 149.377 178.535 149.358 179.859C149.358 180.517 149.358 181.019 149.358 181.362C149.358 181.704 149.358 181.883 149.358 181.883C149.358 181.883 149.358 181.716 149.358 181.377C149.358 181.038 149.358 180.54 149.358 179.886C149.358 178.569 149.358 176.633 149.358 174.141C149.358 169.142 149.335 161.925 149.32 153.042V152.97H149.392L202.95 152.943H203.049V153.042C203.049 163.23 203.049 172.981 203.049 181.879V181.971H202.954L164.396 181.925L153.337 181.902H150.404H149.643L149.339 181.864Z" fill="#263238"/>
<path d="M170.498 156.523H168.68V159.856H170.498V156.523Z" fill="#455A64"/>
<path d="M200.827 156.523H173.869V159.856H200.827V156.523Z" fill="#455A64"/>
<path d="M200.827 163.824H173.869V167.156H200.827V163.824Z" fill="#455A64"/>
<path d="M170.498 163.824H168.68V167.156H170.498V163.824Z" fill="#455A64"/>
<path d="M170.304 171.125H168.486V174.457H170.304V171.125Z" fill="#455A64"/>
<path d="M175.688 171.125H173.869V174.457H175.688V171.125Z" fill="#455A64"/>
<path d="M214.941 168.484H179.4V181.796H214.941V168.484Z" fill="#F5F5F5"/>
<path d="M214.941 181.796C214.941 181.796 214.941 181.712 214.941 181.556C214.941 181.4 214.941 181.176 214.941 180.868C214.941 180.259 214.941 179.372 214.941 178.227C214.941 175.945 214.918 172.616 214.903 168.484L214.971 168.549L179.431 168.583L179.53 168.484C179.53 173.13 179.53 177.615 179.53 181.8L179.435 181.705L204.882 181.75L212.289 181.777H214.279H214.796H214.975H214.808H214.302H212.335L204.947 181.803L179.435 181.849H179.34V181.754C179.34 177.569 179.34 173.088 179.34 168.439V168.34H179.439L214.979 168.37H215.047V168.439C215.047 172.585 215.017 175.922 215.009 178.224C215.009 179.365 215.009 180.244 215.009 180.849C215.009 181.141 215.009 181.366 215.009 181.526C215.009 181.686 214.941 181.796 214.941 181.796Z" fill="#263238"/>
<path d="M189.079 181.796C189.022 181.796 188.98 178.817 188.98 175.138C188.98 171.459 189.022 168.484 189.079 168.484C189.136 168.484 189.178 171.463 189.178 175.138C189.178 178.813 189.132 181.796 189.079 181.796Z" fill="#263238"/>
<path d="M193.324 170.904H192.293V176.717H193.324V170.904Z" fill="#FF725E"/>
<path d="M197.075 170.904H196.044V176.717H197.075V170.904Z" fill="#FF725E"/>
<path d="M200.827 170.904H199.796V176.717H200.827V170.904Z" fill="#FF725E"/>
<path d="M204.574 170.904H203.543V176.717H204.574V170.904Z" fill="#FF725E"/>
<path d="M208.325 170.904H207.294V176.717H208.325V170.904Z" fill="#FF725E"/>
<path d="M212.076 170.904H211.045V176.717H212.076V170.904Z" fill="#FF725E"/>
<path d="M164.408 181.929C164.354 181.929 164.309 175.488 164.309 167.548C164.309 159.609 164.354 153.164 164.408 153.164C164.461 153.164 164.506 159.605 164.506 167.548C164.506 175.492 164.465 181.929 164.408 181.929Z" fill="#263238"/>
<path d="M155.304 181.868V171.216C155.305 170.388 155.634 169.594 156.22 169.008C156.805 168.423 157.599 168.093 158.427 168.092H160.554C160.856 168.092 161.147 168.213 161.361 168.427C161.575 168.641 161.695 168.931 161.695 169.234C161.695 169.536 161.575 169.827 161.361 170.041C161.147 170.255 160.856 170.375 160.554 170.375H158.427C158.204 170.375 157.99 170.463 157.833 170.621C157.675 170.779 157.586 170.993 157.586 171.216V181.868" fill="#FF725E"/>
<path d="M148.616 181.879V171.227C148.617 170.399 148.946 169.606 149.532 169.021C150.118 168.436 150.911 168.107 151.739 168.107H153.866C154.168 168.107 154.459 168.228 154.673 168.442C154.887 168.656 155.007 168.946 155.007 169.249C155.007 169.551 154.887 169.842 154.673 170.056C154.459 170.27 154.168 170.39 153.866 170.39H151.739C151.629 170.39 151.52 170.411 151.418 170.453C151.316 170.494 151.223 170.556 151.145 170.634C151.067 170.712 151.005 170.804 150.962 170.906C150.92 171.008 150.898 171.117 150.898 171.227V181.879" fill="#FF725E"/>
<path d="M160.173 168.123C160.26 168.057 160.36 168.011 160.467 167.987C160.573 167.964 160.683 167.963 160.79 167.986C161.03 168.012 161.257 168.107 161.444 168.26C161.673 168.454 161.823 168.724 161.866 169.021C161.912 169.287 161.867 169.562 161.737 169.8C161.607 170.037 161.401 170.224 161.151 170.329C160.771 170.489 160.512 170.405 160.523 170.386C160.718 170.346 160.908 170.284 161.09 170.204C161.274 170.104 161.427 169.957 161.535 169.778C161.664 169.559 161.711 169.301 161.668 169.051C161.631 168.801 161.509 168.571 161.322 168.4C161.165 168.263 160.975 168.168 160.771 168.127C160.572 168.102 160.372 168.1 160.173 168.123Z" fill="#263238"/>
<path d="M153.413 168.123C153.5 168.057 153.6 168.011 153.706 167.987C153.813 167.964 153.923 167.963 154.029 167.986C154.269 168.012 154.497 168.107 154.684 168.26C154.912 168.454 155.062 168.724 155.106 169.021C155.152 169.287 155.107 169.562 154.977 169.8C154.847 170.037 154.64 170.224 154.391 170.329C154.296 170.384 154.19 170.417 154.081 170.427C153.972 170.437 153.862 170.423 153.759 170.386C153.956 170.347 154.147 170.285 154.33 170.204C154.513 170.104 154.667 169.957 154.775 169.778C154.903 169.559 154.951 169.301 154.908 169.051C154.871 168.801 154.749 168.571 154.562 168.4C154.405 168.263 154.215 168.168 154.01 168.127C153.812 168.102 153.612 168.1 153.413 168.123Z" fill="#263238"/>
<path d="M268.616 183.952C268.616 184.006 233.141 184.051 189.387 184.051C145.633 184.051 110.15 184.006 110.15 183.952C110.15 183.899 145.618 183.854 189.387 183.854C233.156 183.854 268.616 183.895 268.616 183.952Z" fill="#263238"/>
<path d="M268.616 181.864C268.616 181.917 233.141 181.963 189.387 181.963C145.633 181.963 110.15 181.917 110.15 181.864C110.15 181.811 145.633 181.765 189.383 181.765C233.133 181.765 268.616 181.807 268.616 181.864Z" fill="#263238"/>
<path d="M147.832 74.9042C147.832 74.9042 147.604 74.8243 147.185 74.7292C146.592 74.6012 145.98 74.578 145.378 74.6608C144.484 74.78 143.641 75.1433 142.94 75.7108C142.084 76.4097 141.48 77.3688 141.22 78.4423V78.4727L141.171 78.6667L141.095 78.4841C140.676 77.4655 139.959 76.5978 139.036 75.9961C138.284 75.5055 137.418 75.2173 136.522 75.1591C135.918 75.1162 135.312 75.1714 134.726 75.3227C134.311 75.433 134.091 75.5281 134.087 75.5167C134.136 75.486 134.188 75.4605 134.243 75.4406C134.395 75.3751 134.552 75.3192 134.711 75.2733C135.443 75.058 136.213 75.0017 136.969 75.108C137.725 75.2143 138.449 75.4807 139.093 75.8896C140.042 76.4999 140.781 77.387 141.209 78.4309H141.083V78.4004C141.347 77.2994 141.97 76.3173 142.852 75.608C143.57 75.0303 144.436 74.6664 145.352 74.558C145.964 74.481 146.586 74.5184 147.185 74.6684C147.347 74.7091 147.506 74.7599 147.661 74.8205C147.779 74.8738 147.836 74.8966 147.832 74.9042Z" fill="#263238"/>
<path d="M165.91 64.9825C165.91 64.9825 165.781 64.9483 165.553 64.8988C165.227 64.8333 164.892 64.8243 164.563 64.8722C164.076 64.9386 163.616 65.1388 163.236 65.4505C162.77 65.8308 162.443 66.3534 162.304 66.938L162.25 67.132L162.178 66.9494C161.949 66.394 161.558 65.9206 161.056 65.5912C160.646 65.3236 160.175 65.1651 159.686 65.1309C159.357 65.1033 159.025 65.1302 158.705 65.2108C158.476 65.2679 158.355 65.3173 158.351 65.3059C158.347 65.2945 158.378 65.2831 158.435 65.2565C158.517 65.218 158.602 65.1862 158.689 65.1613C159.095 65.0367 159.523 65.0017 159.943 65.0588C160.364 65.116 160.767 65.2639 161.124 65.4923C161.652 65.8295 162.062 66.321 162.3 66.8999H162.174C162.321 66.2875 162.668 65.7415 163.16 65.3478C163.559 65.0278 164.04 64.8273 164.548 64.7695C164.888 64.732 165.233 64.7565 165.564 64.8418C165.652 64.8655 165.738 64.8948 165.823 64.9293C165.855 64.9421 165.884 64.9601 165.91 64.9825Z" fill="#263238"/>
<path d="M154.09 60.9234C154.09 60.9234 153.969 61.0642 153.744 61.3039C152.382 62.8508 151.632 64.8425 151.636 66.9039V66.9609H151.503C151.373 66.1149 151.097 65.2976 150.689 64.5452C150.127 63.5158 149.334 62.6304 148.372 61.9582C148.098 61.768 147.939 61.6729 147.942 61.6615C147.986 61.6742 148.027 61.6934 148.064 61.7185C148.179 61.7785 148.291 61.8445 148.399 61.9164C148.801 62.1718 149.174 62.4689 149.514 62.8028C150.019 63.3004 150.451 63.8679 150.796 64.4881C151.219 65.2496 151.502 66.0806 151.633 66.9419H151.503V66.8848C151.493 65.2864 151.949 63.7196 152.816 62.3767C153.076 61.9689 153.374 61.5868 153.706 61.2354C153.82 61.1098 153.923 61.0261 153.988 60.9653C154.052 60.9044 154.086 60.9196 154.09 60.9234Z" fill="#263238"/>
</g>
<defs>
<filter id="filter0_f_948_32" x="307.706" y="-278.095" width="465.367" height="791.464" filterUnits="userSpaceOnUse" color-interpolation-filters="sRGB">
<feFlood flood-opacity="0" result="BackgroundImageFix"/>
<feBlend mode="normal" in="SourceGraphic" in2="BackgroundImageFix" result="shape"/>
<feGaussianBlur stdDeviation="75" result="effect1_foregroundBlur_948_32"/>
</filter>
<filter id="filter1_f_948_32" x="368.218" y="73.8887" width="887.97" height="456.978" filterUnits="userSpaceOnUse" color-interpolation-filters="sRGB">
<feFlood flood-opacity="0" result="BackgroundImageFix"/>
<feBlend mode="normal" in="SourceGraphic" in2="BackgroundImageFix" result="shape"/>
<feGaussianBlur stdDeviation="75" result="effect1_foregroundBlur_948_32"/>
</filter>
<filter id="filter2_d_948_32" x="-4" y="0" width="394" height="417" filterUnits="userSpaceOnUse" color-interpolation-filters="sRGB">
<feFlood flood-opacity="0" result="BackgroundImageFix"/>
<feColorMatrix in="SourceAlpha" type="matrix" values="0 0 0 0 0 0 0 0 0 0 0 0 0 0 0 0 0 0 127 0" result="hardAlpha"/>
<feOffset dy="4"/>
<feGaussianBlur stdDeviation="2"/>
<feComposite in2="hardAlpha" operator="out"/>
<feColorMatrix type="matrix" values="0 0 0 0 0 0 0 0 0 0 0 0 0 0 0 0 0 0 0.25 0"/>
<feBlend mode="normal" in2="BackgroundImageFix" result="effect1_dropShadow_948_32"/>
<feBlend mode="normal" in="SourceGraphic" in2="effect1_dropShadow_948_32" result="shape"/>
</filter>
<clipPath id="clip0_948_32">
<rect width="1728" height="1851" fill="white" transform="translate(-581 -754)"/>
</clipPath>
</defs>
</svg>
