<svg width="10" height="11" viewBox="0 0 10 11" fill="none" xmlns="http://www.w3.org/2000/svg">
<path d="M0.708334 0.624985V10.375C0.708643 10.4737 0.735869 10.5705 0.78708 10.6549C0.838291 10.7392 0.911548 10.8081 0.998966 10.8539C1.08638 10.8998 1.18465 10.9209 1.2832 10.9151C1.38174 10.9092 1.47682 10.8766 1.55821 10.8208L8.83333 5.49999C9.12529 5.29795 9.1253 5.43174 8.83335 5.22916L1.55821 0.179735C1.47699 0.123307 1.38186 0.0902163 1.28315 0.0840581C1.18445 0.0778999 1.08594 0.0989099 0.998338 0.144805C0.910735 0.190701 0.837384 0.259726 0.786256 0.344382C0.735127 0.429039 0.708178 0.526088 0.708334 0.624985Z" fill="white"/>
</svg>
