<svg width="10" height="11" viewBox="0 0 10 11" fill="none" xmlns="http://www.w3.org/2000/svg">
<path d="M0.708273 0.624985V10.375C0.708582 10.4737 0.735808 10.5705 0.787019 10.6549C0.83823 10.7392 0.911487 10.8081 0.998905 10.8539C1.08632 10.8998 1.18459 10.9209 1.28313 10.9151C1.38168 10.9092 1.47676 10.8766 1.55815 10.8208L8.83327 5.49999C9.12523 5.29795 9.12524 5.43174 8.83329 5.22916L1.55815 0.179735C1.47693 0.123307 1.3818 0.0902163 1.28309 0.0840581C1.18439 0.0778999 1.08588 0.0989099 0.998277 0.144805C0.910674 0.190701 0.837323 0.259726 0.786195 0.344382C0.735066 0.429039 0.708117 0.526088 0.708273 0.624985Z" fill="white"/>
</svg>
