<svg width="10" height="11" viewBox="0 0 10 11" fill="none" xmlns="http://www.w3.org/2000/svg">
<path d="M0.708395 0.624985V10.375C0.708704 10.4737 0.73593 10.5705 0.787141 10.6549C0.838352 10.7392 0.911609 10.8081 0.999027 10.8539C1.08645 10.8998 1.18471 10.9209 1.28326 10.9151C1.3818 10.9092 1.47688 10.8766 1.55827 10.8208L8.83339 5.49999C9.12535 5.29795 9.12537 5.43174 8.83341 5.22916L1.55827 0.179735C1.47705 0.123307 1.38192 0.0902163 1.28321 0.0840581C1.18451 0.0778999 1.086 0.0989099 0.998399 0.144805C0.910796 0.190701 0.837445 0.259726 0.786317 0.344382C0.735188 0.429039 0.708239 0.526088 0.708395 0.624985Z" fill="white"/>
</svg>
