<svg width="10" height="11" viewBox="0 0 10 11" fill="none" xmlns="http://www.w3.org/2000/svg">
<path d="M0.708761 0.624985V10.375C0.70907 10.4737 0.736297 10.5705 0.787507 10.6549C0.838718 10.7392 0.911975 10.8081 0.999393 10.8539C1.08681 10.8998 1.18508 10.9209 1.28362 10.9151C1.38216 10.9092 1.47725 10.8766 1.55864 10.8208L8.83376 5.49999C9.12571 5.29795 9.12573 5.43174 8.83377 5.22916L1.55864 0.179735C1.47742 0.123307 1.38229 0.0902163 1.28358 0.0840581C1.18487 0.0778999 1.08637 0.0989099 0.998765 0.144805C0.911162 0.190701 0.837811 0.259726 0.786683 0.344382C0.735555 0.429039 0.708605 0.526088 0.708761 0.624985Z" fill="white"/>
</svg>
