<svg width="12" height="9" viewBox="0 0 12 9" fill="none" xmlns="http://www.w3.org/2000/svg">
<path opacity="0.8" d="M11.0464 0.244406L1.2964 0.244406C1.19769 0.244715 1.10093 0.27194 1.01653 0.323152C0.932143 0.374363 0.863317 0.447619 0.817462 0.535038C0.771607 0.622456 0.750463 0.720726 0.756304 0.819267C0.762145 0.917809 0.794749 1.01289 0.850609 1.09428L6.1714 8.3694C6.37344 8.66136 6.23965 8.66138 6.44223 8.36942L11.4917 1.09428C11.5481 1.01306 11.5812 0.917931 11.5873 0.819225C11.5935 0.720519 11.5725 0.622013 11.5266 0.53441C11.4807 0.446806 11.4117 0.373456 11.327 0.322328C11.2423 0.271199 11.1453 0.24425 11.0464 0.244406Z" fill="#332F20"/>
</svg>
