<svg width="26" height="25" viewBox="0 0 26 25" fill="none" xmlns="http://www.w3.org/2000/svg">
<path d="M12.5226 1.24115C12.8566 0.907578 13.3093 0.720215 13.7814 0.720215C14.2534 0.720215 14.7061 0.907578 15.0401 1.24115L25.1339 11.3349C25.4674 11.6689 25.6548 12.1216 25.6548 12.5936C25.6548 13.0657 25.4674 13.5184 25.1339 13.8524L15.0401 23.9461C14.7025 24.2612 14.2558 24.4328 13.7941 24.4248C13.3324 24.4168 12.8919 24.2299 12.5654 23.9034C12.2389 23.5769 12.0519 23.1363 12.0439 22.6747C12.036 22.213 12.2076 21.7662 12.5226 21.4286L19.5764 14.3749L1.90635 14.3749C1.43394 14.3749 0.980869 14.1872 0.64682 13.8532C0.312771 13.5191 0.125103 13.0661 0.125103 12.5936C0.125103 12.1212 0.312771 11.6682 0.64682 11.3341C0.980869 11.0001 1.43394 10.8124 1.90635 10.8124L19.5764 10.8124L12.5226 3.75865C12.189 3.42466 12.0017 2.97193 12.0017 2.4999C12.0017 2.02786 12.189 1.57513 12.5226 1.24115Z" fill="white"/>
</svg>
