<svg width="478" height="357" viewBox="0 0 478 357" fill="none" xmlns="http://www.w3.org/2000/svg">
<rect width="478" height="357" rx="27" fill="url(#paint0_linear_1757_51)"/>
<g filter="url(#filter0_d_1757_51)">
<rect x="28" y="41" width="208" height="40" rx="14" fill="#FFC6C6" shape-rendering="crispEdges"/>
<path d="M42.013 53.094H52.177L52.166 55.118H44.411V60.035H51.308V62.037H44.411V69H42.013V53.094ZM59.0197 69.22C57.9564 69.22 57.025 68.9927 56.2257 68.538C55.4337 68.076 54.8177 67.4087 54.3777 66.536C53.945 65.6633 53.7287 64.6073 53.7287 63.368C53.7287 62.1727 53.934 61.1277 54.3447 60.233C54.7627 59.3383 55.3677 58.6453 56.1597 58.154C56.9517 57.6553 57.9087 57.406 59.0307 57.406C60.1014 57.406 61.029 57.6407 61.8137 58.11C62.5984 58.572 63.207 59.2503 63.6397 60.145C64.0724 61.0323 64.2887 62.1067 64.2887 63.368C64.2887 64.5193 64.0834 65.535 63.6727 66.415C63.2694 67.295 62.6754 67.9843 61.8907 68.483C61.1134 68.9743 60.1564 69.22 59.0197 69.22ZM59.0307 67.405C59.676 67.405 60.215 67.2363 60.6477 66.899C61.0877 66.5543 61.4177 66.074 61.6377 65.458C61.8577 64.8347 61.9677 64.116 61.9677 63.302C61.9677 62.5467 61.8687 61.861 61.6707 61.245C61.48 60.6217 61.1684 60.1267 60.7357 59.76C60.303 59.3933 59.7347 59.21 59.0307 59.21C58.3707 59.21 57.8207 59.3787 57.3807 59.716C56.9407 60.046 56.607 60.519 56.3797 61.135C56.1597 61.7437 56.0497 62.466 56.0497 63.302C56.0497 64.0427 56.1487 64.7247 56.3467 65.348C56.5447 65.9713 56.8637 66.47 57.3037 66.844C57.7437 67.218 58.3194 67.405 59.0307 67.405ZM66.8177 69V57.626H69.0727V59.958C69.2633 59.4007 69.5273 58.935 69.8647 58.561C70.2093 58.1797 70.609 57.8937 71.0637 57.703C71.5183 57.505 71.9987 57.406 72.5047 57.406C72.6587 57.406 72.8053 57.417 72.9447 57.439C73.084 57.4537 73.194 57.483 73.2747 57.527V59.793C73.1793 59.749 73.0547 59.7197 72.9007 59.705C72.754 59.6903 72.6257 59.6793 72.5157 59.672C72.017 59.6353 71.5623 59.661 71.1517 59.749C70.741 59.837 70.3853 59.9837 70.0847 60.189C69.7913 60.3943 69.564 60.662 69.4027 60.992C69.2487 61.322 69.1717 61.7107 69.1717 62.158V69H66.8177ZM75.4544 69V57.626H77.7424V59.265C78.065 58.7663 78.505 58.3337 79.0624 57.967C79.6197 57.593 80.3384 57.406 81.2184 57.406C81.629 57.406 82.0434 57.4757 82.4614 57.615C82.8867 57.7543 83.2754 57.9633 83.6274 58.242C83.9867 58.5133 84.269 58.8507 84.4744 59.254C84.8337 58.7113 85.314 58.2677 85.9154 57.923C86.5167 57.5783 87.1914 57.406 87.9394 57.406C88.3427 57.406 88.7607 57.472 89.1934 57.604C89.626 57.7287 90.0257 57.945 90.3924 58.253C90.7664 58.5537 91.067 58.9717 91.2944 59.507C91.529 60.0423 91.6464 60.7207 91.6464 61.542V69H89.2814V61.795C89.2814 61.1717 89.175 60.684 88.9624 60.332C88.757 59.98 88.4857 59.7343 88.1484 59.595C87.8184 59.4483 87.4664 59.375 87.0924 59.375C86.755 59.375 86.403 59.441 86.0364 59.573C85.6697 59.705 85.358 59.925 85.1014 60.233C84.8447 60.541 84.7164 60.959 84.7164 61.487V69H82.3624V61.289C82.3624 60.871 82.2487 60.519 82.0214 60.233C81.8014 59.947 81.5227 59.7343 81.1854 59.595C80.8554 59.4483 80.5254 59.375 80.1954 59.375C79.8287 59.375 79.462 59.4483 79.0954 59.595C78.7287 59.7417 78.4207 59.9727 78.1714 60.288C77.9294 60.596 77.8084 60.9957 77.8084 61.487V69H75.4544ZM98.6695 69.22C98.0975 69.2127 97.5512 69.1283 97.0305 68.967C96.5099 68.8057 96.0442 68.5637 95.6335 68.241C95.2302 67.9183 94.9075 67.5187 94.6655 67.042C94.4309 66.5653 94.3135 66.0117 94.3135 65.381V57.626H96.6785V65.128C96.6785 65.81 96.8912 66.3637 97.3165 66.789C97.7419 67.2143 98.3835 67.427 99.2415 67.427C100.019 67.427 100.642 67.2253 101.112 66.822C101.581 66.4113 101.816 65.8137 101.816 65.029V57.626H104.159V69H102.333L102.069 66.8C101.937 67.394 101.698 67.8707 101.354 68.23C101.016 68.582 100.613 68.8387 100.144 69C99.6815 69.154 99.1902 69.2273 98.6695 69.22ZM110.396 69.154C109.721 69.154 109.178 69.066 108.768 68.89C108.364 68.714 108.056 68.4793 107.844 68.186C107.631 67.8853 107.488 67.548 107.415 67.174C107.349 66.7927 107.316 66.4003 107.316 65.997V52.654H109.637V65.755C109.637 66.283 109.739 66.6863 109.945 66.965C110.157 67.2437 110.48 67.4013 110.913 67.438L111.507 67.46V68.956C111.323 69.0147 111.133 69.0623 110.935 69.099C110.744 69.1357 110.564 69.154 110.396 69.154ZM117.101 69.22C116.368 69.22 115.715 69.088 115.143 68.824C114.579 68.56 114.135 68.1787 113.812 67.68C113.49 67.1813 113.328 66.58 113.328 65.876C113.328 64.6147 113.776 63.6723 114.67 63.049C115.565 62.4257 116.991 62.0957 118.949 62.059L120.819 62.004V61.179C120.819 60.5263 120.625 60.013 120.236 59.639C119.848 59.265 119.25 59.0817 118.443 59.089C117.835 59.089 117.292 59.2283 116.815 59.507C116.346 59.7857 116.038 60.244 115.891 60.882H113.845C113.889 60.1267 114.106 59.4923 114.494 58.979C114.89 58.4583 115.433 58.066 116.122 57.802C116.812 57.538 117.622 57.406 118.553 57.406C119.587 57.406 120.438 57.549 121.105 57.835C121.773 58.1137 122.268 58.5243 122.59 59.067C122.92 59.6097 123.085 60.2697 123.085 61.047V69H121.094L120.907 66.91C120.482 67.7827 119.943 68.3877 119.29 68.725C118.645 69.055 117.915 69.22 117.101 69.22ZM117.838 67.581C118.198 67.581 118.553 67.5187 118.905 67.394C119.257 67.262 119.576 67.086 119.862 66.866C120.148 66.6387 120.376 66.3857 120.544 66.107C120.72 65.8283 120.812 65.5423 120.819 65.249V63.368L119.279 63.401C118.495 63.4083 117.827 63.489 117.277 63.643C116.735 63.797 116.317 64.0353 116.023 64.358C115.737 64.6807 115.594 65.1097 115.594 65.645C115.594 66.2537 115.807 66.7303 116.232 67.075C116.658 67.4123 117.193 67.581 117.838 67.581ZM137.33 69.22C136.574 69.22 135.837 69.1247 135.119 68.934C134.4 68.7433 133.747 68.461 133.161 68.087C132.574 67.7057 132.086 67.2327 131.698 66.668C131.316 66.1033 131.078 65.4433 130.983 64.688H133.436C133.56 65.26 133.806 65.7403 134.173 66.129C134.547 66.5177 135.005 66.811 135.548 67.009C136.09 67.207 136.681 67.306 137.319 67.306C138.023 67.306 138.653 67.2107 139.211 67.02C139.775 66.822 140.223 66.5433 140.553 66.184C140.883 65.8173 141.048 65.3773 141.048 64.864C141.048 64.402 140.934 64.0097 140.707 63.687C140.487 63.3643 140.171 63.0967 139.761 62.884C139.357 62.664 138.87 62.4917 138.298 62.367L135.284 61.685C134.103 61.4357 133.172 60.9737 132.49 60.299C131.815 59.617 131.474 58.715 131.467 57.593C131.459 56.6543 131.705 55.833 132.204 55.129C132.71 54.425 133.399 53.8787 134.272 53.49C135.144 53.094 136.138 52.896 137.253 52.896C138.551 52.896 139.64 53.1123 140.52 53.545C141.407 53.9777 142.078 54.5497 142.533 55.261C142.987 55.965 143.218 56.7313 143.226 57.56H140.817C140.758 56.8853 140.56 56.35 140.223 55.954C139.885 55.558 139.46 55.2757 138.947 55.107C138.441 54.931 137.883 54.843 137.275 54.843C136.835 54.843 136.413 54.898 136.01 55.008C135.606 55.118 135.251 55.2793 134.943 55.492C134.635 55.7047 134.389 55.9687 134.206 56.284C134.03 56.592 133.942 56.9477 133.942 57.351C133.942 57.8937 134.125 58.3337 134.492 58.671C134.858 59.0083 135.533 59.298 136.516 59.54L139.464 60.211C140.307 60.387 140.989 60.6473 141.51 60.992C142.03 61.3293 142.43 61.7143 142.709 62.147C142.987 62.5797 143.178 63.0307 143.281 63.5C143.383 63.962 143.435 64.4057 143.435 64.831C143.435 65.6523 143.189 66.3967 142.698 67.064C142.206 67.724 141.506 68.2483 140.597 68.637C139.687 69.0257 138.598 69.22 137.33 69.22ZM152.084 59.32H149.532L149.543 66.107C149.543 66.481 149.58 66.756 149.653 66.932C149.734 67.1007 149.866 67.2107 150.049 67.262C150.24 67.306 150.496 67.328 150.819 67.328H152.15V68.857C152.003 68.9157 151.783 68.967 151.49 69.011C151.204 69.055 150.834 69.077 150.379 69.077C149.536 69.077 148.879 68.9633 148.41 68.736C147.948 68.5087 147.625 68.1823 147.442 67.757C147.266 67.3243 147.178 66.8037 147.178 66.195V59.32H145.33V57.626H147.244L147.827 54.282H149.532V57.615H152.084V59.32ZM158.933 69.22C158.361 69.2127 157.815 69.1283 157.294 68.967C156.774 68.8057 156.308 68.5637 155.897 68.241C155.494 67.9183 155.171 67.5187 154.929 67.042C154.695 66.5653 154.577 66.0117 154.577 65.381V57.626H156.942V65.128C156.942 65.81 157.155 66.3637 157.58 66.789C158.006 67.2143 158.647 67.427 159.505 67.427C160.283 67.427 160.906 67.2253 161.375 66.822C161.845 66.4113 162.079 65.8137 162.079 65.029V57.626H164.422V69H162.596L162.332 66.8C162.2 67.394 161.962 67.8707 161.617 68.23C161.28 68.582 160.877 68.8387 160.407 69C159.945 69.154 159.454 69.2273 158.933 69.22ZM171.597 69.22C170.101 69.22 168.924 68.7103 168.066 67.691C167.208 66.6643 166.779 65.1867 166.779 63.258C166.779 62.0773 166.952 61.0507 167.296 60.178C167.641 59.298 168.154 58.616 168.836 58.132C169.526 57.648 170.376 57.406 171.388 57.406C171.902 57.406 172.356 57.4683 172.752 57.593C173.156 57.7177 173.508 57.879 173.808 58.077C174.116 58.275 174.369 58.4877 174.567 58.715C174.773 58.9423 174.93 59.155 175.04 59.353V52.654H177.405V69H175.645L175.381 66.668C175.301 66.9173 175.176 67.1887 175.007 67.482C174.839 67.7753 174.608 68.054 174.314 68.318C174.028 68.582 173.662 68.7983 173.214 68.967C172.767 69.1357 172.228 69.22 171.597 69.22ZM172.048 67.449C173.104 67.449 173.867 67.119 174.336 66.459C174.806 65.7917 175.04 64.699 175.04 63.181C175.033 62.323 174.927 61.597 174.721 61.003C174.516 60.409 174.197 59.9617 173.764 59.661C173.339 59.353 172.778 59.199 172.081 59.199C171.209 59.199 170.497 59.5143 169.947 60.145C169.397 60.7683 169.122 61.7803 169.122 63.181C169.122 64.5597 169.372 65.6157 169.87 66.349C170.376 67.0823 171.102 67.449 172.048 67.449ZM182.381 63.863C182.381 64.545 182.491 65.1573 182.711 65.7C182.938 66.2353 183.279 66.6607 183.734 66.976C184.189 67.284 184.753 67.438 185.428 67.438C186.103 67.438 186.686 67.284 187.177 66.976C187.676 66.668 188.002 66.2097 188.156 65.601H190.334C190.202 66.3783 189.89 67.0383 189.399 67.581C188.915 68.1237 188.328 68.5343 187.639 68.813C186.95 69.0843 186.227 69.22 185.472 69.22C184.394 69.22 183.444 68.989 182.623 68.527C181.802 68.0577 181.16 67.3903 180.698 66.525C180.243 65.6597 180.016 64.6293 180.016 63.434C180.016 62.2533 180.225 61.212 180.643 60.31C181.061 59.4007 181.666 58.6893 182.458 58.176C183.25 57.6627 184.203 57.406 185.318 57.406C186.418 57.406 187.342 57.6407 188.09 58.11C188.845 58.5793 189.417 59.2393 189.806 60.09C190.195 60.9333 190.389 61.9307 190.389 63.082V63.863H182.381ZM182.381 62.334H188.145C188.145 61.74 188.042 61.201 187.837 60.717C187.632 60.2257 187.316 59.8407 186.891 59.562C186.473 59.276 185.945 59.133 185.307 59.133C184.654 59.133 184.112 59.2907 183.679 59.606C183.246 59.9213 182.92 60.3247 182.7 60.816C182.487 61.3073 182.381 61.8133 182.381 62.334ZM193.017 69V57.626H195.316V59.265C195.499 58.957 195.745 58.6673 196.053 58.396C196.368 58.1247 196.753 57.9047 197.208 57.736C197.67 57.5673 198.202 57.483 198.803 57.483C199.514 57.483 200.171 57.626 200.772 57.912C201.381 58.1907 201.868 58.6307 202.235 59.232C202.602 59.826 202.785 60.596 202.785 61.542V69H200.431V61.795C200.431 60.981 200.211 60.376 199.771 59.98C199.338 59.584 198.777 59.386 198.088 59.386C197.626 59.386 197.186 59.463 196.768 59.617C196.35 59.771 196.013 60.0057 195.756 60.321C195.499 60.629 195.371 61.0177 195.371 61.487V69H193.017ZM211.36 59.32H208.808L208.819 66.107C208.819 66.481 208.855 66.756 208.929 66.932C209.009 67.1007 209.141 67.2107 209.325 67.262C209.515 67.306 209.772 67.328 210.095 67.328H211.426V68.857C211.279 68.9157 211.059 68.967 210.766 69.011C210.48 69.055 210.109 69.077 209.655 69.077C208.811 69.077 208.155 68.9633 207.686 68.736C207.224 68.5087 206.901 68.1823 206.718 67.757C206.542 67.3243 206.454 66.8037 206.454 66.195V59.32H204.606V57.626H206.52L207.103 54.282H208.808V57.615H211.36V59.32ZM218.262 69.22C217.47 69.22 216.726 69.0953 216.029 68.846C215.34 68.5967 214.76 68.2043 214.291 67.669C213.829 67.1337 213.539 66.448 213.422 65.612H215.523C215.618 66.0447 215.798 66.404 216.062 66.69C216.333 66.9687 216.656 67.1777 217.03 67.317C217.411 67.449 217.818 67.515 218.251 67.515C218.97 67.515 219.549 67.3867 219.989 67.13C220.436 66.866 220.66 66.4627 220.66 65.92C220.66 65.5313 220.539 65.2197 220.297 64.985C220.062 64.7503 219.688 64.578 219.175 64.468L216.909 63.929C215.97 63.709 215.219 63.3607 214.654 62.884C214.089 62.4 213.803 61.7253 213.796 60.86C213.796 60.1927 213.961 59.5987 214.291 59.078C214.628 58.5573 215.127 58.1503 215.787 57.857C216.447 57.5563 217.268 57.406 218.251 57.406C219.534 57.406 220.565 57.692 221.342 58.264C222.119 58.836 222.523 59.6647 222.552 60.75H220.517C220.444 60.2293 220.205 59.8223 219.802 59.529C219.406 59.2283 218.882 59.078 218.229 59.078C217.554 59.078 217.001 59.2137 216.568 59.485C216.135 59.749 215.919 60.156 215.919 60.706C215.919 61.08 216.077 61.377 216.392 61.597C216.707 61.8097 217.18 61.9857 217.811 62.125L219.967 62.664C220.524 62.8107 220.983 63.005 221.342 63.247C221.701 63.4817 221.984 63.742 222.189 64.028C222.394 64.314 222.537 64.611 222.618 64.919C222.706 65.227 222.75 65.5167 222.75 65.788C222.75 66.5067 222.567 67.1227 222.2 67.636C221.841 68.142 221.324 68.5343 220.649 68.813C219.982 69.0843 219.186 69.22 218.262 69.22Z" fill="#665050" fill-opacity="0.8"/>
</g>
<path d="M34.138 114.18C33.526 114.18 32.932 114.105 32.356 113.955C31.78 113.799 31.258 113.568 30.79 113.262C30.322 112.956 29.932 112.578 29.62 112.128C29.314 111.672 29.122 111.144 29.044 110.544H30.79C30.898 111.036 31.111 111.45 31.429 111.786C31.753 112.122 32.146 112.374 32.608 112.542C33.076 112.71 33.583 112.794 34.129 112.794C34.741 112.794 35.287 112.71 35.767 112.542C36.253 112.368 36.634 112.122 36.91 111.804C37.192 111.486 37.333 111.105 37.333 110.661C37.333 110.271 37.243 109.932 37.063 109.644C36.889 109.356 36.634 109.116 36.298 108.924C35.962 108.732 35.554 108.582 35.074 108.474L32.518 107.88C31.558 107.67 30.805 107.295 30.259 106.755C29.719 106.215 29.443 105.501 29.431 104.613C29.431 103.863 29.629 103.203 30.025 102.633C30.427 102.063 30.976 101.619 31.672 101.301C32.374 100.983 33.175 100.824 34.075 100.824C35.113 100.824 35.986 101.001 36.694 101.355C37.402 101.709 37.936 102.174 38.296 102.75C38.656 103.326 38.839 103.941 38.845 104.595H37.126C37.072 104.007 36.898 103.542 36.604 103.2C36.316 102.852 35.953 102.606 35.515 102.462C35.077 102.312 34.6 102.237 34.084 102.237C33.712 102.237 33.352 102.285 33.004 102.381C32.662 102.471 32.353 102.609 32.077 102.795C31.807 102.981 31.591 103.212 31.429 103.488C31.267 103.764 31.186 104.085 31.186 104.451C31.186 104.919 31.345 105.3 31.663 105.594C31.987 105.888 32.572 106.14 33.418 106.35L35.893 106.944C36.541 107.082 37.069 107.286 37.477 107.556C37.891 107.826 38.209 108.132 38.431 108.474C38.659 108.816 38.815 109.173 38.899 109.545C38.989 109.917 39.034 110.283 39.034 110.643C39.034 111.297 38.839 111.894 38.449 112.434C38.059 112.968 37.498 113.394 36.766 113.712C36.04 114.024 35.164 114.18 34.138 114.18ZM41.5059 114V100.626H43.1259V106.062C43.2819 105.804 43.4919 105.564 43.7559 105.342C44.0199 105.114 44.3409 104.931 44.7189 104.793C45.0969 104.649 45.5349 104.577 46.0329 104.577C46.6389 104.577 47.1879 104.691 47.6799 104.919C48.1719 105.141 48.5619 105.459 48.8499 105.873C49.1379 106.287 49.2819 106.779 49.2819 107.349V114H47.6169V107.682C47.6169 107.124 47.4249 106.695 47.0409 106.395C46.6629 106.089 46.1679 105.936 45.5559 105.936C45.1419 105.936 44.7519 106.005 44.3859 106.143C44.0199 106.275 43.7229 106.479 43.4949 106.755C43.2729 107.025 43.1619 107.37 43.1619 107.79V114H41.5059ZM55.576 114.18C54.718 114.18 53.968 113.997 53.326 113.631C52.684 113.259 52.186 112.716 51.832 112.002C51.478 111.288 51.301 110.415 51.301 109.383C51.301 108.411 51.466 107.559 51.796 106.827C52.126 106.095 52.609 105.528 53.245 105.126C53.887 104.718 54.664 104.514 55.576 104.514C56.434 104.514 57.178 104.703 57.808 105.081C58.444 105.453 58.936 106.002 59.284 106.728C59.632 107.454 59.806 108.339 59.806 109.383C59.806 110.331 59.644 111.165 59.32 111.885C59.002 112.605 58.528 113.169 57.898 113.577C57.274 113.979 56.5 114.18 55.576 114.18ZM55.576 112.866C56.134 112.866 56.605 112.725 56.989 112.443C57.373 112.161 57.664 111.756 57.862 111.228C58.06 110.7 58.159 110.073 58.159 109.347C58.159 108.681 58.072 108.084 57.898 107.556C57.724 107.022 57.445 106.599 57.061 106.287C56.683 105.975 56.188 105.819 55.576 105.819C55.012 105.819 54.535 105.96 54.145 106.242C53.755 106.518 53.458 106.92 53.254 107.448C53.056 107.976 52.957 108.609 52.957 109.347C52.957 110.001 53.047 110.595 53.227 111.129C53.407 111.663 53.689 112.086 54.073 112.398C54.457 112.71 54.958 112.866 55.576 112.866ZM73.8904 104.694L71.0734 114H69.4354L67.3114 107.133L65.2954 114H63.6664L60.7954 104.694H62.3344L64.4674 111.849H64.6114L66.7084 104.694H67.9684L70.1464 111.831H70.2904L72.3334 104.694H73.8904ZM79.1573 104.514C79.8233 104.514 80.4233 104.643 80.9573 104.901C81.4913 105.153 81.9263 105.513 82.2623 105.981C82.6043 106.449 82.8173 107.001 82.9013 107.637H81.4253C81.3713 107.313 81.2453 107.016 81.0473 106.746C80.8553 106.476 80.6003 106.26 80.2823 106.098C79.9643 105.936 79.5923 105.855 79.1663 105.855C78.3683 105.855 77.7203 106.143 77.2223 106.719C76.7243 107.295 76.4753 108.177 76.4753 109.365C76.4753 110.439 76.7033 111.3 77.1593 111.948C77.6213 112.59 78.2993 112.911 79.1933 112.911C79.6193 112.911 79.9883 112.83 80.3003 112.668C80.6183 112.5 80.8733 112.281 81.0653 112.011C81.2573 111.735 81.3803 111.441 81.4343 111.129H82.8833C82.8053 111.753 82.5953 112.293 82.2533 112.749C81.9113 113.205 81.4733 113.559 80.9393 113.811C80.4113 114.057 79.8173 114.18 79.1573 114.18C78.3233 114.18 77.5823 113.997 76.9343 113.631C76.2923 113.265 75.7883 112.725 75.4223 112.011C75.0563 111.297 74.8733 110.421 74.8733 109.383C74.8733 108.411 75.0383 107.562 75.3683 106.836C75.7043 106.104 76.1903 105.534 76.8263 105.126C77.4683 104.718 78.2453 104.514 79.1573 104.514ZM87.6209 114.18C87.0209 114.18 86.4899 114.075 86.0279 113.865C85.5659 113.649 85.2029 113.34 84.9389 112.938C84.6809 112.536 84.5519 112.05 84.5519 111.48C84.5519 110.448 84.9119 109.68 85.6319 109.176C86.3519 108.672 87.5069 108.402 89.0969 108.366L90.7619 108.321V107.592C90.7619 107.022 90.5909 106.572 90.2489 106.242C89.9069 105.906 89.3759 105.738 88.6559 105.738C88.1219 105.744 87.6509 105.87 87.2429 106.116C86.8409 106.362 86.5799 106.764 86.4599 107.322H84.9929C85.0289 106.716 85.1999 106.206 85.5059 105.792C85.8119 105.372 86.2379 105.054 86.7839 104.838C87.3359 104.622 87.9869 104.514 88.7369 104.514C89.5469 104.514 90.2189 104.628 90.7529 104.856C91.2929 105.084 91.6949 105.42 91.9589 105.864C92.2289 106.308 92.3639 106.854 92.3639 107.502V114H90.9419L90.8249 112.254C90.4649 112.98 90.0059 113.484 89.4479 113.766C88.8959 114.042 88.2869 114.18 87.6209 114.18ZM88.1249 112.983C88.4369 112.983 88.7459 112.926 89.0519 112.812C89.3639 112.698 89.6489 112.545 89.9069 112.353C90.1649 112.155 90.3689 111.936 90.5189 111.696C90.6749 111.45 90.7559 111.198 90.7619 110.94V109.347L89.3759 109.374C88.6679 109.386 88.0739 109.458 87.5939 109.59C87.1199 109.722 86.7629 109.929 86.5229 110.211C86.2889 110.493 86.1719 110.862 86.1719 111.318C86.1719 111.84 86.3519 112.248 86.7119 112.542C87.0779 112.836 87.5489 112.983 88.1249 112.983ZM98.3695 114.18C97.7215 114.18 97.1185 114.081 96.5605 113.883C96.0085 113.679 95.5495 113.364 95.1835 112.938C94.8175 112.506 94.5865 111.957 94.4905 111.291H96.0025C96.0865 111.657 96.2365 111.963 96.4525 112.209C96.6745 112.449 96.9505 112.632 97.2805 112.758C97.6105 112.878 97.9705 112.938 98.3605 112.938C98.9845 112.938 99.4885 112.821 99.8725 112.587C100.256 112.353 100.448 111.993 100.448 111.507C100.448 111.165 100.346 110.892 100.142 110.688C99.9445 110.478 99.6355 110.325 99.2155 110.229L97.2895 109.752C96.5395 109.572 95.9395 109.29 95.4895 108.906C95.0395 108.522 94.8145 107.985 94.8145 107.295C94.8085 106.749 94.9375 106.269 95.2015 105.855C95.4655 105.441 95.8615 105.114 96.3895 104.874C96.9175 104.634 97.5745 104.514 98.3605 104.514C99.3685 104.514 100.181 104.742 100.799 105.198C101.423 105.648 101.747 106.311 101.771 107.187H100.304C100.244 106.743 100.043 106.392 99.7015 106.134C99.3655 105.87 98.9125 105.738 98.3425 105.738C97.7485 105.738 97.2655 105.858 96.8935 106.098C96.5215 106.332 96.3355 106.698 96.3355 107.196C96.3355 107.526 96.4675 107.787 96.7315 107.979C96.9955 108.165 97.3855 108.321 97.9015 108.447L99.7645 108.915C100.196 109.029 100.55 109.179 100.826 109.365C101.108 109.551 101.33 109.758 101.492 109.986C101.66 110.214 101.777 110.454 101.843 110.706C101.915 110.952 101.951 111.189 101.951 111.417C101.951 111.987 101.807 112.479 101.519 112.893C101.237 113.301 100.829 113.619 100.295 113.847C99.7675 114.069 99.1255 114.18 98.3695 114.18ZM105.465 109.734C105.465 110.322 105.561 110.856 105.753 111.336C105.951 111.81 106.248 112.188 106.644 112.47C107.046 112.752 107.547 112.893 108.147 112.893C108.741 112.893 109.251 112.755 109.677 112.479C110.109 112.203 110.385 111.804 110.505 111.282H112.08C111.966 111.912 111.714 112.443 111.324 112.875C110.934 113.307 110.463 113.634 109.911 113.856C109.359 114.072 108.783 114.18 108.183 114.18C107.313 114.18 106.548 113.991 105.888 113.613C105.228 113.235 104.712 112.692 104.34 111.984C103.968 111.276 103.782 110.427 103.782 109.437C103.782 108.459 103.95 107.601 104.286 106.863C104.622 106.125 105.108 105.549 105.744 105.135C106.386 104.721 107.157 104.514 108.057 104.514C108.933 104.514 109.674 104.703 110.28 105.081C110.886 105.459 111.345 105.993 111.657 106.683C111.975 107.367 112.134 108.18 112.134 109.122V109.734H105.465ZM105.474 108.609H110.532C110.532 108.075 110.442 107.595 110.262 107.169C110.082 106.737 109.806 106.398 109.434 106.152C109.068 105.9 108.606 105.774 108.048 105.774C107.466 105.774 106.983 105.915 106.599 106.197C106.221 106.473 105.936 106.83 105.744 107.268C105.558 107.7 105.468 108.147 105.474 108.609ZM121.766 114.18C121.118 114.18 120.515 114.081 119.957 113.883C119.405 113.679 118.946 113.364 118.58 112.938C118.214 112.506 117.983 111.957 117.887 111.291H119.399C119.483 111.657 119.633 111.963 119.849 112.209C120.071 112.449 120.347 112.632 120.677 112.758C121.007 112.878 121.367 112.938 121.757 112.938C122.381 112.938 122.885 112.821 123.269 112.587C123.653 112.353 123.845 111.993 123.845 111.507C123.845 111.165 123.743 110.892 123.539 110.688C123.341 110.478 123.032 110.325 122.612 110.229L120.686 109.752C119.936 109.572 119.336 109.29 118.886 108.906C118.436 108.522 118.211 107.985 118.211 107.295C118.205 106.749 118.334 106.269 118.598 105.855C118.862 105.441 119.258 105.114 119.786 104.874C120.314 104.634 120.971 104.514 121.757 104.514C122.765 104.514 123.578 104.742 124.196 105.198C124.82 105.648 125.144 106.311 125.168 107.187H123.701C123.641 106.743 123.44 106.392 123.098 106.134C122.762 105.87 122.309 105.738 121.739 105.738C121.145 105.738 120.662 105.858 120.29 106.098C119.918 106.332 119.732 106.698 119.732 107.196C119.732 107.526 119.864 107.787 120.128 107.979C120.392 108.165 120.782 108.321 121.298 108.447L123.161 108.915C123.593 109.029 123.947 109.179 124.223 109.365C124.505 109.551 124.727 109.758 124.889 109.986C125.057 110.214 125.174 110.454 125.24 110.706C125.312 110.952 125.348 111.189 125.348 111.417C125.348 111.987 125.204 112.479 124.916 112.893C124.634 113.301 124.226 113.619 123.692 113.847C123.164 114.069 122.522 114.18 121.766 114.18ZM135.846 114H134.082L131.166 109.329L129.33 111.228V114H127.674V100.626H129.33V109.347L133.704 104.694H135.612L132.255 108.24L135.846 114ZM139.634 104.694V114H138.023V104.694H139.634ZM139.67 100.995V102.723H137.969V100.995H139.67ZM145.017 114.117C144.513 114.117 144.105 114.048 143.793 113.91C143.487 113.772 143.25 113.586 143.082 113.352C142.92 113.118 142.809 112.851 142.749 112.551C142.695 112.245 142.668 111.93 142.668 111.606V100.626H144.306V111.444C144.306 111.912 144.396 112.263 144.576 112.497C144.762 112.731 145.02 112.86 145.35 112.884L145.854 112.893V113.973C145.716 114.015 145.572 114.048 145.422 114.072C145.272 114.102 145.137 114.117 145.017 114.117ZM150.115 114.117C149.611 114.117 149.203 114.048 148.891 113.91C148.585 113.772 148.348 113.586 148.18 113.352C148.018 113.118 147.907 112.851 147.847 112.551C147.793 112.245 147.766 111.93 147.766 111.606V100.626H149.404V111.444C149.404 111.912 149.494 112.263 149.674 112.497C149.86 112.731 150.118 112.86 150.448 112.884L150.952 112.893V113.973C150.814 114.015 150.67 114.048 150.52 114.072C150.37 114.102 150.235 114.117 150.115 114.117ZM156.166 114.18C155.518 114.18 154.915 114.081 154.357 113.883C153.805 113.679 153.346 113.364 152.98 112.938C152.614 112.506 152.383 111.957 152.287 111.291H153.799C153.883 111.657 154.033 111.963 154.249 112.209C154.471 112.449 154.747 112.632 155.077 112.758C155.407 112.878 155.767 112.938 156.157 112.938C156.781 112.938 157.285 112.821 157.669 112.587C158.053 112.353 158.245 111.993 158.245 111.507C158.245 111.165 158.143 110.892 157.939 110.688C157.741 110.478 157.432 110.325 157.012 110.229L155.086 109.752C154.336 109.572 153.736 109.29 153.286 108.906C152.836 108.522 152.611 107.985 152.611 107.295C152.605 106.749 152.734 106.269 152.998 105.855C153.262 105.441 153.658 105.114 154.186 104.874C154.714 104.634 155.371 104.514 156.157 104.514C157.165 104.514 157.978 104.742 158.596 105.198C159.22 105.648 159.544 106.311 159.568 107.187H158.101C158.041 106.743 157.84 106.392 157.498 106.134C157.162 105.87 156.709 105.738 156.139 105.738C155.545 105.738 155.062 105.858 154.69 106.098C154.318 106.332 154.132 106.698 154.132 107.196C154.132 107.526 154.264 107.787 154.528 107.979C154.792 108.165 155.182 108.321 155.698 108.447L157.561 108.915C157.993 109.029 158.347 109.179 158.623 109.365C158.905 109.551 159.127 109.758 159.289 109.986C159.457 110.214 159.574 110.454 159.64 110.706C159.712 110.952 159.748 111.189 159.748 111.417C159.748 111.987 159.604 112.479 159.316 112.893C159.034 113.301 158.626 113.619 158.092 113.847C157.564 114.069 156.922 114.18 156.166 114.18ZM161.48 116.259L162.488 114.036L161.705 113.991V112.002H163.784V113.73L162.254 116.259H161.48ZM175.205 105.909H173.108V111.696C173.108 112.026 173.141 112.269 173.207 112.425C173.279 112.575 173.396 112.671 173.558 112.713C173.726 112.755 173.954 112.776 174.242 112.776H175.259V113.892C175.145 113.934 174.971 113.97 174.737 114C174.509 114.03 174.224 114.045 173.882 114.045C173.24 114.045 172.742 113.958 172.388 113.784C172.034 113.61 171.785 113.352 171.641 113.01C171.503 112.668 171.434 112.248 171.434 111.75V105.909H169.922V104.694H171.479L171.884 101.985H173.108V104.685H175.205V105.909ZM180.117 114.18C179.517 114.18 178.986 114.075 178.524 113.865C178.062 113.649 177.699 113.34 177.435 112.938C177.177 112.536 177.048 112.05 177.048 111.48C177.048 110.448 177.408 109.68 178.128 109.176C178.848 108.672 180.003 108.402 181.593 108.366L183.258 108.321V107.592C183.258 107.022 183.087 106.572 182.745 106.242C182.403 105.906 181.872 105.738 181.152 105.738C180.618 105.744 180.147 105.87 179.739 106.116C179.337 106.362 179.076 106.764 178.956 107.322H177.489C177.525 106.716 177.696 106.206 178.002 105.792C178.308 105.372 178.734 105.054 179.28 104.838C179.832 104.622 180.483 104.514 181.233 104.514C182.043 104.514 182.715 104.628 183.249 104.856C183.789 105.084 184.191 105.42 184.455 105.864C184.725 106.308 184.86 106.854 184.86 107.502V114H183.438L183.321 112.254C182.961 112.98 182.502 113.484 181.944 113.766C181.392 114.042 180.783 114.18 180.117 114.18ZM180.621 112.983C180.933 112.983 181.242 112.926 181.548 112.812C181.86 112.698 182.145 112.545 182.403 112.353C182.661 112.155 182.865 111.936 183.015 111.696C183.171 111.45 183.252 111.198 183.258 110.94V109.347L181.872 109.374C181.164 109.386 180.57 109.458 180.09 109.59C179.616 109.722 179.259 109.929 179.019 110.211C178.785 110.493 178.668 110.862 178.668 111.318C178.668 111.84 178.848 112.248 179.208 112.542C179.574 112.836 180.045 112.983 180.621 112.983ZM190.052 114.117C189.548 114.117 189.14 114.048 188.828 113.91C188.522 113.772 188.285 113.586 188.117 113.352C187.955 113.118 187.844 112.851 187.784 112.551C187.73 112.245 187.703 111.93 187.703 111.606V100.626H189.341V111.444C189.341 111.912 189.431 112.263 189.611 112.497C189.797 112.731 190.055 112.86 190.385 112.884L190.889 112.893V113.973C190.751 114.015 190.607 114.048 190.457 114.072C190.307 114.102 190.172 114.117 190.052 114.117ZM194.112 109.734C194.112 110.322 194.208 110.856 194.4 111.336C194.598 111.81 194.895 112.188 195.291 112.47C195.693 112.752 196.194 112.893 196.794 112.893C197.388 112.893 197.898 112.755 198.324 112.479C198.756 112.203 199.032 111.804 199.152 111.282H200.727C200.613 111.912 200.361 112.443 199.971 112.875C199.581 113.307 199.11 113.634 198.558 113.856C198.006 114.072 197.43 114.18 196.83 114.18C195.96 114.18 195.195 113.991 194.535 113.613C193.875 113.235 193.359 112.692 192.987 111.984C192.615 111.276 192.429 110.427 192.429 109.437C192.429 108.459 192.597 107.601 192.933 106.863C193.269 106.125 193.755 105.549 194.391 105.135C195.033 104.721 195.804 104.514 196.704 104.514C197.58 104.514 198.321 104.703 198.927 105.081C199.533 105.459 199.992 105.993 200.304 106.683C200.622 107.367 200.781 108.18 200.781 109.122V109.734H194.112ZM194.121 108.609H199.179C199.179 108.075 199.089 107.595 198.909 107.169C198.729 106.737 198.453 106.398 198.081 106.152C197.715 105.9 197.253 105.774 196.695 105.774C196.113 105.774 195.63 105.915 195.246 106.197C194.868 106.473 194.583 106.83 194.391 107.268C194.205 107.7 194.115 108.147 194.121 108.609ZM203.066 114V104.694H204.677V106.044C204.827 105.786 205.034 105.543 205.298 105.315C205.568 105.087 205.892 104.904 206.27 104.766C206.654 104.628 207.095 104.559 207.593 104.559C208.181 104.559 208.721 104.676 209.213 104.91C209.711 105.144 210.107 105.51 210.401 106.008C210.701 106.5 210.851 107.136 210.851 107.916V114H209.186V108.078C209.186 107.352 208.994 106.815 208.61 106.467C208.232 106.113 207.74 105.936 207.134 105.936C206.714 105.936 206.321 106.005 205.955 106.143C205.589 106.275 205.292 106.479 205.064 106.755C204.836 107.025 204.722 107.367 204.722 107.781V114H203.066ZM217.744 105.909H215.647V111.696C215.647 112.026 215.68 112.269 215.746 112.425C215.818 112.575 215.935 112.671 216.097 112.713C216.265 112.755 216.493 112.776 216.781 112.776H217.798V113.892C217.684 113.934 217.51 113.97 217.276 114C217.048 114.03 216.763 114.045 216.421 114.045C215.779 114.045 215.281 113.958 214.927 113.784C214.573 113.61 214.324 113.352 214.18 113.01C214.042 112.668 213.973 112.248 213.973 111.75V105.909H212.461V104.694H214.018L214.423 101.985H215.647V104.685H217.744V105.909Z" fill="white"/>
<rect x="28" y="286" width="151" height="38" rx="12" fill="white"/>
<path d="M68.9395 306.512C68.9395 307.487 68.7808 308.322 68.4635 309.019C68.1462 309.711 67.639 310.243 66.942 310.617C66.2507 310.986 65.3383 311.17 64.205 311.17C63.0717 311.17 62.1565 310.983 61.4595 310.609C60.7682 310.229 60.2667 309.685 59.955 308.977C59.6433 308.263 59.4875 307.402 59.4875 306.393V298.709H61.604V306.605C61.604 307.557 61.8363 308.26 62.301 308.713C62.7713 309.167 63.406 309.393 64.205 309.393C64.7433 309.393 65.2108 309.294 65.6075 309.096C66.0042 308.898 66.3102 308.594 66.5255 308.186C66.7408 307.773 66.8485 307.246 66.8485 306.605V298.709H68.9395V306.512ZM71.3087 313.737V302.211H73.3742L73.3912 303.596C73.5046 303.404 73.6491 303.214 73.8247 303.027C74.0061 302.84 74.2129 302.673 74.4452 302.525C74.6832 302.378 74.9467 302.262 75.2357 302.177C75.5247 302.086 75.8421 302.041 76.1877 302.041C76.8621 302.041 77.4599 302.202 77.9812 302.525C78.5026 302.843 78.9106 303.333 79.2052 303.996C79.5056 304.659 79.6557 305.498 79.6557 306.512C79.6557 307.549 79.5027 308.413 79.1967 309.104C78.8907 309.796 78.4629 310.314 77.9132 310.66C77.3636 311 76.7261 311.17 76.0007 311.17C75.6664 311.17 75.3604 311.125 75.0827 311.034C74.8107 310.943 74.5671 310.819 74.3517 310.66C74.1364 310.501 73.9466 310.328 73.7822 310.141C73.6236 309.954 73.4904 309.759 73.3827 309.555V313.737H71.3087ZM75.5417 309.623C76.1651 309.623 76.6807 309.376 77.0887 308.883C77.4967 308.385 77.7007 307.606 77.7007 306.546C77.7007 305.628 77.5081 304.905 77.1227 304.378C76.7431 303.846 76.2161 303.579 75.5417 303.579C74.8164 303.579 74.2724 303.86 73.9097 304.421C73.5471 304.976 73.3657 305.685 73.3657 306.546C73.3657 307.101 73.4451 307.614 73.6037 308.084C73.7681 308.549 74.0089 308.923 74.3262 309.206C74.6492 309.484 75.0544 309.623 75.5417 309.623ZM85.132 302.041C85.8177 302.041 86.4212 302.177 86.9425 302.449C87.4638 302.721 87.8803 303.098 88.192 303.579C88.5093 304.061 88.6992 304.608 88.7615 305.22H86.9935C86.9538 304.954 86.8575 304.701 86.7045 304.463C86.5515 304.22 86.3447 304.024 86.084 303.877C85.8233 303.724 85.5088 303.647 85.1405 303.647C84.4832 303.647 83.9477 303.891 83.534 304.378C83.126 304.866 82.922 305.614 82.922 306.622C82.922 307.552 83.1175 308.291 83.5085 308.841C83.8995 309.391 84.4577 309.665 85.183 309.665C85.5457 309.665 85.8545 309.586 86.1095 309.427C86.3702 309.263 86.5742 309.062 86.7215 308.824C86.8745 308.58 86.9737 308.337 87.019 308.093H88.736C88.685 308.688 88.498 309.218 88.175 309.682C87.8577 310.147 87.4383 310.513 86.917 310.779C86.4013 311.04 85.8063 311.17 85.132 311.17C84.3273 311.17 83.6105 310.994 82.9815 310.643C82.3582 310.286 81.868 309.77 81.511 309.096C81.154 308.416 80.9755 307.597 80.9755 306.639C80.9755 305.727 81.1427 304.928 81.477 304.242C81.8113 303.551 82.2902 303.013 82.9135 302.627C83.5368 302.236 84.2763 302.041 85.132 302.041ZM94.3127 311.17C93.474 311.17 92.743 310.992 92.1197 310.634C91.4963 310.272 91.0118 309.753 90.6662 309.079C90.3262 308.405 90.1562 307.594 90.1562 306.648C90.1562 305.73 90.3205 304.925 90.6492 304.234C90.9835 303.543 91.4623 303.004 92.0857 302.619C92.709 302.234 93.4542 302.041 94.3212 302.041C95.1598 302.041 95.888 302.225 96.5057 302.593C97.1233 302.962 97.5993 303.489 97.9337 304.174C98.2737 304.86 98.4437 305.685 98.4437 306.648C98.4437 307.538 98.2822 308.322 97.9592 309.002C97.6418 309.677 97.1743 310.207 96.5567 310.592C95.9447 310.977 95.1967 311.17 94.3127 311.17ZM94.3212 309.597C94.7972 309.597 95.1882 309.467 95.4942 309.206C95.8058 308.946 96.0353 308.589 96.1827 308.135C96.3357 307.682 96.4122 307.166 96.4122 306.588C96.4122 306.05 96.3442 305.554 96.2082 305.101C96.0778 304.648 95.8568 304.285 95.5452 304.013C95.2392 303.735 94.8312 303.596 94.3212 303.596C93.8395 303.596 93.44 303.724 93.1227 303.979C92.811 304.228 92.5758 304.58 92.4172 305.033C92.2642 305.481 92.1877 305.999 92.1877 306.588C92.1877 307.121 92.2557 307.617 92.3917 308.076C92.5333 308.529 92.76 308.898 93.0717 309.181C93.3833 309.459 93.7998 309.597 94.3212 309.597ZM100.278 311V302.211H102.293V303.469C102.548 303.084 102.894 302.749 103.33 302.466C103.772 302.183 104.333 302.041 105.013 302.041C105.325 302.041 105.639 302.095 105.956 302.202C106.279 302.31 106.577 302.469 106.849 302.678C107.127 302.888 107.348 303.149 107.512 303.46C107.79 303.047 108.158 302.707 108.617 302.44C109.082 302.174 109.603 302.041 110.181 302.041C110.498 302.041 110.824 302.092 111.158 302.194C111.498 302.296 111.81 302.466 112.093 302.704C112.377 302.942 112.606 303.268 112.782 303.681C112.958 304.089 113.045 304.602 113.045 305.22V311H110.98V305.466C110.98 305.03 110.903 304.687 110.75 304.438C110.597 304.189 110.399 304.013 110.155 303.911C109.917 303.803 109.662 303.749 109.39 303.749C109.147 303.749 108.892 303.798 108.625 303.894C108.365 303.99 108.141 304.149 107.954 304.37C107.773 304.591 107.682 304.888 107.682 305.262V311H105.616V305.135C105.616 304.829 105.537 304.574 105.378 304.37C105.22 304.166 105.019 304.013 104.775 303.911C104.537 303.803 104.293 303.749 104.044 303.749C103.789 303.749 103.528 303.803 103.262 303.911C103.001 304.019 102.783 304.183 102.607 304.404C102.432 304.625 102.344 304.911 102.344 305.262V311H100.278ZM117.403 302.211V311H115.414V302.211H117.403ZM117.429 298.717V300.672H115.38V298.717H117.429ZM119.985 311V302.211H122.008V303.469C122.144 303.242 122.328 303.024 122.56 302.814C122.798 302.605 123.09 302.435 123.436 302.304C123.781 302.174 124.186 302.109 124.651 302.109C125.195 302.109 125.699 302.217 126.164 302.432C126.634 302.647 127.011 302.984 127.295 303.443C127.584 303.902 127.728 304.495 127.728 305.22V311H125.654V305.466C125.654 304.888 125.495 304.461 125.178 304.183C124.861 303.9 124.461 303.758 123.98 303.758C123.651 303.758 123.339 303.815 123.045 303.928C122.75 304.036 122.509 304.203 122.322 304.429C122.141 304.65 122.05 304.928 122.05 305.262V311H119.985ZM133.847 313.907C132.368 313.907 131.232 313.709 130.438 313.312C129.645 312.915 129.248 312.371 129.248 311.68C129.248 311.368 129.325 311.108 129.478 310.898C129.631 310.688 129.812 310.515 130.022 310.379C130.232 310.243 130.424 310.139 130.6 310.065C130.776 309.991 130.889 309.937 130.94 309.903C130.844 309.847 130.716 309.773 130.557 309.682C130.399 309.592 130.254 309.467 130.124 309.308C129.999 309.15 129.937 308.943 129.937 308.688C129.937 308.393 130.076 308.121 130.353 307.872C130.637 307.623 131.059 307.444 131.62 307.336C131.07 307.07 130.648 306.71 130.353 306.257C130.059 305.804 129.911 305.333 129.911 304.846C129.911 304.268 130.079 303.772 130.413 303.358C130.753 302.945 131.223 302.627 131.824 302.406C132.43 302.185 133.13 302.075 133.923 302.075C134.513 302.075 135 302.14 135.385 302.27C135.771 302.401 136.131 302.576 136.465 302.797C136.578 302.752 136.737 302.69 136.941 302.61C137.151 302.525 137.377 302.435 137.621 302.338C137.865 302.236 138.097 302.14 138.318 302.049C138.545 301.953 138.737 301.874 138.896 301.811L138.879 303.52L137.357 303.792C137.431 303.956 137.488 304.135 137.527 304.327C137.573 304.52 137.595 304.69 137.595 304.837C137.595 305.347 137.451 305.821 137.162 306.257C136.879 306.688 136.451 307.033 135.878 307.294C135.312 307.555 134.603 307.685 133.753 307.685C133.668 307.685 133.552 307.682 133.405 307.676C133.258 307.671 133.139 307.665 133.048 307.659C132.589 307.676 132.274 307.73 132.104 307.821C131.934 307.912 131.849 308.011 131.849 308.118C131.849 308.271 131.977 308.373 132.232 308.424C132.487 308.475 132.895 308.521 133.456 308.56C133.654 308.572 133.915 308.586 134.238 308.603C134.561 308.62 134.921 308.643 135.317 308.671C136.32 308.733 137.08 308.985 137.595 309.427C138.111 309.864 138.369 310.43 138.369 311.128C138.369 311.938 137.995 312.604 137.247 313.125C136.499 313.646 135.366 313.907 133.847 313.907ZM134.195 312.692C134.938 312.692 135.487 312.59 135.844 312.386C136.201 312.182 136.38 311.881 136.38 311.485C136.38 311.179 136.258 310.929 136.014 310.736C135.771 310.544 135.408 310.43 134.926 310.396L132.708 310.26C132.464 310.243 132.232 310.289 132.011 310.396C131.796 310.498 131.62 310.643 131.484 310.83C131.348 311.011 131.28 311.213 131.28 311.434C131.28 311.847 131.518 312.159 131.994 312.369C132.47 312.584 133.204 312.692 134.195 312.692ZM133.821 306.469C134.36 306.469 134.796 306.333 135.13 306.061C135.465 305.784 135.632 305.393 135.632 304.888C135.632 304.367 135.465 303.962 135.13 303.673C134.796 303.378 134.36 303.231 133.821 303.231C133.272 303.231 132.827 303.378 132.487 303.673C132.153 303.968 131.985 304.373 131.985 304.888C131.985 305.376 132.147 305.761 132.47 306.044C132.793 306.328 133.243 306.469 133.821 306.469ZM140.265 311V308.62H142.602V311H140.265ZM145.212 311V308.62H147.55V311H145.212Z" fill="#728F62"/>
<defs>
<filter id="filter0_d_1757_51" x="14.1" y="30.1" width="235.8" height="67.8" filterUnits="userSpaceOnUse" color-interpolation-filters="sRGB">
<feFlood flood-opacity="0" result="BackgroundImageFix"/>
<feColorMatrix in="SourceAlpha" type="matrix" values="0 0 0 0 0 0 0 0 0 0 0 0 0 0 0 0 0 0 127 0" result="hardAlpha"/>
<feOffset dy="3"/>
<feGaussianBlur stdDeviation="6.95"/>
<feComposite in2="hardAlpha" operator="out"/>
<feColorMatrix type="matrix" values="0 0 0 0 1 0 0 0 0 1 0 0 0 0 1 0 0 0 0.25 0"/>
<feBlend mode="normal" in2="BackgroundImageFix" result="effect1_dropShadow_1757_51"/>
<feBlend mode="normal" in="SourceGraphic" in2="effect1_dropShadow_1757_51" result="shape"/>
</filter>
<linearGradient id="paint0_linear_1757_51" x1="463.5" y1="345.5" x2="6.99997" y2="8.49997" gradientUnits="userSpaceOnUse">
<stop stop-color="#D79B93"/>
<stop offset="0.189928" stop-color="#C48686"/>
<stop offset="0.436331" stop-color="#AA7575"/>
<stop offset="0.643752" stop-color="#956666"/>
<stop offset="0.777974" stop-color="#885D5D"/>
<stop offset="1" stop-color="#974F4F"/>
</linearGradient>
</defs>
</svg>
